<svg version="1.1" id="Layer_1" xmlns="http://www.w3.org/2000/svg" xmlns:xlink="http://www.w3.org/1999/xlink" x="0px" y="0px"
	 width="100%" viewBox="0 0 65 64" enable-background="new 0 0 65 64" xml:space="preserve">
<path fill="#069DDB" opacity="1.000000" stroke="none" 
	d="
M66.000000,32.000000 
	C66.000000,32.000000 66.000000,32.500000 65.531937,32.759605 
	C59.329670,33.039566 53.595478,33.059921 47.623207,32.852272 
	C42.854996,28.077995 38.324863,23.531725 34.248367,19.440706 
	C29.201710,24.190258 24.503614,28.611769 19.349907,33.030540 
	C13.223745,33.372730 7.553193,33.717663 1.661079,34.059658 
	C1.439517,34.056721 1.000000,34.000000 1.000000,34.000000 
	C1.000000,33.555664 1.000000,33.111328 1.324434,32.242676 
	C11.765912,21.545576 21.882956,11.272788 32.000000,1.000000 
	C32.750000,1.000000 33.500000,1.000000 34.715820,1.324435 
	C45.454426,11.765913 55.727211,21.882957 66.000000,32.000000 
z"/>
<path fill="#0577BF" opacity="1.000000" stroke="none" 
	d="
M1.882641,34.062595 
	C7.553193,33.717663 13.223745,33.372730 19.496367,33.336555 
	C24.519827,38.140644 28.941219,42.635979 33.298763,47.066391 
	C38.321091,42.242859 43.091190,37.661575 47.861286,33.080284 
	C53.595478,33.059921 59.329670,33.039566 65.531937,33.009605 
	C66.000000,33.000000 66.000000,33.500000 65.673271,33.834202 
	C55.231026,44.445602 45.115513,54.722801 35.000000,65.000000 
	C34.250000,65.000000 33.500000,65.000000 32.288258,64.674103 
	C21.845222,54.253002 11.863932,44.157799 1.882641,34.062595 
z"/>
<path fill="#075985" opacity="1.000000" stroke="none" 
	d="
M31.531342,1.000000 
	C21.882956,11.272788 11.765912,21.545576 1.324434,31.909182 
	C1.000000,21.740147 1.000000,11.480293 1.000000,1.000000 
	C11.019819,1.000000 21.041252,1.000000 31.531342,1.000000 
z"/>
<path fill="#075985" opacity="1.000000" stroke="none" 
	d="
M66.000000,31.531342 
	C55.727211,21.882957 45.454426,11.765913 35.090820,1.324435 
	C45.259853,1.000000 55.519711,1.000000 66.000000,1.000000 
	C66.000000,11.019819 66.000000,21.041252 66.000000,31.531342 
z"/>
<path fill="#075985" opacity="1.000000" stroke="none" 
	d="
M1.661079,34.059658 
	C11.863932,44.157799 21.845222,54.253002 31.913258,64.674103 
	C21.740145,65.000000 11.480290,65.000000 1.000000,65.000000 
	C1.000000,54.980183 1.000000,44.958748 1.000000,34.468658 
	C1.000000,34.000000 1.439517,34.056721 1.661079,34.059658 
z"/>
<path fill="#075985" opacity="1.000000" stroke="none" 
	d="
M35.468658,65.000000 
	C45.115513,54.722801 55.231026,44.445602 65.673271,34.084202 
	C66.000000,44.259853 66.000000,54.519711 66.000000,65.000000 
	C55.980183,65.000000 45.958748,65.000000 35.468658,65.000000 
z"/>
<path fill="#EF4042" opacity="1.000000" stroke="none" 
	d="
M47.623211,32.852276 
	C43.091190,37.661575 38.321091,42.242859 33.298763,47.066391 
	C28.941219,42.635979 24.519827,38.140644 19.951977,33.339294 
	C24.503614,28.611769 29.201710,24.190258 34.248367,19.440706 
	C38.324863,23.531725 42.854996,28.077995 47.623211,32.852276 
z"/>
</svg>