<svg width="415" height="180" viewBox="0 0 415 180" fill="none" xmlns="http://www.w3.org/2000/svg">
<g opacity="0.8" clip-path="url(#clip0_86_631)">
<path d="M396.185 134.545C395.726 134.545 395.726 134.545 395.726 135C395.267 135 395.267 135 394.808 135.454C394.349 135.454 394.349 135.909 393.891 135.909C391.137 135.909 388.843 137.727 386.09 138.182C381.042 138.182 376.912 140 372.782 141.818C369.57 142.273 366.358 142.727 363.605 144.545C363.605 144.545 363.605 144.545 364.064 144.545C363.605 144.545 363.146 144.545 362.687 144.545C361.769 144.545 360.393 144.545 359.934 143.636C359.934 143.636 359.934 143.636 360.393 143.182C362.687 141.364 366.817 142.727 367.735 139.091C367.735 139.091 367.735 139.091 368.193 139.091C370.488 140.909 372.323 138.636 374.618 137.273C375.077 137.273 375.994 136.818 376.453 136.364C378.289 136.364 379.665 135.454 380.583 134.545C382.419 134.091 384.713 134.091 384.713 131.364C384.713 130.454 385.631 131.364 386.09 131.364C388.843 133.182 388.384 130.454 388.843 129.545C389.761 129.545 390.22 130.454 391.137 129.545C392.055 128.636 393.432 127.727 394.349 126.818C394.808 125.909 396.185 126.818 397.103 125.909C398.02 125.454 398.938 125.454 399.856 125.454C400.315 125.454 400.315 124.545 400.774 124.545C403.527 123.636 405.821 122.727 408.116 121.818C409.034 121.364 409.951 120.909 410.869 120.909C411.328 120.909 411.787 120.454 411.328 120C410.869 120 410.41 120 409.951 120C409.951 119.091 411.328 118.636 411.787 118.182C412.246 118.182 412.246 118.182 412.704 117.727C413.622 117.273 414.54 116.818 414.54 115.454C413.622 114.091 412.704 114.545 411.787 114.091C411.328 114.091 411.328 114.091 410.869 114.091C410.869 113.182 410.869 112.273 410.869 111.364C411.328 111.364 411.787 110.909 411.787 110.454C411.328 110 410.41 110 409.951 109.545C409.492 109.545 409.492 109.091 409.033 109.091C408.575 109.091 408.116 109.545 407.657 109.545C406.739 108.636 406.739 107.727 406.28 106.364C407.198 105.909 407.198 105 406.739 104.091C407.198 102.727 407.198 101.818 407.657 100.454C407.657 98.6363 408.116 96.3636 407.657 94.5454C406.739 92.2727 409.033 89.5454 407.198 87.2727C407.198 86.3636 407.198 85.4545 407.198 84.5454C406.739 84.0909 406.739 84.0908 407.198 83.6363C407.657 83.1818 408.116 82.2727 406.739 81.8181C406.28 81.8181 404.904 82.2727 404.904 81.3636C405.821 79.0908 403.527 79.5454 402.609 78.6363C402.609 77.2727 402.609 75.909 403.068 74.5454C404.445 71.8181 404.904 68.1818 405.362 64.9999C405.362 64.0909 406.28 63.1818 404.445 63.1818C403.527 62.2727 405.821 61.8181 405.362 60.909C405.821 59.9999 405.362 59.0908 405.821 58.6363C406.28 56.3636 405.821 54.0908 405.362 51.8181C406.739 49.9999 407.657 48.1818 406.739 46.3636C406.739 45.909 406.28 45.909 406.28 45.4545C406.28 42.7272 406.28 39.9999 406.28 37.2727L405.362 36.8181C404.904 34.5454 404.904 32.2727 404.445 30.4545C403.986 27.2727 402.15 29.5454 400.774 29.0908C400.774 28.6363 400.315 27.7272 400.315 27.7272C396.644 27.2727 392.514 26.3636 388.843 29.0908C387.007 29.5454 385.172 29.9999 383.336 30.4545C378.289 31.3636 373.241 34.5454 367.735 32.7272C366.817 31.8181 365.899 31.8181 364.981 32.7272C364.522 32.7272 364.522 32.7272 364.064 32.7272C363.605 32.7272 363.605 32.2727 363.146 32.2727C362.687 31.3636 362.228 30.909 361.769 30.4545C363.146 28.6363 361.31 26.8181 361.769 24.9999C363.146 23.6363 361.31 21.8181 361.769 20.4545C362.228 19.9999 362.228 19.9999 362.228 19.5454C363.146 18.1818 362.228 17.7272 361.31 17.7272C359.475 14.9999 356.722 14.0908 354.427 14.9999C352.133 15.909 349.838 17.7272 347.085 17.7272C344.332 17.7272 342.496 20.4545 340.202 19.0908C339.743 19.0908 339.743 19.0908 339.743 19.5454C340.202 22.7272 337.908 21.8181 336.072 22.7272C336.531 21.8181 336.531 20.909 335.154 20.4545C334.237 20.4545 333.319 20.909 332.86 21.3636C330.566 22.7272 328.271 23.1818 325.977 24.5454C323.682 26.3636 320.929 26.3636 318.635 28.6363C318.635 28.6363 318.176 29.0908 317.717 29.0908C314.046 29.0908 311.293 31.3636 308.081 32.7272C307.622 32.7272 307.622 32.7272 307.163 33.1818C305.786 33.6363 304.41 34.9999 303.033 34.9999C300.28 34.0908 297.985 35.4545 295.232 36.3636C294.314 36.8181 293.397 37.2727 292.479 37.2727C291.102 37.2727 291.561 36.3636 291.561 35.909C292.02 35.909 292.02 35.909 292.479 35.909C294.314 35.4545 297.068 35.909 296.15 32.7272C296.609 32.7272 297.068 32.7272 297.985 32.7272C298.903 33.1818 300.28 33.1818 301.197 32.2727C302.115 31.8181 301.656 30.909 301.197 29.9999C301.656 29.5454 301.656 29.5454 302.115 29.0908C303.033 29.0908 303.951 29.5454 304.41 28.1818C304.41 27.7272 304.869 26.8181 303.951 26.3636C303.033 25.909 302.574 26.3636 302.115 26.8181C301.656 26.8181 301.656 26.8181 301.197 26.8181C301.197 27.7272 301.197 28.1818 300.739 28.6363C300.28 28.6363 300.28 29.0908 299.821 29.5454C296.15 29.5454 292.938 31.3636 289.726 33.1818C288.349 33.1818 286.972 34.0908 286.055 34.9999C285.596 34.9999 285.596 34.9999 285.137 34.9999C284.219 34.9999 283.301 36.3636 282.384 35.4545C281.466 34.9999 282.384 34.0909 282.384 33.1818C283.301 32.2727 283.76 31.3636 285.596 30.909C286.513 30.909 287.89 30.4545 288.808 29.0908C289.267 29.0908 289.726 28.6363 289.726 28.6363C290.184 28.6363 290.184 28.6363 290.643 28.6363C292.938 28.1818 294.773 27.7272 296.609 25.909C294.314 25.909 292.02 25.909 289.726 27.7272C289.726 27.7272 289.267 28.1818 288.808 28.6363C287.89 28.6363 287.431 28.6363 286.972 29.5454C283.301 29.0908 280.548 30.909 277.795 32.7272C275.959 33.6363 274.124 34.0908 272.747 33.6363C270.912 32.7272 269.076 33.6363 267.7 34.0908C265.864 34.9999 264.029 35.909 262.652 37.2727C260.816 37.2727 259.44 37.7272 258.063 39.0908C256.686 39.0908 255.31 39.5454 254.392 38.1818C256.228 36.3636 258.981 36.3636 261.275 34.5454C265.405 32.7272 269.076 30.909 273.206 29.0908C275.959 29.0908 275.959 29.0908 275.5 25.909C275.959 25.909 276.418 26.3636 276.877 25.909C277.336 25.4545 277.336 24.9999 276.877 24.5454C276.418 24.0908 275.959 24.0909 275.5 24.9999C273.206 25.4545 271.37 26.3636 269.076 26.8181C267.699 26.8181 266.323 27.2727 265.405 28.1818C264.946 28.1818 264.946 28.1818 264.487 28.1818C264.028 27.7272 263.111 27.7272 262.652 28.1818C262.193 29.5454 261.275 30.4545 259.899 30.4545C259.44 29.9999 258.522 29.5454 258.063 30.4545C258.063 30.909 258.063 30.909 258.063 31.3636C258.063 31.8181 258.063 31.8181 258.063 32.2727C258.063 32.2727 257.604 32.7272 257.145 32.7272C256.228 32.7272 255.31 31.8181 255.31 32.2727C252.098 34.5454 247.509 33.1818 244.756 36.3636C244.297 36.8181 243.379 36.3636 242.92 36.3636C242.92 35.909 242.92 34.9999 242.002 35.4545C240.626 35.909 239.249 36.8181 237.873 37.2727C238.79 37.2727 239.708 37.2727 241.085 37.2727L241.544 37.7272C241.544 37.7272 241.085 37.7272 241.085 37.2727C240.167 36.3636 239.249 36.8181 237.873 37.2727C237.414 37.2727 236.496 37.2727 236.496 38.1818C235.578 38.1818 235.119 38.6363 234.202 38.6363H233.743V39.0908C232.825 39.5454 231.448 39.9999 230.072 40.909C228.695 40.909 226.859 40.909 225.483 41.8181C225.483 41.3636 225.024 41.3636 225.024 40.909C225.024 40.4545 225.024 39.5454 225.024 39.0908C225.942 37.2727 225.483 36.3636 223.188 36.3636C223.647 35.909 224.106 35.4545 225.024 35.4545C226.401 34.9999 225.942 33.6363 225.942 32.7272C225.024 31.8181 224.106 32.2727 223.188 32.2727C222.271 32.2727 221.353 32.2727 220.435 32.2727C219.976 31.8181 219.976 31.8181 219.517 31.3636C220.894 30.909 222.73 31.3636 224.565 29.9999C223.188 28.6363 221.812 28.1818 220.435 29.5454C219.517 29.5454 218.141 29.9999 218.6 28.1818C218.6 27.2727 219.059 25.909 218.6 24.9999C218.6 22.7272 217.223 23.6363 215.846 24.0908C214.47 22.7272 214.011 24.0909 213.093 24.9999C213.093 25.4545 212.634 25.909 212.175 26.8181C211.258 26.8181 209.881 27.2727 210.34 25.4545C210.34 24.5454 209.422 24.9999 208.963 25.4545C208.504 25.4545 208.504 25.4545 208.046 25.4545C203.916 26.3636 200.245 28.6363 196.115 28.6363C195.656 28.6363 194.738 28.6363 194.279 28.6363C194.279 28.1818 194.279 27.7272 194.279 27.7272C193.82 27.7272 193.82 27.7272 193.361 27.7272C193.361 27.7272 193.361 27.7272 193.361 27.2727C193.82 27.2727 193.82 27.7272 194.279 27.2727C194.279 26.3636 194.279 25.909 195.197 25.4545C196.115 25.4545 197.491 25.4545 197.491 24.5454C197.491 23.6363 196.115 24.0908 195.197 24.0908C195.197 22.7272 196.115 20.909 197.033 19.9999C197.491 19.5454 198.409 18.6363 199.327 19.5454C201.621 21.8181 203.457 19.9999 205.292 19.0908C205.751 18.1818 206.669 17.7272 208.046 18.1818C208.504 17.7272 208.504 17.7272 208.963 17.2727C209.422 17.2727 210.799 17.2727 210.799 16.8181C211.258 15.909 210.34 15.4545 209.881 15.4545C209.881 15.4545 209.881 15.4545 209.422 14.9999C208.504 14.5454 207.587 14.0908 207.128 14.0908C205.751 14.0908 204.833 14.0908 203.457 14.9999C201.621 16.3636 199.327 16.8181 197.491 16.8181C194.738 16.8181 196.574 15.4545 196.574 13.6363C194.738 15.909 191.985 14.0908 190.608 15.909C189.232 15.909 187.855 16.3636 186.019 16.3636C185.102 13.6363 183.266 14.5454 181.431 14.9999C181.431 14.9999 180.972 14.5454 180.972 14.0908C180.972 14.0908 180.972 14.0908 180.513 13.6363H180.972V14.0908C180.972 14.0908 181.431 13.6363 181.89 13.1818C182.348 12.7272 183.266 12.2727 183.266 11.8181C182.807 11.3636 181.431 11.3636 180.972 11.3636C180.972 10.909 180.513 10.909 180.054 10.4545C178.677 8.6363 176.842 7.27267 174.548 7.72721C174.548 7.27267 174.548 7.27267 174.548 6.81812C173.63 6.81812 173.63 5.90903 173.63 4.99994C174.089 4.99994 174.089 4.54539 174.548 4.54539C175.006 4.09085 175.924 3.6363 175.465 2.72721C175.465 2.27267 174.089 2.72721 173.63 2.72721C172.712 3.6363 171.794 2.72721 170.877 3.6363C169.959 3.18176 169.041 2.72721 169.041 4.54539C168.582 4.54539 168.582 4.54539 168.123 4.54539C168.123 4.09085 167.664 4.09085 167.664 4.54539H168.123C167.664 4.99994 166.747 5.45448 166.288 5.90903C165.829 5.90903 165.829 5.90903 165.37 5.90903C164.911 5.90903 164.911 6.36358 164.452 6.81812C163.993 6.81812 163.993 6.81812 163.535 6.81812C162.617 7.72721 160.781 6.81812 159.863 7.72721C159.405 7.72721 159.405 7.72721 158.946 7.72721C159.405 4.99994 162.158 5.90903 163.535 5.45448C165.829 4.54539 163.076 4.09085 163.535 3.6363C163.993 3.18176 164.911 3.18176 165.37 2.72721C166.288 2.72721 167.664 3.18176 168.123 1.81812C167.206 0.454485 166.288 0.454485 165.37 0.90903C164.452 0.90903 163.535 0.90903 162.617 0.90903C161.699 -6.05583e-05 160.781 0.90903 159.863 0.90903C159.405 0.90903 159.405 0.90903 158.946 0.90903C158.487 0.90903 158.487 0.90903 158.028 0.90903C154.816 -0.454606 154.357 -0.454606 153.439 2.72721C152.063 3.18176 151.145 0.90903 149.768 2.72721C149.309 2.72721 149.309 2.72721 148.85 2.72721C145.179 3.6363 141.05 5.90903 137.379 7.72721C135.084 7.72721 132.79 8.18176 130.954 9.54539C129.578 9.99994 129.119 8.18176 127.742 9.09085C126.824 9.09085 126.365 9.09085 125.907 8.18176C125.448 7.72721 124.989 8.18176 124.53 8.18176C124.989 8.18176 125.448 8.18176 125.907 8.18176C126.365 7.27267 126.824 5.90903 124.989 6.36358C124.53 6.36358 123.612 5.90903 123.153 5.45448V4.99994V4.54539C120.4 3.6363 118.565 6.36358 115.811 5.90903C114.894 4.09085 114.435 4.09085 112.14 5.45448C110.764 5.45448 108.928 4.54539 108.469 6.81812C108.01 6.81812 108.01 7.27267 107.552 7.27267C102.963 7.27267 98.374 6.81812 94.2441 7.27267C92.4086 6.81812 90.5731 8.18176 89.1965 6.36358C88.7376 5.90903 87.361 6.36358 86.9021 6.81812C84.6077 8.18176 81.3956 6.81812 79.1012 8.6363C78.6423 8.6363 77.7246 9.09085 77.2657 9.09085C77.2657 9.09085 77.7246 9.09085 77.7246 8.6363C78.1834 8.18176 78.6423 8.6363 79.1012 8.6363C77.7246 7.27267 75.8891 7.72721 74.5124 8.6363C73.5947 9.09085 72.6769 9.99994 71.7592 9.54539C69.4648 9.09085 66.7115 9.54539 65.3349 6.81812C64.4172 5.90903 63.4994 6.81812 62.5816 5.90903C62.1228 5.90903 62.1228 5.90903 61.6639 5.90903C61.6639 3.6363 59.3695 4.09085 57.9929 4.09085C57.0751 3.18176 56.1574 2.72721 55.2396 4.09085C51.1097 5.90903 46.521 7.27267 42.8499 9.54539C38.2612 11.3636 34.5902 13.1818 30.9192 15.909C30.0014 16.3636 30.0014 17.7272 29.0837 18.6363C27.707 19.5454 26.3304 19.5454 25.8715 21.3636C25.8715 21.8181 26.3304 22.7272 26.7893 23.1818C25.8715 23.6363 25.4126 24.0909 25.4126 24.9999C25.8715 24.5454 25.8715 24.0908 26.3304 23.1818C24.9538 23.1818 24.036 23.6363 23.5771 24.9999C23.1183 26.3636 21.2827 27.7272 20.365 29.0908C17.1529 32.7272 13.4818 36.3636 10.2697 39.9999C10.2697 40.4545 10.2697 40.909 10.2697 41.3636C8.89308 42.2727 8.4342 43.1818 8.4342 44.5454C7.97533 44.5454 6.5987 44.9999 6.5987 45.4545C5.22207 48.6363 2.92768 51.3636 2.92768 54.9999C2.92768 58.1818 2.46881 58.1818 5.68094 56.8181C6.5987 56.8181 7.51645 56.8181 8.4342 55.909C8.4342 55.909 8.4342 55.4545 7.97533 55.4545V55.909H8.4342C9.35196 56.8181 9.81083 56.8181 10.2697 57.2727C9.81083 58.6363 8.4342 59.5454 8.4342 60.909C8.4342 66.3636 6.13982 71.3636 3.38656 75.909C0.633301 80.909 0.633301 86.3636 0.633301 91.8181C0.633301 93.1818 2.00993 94.0908 2.46881 93.1817C4.76319 90.909 8.4342 91.3636 9.35196 88.1818C11.6463 87.7272 13.4818 86.3636 15.7762 85.909C16.694 85.909 17.6117 84.9999 17.6117 83.6363C19.4472 81.8181 22.2005 81.8181 24.4949 81.3636C24.4949 83.1818 24.4949 84.9999 24.4949 86.8181C24.4949 86.8181 24.4949 87.2727 24.4949 87.7272C24.036 89.0909 22.6594 89.9999 21.2827 90.909C18.9884 90.909 18.0706 92.2727 18.0706 93.6363C17.6117 96.3636 17.1529 99.5454 18.0706 102.273C18.9884 105 18.5295 107.273 16.694 109.545C15.7762 110.909 15.7762 111.818 16.694 113.182C16.694 113.636 16.694 113.636 17.1529 114.091C16.2351 115.454 16.2351 116.818 16.694 118.636C15.3174 120 14.3996 121.818 14.8585 123.636C15.3174 125 14.8585 126.364 14.3996 127.727C13.4818 129.545 14.3996 130.909 14.8585 132.273C14.3996 134.091 14.3996 135.909 14.8585 137.727C14.8585 138.182 14.8585 139.091 14.8585 139.545C13.9407 140.909 15.7762 141.364 16.2351 142.273C17.6117 145 18.9884 145.909 21.7416 144.545C24.036 143.636 26.3304 143.636 28.1659 143.182C29.0837 143.182 30.0014 142.727 30.9192 141.818C29.5425 140.909 28.1659 140.909 26.7893 142.273C28.1659 141.818 29.5425 141.818 30.9192 142.273C31.378 142.273 31.378 142.273 31.8369 142.273C39.6378 142.727 46.521 140.454 53.4041 137.727C54.3219 137.727 54.7807 137.727 55.2396 137.273C56.1574 135.909 56.6162 136.364 57.0751 137.727C57.0751 138.182 57.534 138.636 57.534 138.636V139.091V139.545C56.1574 141.818 57.0751 144.091 56.6162 146.818C55.2396 148.636 56.6163 150.454 55.6985 152.273C55.6985 152.727 55.6985 152.727 55.6985 153.182C55.6985 156.364 54.7807 160 56.6162 163.182C56.6162 163.636 55.6985 164.545 56.6162 165.909C57.534 167.727 58.9106 169.091 59.8284 170.909C60.2873 171.364 60.7461 171.364 61.205 170.909C62.5816 170 63.9583 171.364 65.3349 170.454C67.1704 169.545 69.0059 171.364 70.8414 170.909C76.3479 170 81.8545 169.545 86.9021 168.636C88.7376 168.182 90.5731 168.182 91.4909 167.273C91.9498 167.273 91.9497 167.273 92.4086 166.818C94.2441 166.818 96.0796 167.273 96.9974 165C98.8329 165 101.127 165.454 102.045 164.545C102.963 163.182 105.257 164.091 106.175 162.273C106.175 161.818 106.634 161.364 106.634 160.909C108.928 161.818 111.223 162.727 113.517 160.909C113.976 160.909 114.435 160.909 114.894 160.909H115.352C115.352 160.909 115.352 160.909 114.894 160.909C114.894 161.818 114.894 162.727 114.894 163.636C114.894 169.545 119.482 172.727 124.989 171.818C125.907 172.727 125.907 171.818 125.907 170.909C126.824 171.364 127.742 172.273 129.119 172.727C132.331 173.636 134.625 171.364 137.837 171.818C140.591 173.636 143.344 172.727 146.097 171.818C147.015 171.818 148.392 172.273 148.85 170.909C151.145 169.545 154.357 170 156.192 167.273C156.192 167.273 155.734 167.273 155.734 166.818L156.192 167.273C156.192 167.273 157.11 168.182 158.028 168.182C161.24 169.545 165.37 168.636 167.664 165.909C168.123 165.909 168.582 166.364 169.041 165.909C169.959 164.091 171.794 163.182 172.253 161.364C172.712 161.364 172.712 161.364 173.171 161.364C173.63 161.818 173.63 161.818 174.089 162.273C173.171 163.182 173.171 164.091 172.712 165C171.794 165.454 172.253 165.909 172.712 165.909C173.63 165.909 173.63 165.454 173.63 165C174.548 165 175.465 165 176.383 165C177.301 166.364 176.842 167.273 176.842 168.636C176.842 170.909 176.842 173.636 176.383 175.909C176.383 177.273 176.383 178.636 178.219 179.091L178.677 179.545C179.595 180.454 180.513 179.545 181.431 179.091C184.184 180 186.937 178.636 189.69 177.273C190.149 177.273 190.149 177.273 190.608 177.273C191.526 176.364 192.903 176.364 194.279 176.364C194.738 176.364 194.738 176.364 195.197 175.909C195.656 175.454 196.574 175.454 197.033 175.454C198.409 175.454 199.327 175.454 200.704 174.545C203.916 173.636 207.587 172.727 210.34 170.454C211.258 170 212.175 170.454 213.093 169.545C213.552 169.091 214.011 169.091 214.011 168.636V169.545C214.011 169.545 214.011 169.545 214.47 170C215.388 170 216.305 169.545 216.764 169.091C217.682 168.636 217.682 168.182 217.682 167.273C221.812 168.182 224.565 166.364 227.777 164.545C230.53 163.636 233.284 162.727 235.578 161.364C237.873 160 240.167 160.454 242.92 160.909C242.92 162.727 241.085 162.727 240.167 163.636C238.331 164.545 236.496 165.454 236.955 167.727C237.414 169.545 236.496 170.454 235.578 171.818C234.66 173.636 235.119 175.454 235.578 177.273C236.037 178.636 237.873 177.727 239.249 177.273C240.626 176.818 242.002 177.273 242.92 175.909C245.673 175 248.886 174.545 251.639 173.636C252.098 173.636 252.557 173.636 252.557 173.182C253.015 173.182 253.474 172.727 254.392 172.727C258.981 172.727 262.652 171.364 266.323 169.545C267.241 169.545 267.699 169.545 268.158 169.091C268.617 169.091 268.617 169.091 268.617 169.091C269.994 169.091 270.912 168.636 271.829 168.182C277.336 166.364 282.384 164.091 287.89 163.636C289.726 163.182 291.561 163.182 292.938 162.273C295.232 160.909 297.068 160.909 298.903 160.454C303.492 159.091 308.998 159.091 313.587 156.364C315.882 156.364 318.635 156.818 320.929 154.545C322.765 155.454 324.141 155 324.6 152.727C327.353 154.545 330.107 152.727 332.401 151.818C334.237 152.273 335.613 151.364 336.99 150C339.284 150.909 341.12 148.636 343.414 150C342.955 150.454 342.496 150.909 342.038 151.818C341.579 152.273 340.661 152.273 340.202 152.727C336.99 153.636 333.778 154.545 330.566 155.909C329.189 156.818 326.895 156.818 327.353 160C327.353 160.454 326.895 160.454 326.895 160.909C325.059 161.364 323.682 161.818 322.306 163.182C321.388 163.636 321.388 165 322.765 165C325.059 165.454 327.812 165.454 329.648 163.636C331.024 163.636 331.942 163.636 333.319 162.727C333.778 161.818 334.237 161.818 335.154 162.273C337.449 161.818 340.202 161.364 342.496 160C344.791 160 346.626 159.091 348.462 158.182C348.921 158.182 348.921 158.182 349.38 158.182C352.592 157.727 354.886 155.909 358.098 155.454C358.557 155 359.475 155.454 359.934 154.545C359.934 154.545 360.393 154.545 360.851 154.545C361.31 154.545 361.769 154.091 361.769 154.091C362.228 154.091 362.687 154.091 363.605 153.636C364.064 153.636 364.522 154.091 364.522 154.545C364.064 154.545 363.146 154.545 363.146 155.454C362.228 155.454 361.769 155.454 361.31 156.364V156.818C360.851 156.818 360.851 157.273 360.393 157.273C359.934 157.273 359.934 157.727 359.475 157.727C359.016 157.727 359.016 158.182 358.557 158.182C358.098 158.182 358.098 158.636 357.639 158.636C357.18 158.636 357.18 159.091 356.722 159.091C353.051 160 349.838 161.364 346.626 163.636C345.25 164.091 343.414 164.545 342.955 165.909C342.038 168.182 340.202 168.636 338.825 169.545C337.908 170 336.072 170 336.531 171.364C336.531 173.182 337.908 173.636 339.743 173.182C341.579 173.636 343.414 172.727 344.791 171.364C348.003 170.454 351.215 170.454 353.968 167.727C354.886 167.727 355.804 167.273 356.722 166.818C357.18 166.818 357.18 166.818 357.639 166.818C358.557 166.364 359.475 165.909 360.393 165.909C360.393 165.909 360.851 166.364 361.31 166.364C364.522 168.182 367.276 167.727 370.488 165.909C369.57 164.545 368.193 164.091 366.817 164.091C366.817 163.636 366.817 163.636 366.817 163.182C367.276 161.818 368.193 161.818 369.57 161.364V160.909C374.159 160 377.83 158.636 381.501 155.454C381.96 155.454 382.419 155 382.419 155C383.336 155 384.254 154.545 385.172 154.091C387.925 153.182 391.596 152.273 394.808 150C395.726 150 396.185 149.545 396.185 149.091H396.644C398.02 144.091 398.02 143.182 393.432 141.364C395.267 140 397.103 139.091 398.938 138.182C399.397 138.182 399.397 138.182 399.397 137.727C400.774 137.273 401.691 136.818 402.609 136.364C403.527 136.364 403.986 136.364 404.445 135.909C406.739 135.454 409.033 134.545 410.869 132.273C411.787 132.273 412.704 131.818 413.163 130.909C412.246 130 411.328 130.454 410.41 130.909C405.821 131.818 400.774 132.727 396.185 134.545ZM58.9106 158.182C59.3695 158.182 59.3695 158.182 58.9106 158.182V158.182ZM258.063 47.7272C258.063 48.1818 258.063 48.1818 258.063 47.7272V47.7272ZM402.609 71.3636C403.068 70.909 402.609 70.4545 402.609 69.9999C403.068 70.4545 403.068 70.909 402.609 71.3636ZM133.708 11.8181C133.708 12.7272 133.249 14.0908 133.249 14.0908C133.249 14.0908 133.249 14.0908 132.79 14.0908C133.249 13.6363 133.708 13.1818 133.708 11.8181ZM250.721 159.091C250.721 159.545 250.721 159.545 250.262 159.545C250.262 159.545 250.262 159.545 250.721 159.091C250.262 159.091 250.262 159.091 250.721 159.091ZM165.37 148.636C164.911 148.636 164.452 148.636 163.993 149.091C164.911 149.091 165.37 148.636 166.288 147.727C165.829 147.727 165.829 148.182 165.37 148.636ZM381.96 59.9999C381.96 59.5454 381.96 59.5454 381.96 59.9999C381.96 59.5454 382.419 59.5454 381.96 59.9999ZM145.638 26.3636C145.638 26.8181 145.638 26.8181 145.638 26.3636V26.3636ZM202.998 49.0909C202.539 49.0909 202.539 49.0909 202.998 49.0909V49.0909ZM185.102 101.818C185.102 101.364 185.561 101.364 185.102 101.818V101.818ZM156.651 134.545C157.11 134.545 157.569 134.091 157.569 134.091C157.569 134.091 157.11 134.091 156.651 134.545ZM65.7938 45.909C65.3349 45.909 65.3349 45.909 65.7938 45.909C65.7938 45.4545 65.7938 45.4545 65.7938 45.909ZM194.279 115.454C194.279 115 194.279 115 194.279 115V115.454ZM192.444 110.454C192.444 110.909 192.903 111.364 192.903 111.818C192.444 111.818 191.985 111.818 191.985 111.364C191.985 110.909 191.985 110.909 192.444 110.454ZM193.82 106.818C193.82 106.364 193.82 106.364 193.82 106.818V106.818ZM134.625 105.909C134.166 105.454 134.166 105.454 134.625 105.909C134.625 105.454 134.625 105.454 134.625 105.909ZM91.4909 57.2727C91.032 57.2727 91.032 57.2727 91.4909 57.2727V57.2727ZM147.015 85.4545C146.556 85.4545 147.015 84.9999 146.556 84.9999C146.556 84.9999 146.556 85.4545 147.015 85.4545ZM146.556 76.3636C146.097 76.3636 146.097 76.8181 145.638 76.8181C146.097 76.3636 146.556 76.3636 146.556 76.3636ZM170.877 64.5454H170.418C170.418 64.0908 170.418 64.0908 170.877 64.5454C170.877 64.0908 170.877 64.0908 170.877 64.5454ZM168.582 80.909C168.123 81.3636 168.123 81.3636 168.123 81.3636C168.123 80.909 168.582 80.909 168.582 80.909ZM173.171 62.7272C173.171 62.2727 173.63 62.2727 173.171 62.7272V62.7272ZM151.604 67.2727C152.063 66.8181 152.063 66.8181 151.604 67.2727V67.2727ZM112.14 82.2727C111.681 81.8181 111.681 82.2727 112.14 82.2727C111.681 81.8181 112.14 81.8181 112.14 82.2727C112.14 81.8181 112.14 81.8181 112.14 82.2727ZM92.4086 57.2727C92.4086 56.8181 92.4086 56.8181 92.4086 57.2727V57.2727ZM89.6554 98.6363C89.6554 98.6363 89.1965 98.6363 88.7376 99.0908C89.1965 99.0908 89.1965 99.0908 89.6554 98.6363ZM130.954 89.5454C130.495 89.5454 130.495 89.5454 130.037 89.5454C130.495 89.5454 130.954 89.5454 130.954 89.5454ZM174.548 85.909C174.548 86.3636 174.548 86.3636 174.548 85.909V85.909ZM137.837 98.6363C137.837 98.1818 137.837 98.1818 137.837 98.6363V98.6363ZM152.521 121.818C152.521 121.364 152.98 121.364 152.98 121.364C152.98 121.364 152.98 121.818 152.521 121.818ZM78.6423 78.6363V79.0909C78.6423 78.6363 78.6423 78.6363 78.6423 78.6363ZM82.7722 133.636C82.3133 133.636 82.3133 133.636 82.7722 133.636V133.636ZM181.89 86.3636C181.89 86.8181 182.348 87.2727 182.807 87.7272C182.348 87.7272 181.89 86.8181 181.89 86.8181C181.89 86.3636 181.89 86.3636 181.89 86.3636ZM100.21 34.9999L100.668 34.5454C100.668 34.5454 100.668 34.5454 100.21 34.9999ZM83.2311 53.1818C83.2311 52.2727 81.8545 51.8181 81.3956 51.3636C81.8545 51.8181 82.7722 52.7272 83.2311 53.1818ZM77.7246 139.545C77.2657 139.091 77.2657 139.091 77.7246 139.545V139.545ZM124.071 106.818C123.612 106.818 123.612 107.273 123.153 107.273C123.612 106.818 124.071 105.909 124.071 105.454C124.071 105.909 123.612 106.364 124.071 106.818ZM187.396 125C186.937 125 186.937 125 187.396 125V125ZM374.618 87.2727C374.159 87.2727 373.7 86.8181 373.241 86.8181C372.782 85.909 372.323 85.909 371.865 85.4545C372.323 86.3636 373.241 86.8181 374.618 87.2727ZM375.535 88.6363C375.535 88.1818 375.535 88.1818 375.535 87.7272C375.535 87.7272 375.535 88.1818 375.535 88.6363C375.994 88.1818 375.535 88.1818 375.535 88.6363ZM325.518 70.909C325.977 70.909 325.977 70.4545 325.977 69.9999C325.977 70.4545 325.977 70.909 325.518 71.3636C325.977 71.3636 325.518 70.909 325.518 70.909ZM246.591 94.5454L246.132 94.9999C246.132 94.5454 246.591 94.5454 246.591 94.5454ZM271.371 90.909C272.288 90.909 272.747 90.909 273.665 90.909C272.747 90.4545 271.829 90.4545 271.371 90.909ZM312.669 83.1818C312.211 83.1818 312.211 83.1818 312.669 83.1818V83.1818ZM311.752 84.5454C311.293 84.5454 311.293 84.5454 311.752 84.5454V84.5454ZM255.769 81.3636C255.31 81.3636 255.31 81.3636 255.769 81.3636V81.3636ZM263.57 116.818C263.57 117.273 263.57 117.273 263.57 116.818V116.818ZM329.189 90.4545C329.189 89.9999 329.648 89.9999 329.189 90.4545V90.4545ZM238.331 98.1818C237.872 98.1818 237.872 98.1818 238.331 98.1818V98.1818ZM375.535 67.2727C375.077 67.2727 375.077 66.8181 374.618 66.8181C375.077 66.8181 375.535 66.8181 375.535 67.2727ZM368.193 61.3636C368.652 61.3636 368.652 61.3636 368.193 61.3636C368.652 61.3636 368.652 61.8181 368.193 61.3636C368.193 61.8181 368.193 61.8181 368.193 61.3636ZM362.228 67.7272C361.769 67.7272 361.769 67.7272 362.228 67.7272V67.7272ZM234.202 80.4545C234.202 80.909 234.202 80.909 234.202 81.3636C234.202 81.3636 234.202 81.3636 234.202 80.909C234.202 80.909 234.202 80.909 234.202 80.4545ZM223.188 89.5454C222.73 89.5454 222.73 89.5454 222.73 89.5454C222.73 89.0909 223.188 89.5454 223.188 89.5454ZM214.011 80.909C214.011 80.4545 214.47 80.4545 214.929 79.9999C214.929 80.4545 214.47 80.909 214.011 80.909ZM42.3911 65.909C42.3911 65.909 41.9322 66.3636 41.9322 65.909C42.3911 65.909 42.3911 65.909 42.3911 65.909ZM136.002 141.818V142.273C136.002 142.273 136.002 142.273 136.002 141.818ZM202.998 114.545C203.457 114.545 203.457 114.545 202.998 114.545C203.457 114.545 203.457 115 203.457 115C203.457 115 203.457 115 202.998 114.545ZM204.833 111.364C204.375 110.909 204.375 110.454 204.833 110C205.292 110 205.292 110.454 205.751 110.454C205.292 110.909 205.292 111.364 204.833 111.364ZM247.968 130.909C247.509 131.364 247.968 131.364 247.968 130.909C247.509 130.909 247.509 131.364 247.968 130.909ZM222.73 78.1818H222.271C222.271 78.6363 222.73 78.6363 222.73 78.1818ZM159.863 50.4545C159.863 50.909 159.863 50.909 159.863 50.4545V50.4545ZM41.0144 61.8181C41.0144 62.7272 39.6378 62.2727 39.6378 61.8181C39.6378 61.8181 39.1789 61.8181 39.1789 61.3636C40.0967 61.3636 40.5556 61.8181 41.0144 61.8181ZM60.7461 109.545C60.7461 110 60.7461 110 60.7461 109.545V109.545ZM100.21 135.909C99.7507 135.909 99.7507 135.909 100.21 135.909V135.909ZM284.219 131.364C284.678 131.364 284.678 131.364 284.219 131.364V131.364ZM349.838 57.2727C350.297 57.2727 350.297 57.2727 349.838 57.2727V57.2727ZM74.0536 147.727L73.5947 148.182C73.5947 147.727 73.5947 147.727 74.0536 147.727ZM142.885 139.091C142.885 139.545 143.344 139.545 143.344 140C142.885 140 142.885 139.545 142.426 139.545C142.426 139.545 142.885 139.545 142.885 139.091ZM185.102 144.545C184.643 144.545 185.102 144.091 185.102 144.545C185.102 144.091 185.102 144.091 185.102 144.545ZM338.366 32.7272C338.366 33.1818 338.366 33.6363 337.908 33.6363C338.366 33.1818 338.825 33.1818 338.366 32.7272ZM316.34 55.909C316.34 56.3636 315.882 55.909 316.34 56.3636C316.34 56.8181 315.882 56.8181 315.423 56.8181H314.964C315.423 56.8181 315.882 56.3636 316.34 55.909ZM282.842 52.7272L283.301 52.2727C282.842 52.2727 283.301 52.7272 282.842 52.7272ZM283.301 52.2727C283.76 51.8181 283.76 51.8181 283.76 51.8181C283.76 51.8181 283.301 51.8181 283.301 52.2727ZM219.976 70.909C219.976 70.909 219.976 70.4545 220.435 70.4545C220.894 70.4545 220.894 70.909 220.894 70.909C220.435 70.909 219.976 70.4545 219.976 70.909ZM125.448 25.909C125.907 25.909 125.907 25.909 126.366 25.909C125.907 25.909 125.907 26.3636 125.448 25.909ZM29.0837 57.7272H28.6248C28.6248 58.1818 29.0837 58.1818 29.0837 57.7272ZM57.0751 113.636C57.0751 114.091 57.534 114.545 57.534 115C57.0751 115 57.0751 114.091 56.6162 114.091C57.0751 113.636 57.0751 114.091 57.0751 113.636ZM83.69 161.364C83.2311 161.818 83.69 161.818 83.69 161.364C83.2311 161.364 83.2311 161.364 83.2311 161.364C83.2311 161.364 83.2311 161.818 83.69 161.364ZM127.283 147.727C127.283 147.727 126.824 147.727 126.824 148.182C126.824 148.182 126.824 148.182 127.283 147.727ZM179.136 113.636C178.677 113.636 178.677 114.091 178.219 114.091C178.219 113.636 178.677 113.182 179.136 113.636ZM354.886 52.7272C355.804 52.7272 356.263 52.7272 356.722 51.8181C356.263 52.2727 355.804 52.7272 354.886 52.7272ZM313.587 39.5454C313.128 39.9999 313.128 40.4545 312.211 40.4545C312.669 40.4545 313.128 39.9999 313.587 39.5454ZM269.076 45.4545C268.617 45.4545 268.617 45.4545 268.158 45.4545C268.158 45.4545 268.158 45.4545 268.617 45.4545H269.076ZM234.202 56.3636C234.66 56.8181 235.119 55.909 235.578 55.909C234.66 55.909 234.202 55.909 234.202 56.3636ZM184.184 33.1818C184.184 32.7272 184.643 33.1818 184.184 33.1818V33.1818ZM123.153 155C122.236 153.182 124.53 151.364 124.071 149.091C122.236 150.909 122.236 153.182 123.153 155ZM201.162 154.091C201.162 154.545 200.704 154.545 200.245 154.545C200.704 154.091 201.162 154.091 201.162 154.091ZM238.79 153.636C238.331 153.636 238.331 154.091 237.873 154.091C238.331 154.091 238.331 154.091 238.79 154.545C238.79 154.091 238.331 154.091 237.873 154.091C238.331 154.091 238.79 154.091 238.79 153.636ZM377.371 39.5454C376.912 39.9999 376.912 40.4545 375.994 40.909C375.994 40.4545 375.994 40.4545 375.994 39.9999C376.453 39.9999 376.912 39.5454 377.371 39.5454ZM214.47 44.9999C214.011 44.9999 214.011 44.5454 213.552 44.5454C213.552 44.5454 214.011 44.9999 214.47 44.9999ZM213.093 39.9999C213.093 39.5454 213.552 39.5454 213.552 39.0908C213.552 39.5454 213.552 39.5454 213.093 39.9999C213.552 39.9999 213.552 39.9999 213.093 39.9999ZM214.929 34.9999C214.929 34.5454 214.929 34.5454 214.929 34.9999V34.9999ZM206.21 32.2727C207.128 32.7272 208.504 33.1818 209.422 32.2727C208.504 31.8181 207.587 32.2727 206.21 32.2727ZM202.539 32.7272H202.08C202.08 32.7272 202.08 32.7272 202.539 32.7272ZM170.877 14.5454C170.418 14.5454 170.418 14.5454 170.877 14.5454C170.418 14.9999 170.418 14.9999 170.877 14.5454ZM155.275 13.1818C155.734 13.1818 155.734 13.1818 155.275 13.1818V13.1818ZM57.0751 15.909C57.534 15.909 57.534 15.909 57.0751 15.909V15.909ZM28.6248 58.1818C28.6248 58.6363 28.1659 58.6363 28.1659 58.6363C28.1659 58.6363 28.1659 58.6363 28.6248 58.1818C28.1659 58.1818 28.1659 58.1818 28.6248 58.1818ZM159.863 157.727C159.863 157.273 160.781 157.273 160.781 157.727C161.24 158.636 161.699 158.636 162.158 158.636C161.24 158.636 159.863 159.091 158.946 159.091C159.405 159.091 159.863 159.091 159.863 157.727ZM317.717 149.091C318.176 149.091 318.176 149.545 318.635 149.545C318.176 149.545 317.717 149.545 317.717 149.091ZM390.22 32.7272C390.678 32.7272 390.678 32.7272 390.22 32.7272V32.7272ZM390.22 33.6363C390.22 34.0908 390.22 34.0908 390.22 33.6363V33.6363ZM263.111 42.2727L263.57 42.7272C263.57 42.7272 263.57 42.2727 263.111 42.2727ZM124.071 14.0908C124.53 13.6363 124.53 13.1818 124.53 12.2727C124.53 13.1818 124.071 13.6363 124.071 14.0908ZM55.6985 12.7272C56.1574 13.1818 56.1574 13.1818 56.6162 13.1818C56.6162 13.1818 56.1574 13.1818 55.6985 12.7272ZM22.2005 96.3636C21.7416 96.3636 21.7416 96.3636 22.2005 96.3636V96.3636ZM29.5425 136.364C30.0014 136.818 30.0014 136.818 30.0014 136.818C29.5425 136.364 29.5425 136.364 29.5425 136.364ZM188.314 171.818C187.855 171.818 187.855 171.818 188.314 171.818C187.855 171.364 187.855 171.818 188.314 171.818ZM188.773 171.818C188.773 170.454 188.773 169.545 189.232 168.636C188.773 170 188.773 170.909 188.773 171.818ZM227.777 155.909C227.777 155.909 228.236 155.909 228.236 156.364C227.777 155.909 227.777 155.909 227.777 155.909C227.318 155.909 227.318 155.909 227.777 155.909ZM257.604 167.273C258.063 167.727 258.981 167.727 259.44 168.182C258.522 168.182 258.063 168.182 257.145 168.182C257.145 167.727 257.145 167.273 257.604 167.273ZM372.782 141.818C372.782 142.273 372.782 142.273 372.782 141.818V141.818ZM400.774 29.0908C399.856 28.6363 398.938 29.0908 398.02 29.5454C398.938 29.5454 399.856 29.5454 400.774 29.0908ZM248.886 39.0908C248.427 39.0908 247.509 38.6363 247.05 39.0908C247.509 39.0908 247.968 39.0908 248.886 39.0908ZM213.552 30.4545C213.093 30.4545 213.093 30.4545 213.552 30.4545V30.4545ZM189.69 20.909C189.232 20.909 189.232 20.909 189.69 20.909V20.909ZM24.036 111.364C24.036 111.818 24.036 111.818 24.036 111.364C23.5771 111.364 23.5771 111.364 24.036 111.364ZM163.535 162.727C163.535 162.273 163.535 162.273 163.535 162.727C163.993 162.273 163.993 162.273 163.535 162.727ZM364.522 164.545C364.981 165 364.981 165 364.522 164.545C364.522 165 364.522 165 364.522 165C364.981 165 364.522 165 364.522 164.545Z" fill="white"/>
</g>
<defs>
<clipPath id="clip0_86_631">
<rect width="413.448" height="180" fill="white" transform="translate(0.633301)"/>
</clipPath>
</defs>
</svg>
