<svg version="1.1" id="Layer_1" xmlns="http://www.w3.org/2000/svg" xmlns:xlink="http://www.w3.org/1999/xlink" x="0px" y="0px"
	 width="100%" viewBox="0 0 256 256" enable-background="new 0 0 256 256" xml:space="preserve">
<path fill="#ef4444" opacity="1.000000" stroke="none" 
	d="
M257.000000,34.000000 
	C257.000000,108.260048 257.000000,182.520096 257.000000,257.000000 
	C183.645920,257.000000 110.291618,257.000000 36.134319,256.771881 
	C40.520538,251.225571 45.636189,245.832535 50.934452,240.625290 
	C53.113930,238.483276 53.695080,236.399368 52.310505,233.646469 
	C51.913918,232.857971 52.072708,231.790146 52.374435,230.916656 
	C56.412926,232.713623 59.453762,232.507706 62.406158,229.199341 
	C66.493103,224.619629 71.052185,220.462234 75.390808,216.105774 
	C78.572868,212.910599 78.952995,209.184891 76.146767,206.729202 
	C72.959450,203.940018 69.837967,204.669388 67.019371,207.470215 
	C63.011551,211.452774 59.279190,215.757141 54.972504,219.381409 
	C50.936508,222.777847 49.959606,226.382370 51.892197,231.403839 
	C47.460434,228.733444 44.126156,230.115021 40.899323,233.531357 
	C36.803062,237.868164 32.523323,242.034805 28.249336,246.199524 
	C25.295530,249.077789 24.802237,251.970749 27.653513,255.210846 
	C27.999687,255.604233 27.895472,256.393951 28.000000,257.000000 
	C19.073566,257.000000 10.147134,257.000000 1.000000,257.000000 
	C1.000000,248.313675 1.000000,239.625504 1.268699,230.131516 
	C6.280545,233.315796 7.231411,233.268890 11.716553,228.794632 
	C14.984857,225.534241 18.190952,222.209183 21.524065,219.016617 
	C25.275805,215.423096 29.577431,212.126846 27.306488,205.963562 
	C31.050890,207.729706 33.699276,207.219589 36.346790,204.267822 
	C40.433117,199.711868 44.954788,195.546936 49.281502,191.205887 
	C52.388134,188.088989 53.142193,183.288071 50.483135,181.340256 
	C47.075340,178.843948 43.738934,179.742294 40.850491,182.642792 
	C37.343773,186.164154 34.095165,190.011887 30.237745,193.096802 
	C25.599798,196.805923 25.044830,201.012955 26.752937,206.409744 
	C21.972561,203.821442 18.309572,204.460342 14.762919,208.593933 
	C11.301784,212.627808 7.318988,216.219696 3.483869,219.921356 
	C2.875568,220.508484 1.838720,220.651611 1.000001,221.000000 
	C1.000000,147.738800 1.000000,74.477608 1.000000,1.000000 
	C75.687424,1.000000 150.375046,1.000000 225.797241,1.370492 
	C225.556946,2.159178 224.618576,2.752793 223.600784,2.964378 
	C219.747925,3.765319 215.869339,4.442398 211.597870,5.096988 
	C201.680130,7.661657 192.164871,10.295154 180.956100,13.397357 
	C186.832886,24.595154 191.343338,34.631687 197.201279,43.808025 
	C200.690338,49.273609 206.296753,53.387539 211.088928,58.420235 
	C217.137207,62.192619 223.047836,65.653885 229.145081,69.436203 
	C234.483124,71.439606 239.634567,73.121956 246.115540,75.238503 
	C249.151138,62.199421 252.043564,49.635063 255.050705,37.098228 
	C255.320312,35.974297 256.332642,35.028519 257.000000,34.000000 
M170.137634,70.027016 
	C158.299362,68.570503 149.814850,79.801064 150.148880,88.853951 
	C150.591293,100.844131 160.064713,108.996719 171.768661,107.958778 
	C185.650131,103.083527 189.902267,96.880028 187.994476,84.286728 
	C186.852997,76.751854 178.860519,70.112564 170.137634,70.027016 
M165.896942,64.977501 
	C170.585464,65.692711 175.274002,66.407921 180.270035,67.726189 
	C181.718552,68.388527 183.167053,69.050873 183.844482,69.360626 
	C189.175980,64.092712 194.286133,59.043499 198.966217,54.419220 
	C195.476730,49.601803 191.544754,44.793015 188.327423,39.546009 
	C185.488480,34.916092 183.447037,29.797153 181.005676,24.116802 
	C180.062271,21.118227 179.118866,18.119652 178.079239,14.815194 
	C173.013000,17.351372 168.484177,19.618511 163.227112,21.995665 
	C158.138596,24.957737 153.050095,27.919811 147.320389,31.174881 
	C142.547562,34.506878 137.774750,37.838875 132.330826,41.223568 
	C127.219666,45.204678 122.108513,49.185787 116.169769,53.023567 
	C111.130196,52.309361 106.090630,51.595154 100.608131,50.182167 
	C96.069084,49.514847 91.530029,48.847523 86.162643,48.026821 
	C79.610939,45.950695 74.742180,49.418472 69.252251,53.235397 
	C63.487137,56.777351 57.722019,60.319305 51.315212,64.173592 
	C42.987907,69.203369 34.622093,74.170959 26.351603,79.292473 
	C22.878254,81.443344 22.999722,84.707680 26.797806,86.278084 
	C34.995129,89.667480 43.351936,92.671150 52.299168,96.032417 
	C58.518967,98.393478 64.738770,100.754532 71.308083,103.758842 
	C73.545883,104.621544 75.783676,105.484253 78.020988,106.346771 
	C74.824051,113.913811 71.765633,121.152992 69.219589,127.179382 
	C75.610229,134.001495 81.284286,140.058655 87.215263,146.727249 
	C90.534630,150.212784 93.853989,153.698303 97.320656,157.338501 
	C99.230293,155.225754 100.638382,153.667892 102.664871,151.839844 
	C107.814209,146.574432 112.963539,141.309006 118.724068,135.785446 
	C123.497131,130.894974 128.270203,126.004501 133.661118,120.841377 
	C139.460571,115.123093 145.260010,109.404808 150.790253,103.951958 
	C147.068756,97.717148 144.099457,91.794510 146.055435,84.805031 
	C147.084854,81.126465 148.742569,77.623734 150.730270,73.778671 
	C155.486679,70.797318 160.243103,67.815964 165.896942,64.977501 
M117.660805,177.096970 
	C120.337814,179.794464 123.290581,182.275131 125.624107,185.242737 
	C128.751373,189.219727 132.018799,189.688721 136.715515,186.750931 
	C141.796478,184.538712 146.877441,182.326477 152.268723,180.786469 
	C157.139938,193.204285 162.011139,205.622086 166.984314,218.696442 
	C167.044464,219.133759 167.104599,219.571075 167.108994,220.537170 
	C167.393188,220.732071 167.677383,220.926987 168.015884,221.872971 
	C169.325668,225.150986 170.536392,228.473206 171.973480,231.694427 
	C173.373093,234.831650 176.063995,235.295792 177.915344,232.745865 
	C181.012894,228.479492 183.377319,223.680847 186.690750,218.811157 
	C191.738281,210.535049 196.785828,202.258926 202.151306,193.352036 
	C204.884903,188.956711 207.657639,184.584808 210.315384,180.144089 
	C210.783554,179.361862 211.078308,178.240906 210.932922,177.362473 
	C209.372360,167.933792 207.536713,158.547256 206.159180,149.093399 
	C205.646698,145.576340 204.875198,141.181763 206.442490,138.471527 
	C209.500885,133.182785 214.123749,128.798737 218.707794,123.717194 
	C228.287704,109.829140 237.324478,95.646523 243.026596,80.107491 
	C233.695236,76.226868 224.868713,72.556190 215.761505,68.261955 
	C213.080322,66.247818 210.252594,64.399208 207.749649,62.183712 
	C203.106232,58.073536 203.185226,57.984299 198.285400,63.213585 
	C194.930679,68.417175 185.743530,70.041664 191.511047,80.475174 
	C196.474258,89.453644 193.106583,99.524902 184.318298,107.183777 
	C180.049332,111.322624 174.606537,112.455757 168.201202,113.024353 
	C164.963074,112.046394 161.313614,111.705040 158.583481,109.940910 
	C154.513824,107.311211 152.058853,108.130898 149.278580,112.219269 
	C144.838272,116.775459 140.397964,121.331657 135.340958,126.162407 
	C129.856812,131.760696 124.372673,137.358994 118.278671,143.217972 
	C113.480408,148.022385 108.756424,152.904526 103.849289,157.595032 
	C101.726379,159.624222 101.422241,161.135880 103.710373,163.277939 
	C108.299202,167.573837 112.692757,172.078323 117.660805,177.096970 
M100.728249,195.798538 
	C109.142914,197.935516 116.148018,192.781342 124.829613,191.485001 
	C123.410637,189.571381 122.560699,188.071671 121.385086,186.898224 
	C114.683029,180.208313 107.903343,173.596191 100.867493,166.341003 
	C94.591507,160.200607 88.315521,154.060196 81.779068,147.306854 
	C77.405792,142.604385 73.032516,137.901901 68.659241,133.199432 
	C67.981918,133.393951 67.304596,133.588470 66.627274,133.782974 
	C65.084000,140.096298 62.439541,146.397308 62.368874,152.727081 
	C62.318348,157.252914 60.935394,159.862793 58.032509,162.480713 
	C57.169724,163.258789 55.871246,163.998917 55.655727,164.955460 
	C55.226997,166.858337 54.523582,169.751373 55.481636,170.749588 
	C63.755531,179.370255 72.374298,187.659927 81.160782,196.669220 
	C90.892288,206.639938 90.082825,207.144806 100.728249,195.798538 
M67.977875,198.112366 
	C70.039558,194.646301 69.283669,191.572708 65.982574,189.650558 
	C63.176384,188.016617 60.445587,188.779892 58.063171,191.322235 
	C53.743595,195.931732 49.174088,200.306885 44.713562,204.784485 
	C41.463585,208.046906 41.096153,211.512253 43.705666,214.187378 
	C46.314617,216.861969 49.776825,216.604904 53.205948,213.262543 
	C58.088097,208.503952 62.862377,203.634674 67.977875,198.112366 
M24.493217,224.999146 
	C22.616844,226.887482 20.856949,228.912704 18.836651,230.631897 
	C15.850119,233.173294 16.483809,236.151382 18.355227,238.503113 
	C20.201212,240.822906 23.444586,242.283066 26.043470,239.903473 
	C31.901665,234.539581 37.556637,228.916336 42.881374,223.025375 
	C45.054882,220.620728 44.744801,217.410004 41.735573,215.274780 
	C39.057892,213.374786 36.377972,213.016571 33.815613,215.670303 
	C30.926550,218.662384 27.939716,221.560043 24.493217,224.999146 
z"/>
<path fill="#ffffff" opacity="1.000000" stroke="none" 
	d="
M257.000000,33.531342 
	C256.332642,35.028519 255.320312,35.974297 255.050705,37.098228 
	C252.043564,49.635063 249.151138,62.199421 246.115540,75.238503 
	C239.634567,73.121956 234.483124,71.439606 229.183594,69.009125 
	C229.356995,64.966331 229.941360,61.672897 229.956665,58.376827 
	C230.045319,39.251564 229.999985,20.125677 230.000000,1.000000 
	C238.933853,1.000000 247.867691,1.000000 257.000000,1.000000 
	C257.000000,11.686744 257.000000,22.374714 257.000000,33.531342 
z"/>
<path fill="#ffffff" opacity="1.000000" stroke="none" 
	d="
M229.600006,1.000000 
	C229.999985,20.125677 230.045319,39.251564 229.956665,58.376827 
	C229.941360,61.672897 229.356995,64.966331 228.996979,68.688065 
	C223.047836,65.653885 217.137207,62.192619 211.253143,58.028847 
	C211.519974,55.201019 211.960114,53.076488 211.968445,50.950264 
	C212.028275,35.688976 212.000412,20.427341 212.000366,5.165816 
	C215.869339,4.442398 219.747925,3.765319 223.600784,2.964378 
	C224.618576,2.752793 225.556946,2.159178 226.265900,1.370492 
	C227.066666,1.000000 228.133347,1.000000 229.600006,1.000000 
z"/>
<path fill="#ffffff" opacity="1.000000" stroke="none" 
	d="
M51.976852,230.850388 
	C52.072708,231.790146 51.913918,232.857971 52.310505,233.646469 
	C53.695080,236.399368 53.113930,238.483276 50.934452,240.625290 
	C45.636189,245.832535 40.520538,251.225571 35.665661,256.771881 
	C33.629440,257.000000 31.258884,257.000000 28.444164,257.000000 
	C27.895472,256.393951 27.999687,255.604233 27.653513,255.210846 
	C24.802237,251.970749 25.295530,249.077789 28.249336,246.199524 
	C32.523323,242.034805 36.803062,237.868164 40.899323,233.531357 
	C44.126156,230.115021 47.460434,228.733444 51.850170,231.358551 
	C52.067406,230.934464 51.976852,230.850388 51.976852,230.850388 
z"/>
<path fill="#ffffff" opacity="1.000000" stroke="none" 
	d="
M1.000001,221.449982 
	C1.838720,220.651611 2.875568,220.508484 3.483869,219.921356 
	C7.318988,216.219696 11.301784,212.627808 14.762919,208.593933 
	C18.309572,204.460342 21.972561,203.821442 26.711044,206.365875 
	C26.994822,206.006454 26.907026,205.922729 26.907026,205.922729 
	C29.577431,212.126846 25.275805,215.423096 21.524065,219.016617 
	C18.190952,222.209183 14.984857,225.534241 11.716553,228.794632 
	C7.231411,233.268890 6.280545,233.315796 1.268699,229.662857 
	C1.000000,227.299988 1.000000,224.599976 1.000001,221.449982 
z"/>
<path fill="#ffffff" opacity="1.000000" stroke="none" 
	d="
M201.833374,193.982803 
	C196.785828,202.258926 191.738281,210.535049 186.206009,218.567627 
	C185.480865,215.865784 185.035156,213.407806 185.030945,210.949097 
	C184.971466,176.261169 184.972000,141.573135 184.957977,106.885132 
	C193.106583,99.524902 196.474258,89.453644 191.511047,80.475174 
	C185.743530,70.041664 194.930679,68.417175 198.864044,63.359673 
	C199.961731,66.053436 200.926620,68.599983 200.932968,71.148933 
	C201.029266,109.810005 200.985794,148.471405 201.035629,187.132660 
	C201.038574,189.416382 201.555573,191.699432 201.833374,193.982803 
z"/>
<path fill="#ffffff" opacity="1.000000" stroke="none" 
	d="
M184.638138,107.034454 
	C184.972000,141.573135 184.971466,176.261169 185.030945,210.949097 
	C185.035156,213.407806 185.480865,215.865784 185.885788,218.715149 
	C183.377319,223.680847 181.012894,228.479492 177.915344,232.745865 
	C176.063995,235.295792 173.373093,234.831650 171.973480,231.694427 
	C170.536392,228.473206 169.325668,225.150986 167.881195,221.294586 
	C167.586624,220.452286 167.392715,220.216339 167.164734,220.008392 
	C167.104599,219.571075 167.044464,219.133759 167.293976,218.202850 
	C168.069077,215.542969 168.934311,213.377747 168.940018,211.210266 
	C169.026093,178.529190 168.999191,145.847794 168.998795,113.166481 
	C174.606537,112.455757 180.049332,111.322624 184.638138,107.034454 
z"/>
<path fill="#ffffff" opacity="1.000000" stroke="none" 
	d="
M168.600006,113.095413 
	C168.999191,145.847794 169.026093,178.529190 168.940018,211.210266 
	C168.934311,213.377747 168.069077,215.542969 167.242981,217.874573 
	C162.011139,205.622086 157.139938,193.204285 152.122437,179.974518 
	C151.983643,158.843430 152.052429,138.523880 151.906189,118.205864 
	C151.891174,116.117897 150.591110,114.039177 149.887329,111.956169 
	C152.058853,108.130898 154.513824,107.311211 158.583481,109.940910 
	C161.313614,111.705040 164.963074,112.046394 168.600006,113.095413 
z"/>
<path fill="#ffffff" opacity="1.000000" stroke="none" 
	d="
M102.046471,152.110031 
	C100.638382,153.667892 99.230293,155.225754 97.320656,157.338501 
	C93.853989,153.698303 90.534630,150.212784 87.086655,145.987778 
	C86.638809,142.118271 86.051193,138.988968 86.042511,135.858063 
	C85.968697,109.255203 85.972633,82.651978 86.043457,56.049103 
	C86.050438,53.425316 86.660721,50.803127 86.990982,48.180199 
	C91.530029,48.847523 96.069084,49.514847 100.818245,51.007427 
	C101.019203,83.146049 100.989822,114.459457 101.045898,145.772705 
	C101.049683,147.885727 101.697945,149.997620 102.046471,152.110031 
z"/>
<path fill="#ffffff" opacity="1.000000" stroke="none" 
	d="
M102.355667,151.974945 
	C101.697945,149.997620 101.049683,147.885727 101.045898,145.772705 
	C100.989822,114.459457 101.019203,83.146049 101.039703,51.356815 
	C106.090630,51.595154 111.130196,52.309361 116.584137,53.553261 
	C116.999039,79.328438 116.973549,104.573997 117.048294,129.819275 
	C117.054443,131.895065 117.741959,133.968872 118.112877,136.043594 
	C112.963539,141.309006 107.814209,146.574432 102.355667,151.974945 
z"/>
<path fill="#ffffff" opacity="1.000000" stroke="none" 
	d="
M201.992340,193.667419 
	C201.555573,191.699432 201.038574,189.416382 201.035629,187.132660 
	C200.985794,148.471405 201.029266,109.810005 200.932968,71.148933 
	C200.926620,68.599983 199.961731,66.053436 199.168732,63.227154 
	C203.185226,57.984299 203.106232,58.073536 207.749649,62.183712 
	C210.252594,64.399208 213.080322,66.247818 215.892639,69.049652 
	C216.015945,85.820274 215.931519,101.803978 216.093369,117.785179 
	C216.114532,119.876709 217.399307,121.955429 218.098816,124.040085 
	C214.123749,128.798737 209.500885,133.182785 206.442490,138.471527 
	C204.875198,141.181763 205.646698,145.576340 206.159180,149.093399 
	C207.536713,158.547256 209.372360,167.933792 210.932922,177.362473 
	C211.078308,178.240906 210.783554,179.361862 210.315384,180.144089 
	C207.657639,184.584808 204.884903,188.956711 201.992340,193.667419 
z"/>
<path fill="#ffffff" opacity="1.000000" stroke="none" 
	d="
M118.418472,135.914520 
	C117.741959,133.968872 117.054443,131.895065 117.048294,129.819275 
	C116.973549,104.573997 116.999039,79.328438 116.997925,53.624924 
	C122.108513,49.185787 127.219666,45.204678 132.665787,41.654991 
	C133.014908,68.428955 133.029083,94.771492 133.043259,121.114029 
	C128.270203,126.004501 123.497131,130.894974 118.418472,135.914520 
z"/>
<path fill="#ffffff" opacity="1.000000" stroke="none" 
	d="
M86.576813,48.103508 
	C86.660721,50.803127 86.050438,53.425316 86.043457,56.049103 
	C85.972633,82.651978 85.968697,109.255203 86.042511,135.858063 
	C86.051193,138.988968 86.638809,142.118271 86.958191,145.682068 
	C81.284286,140.058655 75.610229,134.001495 69.219589,127.179382 
	C71.765633,121.152992 74.824051,113.913811 78.020988,106.346771 
	C75.783676,105.484253 73.545883,104.621544 71.142227,102.961266 
	C70.984154,87.678543 71.032639,73.193176 70.950722,58.708542 
	C70.939880,56.791931 70.264687,54.879082 69.897171,52.964489 
	C74.742180,49.418472 79.610939,45.950695 86.576813,48.103508 
z"/>
<path fill="#ffffff" opacity="1.000000" stroke="none" 
	d="
M133.352188,120.977707 
	C133.029083,94.771492 133.014908,68.428955 133.001343,41.628647 
	C137.774750,37.838875 142.547562,34.506878 147.728210,31.445145 
	C148.424179,34.164799 148.936783,36.611977 148.960922,39.063969 
	C149.057037,48.822342 148.942291,58.582874 149.051498,68.340973 
	C149.072800,70.244919 149.744751,72.141579 150.116592,74.041603 
	C148.742569,77.623734 147.084854,81.126465 146.055435,84.805031 
	C144.099457,91.794510 147.068756,97.717148 150.790253,103.951958 
	C145.260010,109.404808 139.460571,115.123093 133.352188,120.977707 
z"/>
<path fill="#ffffff" opacity="1.000000" stroke="none" 
	d="
M149.582947,112.087723 
	C150.591110,114.039177 151.891174,116.117897 151.906189,118.205864 
	C152.052429,138.523880 151.983643,158.843430 151.967285,179.638397 
	C146.877441,182.326477 141.796478,184.538712 136.345932,186.375870 
	C135.650696,181.380722 135.007599,176.757233 135.057404,172.141190 
	C135.223770,156.721970 135.638229,141.305420 135.957657,125.887848 
	C140.397964,121.331657 144.838272,116.775459 149.582947,112.087723 
z"/>
<path fill="#ffffff" opacity="1.000000" stroke="none" 
	d="
M80.890274,196.048248 
	C72.374298,187.659927 63.755531,179.370255 55.481636,170.749588 
	C54.523582,169.751373 55.226997,166.858337 55.655727,164.955460 
	C55.871246,163.998917 57.169724,163.258789 58.032509,162.480713 
	C60.935394,159.862793 62.318348,157.252914 62.368874,152.727081 
	C62.439541,146.397308 65.084000,140.096298 66.627274,133.782974 
	C67.304596,133.588470 67.981918,133.393951 68.659241,133.199432 
	C73.032516,137.901901 77.405792,142.604385 81.899384,148.086655 
	C82.013206,162.513947 82.053223,176.161774 81.950768,189.808548 
	C81.935135,191.890976 81.260254,193.968475 80.890274,196.048248 
z"/>
<path fill="#ffffff" opacity="1.000000" stroke="none" 
	d="
M211.597870,5.096989 
	C212.000412,20.427341 212.028275,35.688976 211.968445,50.950264 
	C211.960114,53.076488 211.519974,55.201019 211.115509,57.717728 
	C206.296753,53.387539 200.690338,49.273609 197.201279,43.808025 
	C191.343338,34.631687 186.832886,24.595154 180.956100,13.397357 
	C192.164871,10.295154 201.680130,7.661657 211.597870,5.096989 
z"/>
<path fill="#ffffff" opacity="1.000000" stroke="none" 
	d="
M218.403305,123.878639 
	C217.399307,121.955429 216.114532,119.876709 216.093369,117.785179 
	C215.931519,101.803978 216.015945,85.820274 216.032990,69.361435 
	C224.868713,72.556190 233.695236,76.226868 243.026596,80.107491 
	C237.324478,95.646523 228.287704,109.829140 218.403305,123.878639 
z"/>
<path fill="#ffffff" opacity="1.000000" stroke="none" 
	d="
M69.574707,53.099945 
	C70.264687,54.879082 70.939880,56.791931 70.950722,58.708542 
	C71.032639,73.193176 70.984154,87.678543 70.967468,102.639641 
	C64.738770,100.754532 58.518967,98.393478 52.041851,95.448898 
	C51.841991,84.530678 51.899448,74.195969 51.956905,63.861259 
	C57.722019,60.319305 63.487137,56.777351 69.574707,53.099945 
z"/>
<path fill="#ffffff" opacity="1.000000" stroke="none" 
	d="
M81.025528,196.358734 
	C81.260254,193.968475 81.935135,191.890976 81.950768,189.808548 
	C82.053223,176.161774 82.013206,162.513947 82.029617,148.393127 
	C88.315521,154.060196 94.591507,160.200607 100.644951,166.812469 
	C99.948479,170.289291 99.047279,173.300461 99.088058,176.298798 
	C99.177612,182.883804 99.743698,189.462357 100.115234,196.043533 
	C90.082825,207.144806 90.892288,206.639938 81.025528,196.358734 
z"/>
<path fill="#ffffff" opacity="1.000000" stroke="none" 
	d="
M135.649307,126.025124 
	C135.638229,141.305420 135.223770,156.721970 135.057404,172.141190 
	C135.007599,176.757233 135.650696,181.380722 135.986359,186.416626 
	C132.018799,189.688721 128.751373,189.219727 125.624107,185.242737 
	C123.290581,182.275131 120.337814,179.794464 117.894073,176.624817 
	C119.029663,175.052979 120.693237,173.967453 120.713943,172.851425 
	C120.880615,163.869644 120.793167,154.881012 120.611130,145.897964 
	C120.591042,144.906509 119.488861,143.936981 118.888535,142.957275 
	C124.372673,137.358994 129.856812,131.760696 135.649307,126.025124 
z"/>
<path fill="#ffffff" opacity="1.000000" stroke="none" 
	d="
M163.955368,21.885649 
	C168.484177,19.618511 173.013000,17.351372 178.079239,14.815194 
	C179.118866,18.119652 180.062271,21.118227 180.864761,24.896358 
	C180.483215,27.787592 180.048676,29.897938 180.034149,32.011166 
	C179.953796,43.714767 179.975677,55.419067 179.962524,67.123123 
	C175.274002,66.407921 170.585464,65.692711 165.448547,64.447952 
	C165.000397,52.171131 165.054977,40.423397 164.953598,28.677008 
	C164.934036,26.410519 164.303864,24.149300 163.955368,21.885649 
z"/>
<path fill="#ffffff" opacity="1.000000" stroke="none" 
	d="
M163.591248,21.940657 
	C164.303864,24.149300 164.934036,26.410519 164.953598,28.677008 
	C165.054977,40.423397 165.000397,52.171131 164.999847,64.376503 
	C160.243103,67.815964 155.486679,70.797318 150.423431,73.910141 
	C149.744751,72.141579 149.072800,70.244919 149.051498,68.340973 
	C148.942291,58.582874 149.057037,48.822342 148.960922,39.063969 
	C148.936783,36.611977 148.424179,34.164799 148.048813,31.298649 
	C153.050095,27.919811 158.138596,24.957737 163.591248,21.940657 
z"/>
<path fill="#ffffff" opacity="1.000000" stroke="none" 
	d="
M170.997330,107.832718 
	C160.064713,108.996719 150.591293,100.844131 150.148880,88.853951 
	C149.814850,79.801064 158.299362,68.570503 170.567947,70.555115 
	C170.997955,83.333046 170.997635,95.582878 170.997330,107.832718 
z"/>
<path fill="#ffffff" opacity="1.000000" stroke="none" 
	d="
M51.636059,64.017426 
	C51.899448,74.195969 51.841991,84.530678 51.714012,95.349007 
	C43.351936,92.671150 34.995129,89.667480 26.797806,86.278084 
	C22.999722,84.707680 22.878254,81.443344 26.351603,79.292473 
	C34.622093,74.170959 42.987907,69.203369 51.636059,64.017426 
z"/>
<path fill="#ffffff" opacity="1.000000" stroke="none" 
	d="
M171.382996,107.895752 
	C170.997635,95.582878 170.997955,83.333046 170.997742,70.625214 
	C178.860519,70.112564 186.852997,76.751854 187.994476,84.286728 
	C189.902267,96.880028 185.650131,103.083527 171.382996,107.895752 
z"/>
<path fill="#ffffff" opacity="1.000000" stroke="none" 
	d="
M180.116272,67.424660 
	C179.975677,55.419067 179.953796,43.714767 180.034149,32.011166 
	C180.048676,29.897938 180.483215,27.787592 180.888641,25.285034 
	C183.447037,29.797153 185.488480,34.916092 188.327423,39.546009 
	C191.544754,44.793015 195.476730,49.601803 198.966217,54.419220 
	C194.286133,59.043499 189.175980,64.092712 183.844482,69.360626 
	C183.167053,69.050873 181.718552,68.388527 180.116272,67.424660 
z"/>
<path fill="#ffffff" opacity="1.000000" stroke="none" 
	d="
M100.421738,195.921036 
	C99.743698,189.462357 99.177612,182.883804 99.088058,176.298798 
	C99.047279,173.300461 99.948479,170.289291 100.786224,167.120789 
	C107.903343,173.596191 114.683029,180.208313 121.385086,186.898224 
	C122.560699,188.071671 123.410637,189.571381 124.829613,191.485001 
	C116.148018,192.781342 109.142914,197.935516 100.421738,195.921036 
z"/>
<path fill="#ffffff" opacity="1.000000" stroke="none" 
	d="
M118.583603,143.087616 
	C119.488861,143.936981 120.591042,144.906509 120.611130,145.897964 
	C120.793167,154.881012 120.880615,163.869644 120.713943,172.851425 
	C120.693237,173.967453 119.029663,175.052979 117.647125,176.324677 
	C112.692757,172.078323 108.299202,167.573837 103.710373,163.277939 
	C101.422241,161.135880 101.726379,159.624222 103.849289,157.595032 
	C108.756424,152.904526 113.480408,148.022385 118.583603,143.087616 
z"/>
<path fill="#ffffff" opacity="1.000000" stroke="none" 
	d="
M52.109436,230.979752 
	C49.959606,226.382370 50.936508,222.777847 54.972504,219.381409 
	C59.279190,215.757141 63.011551,211.452774 67.019371,207.470215 
	C69.837967,204.669388 72.959450,203.940018 76.146767,206.729202 
	C78.952995,209.184891 78.572868,212.910599 75.390808,216.105774 
	C71.052185,220.462234 66.493103,224.619629 62.406158,229.199341 
	C59.453762,232.507706 56.412926,232.713623 52.374435,230.916656 
	C51.976852,230.850388 52.067406,230.934464 52.109436,230.979752 
z"/>
<path fill="#ffffff" opacity="1.000000" stroke="none" 
	d="
M67.830307,198.462524 
	C62.862377,203.634674 58.088097,208.503952 53.205948,213.262543 
	C49.776825,216.604904 46.314617,216.861969 43.705666,214.187378 
	C41.096153,211.512253 41.463585,208.046906 44.713562,204.784485 
	C49.174088,200.306885 53.743595,195.931732 58.063171,191.322235 
	C60.445587,188.779892 63.176384,188.016617 65.982574,189.650558 
	C69.283669,191.572708 70.039558,194.646301 67.830307,198.462524 
z"/>
<path fill="#ffffff" opacity="1.000000" stroke="none" 
	d="
M24.744312,224.748962 
	C27.939716,221.560043 30.926550,218.662384 33.815613,215.670303 
	C36.377972,213.016571 39.057892,213.374786 41.735573,215.274780 
	C44.744801,217.410004 45.054882,220.620728 42.881374,223.025375 
	C37.556637,228.916336 31.901665,234.539581 26.043470,239.903473 
	C23.444586,242.283066 20.201212,240.822906 18.355227,238.503113 
	C16.483809,236.151382 15.850119,233.173294 18.836651,230.631897 
	C20.856949,228.912704 22.616844,226.887482 24.744312,224.748962 
z"/>
<path fill="#ffffff" opacity="1.000000" stroke="none" 
	d="
M27.036713,206.050323 
	C25.044830,201.012955 25.599798,196.805923 30.237745,193.096802 
	C34.095165,190.011887 37.343773,186.164154 40.850491,182.642792 
	C43.738934,179.742294 47.075340,178.843948 50.483135,181.340256 
	C53.142193,183.288071 52.388134,188.088989 49.281502,191.205887 
	C44.954788,195.546936 40.433117,199.711868 36.346790,204.267822 
	C33.699276,207.219589 31.050890,207.729706 27.306488,205.963562 
	C26.907026,205.922729 26.994822,206.006454 27.036713,206.050323 
z"/>
<path fill="#ffffff" opacity="1.000000" stroke="none" 
	d="
M167.136871,220.272781 
	C167.392715,220.216339 167.586624,220.452286 167.854034,220.919052 
	C167.677383,220.926987 167.393188,220.732071 167.136871,220.272781 
z"/>
</svg>