<svg width="1352" height="257" viewBox="0 0 1352 257" fill="none" xmlns="http://www.w3.org/2000/svg">
<path d="M1345.83 122.987C1345.21 122.319 1345.21 122.319 1344.59 121.65C1344.59 120.982 1344.59 120.313 1343.97 120.313C1343.97 120.313 1343.97 119.645 1344.59 119.645C1346.44 120.313 1347.68 123.655 1349.53 119.645C1350.15 119.645 1352 119.645 1350.77 118.308C1348.91 116.303 1345.83 116.303 1343.36 114.966C1340.89 114.298 1337.18 114.966 1335.95 110.956C1335.95 109.619 1336.57 108.282 1337.18 108.282C1337.8 108.282 1337.8 108.282 1338.42 108.282C1339.65 108.282 1340.27 108.282 1340.89 106.945C1339.65 106.277 1338.42 106.277 1337.18 105.608C1336.57 104.272 1335.95 104.272 1334.71 104.272C1334.1 103.603 1332.86 102.266 1332.25 101.598C1334.71 101.598 1337.18 101.598 1340.27 101.598C1337.8 98.9243 1335.95 96.2507 1333.48 96.9191C1330.39 97.5875 1329.78 94.2455 1327.31 94.2455C1326.69 94.2455 1326.69 94.2455 1326.07 94.9139C1325.45 94.2455 1325.45 94.2455 1324.84 93.5771C1324.22 92.2402 1324.22 90.9034 1326.07 90.9034C1326.69 90.9034 1327.31 90.9034 1328.54 90.9034C1330.39 91.5718 1331.63 92.9087 1333.48 93.5771C1337.8 94.9139 1341.51 97.5875 1346.44 98.9243C1344.59 95.5823 1340.89 95.5823 1339.65 92.9087C1338.42 90.235 1335.95 89.5666 1333.48 89.5666C1332.25 88.2298 1330.39 87.5614 1328.54 86.893C1327.92 85.5562 1326.07 85.5562 1324.84 85.5562C1327.92 82.8825 1331.63 84.8878 1334.71 84.2194C1336.57 82.8825 1335.95 82.2141 1334.71 81.5457C1334.71 82.2141 1334.71 82.2141 1334.71 82.8826C1334.71 82.2141 1335.33 82.2141 1334.71 81.5457C1331.63 80.2089 1327.92 78.2037 1324.84 76.8669C1324.22 76.1985 1322.98 75.5301 1322.37 74.8617C1322.37 70.8512 1321.13 68.846 1317.43 68.1776C1316.19 66.8408 1314.96 66.1724 1313.11 66.8408C1311.87 66.1724 1310.64 65.504 1309.4 65.504C1312.49 62.1619 1312.49 62.1619 1309.4 60.1567C1310.02 58.8199 1310.02 58.1515 1308.17 57.4831C1304.46 56.1463 1300.14 54.8094 1295.82 54.8094C1294.59 54.8094 1293.97 54.8094 1293.35 53.4726C1292.73 52.8042 1292.12 52.1358 1291.5 52.1358C1283.47 50.799 1276.07 49.4622 1268.04 49.4622C1264.95 49.4622 1261.25 47.457 1258.16 48.7938C1258.78 49.4622 1259.4 50.1306 1259.4 50.799C1258.78 50.799 1257.55 50.799 1256.93 50.799C1256.31 50.799 1255.08 50.799 1254.46 50.799C1251.99 51.4674 1249.52 51.4674 1247.05 50.799C1245.82 49.4622 1243.96 49.4622 1242.11 49.4622C1241.49 48.7938 1239.64 50.1306 1240.26 48.1254C1240.26 47.457 1241.49 47.457 1242.11 47.457C1243.35 47.457 1244.58 47.457 1245.82 47.457C1247.05 47.457 1247.67 47.457 1248.29 46.1201C1249.52 46.7886 1250.75 47.457 1251.37 45.4517C1251.99 43.4465 1250.14 43.4465 1249.52 43.4465C1248.9 43.4465 1247.67 43.4465 1247.05 43.4465C1239.64 43.4465 1238.41 41.4413 1236.56 34.0888C1235.94 32.752 1234.7 30.7468 1231.62 30.7468C1229.76 30.7468 1229.15 30.0784 1228.53 28.0731C1227.3 26.7363 1226.06 28.0731 1225.44 28.7416C1226.68 28.7416 1227.91 28.7416 1228.53 28.0731C1228.53 27.4047 1228.53 27.4047 1228.53 26.7363C1229.76 26.7363 1231.62 26.7363 1234.09 26.7363C1231.62 25.3995 1230.38 24.0627 1228.53 24.0627C1226.06 22.0575 1222.97 20.7207 1221.74 17.3786C1221.12 16.7102 1219.89 16.7102 1219.27 16.0418C1218.65 16.0418 1218.65 16.0418 1218.04 16.0418C1217.42 16.0418 1216.18 16.0418 1215.57 16.0418C1214.95 16.0418 1214.33 16.0418 1214.33 16.7102C1213.71 16.7102 1213.71 16.7102 1213.1 16.7102C1213.1 16.0418 1213.1 15.3734 1213.1 14.0366C1213.71 10.6946 1211.24 11.363 1209.39 10.0261C1208.77 10.0261 1207.54 9.35774 1206.92 10.0261C1205.07 12.6998 1201.98 10.6946 1199.51 11.363C1195.81 8.68933 1192.72 11.363 1189.64 12.6998V12.0314C1190.25 11.363 1190.25 11.363 1190.87 10.6946C1190.25 10.0261 1189.02 10.0261 1188.4 10.6946C1187.78 10.6946 1186.55 10.6946 1185.93 10.6946C1185.32 9.35774 1184.7 9.35774 1183.46 9.35774C1182.85 8.68933 1182.85 8.68933 1182.23 8.02092C1181.61 7.35252 1181.61 7.35252 1180.99 6.68411C1180.38 4.67889 1179.14 2.67366 1177.29 4.67889C1175.44 6.0157 1172.97 4.01048 1171.12 6.68411C1168.65 4.01048 1164.94 5.34729 1161.86 4.01048C1159.39 2.67367 1156.92 3.34207 1155.07 6.0157C1153.83 4.67889 1151.36 2.67367 1150.13 4.01048C1146.42 8.68933 1142.72 2.67366 1139.63 4.67889C1137.78 2.00526 1135.93 4.01048 1133.46 4.01048C1132.22 3.34207 1130.99 4.01048 1129.75 2.67367C1126.67 2.67367 1123.58 2.67367 1119.88 2.67367C1117.41 2.00526 1114.94 1.33685 1112.47 2.67367C1111.23 2.67367 1110 2.67367 1108.76 2.67367C1105.68 2.00526 1102.59 2.00526 1098.89 2.67367C1098.27 2.67367 1098.27 2.67367 1097.65 2.67367C1097.03 2.00526 1095.8 2.00526 1095.18 2.67367C1093.95 2.67367 1092.71 2.67367 1091.48 3.34207C1085.3 1.33685 1078.51 2.67367 1071.72 3.34207C1068.02 1.33685 1063.7 2.00526 1059.99 2.67367C1050.12 3.34207 1040.24 3.34207 1030.36 3.34207C1027.89 2.00526 1025.42 3.34207 1022.95 3.34207C1022.33 2.67367 1021.1 2.67367 1020.48 3.34207C1017.4 2.67367 1014.93 2.67367 1011.84 3.34207C1007.52 3.34207 1003.81 2.00526 999.493 3.34207C998.875 3.34207 998.875 3.34207 998.258 3.34207C997.641 4.01048 997.641 4.01048 997.023 4.67889C996.406 6.68411 995.171 8.68933 993.937 5.34729C992.702 3.34207 992.084 1.33685 989.615 3.34207C986.528 2.00526 984.059 1.33685 980.972 3.34207C979.737 2.67367 978.503 1.33685 977.268 2.00526C973.564 2.00526 970.477 1.33685 966.773 2.00526C963.686 2.67367 960.599 4.01048 956.895 4.01048C956.278 4.01048 955.661 4.67889 955.043 5.34729C954.426 5.34729 953.809 4.67889 953.191 4.67889C952.574 4.01048 952.574 3.34207 951.339 3.34207C950.722 4.01048 950.104 4.01048 948.87 4.67889C948.87 4.01048 948.253 4.01048 947.635 4.67889C947.018 4.67889 946.4 4.01048 945.783 4.67889C944.548 4.67889 942.696 5.34729 941.462 5.34729C935.288 4.67889 929.115 4.67889 923.558 8.68933C923.558 7.35252 922.941 6.0157 922.941 6.0157C919.854 6.0157 918.002 2.67367 914.298 2.67367C914.298 2.67367 914.298 2.67367 913.681 2.67367H913.063C909.977 2.67367 906.89 2.00526 906.273 6.68411C906.273 8.02092 904.421 7.35252 903.803 7.35252C906.273 3.34207 903.186 3.34207 900.716 3.34207C895.16 4.01048 889.604 2.00526 884.048 2.67367C879.726 3.34207 874.788 2.00526 870.466 4.01048C867.997 4.67889 865.527 2.67367 863.058 2.67367C863.058 1.33685 863.058 -0.668372 860.589 1.33685C859.971 2.00526 858.736 3.34207 858.119 4.01048C856.884 4.67889 856.884 6.68411 855.032 5.34729C854.415 4.01048 853.18 3.34207 851.328 3.34207C850.711 3.34207 849.476 4.01048 850.711 5.34729C850.094 7.35252 848.859 6.68411 847.624 6.68411C847.007 2.67367 846.389 2.67367 842.685 3.34207C839.599 4.01048 837.129 5.34729 835.277 7.35252C834.042 7.35252 833.425 5.34729 831.573 5.34729C830.338 4.67889 829.104 5.34729 827.869 4.67889C827.252 4.67889 826.017 4.67889 825.399 4.67889C822.313 4.01048 818.609 8.02092 816.139 3.34207C815.522 2.67367 814.904 4.01048 814.287 5.34729C812.435 6.68411 811.2 3.34207 809.348 4.01048C807.496 4.67889 805.027 6.68411 803.175 3.34207C802.557 2.67367 801.323 2.67367 800.705 3.34207C798.236 4.67889 795.149 3.34207 792.68 3.34207C790.21 0.668443 788.358 4.01048 786.506 4.01048C785.889 4.01048 785.889 4.01048 785.272 4.01048C784.654 3.34207 783.42 4.01048 782.802 4.01048C781.568 4.01048 780.333 5.34729 779.098 4.67889C778.481 3.34207 777.863 3.34207 776.629 4.01048C774.777 5.34729 772.307 4.67889 770.455 4.67889C767.368 3.34207 763.664 2.00526 760.578 4.67889C759.343 5.34729 758.108 5.34729 757.491 4.67889C755.021 3.34207 753.169 4.67889 751.317 5.34729C748.848 5.34729 746.378 5.34729 743.292 5.34729C738.353 4.67889 733.414 6.68411 728.475 8.02092C727.241 8.02092 726.623 11.363 724.771 9.35774C722.919 6.0157 719.832 8.02092 717.363 7.35252C716.746 7.35252 716.746 7.35252 716.128 7.35252C715.511 7.35252 715.511 7.35252 714.894 7.35252C713.659 7.35252 712.424 7.35252 711.189 8.02092C710.572 8.02092 710.572 8.02092 709.955 8.02092C708.103 7.35252 706.868 10.0261 705.016 9.35774C704.399 8.68933 704.399 8.02092 703.781 8.02092C701.312 4.67889 701.312 4.67889 698.842 8.02092C696.99 8.68933 695.756 9.35774 693.904 8.68933C692.052 8.02092 690.2 8.68933 689.582 10.6946C683.409 10.6946 677.235 10.6946 671.062 12.0314C669.827 12.0314 668.592 12.0314 667.975 12.6998C664.888 12.0314 661.801 12.0314 659.332 13.3682C658.715 13.3682 658.715 13.3682 658.097 13.3682C656.245 14.705 655.01 12.6998 653.158 13.3682C652.541 13.3682 652.541 13.3682 651.924 13.3682C650.689 12.0314 648.22 12.0314 646.985 12.0314C640.811 14.0366 634.638 14.0366 629.082 16.7102C625.995 18.7154 623.526 18.047 621.056 16.0418C617.969 14.0366 616.735 14.0366 614.883 17.3786C616.735 19.3838 616.735 16.0418 616.117 16.7102C615.5 16.7102 615.5 16.0418 615.5 15.3734C615.5 14.705 615.5 14.0366 614.883 14.0366C614.265 13.3682 613.031 13.3682 612.413 14.0366H611.796C610.561 14.705 609.326 14.0366 608.092 15.3734C605.005 15.3734 601.918 15.3734 598.831 16.7102C595.745 18.047 592.658 18.047 589.571 17.3786C582.163 16.7102 575.372 16.0418 567.964 16.7102C564.26 16.7102 560.556 18.047 557.469 16.7102C550.678 14.705 544.505 16.7102 537.714 16.7102C532.775 16.7102 527.836 16.0418 522.897 17.3786C522.28 17.3786 521.045 16.0418 521.045 16.7102C516.724 18.047 512.402 17.3786 507.463 18.047C504.994 17.3786 503.142 15.3734 500.055 17.3786C493.882 17.3786 487.708 16.7102 482.152 20.0523C481.535 21.3891 480.3 19.3838 479.683 18.7154C477.831 18.047 475.978 16.0418 473.509 18.7154C472.892 19.3838 471.04 17.3786 469.805 18.7154C469.188 18.7154 468.57 19.3838 467.953 19.3838C466.718 18.7154 466.101 18.7154 464.866 18.047C462.397 16.7102 459.31 15.3734 456.223 16.7102C453.136 16.0418 450.05 16.7102 446.963 17.3786C444.494 15.3734 442.641 18.047 440.789 18.7154C439.555 18.047 438.937 17.3786 438.32 16.7102C437.703 16.7102 437.085 16.7102 437.085 16.7102C435.233 18.047 433.381 18.7154 430.912 18.047C428.442 16.7102 425.356 18.047 422.886 16.7102C422.269 16.0418 420.417 16.7102 419.799 18.047C419.182 19.3839 418.565 19.3839 417.947 18.047C417.33 17.3786 416.713 17.3786 416.713 16.7102C416.095 16.7102 416.095 16.7102 415.478 16.7102C409.922 16.0418 404.366 16.0418 398.81 16.7102C397.575 16.7102 395.723 14.705 394.488 17.3786C393.871 18.047 393.253 18.047 392.019 17.3786C386.462 14.0366 380.289 15.3734 374.115 16.7102C373.498 16.0418 372.263 16.0418 371.646 15.3734C369.177 16.0418 366.707 14.0366 364.238 17.3786C361.768 20.0523 361.768 20.0523 359.916 16.0418C358.682 14.705 358.682 13.3682 356.83 15.3734C356.212 15.3734 356.212 15.3734 355.595 15.3734C354.978 15.3734 354.978 15.3734 354.36 15.3734C353.743 14.705 352.508 14.0366 351.891 15.3734C351.273 15.3734 351.273 16.0418 350.656 16.0418C350.039 16.0418 349.421 16.7102 349.421 16.7102C348.804 16.0418 348.187 14.705 346.952 15.3734C346.952 15.3734 346.952 15.3734 346.335 15.3734C346.335 15.3734 346.335 15.3734 346.952 15.3734C346.335 15.3734 346.335 15.3734 345.717 15.3734C341.396 14.705 336.457 13.3682 332.136 15.3734C331.518 15.3734 331.518 15.3734 330.901 15.3734C330.901 14.705 330.901 14.705 330.283 14.0366V13.3682C329.666 13.3682 329.666 13.3682 329.666 14.0366C325.345 16.0418 321.641 13.3682 317.936 13.3682C312.998 13.3682 308.059 12.0314 303.737 14.0366C303.12 14.0366 303.12 14.0366 302.503 14.0366C301.885 14.0366 301.885 14.0366 301.268 14.0366C298.181 13.3682 295.712 11.363 293.242 14.705C292.625 16.0418 291.39 14.705 290.156 14.0366C287.069 11.363 287.069 11.363 283.982 15.3734C281.513 14.0366 279.043 10.6946 275.957 12.6998C272.252 11.363 272.87 16.0418 271.018 16.7102C270.4 16.7102 270.4 16.7102 269.783 16.7102C269.783 16.0418 269.783 16.0418 269.783 15.3734C269.783 14.0366 270.4 12.6998 268.548 12.6998C266.696 11.363 264.844 10.6946 262.375 11.363C256.819 11.363 251.262 9.35774 245.089 11.363C240.15 10.0261 235.829 11.363 230.89 10.6946C229.038 10.6946 228.42 12.0314 227.186 12.6998C227.186 12.6998 225.951 12.6998 225.951 13.3682C225.334 14.705 224.099 14.705 223.482 15.3734C220.395 11.363 216.691 10.0261 212.369 11.363C209.283 12.0314 206.196 12.0314 203.109 11.363C200.022 10.6946 197.553 11.363 196.936 15.3734C196.318 15.3734 195.083 15.3734 194.466 15.3734C188.91 10.6946 182.736 10.0261 175.946 12.0314C172.859 11.363 169.155 12.0314 166.068 12.0314C162.981 12.0314 160.512 8.02092 156.808 11.363C156.19 12.0314 155.573 11.363 155.573 10.6946C154.956 9.35774 153.721 9.35774 152.486 10.6946C150.017 12.6998 146.93 12.0314 143.843 11.363C140.757 11.363 136.435 8.02092 133.966 12.6998C133.348 12.6998 132.731 12.6998 131.496 12.6998C130.879 12.0314 130.879 11.363 130.262 11.363C125.323 7.35252 120.384 10.0261 115.445 10.0261C113.593 10.0261 111.741 11.363 109.889 10.6946C106.802 9.35774 103.098 10.0261 100.011 10.6946C97.5419 11.363 95.0725 10.6946 93.2205 10.0261C90.7511 8.02092 88.899 8.68933 86.4296 9.35774C86.4296 10.0261 86.4296 10.0261 86.4296 10.6946V10.0261C85.8122 10.0261 85.8123 10.0261 85.1949 10.0261C84.5775 10.0261 83.3429 10.0261 82.7255 10.6946C79.6387 10.6946 75.9346 10.0261 72.8479 12.0314C70.3785 12.0314 67.9091 12.0314 65.4397 12.6998C58.0314 13.3682 49.3885 16.0418 41.3629 18.047C39.5109 18.7154 37.0415 19.3838 37.0415 22.0575C36.4241 26.7363 33.9547 31.4152 33.9547 36.094C30.868 42.1097 29.0159 48.7938 27.1639 56.1463C25.9291 57.4831 25.3118 59.4883 24.6944 60.8251C22.8424 66.1724 19.1383 70.8512 20.9903 76.8669C20.9903 77.5353 20.9903 77.5353 20.9903 78.2037C20.9903 80.8773 20.9903 83.551 20.9903 86.2246C17.9036 87.5614 13.5821 88.8982 12.9648 94.2455C11.1127 96.9191 12.3474 100.261 12.3474 102.935C12.3474 103.603 12.3474 104.272 11.7301 104.272C10.4954 106.277 9.87801 107.614 9.87801 109.619C9.87801 110.287 9.87801 110.287 9.87801 110.956C9.87801 112.961 10.4954 115.635 8.6433 117.64C7.4086 118.977 8.02595 120.982 8.02595 122.987H7.4086V123.655C5.55654 125.661 5.55654 127.666 6.79125 129.671C6.79125 130.339 7.4086 131.008 7.4086 131.676C7.4086 132.345 6.79125 133.013 6.1739 133.682C5.55654 133.682 5.55654 133.682 4.93919 134.35H4.32184V135.018C4.32184 135.687 3.70449 135.687 3.70449 136.355C-0.616972 142.371 -1.23432 148.386 2.46979 155.071V155.739V156.407C3.70449 157.744 2.46979 159.081 3.70449 160.418V161.086V161.755C3.08714 162.423 2.46979 163.76 3.70449 164.428C7.4086 166.433 11.1127 165.097 14.8168 165.765C15.4342 165.765 16.0515 165.765 16.6689 165.765C17.2862 165.765 17.9036 166.433 18.5209 166.433C18.5209 167.102 19.1383 167.102 19.1383 167.102C19.7556 167.102 20.373 167.77 20.9903 168.439C21.6077 169.775 21.6077 171.112 20.9903 172.449C20.373 172.449 20.373 173.118 19.7556 173.118V173.786C19.7556 174.454 19.7556 174.454 19.7556 175.123C20.373 175.123 20.373 175.123 20.9903 175.123C20.373 175.123 20.373 174.454 19.7556 175.123C17.9036 178.465 19.1383 183.144 17.2862 187.154C13.5821 190.496 16.0515 193.838 16.0515 197.849C12.9648 200.522 11.7301 204.533 11.1127 208.543C11.1127 210.548 11.1127 212.554 9.87801 214.559C8.6433 215.227 8.02595 215.896 8.02595 217.232C5.55654 224.585 5.55654 231.937 9.26065 238.621C12.3474 243.3 11.7301 243.969 17.2862 243.969C17.9036 243.969 17.9036 243.969 18.5209 243.969C23.4597 244.637 28.3986 243.969 33.3374 243.969C39.5109 244.637 46.3018 245.306 52.4753 245.306C53.71 246.642 55.562 246.642 57.4141 245.974C59.8835 245.974 62.3529 245.306 64.2049 245.974C64.8223 245.974 64.8223 245.974 65.4397 245.974C67.2917 245.974 69.1438 246.642 70.3785 246.642C74.0826 246.642 77.7867 247.311 80.8734 244.637C80.8734 245.974 81.4908 247.311 82.7255 246.642C87.047 245.306 90.7511 247.311 94.4552 247.979C95.6899 247.979 97.5419 248.648 98.1593 247.311C98.1593 245.974 100.011 246.642 100.629 245.974C101.863 244.637 102.481 245.974 103.715 247.311C104.333 247.979 105.568 249.316 106.802 247.311C109.272 245.306 111.741 246.642 114.21 247.311C116.062 249.316 117.297 247.979 119.149 247.311C119.767 247.311 120.384 247.311 120.384 247.311C121.001 247.311 121.619 246.642 121.619 245.974C123.471 245.974 124.705 245.974 126.557 247.311C129.644 249.984 133.966 250.653 136.435 248.648C139.522 247.311 141.374 247.979 143.843 248.648C145.695 249.316 147.547 251.321 150.017 248.648C151.869 248.648 153.721 246.642 155.573 247.979C158.66 249.984 162.364 249.316 166.068 249.316C172.859 249.984 180.267 248.648 187.058 250.653C188.293 250.653 188.91 249.316 189.527 248.648C190.145 248.648 190.762 248.648 191.379 247.979C191.997 248.648 193.231 249.316 193.849 249.316C196.936 251.99 199.405 251.99 201.257 249.316C202.492 249.316 203.726 249.984 204.344 250.653C207.431 253.995 209.283 253.326 210.517 250.653C213.604 249.316 216.691 250.653 219.778 251.321C222.247 251.99 225.334 252.658 225.951 247.979C227.186 248.648 228.42 249.984 230.273 249.316C232.125 248.648 230.89 245.306 232.742 245.306C234.594 245.974 234.594 247.311 235.211 247.979C237.063 250.653 242.62 251.321 245.706 247.979C246.324 247.311 246.941 246.642 247.558 247.311C249.41 249.984 251.88 249.984 254.349 250.653C258.053 251.99 262.375 249.984 266.079 249.984C267.314 250.653 268.548 251.321 269.783 251.99C271.018 252.658 271.635 253.326 272.252 251.99C272.87 251.321 272.87 251.321 273.487 250.653C274.722 249.316 275.957 249.316 277.191 249.316C278.426 249.316 279.043 249.984 279.661 250.653C280.895 252.658 282.747 251.99 284.599 251.321C286.452 250.653 287.686 250.653 289.538 251.321C293.242 249.316 296.947 249.316 300.651 251.321C304.972 253.995 310.528 251.321 315.467 252.658C318.554 249.984 321.641 251.99 324.727 251.99C327.197 252.658 329.049 250.653 331.518 251.99C335.84 253.995 341.396 254.663 346.335 253.326C347.569 251.321 349.421 253.326 351.273 252.658C351.891 252.658 353.126 252.658 353.743 252.658C356.212 253.995 358.064 253.326 359.916 250.653C360.534 250.653 360.534 250.653 361.151 250.653C363.003 250.653 364.238 252.658 366.09 252.658C366.707 252.658 366.707 253.326 367.325 253.326C367.325 253.326 367.942 254.663 367.942 253.995C373.498 251.321 379.054 252.658 384.61 254.663C385.845 255.332 386.462 255.332 387.08 253.995C388.932 254.663 389.549 253.326 390.784 252.658C392.636 253.326 394.488 255.332 396.957 254.663C398.81 254.663 400.662 256 403.131 254.663C406.218 254.663 409.305 253.995 412.391 256C413.626 256.668 414.861 256 415.478 253.995C416.095 251.321 417.33 251.321 418.565 253.326C419.799 255.332 421.034 255.332 422.886 253.326C424.121 251.99 425.973 251.321 427.825 252.658C427.825 253.326 427.825 254.663 429.06 254.663C430.294 254.663 430.912 253.326 430.912 251.99C432.147 249.984 433.999 249.984 435.233 251.99C435.233 252.658 435.851 252.658 435.851 252.658H436.468C437.085 252.658 437.085 252.658 437.703 251.99C438.32 251.99 438.937 251.99 438.937 251.321C440.172 251.321 441.407 251.321 441.407 250.653C441.407 247.979 443.876 247.979 445.111 245.974C445.111 245.974 445.111 245.974 444.494 245.306V245.974C445.111 245.974 445.728 245.974 446.346 245.974C446.346 246.642 446.346 247.311 446.346 248.648C446.346 249.984 446.346 250.653 448.198 249.984C449.432 252.658 450.05 253.326 450.667 251.321C450.667 250.653 450.667 249.316 450.667 247.979C452.519 249.316 454.989 249.316 456.841 251.321C459.927 255.332 459.927 255.332 463.014 252.658C466.718 253.995 464.866 249.316 466.718 247.311C467.953 245.974 465.484 243.969 464.249 242.632C463.631 241.295 461.779 240.627 460.545 241.295C459.31 241.964 460.545 243.969 459.927 244.637C458.075 244.637 456.223 244.637 454.371 244.637C453.754 243.3 454.989 241.295 453.754 239.29C451.284 239.29 450.05 240.627 448.815 241.964C445.111 243.969 440.789 241.964 437.085 243.969C435.851 244.637 435.233 243.3 434.616 242.632C435.851 239.958 435.851 236.616 435.851 233.274C437.703 231.937 438.937 230.601 440.172 228.595C442.024 228.595 443.259 227.259 445.111 227.927C445.728 230.601 448.815 232.606 447.58 235.948C446.346 235.948 445.111 235.948 443.876 236.616C445.111 239.29 446.346 237.953 448.198 237.285C451.284 235.279 450.667 230.601 450.667 227.259C451.902 226.59 453.136 225.922 452.519 224.585C452.519 223.916 453.136 223.248 453.136 222.58C454.371 221.911 454.371 222.58 454.371 223.248C454.371 225.922 454.988 226.59 457.458 225.922C458.075 225.253 459.927 226.59 460.545 226.59C460.545 229.264 460.545 231.937 463.014 233.274C462.397 233.943 462.397 233.943 461.779 233.943C461.162 234.611 459.927 235.279 460.545 236.616C460.545 237.285 461.162 237.285 461.779 237.953C463.014 238.621 463.631 237.953 463.631 236.616C463.631 235.948 463.631 234.611 463.631 233.943C464.249 232.606 465.484 231.269 463.631 229.932C462.397 229.264 463.014 227.927 462.397 226.59C463.631 224.585 464.866 223.248 467.336 222.58C467.953 223.248 468.57 223.917 467.953 225.253C466.101 227.259 467.336 229.264 468.57 230.601C470.422 231.269 470.422 233.274 471.04 234.611C471.657 234.611 471.657 235.279 472.274 234.611C472.892 233.943 472.892 233.943 473.509 233.274C474.126 232.606 474.126 231.937 474.744 231.937C476.596 229.264 474.744 229.264 473.509 229.264C472.892 229.264 472.892 228.595 472.274 228.595C472.274 227.927 472.274 227.259 472.274 226.59C474.126 224.585 475.978 225.253 477.831 226.59C479.683 227.927 480.917 222.58 483.387 225.253C484.004 227.927 485.239 230.601 485.856 233.274C485.239 237.285 487.708 241.295 487.091 245.306C486.473 245.306 485.856 245.974 485.856 246.642V247.311V247.979C485.856 250.653 487.091 251.99 488.943 252.658C488.943 250.653 489.56 249.316 489.56 247.979C489.56 247.979 489.56 247.979 490.178 247.311C490.178 247.311 490.795 247.311 490.795 247.979C492.647 249.984 494.499 249.316 495.734 247.979V247.311C495.734 247.311 495.116 247.979 495.734 247.979C496.968 249.316 498.203 249.984 498.203 251.99C498.82 255.332 500.673 254.663 502.525 253.326C503.759 252.658 504.377 251.99 504.377 250.653C509.933 249.984 515.489 247.311 521.045 249.984C521.662 249.984 522.28 249.316 522.897 248.648C527.219 249.984 531.54 252.658 536.479 248.648C537.096 248.648 537.714 247.979 538.331 247.979C541.418 249.316 543.887 247.311 546.974 247.311C547.591 246.642 548.209 247.311 548.826 247.979C548.826 249.316 548.209 250.653 550.061 251.321C551.295 251.99 551.295 250.653 551.295 249.316C551.295 248.648 551.295 248.648 551.295 247.979C552.53 247.979 553.147 247.311 553.765 246.642C556.234 245.974 558.086 247.311 560.556 247.311C566.112 247.979 571.051 247.979 576.607 248.648C576.607 248.648 576.607 248.648 577.224 247.979C578.459 246.642 580.311 244.637 582.78 247.311C584.632 248.648 588.336 248.648 590.189 245.306C590.806 244.637 591.423 243.969 592.658 243.969C592.658 244.637 592.658 245.306 592.658 245.974C592.658 247.311 593.275 248.648 594.51 248.648C595.745 248.648 595.745 247.311 596.362 246.642C596.979 245.974 596.979 245.306 596.979 243.969C598.214 241.964 599.449 243.3 600.066 243.969C600.684 244.637 600.683 245.306 601.301 245.306C601.918 248.648 604.388 249.984 607.474 249.984C609.326 249.984 611.178 249.316 611.178 246.642C612.413 245.306 613.648 244.637 615.5 245.974C617.352 247.311 619.204 246.642 621.056 245.974C623.526 247.979 625.995 246.642 628.464 245.974C631.551 247.979 634.638 246.642 637.725 244.637C639.577 242.632 640.194 243.969 640.811 245.974C640.811 247.311 640.194 249.316 641.429 249.316C643.281 249.316 646.367 250.653 646.985 246.642C648.837 246.642 650.072 244.637 651.306 244.637C656.245 245.974 661.184 245.306 666.123 247.311C666.74 247.979 667.357 247.979 667.357 247.311C668.592 247.311 669.21 245.974 671.062 245.974C672.296 246.642 673.531 246.642 674.766 245.306V244.637C674.766 245.306 675.383 245.974 676 246.642C679.087 247.311 682.791 246.642 685.878 247.311C687.113 247.311 686.495 245.974 687.113 245.306C687.73 245.306 688.347 244.637 688.965 244.637C689.582 244.637 690.199 245.306 690.817 245.306C691.434 247.311 692.052 247.311 692.669 247.311C693.286 247.311 693.904 247.311 694.521 247.311C695.138 247.311 695.138 246.642 695.756 246.642H696.373C696.99 246.642 697.608 247.311 697.608 247.979C699.46 248.648 701.312 249.984 703.781 249.316C704.399 248.648 704.399 247.979 705.016 249.316C706.251 247.979 706.868 245.974 708.72 245.974C709.337 246.642 710.572 246.642 711.189 247.311C711.807 247.311 713.042 246.642 713.659 246.642C713.042 246.642 711.807 245.974 711.189 247.311C712.424 248.648 714.276 247.979 716.128 247.979C719.832 249.316 735.883 248.648 739.588 247.311C740.205 247.311 740.205 246.642 740.822 246.642C741.44 246.642 742.674 246.642 743.292 246.642C746.378 250.653 749.465 251.321 753.787 249.316C754.404 249.316 754.404 248.648 754.404 247.979C756.873 247.311 759.343 247.311 761.812 249.316C763.047 250.653 764.282 250.653 764.899 248.648C766.134 244.637 767.986 245.974 770.455 247.311C771.073 247.979 772.307 249.316 773.542 247.311C774.777 246.642 776.011 245.974 777.863 245.974C778.481 245.974 779.098 246.642 779.098 247.311C779.715 247.311 780.333 247.311 780.333 246.642C782.185 245.974 783.42 247.311 785.272 247.979C788.358 250.653 789.593 250.653 792.68 247.979C794.532 248.648 795.767 249.984 797.619 249.316C799.471 249.984 801.323 252.658 802.557 248.648C804.41 248.648 806.262 248.648 808.114 248.648C809.348 249.984 810.583 251.99 813.052 251.321C816.139 249.984 819.226 253.326 822.93 251.321C826.017 251.99 826.634 249.984 826.634 247.311C827.869 249.316 829.721 249.984 831.573 249.316L843.303 247.311C846.389 249.316 848.859 253.995 853.18 249.316C853.798 248.648 855.032 249.316 856.267 249.316C858.119 249.984 859.971 249.984 861.206 247.979C861.823 246.642 863.058 246.642 864.293 247.979C869.232 252.658 875.405 249.316 880.961 251.321H881.578C884.665 249.316 887.135 250.653 890.221 251.321C890.221 252.658 890.839 253.995 892.691 253.326C894.543 252.658 893.925 250.653 893.925 249.316C896.395 248.648 898.864 249.316 900.716 251.321C902.568 252.658 903.803 251.321 905.038 249.984C906.89 247.979 908.742 250.653 910.594 250.653C917.385 251.99 924.176 251.99 930.349 247.979C933.436 252.658 933.436 252.658 938.375 251.321C938.375 249.984 938.992 249.984 940.227 250.653C943.314 252.658 945.166 249.316 947.018 247.979C947.635 249.316 948.253 250.653 950.105 250.653C953.191 250.653 956.895 250.653 959.982 251.321C963.686 251.99 965.538 251.321 968.008 249.316L968.625 249.984C968.625 251.321 969.242 252.658 970.477 251.99C973.564 250.653 976.651 252.658 979.737 250.653C983.441 251.321 987.146 249.316 990.85 252.658C991.467 252.658 992.702 252.658 993.319 252.658C993.319 251.321 993.937 249.984 994.554 249.316C997.641 253.326 997.641 253.326 1000.11 249.984C1000.11 249.316 1000.11 248.648 1000.11 247.311C1001.34 246.642 1001.96 246.642 1003.2 245.974C1003.81 245.974 1004.43 246.642 1004.43 247.311C1005.05 251.321 1005.05 251.321 1009.37 250.653C1010.6 250.653 1010.6 248.648 1011.84 248.648C1011.84 247.979 1012.46 247.311 1012.46 246.642C1013.69 246.642 1014.93 245.974 1016.16 247.311C1017.4 249.984 1018.63 247.979 1019.87 246.642C1021.1 245.974 1022.33 247.979 1023.57 247.311C1024.19 247.979 1024.8 248.648 1025.42 248.648C1028.51 248.648 1032.21 250.653 1033.45 248.648C1036.53 244.637 1039 250.653 1042.09 248.648C1042.71 247.979 1043.32 247.979 1043.32 247.979C1044.56 243.969 1047.03 247.311 1048.26 246.642C1048.26 249.984 1050.73 249.316 1052.58 249.316C1053.82 249.316 1054.44 249.316 1055.05 247.979C1055.05 246.642 1053.82 246.642 1053.2 245.306C1054.44 244.637 1055.67 244.637 1056.91 245.306C1056.91 247.979 1058.14 246.642 1059.38 245.974C1063.08 248.648 1063.7 247.979 1064.31 243.3C1064.31 242.632 1064.93 242.632 1064.93 241.964C1065.55 241.964 1066.17 242.632 1066.17 243.3C1067.4 245.306 1068.64 243.3 1069.25 242.632C1070.49 243.3 1071.72 241.964 1072.96 241.295C1074.19 241.964 1075.43 243.969 1076.66 241.295C1077.28 240.627 1077.28 240.627 1077.9 240.627C1078.51 240.627 1079.13 240.627 1080.37 240.627C1080.98 241.295 1082.22 241.295 1082.84 240.627C1083.45 240.627 1084.07 240.627 1084.69 240.627C1085.3 241.295 1086.54 241.295 1087.16 240.627C1090.24 240.627 1093.33 242.632 1097.03 240.627C1097.03 241.295 1097.65 241.295 1098.27 240.627C1105.68 242.632 1113.09 241.964 1120.49 241.295C1124.81 241.295 1129.75 241.964 1134.08 241.295C1134.69 240.627 1135.31 240.627 1136.54 241.295C1137.16 241.295 1137.78 241.295 1137.78 241.295C1140.87 241.295 1143.34 241.295 1146.42 241.295C1148.27 241.295 1150.74 241.295 1152.6 241.295C1153.83 241.964 1155.07 241.964 1156.3 241.295C1164.94 241.295 1172.97 242.632 1181.61 242.632C1186.55 243.3 1191.49 243.969 1195.81 243.3C1201.37 245.306 1207.54 243.969 1213.1 243.969C1214.33 243.3 1214.95 242.632 1214.95 241.295C1213.71 239.958 1213.1 237.953 1211.86 236.616C1212.48 236.616 1213.71 235.948 1213.71 235.279C1215.57 232.606 1214.95 230.601 1212.48 228.595C1210.01 226.59 1206.31 227.259 1204.45 225.253C1206.31 225.253 1207.54 225.253 1209.39 224.585C1210.63 224.585 1212.48 223.916 1212.48 221.911C1213.1 219.238 1210.63 220.574 1209.39 219.238C1206.92 217.901 1203.84 216.564 1202.6 213.89C1200.13 208.543 1200.75 207.875 1195.19 207.875C1192.11 207.875 1189.02 207.875 1186.55 205.87C1187.78 204.533 1189.64 205.87 1191.49 205.201C1193.96 204.533 1195.19 202.527 1193.96 199.854C1194.58 199.185 1195.81 198.517 1196.43 198.517C1197.05 198.517 1197.05 198.517 1197.66 197.849C1198.28 197.849 1198.28 197.849 1198.9 197.849C1199.51 197.849 1199.51 197.849 1200.13 197.849C1203.84 196.512 1208.16 199.185 1212.48 195.843C1214.33 193.838 1219.89 194.507 1222.36 196.512C1224.21 198.517 1226.68 198.517 1228.53 199.854C1231 201.859 1233.47 200.522 1235.94 198.517C1237.17 197.18 1235.94 191.833 1234.7 190.496C1231.62 187.154 1228.53 183.812 1224.21 183.812C1222.36 183.812 1220.5 182.475 1219.27 182.475C1219.27 181.807 1219.27 181.807 1219.27 181.138C1218.65 180.47 1218.65 180.47 1218.04 179.802C1217.42 179.802 1217.42 179.802 1216.8 179.802C1217.42 178.465 1218.65 178.465 1219.27 178.465C1222.36 178.465 1224.83 178.465 1227.3 179.802C1229.15 180.47 1231 180.47 1232.23 179.133C1234.09 177.796 1230.38 176.46 1232.23 174.454C1232.85 174.454 1233.47 174.454 1234.09 175.123C1234.7 175.123 1235.94 175.791 1235.94 175.123C1236.56 173.786 1235.32 173.786 1234.7 173.118C1235.32 171.112 1234.7 170.444 1234.09 170.444C1233.47 170.444 1233.47 170.444 1232.85 170.444C1232.23 169.775 1231 169.775 1230.38 169.775C1229.76 169.107 1228.53 167.102 1231 167.77C1233.47 168.439 1234.09 165.097 1235.94 165.765C1235.94 163.76 1235.32 162.423 1234.09 161.755C1233.47 161.086 1232.85 161.755 1232.23 161.755C1232.85 161.755 1233.47 161.755 1234.09 161.755C1234.7 160.418 1236.56 159.749 1235.32 157.744C1235.32 157.076 1235.32 157.076 1235.32 156.407C1232.85 153.065 1230.38 149.723 1228.53 145.044C1228.53 144.376 1227.3 143.708 1226.68 143.039C1226.68 141.034 1228.53 140.366 1229.15 139.029C1230.38 138.36 1231.62 137.692 1229.76 136.355C1228.53 135.687 1227.91 134.35 1228.53 133.013C1229.15 133.013 1230.38 133.013 1229.76 131.676C1229.76 131.676 1229.15 131.008 1228.53 131.008C1227.91 131.008 1227.3 131.008 1226.68 131.008C1226.06 130.339 1224.83 130.339 1224.21 129.671V130.339C1224.21 130.339 1224.21 130.339 1223.59 130.339V129.671C1224.21 129.003 1224.21 128.334 1224.83 127.666C1226.06 127.666 1227.3 127.666 1228.53 126.329C1231 126.997 1233.47 125.661 1235.32 124.992C1237.17 124.324 1239.03 123.655 1240.88 122.319C1242.11 123.655 1242.11 123.655 1243.96 122.987C1244.58 122.319 1245.2 122.987 1246.43 122.319C1247.67 122.319 1249.52 122.319 1250.14 120.982C1251.99 120.982 1253.22 120.982 1255.08 120.982C1258.78 121.65 1261.87 120.982 1264.95 119.645C1266.19 119.645 1267.42 119.645 1268.66 120.313C1268.66 120.982 1267.42 122.319 1268.04 122.987C1269.89 124.324 1269.89 121.65 1270.51 120.982C1270.51 120.982 1271.13 120.313 1271.13 119.645C1271.74 119.645 1272.98 119.645 1273.6 119.645C1274.21 118.977 1274.83 118.977 1276.07 119.645C1276.68 119.645 1277.3 119.645 1277.3 119.645C1278.54 122.987 1279.77 121.65 1282.24 120.313C1284.09 118.977 1285.33 117.64 1284.09 115.635C1283.47 114.966 1283.47 114.298 1282.86 113.629C1283.47 113.629 1284.09 112.961 1284.09 112.961C1284.09 112.292 1283.47 112.292 1282.86 112.292C1282.24 112.292 1281.62 112.292 1280.39 112.292C1279.77 112.292 1279.15 112.292 1279.15 112.292C1279.15 112.292 1279.15 112.292 1278.54 112.961C1278.54 112.961 1277.92 112.961 1277.92 112.292C1277.3 112.292 1277.3 112.292 1276.68 112.292C1275.45 110.287 1273.6 110.956 1271.74 110.956C1270.51 110.956 1269.89 110.287 1269.28 109.619V108.95C1269.89 108.95 1271.13 109.619 1271.74 109.619C1279.77 110.287 1287.8 108.95 1295.82 110.956C1296.44 110.956 1296.44 110.287 1297.06 109.619C1297.67 109.619 1298.91 110.956 1298.91 109.619C1298.91 108.282 1297.67 108.282 1297.06 108.282C1295.82 108.282 1294.59 108.282 1292.73 108.282C1292.12 108.282 1291.5 108.282 1292.12 107.614C1292.12 106.945 1293.35 106.945 1293.35 106.945C1297.06 106.945 1300.76 107.614 1304.46 107.614C1305.08 107.614 1305.08 108.282 1305.7 108.282C1304.46 112.961 1308.17 111.624 1310.02 112.292C1310.64 112.292 1311.26 112.292 1310.64 111.624C1310.64 110.956 1310.02 110.956 1309.4 110.287C1310.64 108.95 1311.87 108.95 1313.11 110.287C1313.72 110.956 1314.34 110.956 1314.96 110.287C1315.58 110.287 1315.58 110.287 1316.19 110.287C1316.81 110.287 1316.81 110.287 1317.43 110.287C1318.66 111.624 1320.52 110.956 1322.37 111.624C1322.98 111.624 1322.98 112.292 1323.6 112.961C1322.98 114.966 1321.75 116.303 1321.13 118.308C1320.52 118.308 1320.52 118.308 1319.9 118.308C1319.28 118.308 1318.05 118.308 1317.43 118.308C1316.81 118.308 1316.81 118.308 1316.19 118.308C1314.96 114.298 1311.87 113.629 1309.4 113.629C1308.17 112.292 1306.93 112.292 1305.7 112.292C1305.08 113.629 1304.46 113.629 1303.23 113.629C1302.61 113.629 1302.61 113.629 1301.99 113.629C1301.38 112.961 1300.14 112.961 1299.53 113.629C1300.14 114.298 1300.76 114.966 1300.76 115.635C1301.38 120.313 1304.46 120.982 1307.55 120.313C1308.79 118.977 1310.64 119.645 1312.49 120.313C1316.19 122.987 1317.43 122.987 1317.43 118.977C1318.05 118.977 1318.66 118.977 1319.9 118.977C1320.52 118.977 1320.52 118.977 1321.13 119.645C1319.9 121.65 1320.52 122.319 1322.37 123.655C1324.22 124.324 1326.69 124.992 1328.54 124.992C1332.25 125.661 1335.33 127.666 1339.65 127.666C1340.27 128.334 1341.51 128.334 1342.12 129.003C1343.36 130.339 1345.21 130.339 1346.44 131.008C1349.53 133.013 1347.68 129.003 1348.3 129.003C1349.53 129.003 1350.77 129.003 1351.38 129.003C1350.15 126.997 1348.91 124.992 1346.44 124.992C1347.06 123.655 1346.44 123.655 1345.83 122.987ZM903.186 238.621C903.186 239.29 903.803 238.621 903.803 239.29C903.803 238.621 903.803 238.621 903.186 238.621ZM732.797 241.964C733.414 241.964 733.414 241.964 732.797 241.964V241.964ZM82.1081 24.0627C80.8734 25.3995 79.0214 26.0679 79.0214 28.0731C80.8734 27.4047 81.4908 26.0679 82.1081 24.0627ZM1229.76 114.298C1229.76 113.629 1229.76 113.629 1229.76 114.298C1230.38 113.629 1230.38 113.629 1230.38 113.629C1230.38 114.298 1229.76 113.629 1229.76 114.298ZM209.9 239.958C210.517 239.958 210.517 239.958 209.9 239.958V239.958ZM27.7812 82.8826C27.7812 82.8826 27.7812 83.551 28.3986 83.551C28.3986 83.551 28.3986 83.551 27.7812 83.551C27.7812 83.551 27.7812 83.551 27.7812 82.8826ZM613.031 27.4047C613.031 26.7363 613.031 26.7363 613.031 26.0679C613.031 26.0679 613.031 26.7363 613.031 27.4047ZM63.5876 37.4309C62.9702 37.4309 62.9702 37.4308 62.3529 38.0993C62.9702 37.4308 63.5876 37.4309 63.5876 36.094C63.5876 36.7624 62.9702 37.4309 63.5876 37.4309ZM395.105 222.58C395.105 223.248 394.488 222.58 394.488 222.58C394.488 222.58 394.488 222.58 395.105 222.58ZM219.778 237.285C220.395 237.285 220.395 237.285 221.012 237.285C220.395 237.285 219.778 237.285 219.778 237.285ZM714.276 15.3734C713.659 15.3734 713.659 15.3734 714.276 15.3734V15.3734ZM1172.35 28.0731C1172.35 28.7416 1172.35 28.7416 1172.35 28.0731V28.0731ZM389.549 235.948C389.549 235.279 388.932 234.611 388.932 233.943C389.549 234.611 390.167 235.279 389.549 235.948C390.167 235.948 390.167 235.948 389.549 235.948ZM90.1337 52.1358C90.7511 52.1358 90.7511 52.1358 91.3684 52.1358C90.7511 52.1358 90.7511 52.1358 90.1337 52.8042V52.1358ZM145.695 37.4309V38.0993C145.695 38.0993 145.695 38.0993 145.695 37.4309ZM1194.58 32.0836V32.752C1194.58 32.752 1194.58 32.752 1194.58 32.0836ZM552.53 210.548C551.913 210.548 551.913 211.217 551.295 211.217C551.913 210.548 551.913 209.88 551.913 209.212C552.53 209.212 552.53 209.88 552.53 210.548ZM528.453 57.4831C527.836 56.8147 528.453 56.8147 528.453 57.4831C528.453 56.8147 528.453 56.8147 528.453 57.4831ZM760.578 58.8199C759.96 59.4883 759.96 60.1567 759.343 60.8251C759.343 60.1567 759.96 59.4883 760.578 58.8199ZM913.681 28.7416C913.681 29.41 913.681 29.41 913.681 30.0784C914.298 30.0784 914.298 29.41 913.681 28.7416ZM644.515 204.533C644.515 203.864 644.515 203.864 644.515 204.533C645.133 203.864 645.133 203.864 644.515 204.533ZM1193.34 139.697C1192.72 139.697 1192.11 140.366 1191.49 140.366C1192.11 140.366 1192.72 139.697 1192.72 139.029C1192.72 139.697 1193.34 139.697 1193.34 139.697ZM183.971 206.538C183.354 207.206 183.354 207.206 183.971 206.538V206.538ZM201.874 46.1201C201.874 46.7886 202.492 47.457 202.492 47.457C202.492 46.7886 202.492 46.1201 201.874 46.1201ZM784.037 181.138C784.037 180.47 784.037 180.47 784.037 181.138V181.138ZM569.816 182.475C569.816 182.475 570.433 181.807 571.051 181.807C571.051 182.475 570.433 182.475 569.816 182.475ZM645.75 56.1463L646.368 56.8147C645.75 56.8147 645.133 57.4831 645.133 58.1515C645.133 57.4831 645.75 56.8147 645.75 56.1463ZM694.521 108.282C695.138 108.282 695.138 108.282 694.521 108.282L693.904 108.95C693.904 108.95 693.904 108.282 693.286 108.282C693.904 108.282 694.521 108.282 694.521 108.282ZM737.118 86.2246C736.501 86.2246 736.501 86.2246 737.118 86.2246V86.2246ZM834.042 100.261C833.425 100.261 833.425 99.5927 832.808 98.9243C832.808 100.261 833.425 100.261 834.042 100.261ZM814.287 139.697C814.287 139.029 814.904 139.029 814.287 139.697V139.697ZM430.912 163.76H430.294C430.294 163.76 430.294 163.76 430.294 163.091C430.294 163.091 430.294 163.091 430.912 163.091C430.294 163.76 430.294 163.76 430.912 163.76C430.294 163.76 430.294 163.76 430.912 163.76ZM332.753 190.496C332.136 189.828 331.518 190.496 330.901 189.828H332.136C332.753 189.828 332.753 190.496 332.753 190.496ZM228.42 194.507C229.038 194.507 229.038 194.507 228.42 194.507V194.507ZM351.273 74.1933C351.891 74.8617 351.891 75.5301 352.508 75.5301C352.508 74.8617 351.891 74.8617 351.273 74.1933ZM420.417 79.5405C419.799 79.5405 419.799 79.5405 420.417 79.5405V79.5405ZM175.946 166.433V165.765C175.946 166.433 176.563 166.433 175.946 166.433ZM268.548 120.982C268.548 121.65 269.166 121.65 268.548 120.982V120.982ZM314.85 170.444H314.232C314.232 170.444 314.232 170.444 314.85 170.444ZM310.528 121.65C310.528 120.982 310.528 120.982 310.528 121.65C311.146 120.982 311.146 121.65 311.763 121.65C311.763 121.65 311.763 121.65 311.146 122.319C311.146 121.65 311.146 121.65 310.528 121.65ZM356.83 94.2455C356.83 93.5771 356.83 93.5771 356.83 94.2455V94.2455ZM316.702 138.36C316.702 137.024 316.084 135.687 318.554 136.355C317.936 136.355 317.319 137.692 316.702 138.36ZM344.483 119.645C344.483 119.645 343.865 119.645 343.865 120.313C343.865 119.645 343.865 119.645 344.483 119.645ZM316.084 115.635C316.084 116.303 316.702 116.303 316.702 116.971C316.702 116.971 316.084 116.303 316.084 115.635ZM313.615 117.64C313.615 116.971 313.615 116.971 313.615 116.303C313.615 116.971 312.998 116.971 313.615 117.64ZM343.248 139.029C342.631 139.029 342.631 139.029 343.248 139.029V139.029ZM330.901 100.261C330.901 99.5927 331.518 99.5927 331.518 98.9243C330.901 99.5927 330.901 99.5927 330.901 100.261ZM151.252 130.339C151.252 129.671 151.252 129.671 151.252 130.339C150.634 129.671 150.634 129.671 151.252 129.003C151.252 129.671 151.252 129.671 151.252 130.339ZM197.553 125.661C197.553 126.329 197.553 126.329 197.553 126.997L196.936 125.661C196.936 126.329 196.936 125.661 197.553 125.661ZM217.308 130.339V129.671C217.925 129.671 217.925 130.339 217.308 130.339ZM245.089 128.334C245.706 128.334 245.706 128.334 246.324 128.334C246.324 128.334 245.706 128.334 245.089 128.334ZM235.829 110.287C235.829 109.619 235.829 109.619 235.829 110.287V110.287ZM221.012 124.324C221.63 124.324 221.63 124.324 221.012 124.324V124.324ZM190.145 99.5927C190.145 100.261 189.527 100.261 188.91 100.93C189.527 100.93 189.527 99.5927 190.145 99.5927ZM154.956 175.791C154.338 175.791 153.721 175.791 153.721 176.46C153.721 175.791 153.721 175.791 153.721 175.791C154.338 175.791 154.956 175.791 154.956 175.791ZM370.411 184.48C369.794 183.812 369.794 184.48 370.411 184.48C369.794 183.812 370.411 183.812 370.411 184.48ZM415.478 126.997C416.095 125.661 416.713 124.324 416.713 122.987C416.713 122.319 417.33 120.982 417.33 121.65C416.713 122.987 415.478 124.324 415.478 126.997ZM424.121 118.977C423.504 118.977 423.504 118.977 422.886 118.977C422.886 118.308 423.504 118.308 423.504 117.64C424.121 118.308 424.121 118.977 424.121 118.977ZM396.34 136.355C396.34 137.024 396.34 137.024 396.34 137.024C396.34 136.355 396.34 136.355 396.34 136.355C396.34 135.687 396.34 135.687 396.34 136.355ZM400.044 137.024H399.427C400.044 137.024 400.044 137.024 400.044 137.024ZM408.687 143.708C408.687 144.376 408.687 145.044 408.07 145.044C408.07 145.044 408.07 144.376 408.687 143.708ZM414.861 134.35C414.861 133.682 414.861 133.682 414.861 134.35C415.478 134.35 415.478 134.35 416.095 134.35C415.478 134.35 414.861 133.682 414.861 134.35ZM98.7766 170.444C98.7766 171.112 98.7766 171.112 98.7766 171.112C98.1593 170.444 98.7766 170.444 98.7766 170.444ZM200.64 158.413C200.64 157.744 200.64 157.744 200.64 158.413V158.413ZM244.472 172.449C244.472 173.118 244.472 173.118 244.472 172.449C243.854 173.118 244.472 173.118 244.472 172.449C243.854 173.118 243.237 173.118 243.237 172.449C243.854 173.786 243.854 173.118 244.472 172.449ZM262.992 173.786C263.61 174.454 263.61 174.454 262.992 173.786C263.61 175.791 262.992 175.123 262.375 175.123C262.992 175.123 262.992 175.123 262.992 173.786ZM267.931 139.697C267.931 140.366 267.931 140.366 267.931 141.034L267.314 140.366C267.314 140.366 267.931 140.366 267.931 139.697ZM287.069 141.034C288.304 141.702 287.686 142.371 287.686 143.708C288.304 142.371 287.686 141.702 287.069 141.034ZM408.07 139.697C408.07 140.366 408.07 141.034 408.07 141.702C408.07 141.034 408.07 139.697 408.07 139.697ZM451.284 98.9243C450.667 98.9243 450.05 98.9243 449.432 98.9243C450.05 98.9243 450.667 98.2559 451.902 98.2559C451.902 98.9243 451.902 98.9243 451.284 98.9243ZM408.687 98.2559C408.687 98.2559 408.687 98.9243 408.07 98.9243C408.687 98.9243 408.687 98.9243 408.687 98.2559ZM227.803 109.619C227.186 109.619 227.186 109.619 227.186 109.619H227.803ZM118.532 117.64C117.915 117.64 118.532 118.308 117.915 118.977C117.915 118.977 117.915 118.308 118.532 117.64ZM547.591 94.9139C546.974 94.9139 546.974 94.9139 547.591 94.9139V94.9139ZM770.455 112.292C770.455 112.292 770.455 112.961 769.838 112.961C769.838 112.292 769.838 112.292 770.455 112.292ZM772.925 146.381C773.542 146.381 773.542 146.381 772.925 146.381V146.381ZM779.098 124.992C779.098 125.661 779.098 125.661 779.098 126.329C778.481 125.661 778.481 125.661 777.863 125.661C778.481 124.992 778.481 125.661 779.098 124.992ZM800.088 103.603C800.088 102.935 799.471 102.935 799.471 102.266C800.088 102.266 800.705 102.266 801.94 102.266C801.323 102.935 800.088 102.935 800.088 103.603ZM684.026 169.775H684.643V170.444C684.026 170.444 684.026 169.775 684.026 169.775ZM710.572 112.961V112.292C711.189 112.292 710.572 112.961 710.572 112.961ZM721.067 148.386C721.067 147.718 721.067 147.718 721.067 148.386C721.067 149.055 721.067 149.723 720.45 149.723C721.067 149.055 721.067 148.386 721.067 148.386ZM711.189 141.034C711.189 139.697 709.955 139.029 708.72 139.029C711.189 137.692 711.189 139.697 711.189 141.034ZM733.414 110.287L734.031 109.619C733.414 109.619 733.414 109.619 733.414 110.287ZM720.45 99.5927C720.45 100.261 720.45 100.261 720.45 99.5927V99.5927ZM521.045 133.682C521.662 133.682 521.662 133.682 521.662 133.682V134.35C521.662 134.35 521.662 134.35 521.045 133.682ZM513.637 125.661V124.992C513.637 124.992 513.637 124.992 513.637 125.661ZM537.714 122.319V121.65C538.331 121.65 538.331 122.319 538.948 122.319C538.331 121.65 538.331 122.319 537.714 122.319ZM609.944 140.366C610.561 140.366 610.561 140.366 611.178 140.366C610.561 140.366 609.944 140.366 609.944 140.366ZM620.439 140.366C619.821 140.366 619.821 140.366 620.439 140.366V140.366ZM606.857 110.287C606.857 109.619 606.857 109.619 606.857 110.287V110.287ZM584.015 108.282C584.015 108.95 584.015 108.95 584.015 108.282V108.282ZM584.015 108.95C584.015 109.619 584.015 109.619 583.398 110.287C584.015 109.619 584.015 108.95 584.015 108.95ZM622.908 109.619C622.291 108.95 622.908 108.95 622.908 109.619C622.908 108.95 622.908 108.95 622.908 109.619ZM603.77 105.608C603.77 104.94 603.153 104.94 603.153 104.272C603.77 104.94 604.388 105.608 605.005 106.277C603.77 105.608 603.77 106.277 603.77 105.608ZM596.979 105.608C596.979 104.94 596.979 104.94 596.979 104.94C596.979 105.608 596.979 105.608 596.979 105.608ZM570.433 99.5927C570.433 98.9243 570.433 98.9243 570.433 99.5927V99.5927ZM527.836 182.475C528.453 183.144 529.071 183.812 529.071 184.48C529.688 183.144 528.453 183.144 527.836 182.475ZM563.025 163.091H562.408C563.025 163.091 563.025 163.091 563.025 163.091ZM702.547 189.828C703.164 189.828 703.164 189.828 702.547 189.828V189.828ZM741.44 140.366C741.44 140.366 740.822 139.697 740.822 139.029C741.44 139.697 741.44 140.366 741.44 140.366ZM764.282 141.702C763.664 142.371 763.664 142.371 763.664 142.371C764.282 141.702 764.282 141.702 764.282 141.702ZM800.705 135.018C801.323 135.018 801.323 135.018 801.94 135.018C801.94 135.018 802.557 135.018 802.557 135.687C801.94 134.35 801.323 135.018 800.705 135.018ZM684.643 124.992V124.324C684.643 124.992 684.643 124.992 684.643 124.992ZM639.577 92.9087L640.194 93.5771C639.577 93.5771 639.577 92.9087 639.577 92.9087ZM485.856 108.282C485.239 108.282 485.239 108.282 485.856 108.282C485.239 107.614 485.239 108.282 485.856 108.282ZM470.422 96.9191C469.805 96.9191 469.805 96.9191 470.422 96.9191C471.04 96.2507 472.274 94.9139 473.509 94.9139C474.126 94.9139 474.126 94.9139 474.744 94.2455C472.274 95.5823 470.422 96.2507 470.422 96.9191ZM153.104 87.5614C154.338 88.8982 154.956 90.235 156.808 91.5718C154.956 90.235 153.721 88.8982 153.104 87.5614ZM124.705 70.8512C124.088 70.8512 124.088 70.8512 124.705 70.8512V70.8512ZM99.394 189.828C100.011 189.828 100.011 189.828 99.394 189.828V189.828ZM475.978 135.018C475.361 135.018 475.361 135.018 475.978 135.018V135.018ZM636.49 181.807C637.107 181.807 637.725 181.138 638.342 181.138C637.725 181.807 637.107 181.807 637.107 183.144C637.107 182.475 636.49 182.475 636.49 181.807ZM689.582 183.144C689.582 183.812 689.582 183.812 689.582 183.144C688.965 183.812 689.582 183.812 689.582 183.144ZM793.915 145.044C794.532 145.044 794.532 145.044 793.915 145.044V145.044ZM845.772 110.956C845.155 110.956 845.155 110.956 845.772 110.956V110.956ZM845.155 117.64C845.155 118.308 845.772 118.977 846.389 119.645C845.772 120.313 845.772 120.982 845.155 119.645C845.155 118.977 845.155 118.308 845.155 117.64ZM847.007 125.661C846.389 125.661 846.389 126.329 846.389 126.329C847.007 125.661 847.007 125.661 847.007 125.661ZM775.394 76.8669C775.394 76.1985 775.394 76.1985 775.394 75.5301C775.394 76.1985 775.394 76.8669 775.394 76.8669ZM736.501 88.2298C737.118 87.5614 737.736 86.893 737.118 86.2246C736.501 86.893 736.501 87.5614 736.501 88.2298ZM649.454 114.966C650.072 114.966 650.689 114.966 650.689 114.966C650.072 114.966 650.072 114.966 649.454 114.966ZM442.024 84.8878C441.407 84.8878 442.024 84.2194 442.024 84.8878C441.407 84.2194 442.024 84.2194 442.024 84.8878C442.024 85.5562 442.024 85.5562 442.024 85.5562C442.024 84.8878 442.024 84.8878 442.024 84.8878ZM146.313 68.846C146.93 68.846 148.165 68.846 148.165 69.5144L148.782 70.1828C147.547 69.5144 146.93 69.5144 146.313 68.846ZM133.966 68.846C135.2 69.5144 135.818 68.846 137.052 68.1776C135.818 68.846 134.583 68.1776 133.966 68.846ZM227.803 167.102C227.186 167.102 227.186 167.102 227.803 167.102V167.102ZM237.681 188.491C237.681 189.159 237.681 189.159 237.681 189.828C237.063 189.159 237.063 188.491 237.681 188.491ZM396.957 188.491H396.34C396.957 188.491 396.957 188.491 396.957 188.491ZM415.478 184.48L416.095 183.812C415.478 184.48 415.478 184.48 415.478 184.48ZM487.708 142.371C488.326 142.371 488.326 141.702 488.943 141.702C488.326 142.371 487.708 142.371 487.708 142.371ZM550.061 181.807C550.061 183.144 551.295 183.812 551.913 183.812C551.295 183.144 550.678 183.144 550.061 181.807C550.061 182.475 550.061 182.475 550.061 181.807ZM661.184 181.807C661.184 182.475 660.567 182.475 660.567 183.144C660.567 182.475 660.567 181.807 660.567 181.807H661.184ZM849.476 107.614C848.859 107.614 848.859 106.945 848.241 106.945C848.859 106.945 848.859 106.945 849.476 106.277C850.094 106.945 849.476 106.945 849.476 107.614ZM816.139 57.4831C815.522 56.8147 815.522 56.8147 815.522 56.1463C815.522 56.8147 816.139 57.4831 816.757 57.4831C816.757 58.1515 816.139 58.1515 816.139 57.4831ZM282.747 70.1828C283.365 70.1828 283.365 70.1828 282.747 70.1828C282.747 70.1828 282.747 70.8512 283.365 70.8512V71.5196C283.365 71.5196 282.747 70.8512 282.747 70.1828ZM254.349 89.5666V88.8982C254.967 88.8982 254.349 89.5666 254.349 89.5666ZM120.384 64.1671C119.767 64.1671 119.767 64.1671 119.767 64.1671H120.384ZM87.6643 104.272C87.6643 104.94 87.6643 104.94 87.6643 104.272V104.272ZM66.057 92.9087C66.057 93.5771 66.057 93.5771 66.057 92.9087V92.9087ZM64.8223 102.935C64.8223 103.603 64.8223 103.603 64.8223 102.935V102.935ZM116.062 197.849C116.68 197.849 117.297 197.849 117.915 197.18C118.532 197.18 117.915 197.849 118.532 197.849C117.915 197.849 116.68 197.849 116.062 197.849ZM277.809 207.875C278.426 207.875 278.426 208.543 278.426 208.543C278.426 207.875 277.809 207.875 277.809 207.875ZM635.255 200.522L634.638 199.854C634.638 199.854 635.255 199.854 635.255 200.522ZM840.216 143.708V144.376C839.599 144.376 839.599 143.708 840.216 143.708C839.599 143.708 839.599 143.708 840.216 143.708ZM957.513 124.324C957.513 124.992 957.513 124.992 957.513 124.324V124.324ZM1017.4 74.1933C1016.78 74.8617 1017.4 74.8617 1017.4 74.1933C1016.78 74.1933 1016.78 74.1933 1017.4 74.1933ZM890.221 184.48L890.839 183.812C891.456 183.812 890.839 184.48 890.839 184.48C890.839 185.149 890.839 185.149 890.221 184.48ZM921.089 172.449C921.089 173.118 921.089 173.118 921.089 172.449V172.449ZM993.937 140.366C993.937 141.034 993.319 141.034 993.319 141.702C993.937 141.702 993.937 141.034 993.937 140.366ZM971.094 169.107C971.094 169.776 971.094 169.775 970.477 169.775C971.094 169.775 971.094 169.107 971.094 169.107ZM988.998 101.598C988.998 102.266 988.998 102.266 988.998 101.598V101.598ZM898.247 98.2559V97.5875C898.247 97.5875 898.864 97.5875 898.247 98.2559C898.864 98.2559 898.864 98.2559 898.247 98.2559ZM1152.6 135.687C1152.6 135.018 1151.98 135.018 1152.6 134.35C1153.21 133.013 1153.83 133.682 1154.45 134.35C1153.83 135.018 1153.21 135.018 1152.6 135.687ZM1154.45 144.376C1155.07 145.713 1154.45 146.381 1155.07 147.05C1154.45 146.381 1154.45 146.381 1153.21 145.713C1153.21 145.044 1153.83 144.376 1154.45 144.376ZM1172.97 70.8512C1172.35 70.8512 1172.97 71.5196 1172.97 70.8512V70.8512ZM1066.78 114.298C1067.4 114.298 1067.4 114.298 1066.78 114.298V114.298ZM1116.79 126.997C1116.17 127.666 1116.17 127.666 1116.79 126.997C1116.17 126.997 1116.17 127.666 1116.79 126.997ZM1100.12 161.086C1100.74 161.086 1100.74 161.755 1100.74 161.755C1101.36 161.086 1100.74 161.086 1100.12 161.086ZM1076.04 88.8982C1075.43 88.8982 1074.81 88.8982 1074.81 88.8982C1074.81 88.2298 1075.43 88.2298 1076.04 88.8982ZM998.258 105.608H997.641C997.641 106.277 997.641 106.277 998.258 105.608ZM921.706 120.982C921.089 120.313 921.089 120.313 921.706 120.982V120.982ZM885.283 205.201C885.283 205.87 885.283 205.87 885.283 205.201V205.201ZM1121.73 148.386C1121.11 149.055 1121.73 149.055 1121.73 148.386V148.386ZM1048.26 75.5301C1047.65 75.5301 1047.65 75.5301 1048.26 75.5301V75.5301ZM1034.68 80.2089C1034.68 80.2089 1034.68 81.5457 1034.68 82.2141C1034.68 81.5457 1034.68 80.8773 1034.68 80.2089ZM991.467 90.235C992.084 89.5666 992.084 89.5666 992.702 88.8982C992.702 89.5666 992.084 90.235 991.467 90.235ZM942.079 143.039C941.462 142.371 941.462 142.371 942.079 143.039C941.462 141.702 941.462 142.371 942.079 143.039C942.079 142.371 942.079 142.371 942.079 143.039ZM623.526 72.188V72.8564C623.526 72.188 623.526 71.5196 623.526 70.8512C622.908 71.5196 623.526 72.188 623.526 72.188ZM595.127 72.8564C595.745 73.5248 596.362 74.1933 596.979 74.1933C595.745 74.1933 595.127 74.1933 595.127 72.8564ZM187.675 50.1306C187.675 50.1306 187.058 50.1306 187.058 49.4622C187.675 49.4622 187.675 49.4622 187.675 50.1306ZM443.259 137.692C443.259 138.36 443.876 138.36 443.876 139.029C443.259 139.029 443.259 138.36 443.259 137.692C443.259 138.36 442.641 138.36 443.259 137.692ZM507.463 199.854C506.846 199.854 506.846 199.854 506.229 199.854C506.846 199.185 506.846 199.185 507.463 199.854ZM518.576 201.859V201.191C518.576 201.191 518.576 201.191 519.193 201.191C518.576 201.191 518.576 201.859 518.576 201.859ZM690.817 203.196C690.817 203.196 690.2 203.864 689.582 204.533C690.2 203.864 690.817 203.864 690.817 203.196ZM742.057 179.133C742.057 179.802 742.057 179.802 742.057 179.133C742.674 180.47 743.292 179.802 744.526 179.802C744.526 180.47 744.526 181.138 743.909 180.47C742.674 179.802 742.057 179.802 740.822 179.802C741.44 179.802 742.057 179.802 742.057 179.133ZM754.404 182.475H753.787C754.404 182.475 754.404 182.475 754.404 182.475ZM772.307 177.796V178.465C771.69 178.465 771.69 178.465 771.073 178.465C771.69 177.796 772.307 177.796 772.307 177.796ZM824.165 206.538C826.634 205.869 827.869 204.533 828.486 201.859C827.252 204.533 825.399 204.533 824.165 206.538ZM855.032 139.029C855.032 139.697 855.032 139.697 855.032 139.029V139.029ZM1036.53 141.034C1036.53 140.366 1036.53 140.366 1036.53 139.697C1036.53 140.366 1036.53 141.034 1036.53 141.034ZM1128.52 57.4831C1129.14 57.4831 1129.75 58.1515 1130.37 58.1515C1129.75 58.1515 1129.14 58.1515 1128.52 58.1515C1128.52 57.4831 1128.52 57.4831 1128.52 57.4831ZM1114.94 89.5666C1114.32 89.5666 1114.32 89.5666 1114.94 89.5666C1114.32 88.8982 1114.32 89.5666 1114.94 89.5666ZM979.737 73.5248V72.8564C979.737 72.8564 979.12 72.8564 979.737 73.5248ZM937.14 109.619C937.14 108.95 936.523 108.282 936.523 107.614C937.14 107.614 937.757 108.282 937.757 108.282C937.757 108.95 937.758 109.619 937.14 109.619ZM659.949 102.266C659.332 102.266 659.332 102.266 659.949 102.266C659.332 101.598 659.332 101.598 659.949 102.266C659.332 102.266 659.332 101.598 659.949 102.266ZM484.621 75.5301C484.621 74.8617 484.621 74.8617 484.621 75.5301V75.5301ZM371.646 44.7833C371.646 44.7833 371.646 44.1149 372.263 44.1149C372.263 44.1149 372.263 44.7833 372.881 44.7833C372.263 44.1149 371.646 44.7833 371.646 44.7833ZM362.386 38.7677C361.768 38.7677 362.386 39.4361 362.386 38.7677V38.7677ZM273.487 55.4778C273.487 56.8147 273.487 57.4831 273.487 58.8199C273.487 59.4883 273.487 59.4883 272.87 60.1567C274.105 58.1515 274.104 56.8147 273.487 55.4778ZM199.405 46.7886C198.788 46.7886 198.17 46.7886 198.17 46.7886C198.17 46.7886 197.553 46.7886 197.553 46.1201C198.17 46.7886 198.788 46.7886 199.405 46.7886ZM87.047 195.843C87.6643 195.843 87.6643 195.843 87.047 195.843V195.843ZM159.277 211.217C160.512 211.885 159.894 213.222 159.277 213.89V214.559C159.894 213.222 159.277 212.554 159.277 211.217ZM224.716 207.875C224.099 208.543 224.099 208.543 224.716 207.875V207.875ZM269.783 217.232C269.783 217.901 269.783 217.901 269.783 217.232V217.232ZM330.283 212.554C330.283 213.222 330.901 212.554 330.901 213.222C330.901 212.554 330.283 212.554 330.283 212.554ZM387.697 203.196C387.697 203.196 388.315 203.196 388.315 203.864C388.315 203.864 388.315 203.864 387.697 203.196ZM460.545 165.765C459.927 166.433 460.545 166.433 460.545 167.102C460.545 166.433 460.545 165.765 460.545 165.765ZM741.44 199.185H740.822C740.822 199.185 741.44 198.517 741.44 199.185ZM749.465 204.533C748.848 203.864 748.231 203.196 748.231 202.527C748.848 203.196 749.465 203.864 750.7 204.533C750.083 204.533 749.465 204.533 749.465 204.533ZM755.639 201.859C755.639 202.527 755.639 202.527 755.639 203.196C755.021 203.196 754.404 202.527 754.404 202.527C755.021 201.859 755.639 202.527 755.639 201.859ZM907.507 198.517C906.89 199.185 907.507 199.185 907.507 198.517V198.517ZM957.513 208.543C957.513 209.212 957.513 209.212 957.513 208.543V208.543ZM1144.57 181.807C1144.57 182.475 1144.57 182.475 1144.57 181.807V181.807ZM1177.29 158.413C1176.67 159.081 1177.29 159.081 1176.67 159.081C1177.29 159.081 1177.29 159.081 1177.29 158.413ZM1203.84 104.94C1203.22 104.94 1202.6 104.94 1202.6 104.272C1202.6 104.272 1202.6 104.272 1202.6 103.603C1203.22 104.272 1203.84 104.94 1203.84 104.94ZM1145.8 46.7886C1146.42 46.1201 1146.42 46.1201 1145.8 46.7886C1146.42 46.7886 1147.04 47.457 1147.04 47.457C1147.04 46.7886 1146.42 46.7886 1145.8 46.7886ZM1138.4 44.1149C1137.78 42.7781 1137.16 43.4465 1136.54 44.1149C1136.54 43.4465 1137.16 43.4465 1138.4 44.1149ZM1066.78 45.4517H1066.17C1066.17 44.7833 1066.17 44.7833 1066.17 44.1149C1066.17 44.7833 1066.78 45.4517 1066.78 45.4517ZM1036.53 67.5092V66.8408C1036.53 67.5092 1037.15 67.5092 1037.15 68.1776C1037.15 67.5092 1036.53 67.5092 1036.53 67.5092ZM687.113 87.5614C685.878 88.8982 685.878 90.235 687.113 90.9034C685.261 90.235 687.113 88.8982 687.113 87.5614ZM637.725 42.7781C637.107 43.4465 637.107 43.4465 637.725 42.7781C637.107 43.4465 637.725 43.4465 637.725 42.7781ZM363.003 38.0993L362.386 38.7677C363.003 38.7677 363.003 38.0993 363.003 38.0993ZM252.497 70.8512C251.88 70.8512 251.88 70.8512 251.262 71.5196C251.262 70.8512 251.262 71.5196 250.645 70.8512C251.262 70.8512 251.88 70.8512 252.497 70.8512ZM159.277 215.227C159.277 215.896 159.894 216.564 160.512 217.232C159.894 216.564 159.894 215.227 159.277 215.227ZM362.386 213.89C362.386 214.559 363.003 215.227 363.003 215.896C362.386 215.896 361.768 215.896 361.151 215.896C361.768 215.227 361.768 214.559 362.386 213.89ZM530.923 209.88C530.923 210.548 531.54 211.217 532.157 211.885C531.54 211.885 530.923 211.885 530.305 212.554C530.305 211.217 530.923 210.548 530.923 209.88ZM650.689 207.206C650.072 207.875 650.689 207.875 650.689 207.206V207.206ZM680.939 209.88C680.939 209.88 681.557 209.88 681.557 210.548L680.939 209.88ZM1022.95 197.18C1023.57 197.18 1023.57 197.849 1024.19 197.849C1023.57 197.849 1022.33 198.517 1021.72 198.517C1022.33 198.517 1022.95 198.517 1022.95 197.18ZM1077.28 183.144C1077.9 183.812 1077.28 183.812 1077.28 183.812V183.144ZM1211.24 85.5562C1211.24 86.2246 1211.24 86.2246 1211.24 85.5562V85.5562ZM1071.11 44.1149C1071.72 44.1149 1071.72 44.1149 1071.11 44.1149V44.1149ZM944.548 45.4517C944.548 44.7833 944.548 44.7833 944.548 44.7833C943.931 44.7833 944.548 45.4517 944.548 45.4517ZM910.594 33.4204C910.594 34.0888 910.594 34.0888 909.977 34.0888C910.594 34.0888 910.594 33.4204 910.594 33.4204ZM903.186 34.0888C903.803 34.0888 904.42 32.752 904.42 33.4204C905.038 33.4204 905.038 34.0888 905.038 34.0888C904.42 34.0888 903.803 34.0888 903.186 34.0888ZM819.226 30.0784C817.374 30.7468 816.139 30.0784 814.287 29.41C815.522 30.7468 817.374 31.4152 819.226 30.0784ZM526.601 53.4726C527.219 54.141 527.219 54.141 527.836 54.8094C527.836 54.141 527.219 53.4726 526.601 53.4726ZM353.125 32.0836C352.508 30.7468 350.656 30.7468 349.421 30.7468H350.039C351.273 31.4152 351.891 32.0836 353.125 32.0836ZM239.533 43.4465C238.915 43.4465 238.298 44.1149 237.681 44.1149C238.298 43.4465 238.915 43.4465 239.533 43.4465ZM40.7456 69.5144C40.7456 68.846 40.7456 68.846 41.3629 68.1776C41.3629 68.846 41.3629 69.5144 41.3629 70.1828L40.7456 69.5144ZM308.059 230.601C307.441 230.601 306.824 230.601 306.207 230.601C306.824 231.269 307.441 231.269 308.059 230.601ZM766.134 211.217C766.134 211.885 766.134 211.885 766.134 211.217V211.217ZM1114.94 211.885C1114.32 212.554 1114.32 211.885 1114.32 212.554C1114.32 211.885 1114.94 211.885 1114.94 211.885ZM1126.67 190.496C1126.05 191.165 1126.67 191.833 1126.05 191.833C1126.05 191.165 1126.67 190.496 1126.67 190.496ZM1174.2 191.165C1174.82 191.165 1175.44 191.165 1175.44 191.833C1175.44 191.165 1174.82 191.833 1174.2 191.165ZM1261.25 91.5718C1261.87 91.5718 1261.87 91.5718 1261.87 92.2402L1261.25 91.5718ZM1266.81 90.235C1265.57 89.5666 1264.34 90.235 1263.1 90.235C1264.95 90.235 1266.19 90.235 1266.81 90.235ZM1301.99 83.551C1301.38 83.551 1301.38 83.551 1300.76 83.551C1301.38 83.551 1301.99 83.551 1301.99 83.551ZM1257.55 79.5405C1256.93 78.8721 1257.55 77.5353 1257.55 76.8669C1256.93 77.5353 1256.31 78.8721 1257.55 79.5405ZM1048.26 36.094C1047.65 35.4256 1048.26 35.4256 1048.26 36.094C1047.65 35.4256 1048.26 35.4256 1048.26 35.4256C1048.26 35.4256 1048.26 35.4256 1048.26 36.094ZM896.395 30.7468H895.778C896.395 30.7468 896.395 30.0784 897.012 30.0784C897.012 30.7468 896.395 30.7468 896.395 30.7468ZM853.18 58.8199C853.18 58.1515 854.415 58.1515 853.798 56.8147C854.415 58.1515 855.032 58.1515 855.65 58.8199C855.032 58.8199 854.415 58.8199 853.18 58.8199ZM847.624 64.8356H848.241C848.241 64.8356 848.242 64.8356 847.624 64.8356ZM709.337 30.0784C709.337 29.41 709.955 29.41 710.572 29.41C710.572 29.41 710.572 30.0784 711.189 30.0784C710.572 30.0784 709.955 30.0784 709.337 30.0784ZM552.53 46.7886C552.53 48.1254 552.53 49.4622 551.913 50.799C551.913 49.4622 552.53 48.7938 552.53 46.7886ZM529.071 53.4726C529.688 52.8042 529.688 53.4726 529.071 53.4726C529.688 53.4726 529.688 53.4726 529.071 53.4726ZM518.576 51.4674C518.576 52.1358 518.576 52.1358 518.576 51.4674C517.958 52.1358 517.958 52.1358 518.576 51.4674C517.958 52.1358 517.958 51.4674 518.576 51.4674ZM504.377 50.1306C504.377 49.4622 504.377 49.4622 504.377 50.1306V50.1306ZM452.519 44.1149C452.519 43.4465 452.519 43.4465 452.519 43.4465C453.136 43.4465 452.519 43.4465 452.519 44.1149ZM427.208 48.7938V49.4622C427.208 48.7938 427.208 48.7938 427.208 48.7938ZM380.289 34.7572C380.289 34.7572 380.906 34.7572 380.906 34.0888C380.906 34.0888 380.906 34.0888 380.289 34.7572ZM93.2205 47.457C93.2205 46.7886 93.2205 46.1201 93.2205 45.4517C92.6031 46.1201 93.2205 46.7886 93.2205 47.457ZM83.9602 62.8303C83.3428 62.1619 83.3428 62.1619 83.9602 62.8303V62.8303ZM51.8579 189.828C51.2406 189.828 51.2406 189.828 51.8579 189.828V189.828ZM162.981 219.238C162.981 219.906 162.364 219.906 162.364 220.574C162.981 220.574 162.981 219.906 162.981 219.238ZM253.732 227.259C253.732 227.927 253.732 227.927 253.732 227.259V227.259ZM311.763 240.627C311.763 241.295 311.763 241.295 311.763 240.627V240.627ZM395.723 219.906C395.723 220.574 395.723 220.574 395.723 219.906V219.906ZM613.648 221.243C613.031 219.906 611.796 219.238 610.561 220.574C611.796 219.906 612.413 220.574 613.648 221.243ZM642.046 216.564C642.663 216.564 642.663 216.564 642.046 216.564V216.564ZM1098.27 216.564C1098.27 215.896 1098.27 215.896 1098.27 216.564V216.564ZM1148.89 211.217C1148.89 211.885 1148.27 211.885 1148.27 211.885C1148.27 211.217 1148.27 211.217 1148.89 211.217ZM1221.74 94.9139C1222.36 94.2455 1222.36 94.9139 1221.74 94.9139C1222.36 94.9139 1222.97 94.9139 1224.21 95.5823C1223.59 94.9139 1222.97 94.9139 1221.74 94.9139ZM1278.54 93.5771C1278.54 92.9087 1278.54 92.9087 1277.92 92.2402H1278.54C1278.54 92.9087 1278.54 93.5771 1278.54 93.5771ZM1291.5 90.235C1290.88 90.9034 1289.65 91.5718 1289.03 92.9087C1290.27 92.9087 1290.88 91.5718 1291.5 90.235ZM1196.43 26.0679C1196.43 25.3995 1197.05 25.3995 1196.43 26.0679C1197.05 25.3995 1197.05 25.3995 1196.43 26.0679ZM1196.43 25.3995C1196.43 26.0679 1196.43 26.0679 1196.43 25.3995V25.3995ZM1074.81 24.0627C1075.43 24.0627 1075.43 24.0627 1074.81 24.0627C1075.43 24.7311 1075.43 24.7311 1074.81 24.0627ZM1041.47 37.4309C1040.86 38.0993 1040.24 38.7677 1039 39.4361C1038.39 38.7677 1039 38.0993 1039 38.0993C1039.62 37.4308 1040.24 37.4309 1041.47 37.4309ZM917.385 28.0731C917.385 26.0679 917.385 24.0627 917.385 22.0575C916.15 24.0627 916.15 26.0679 917.385 28.0731ZM594.51 30.0784C594.51 30.7468 594.51 30.7468 594.51 30.7468V30.0784ZM564.877 33.4204C565.494 33.4204 565.494 33.4204 564.877 33.4204V33.4204ZM549.443 46.7886C549.443 46.1201 550.061 46.1201 549.443 46.7886C550.061 46.1201 550.061 46.1201 549.443 46.7886C550.061 46.7886 550.061 46.7886 549.443 46.7886ZM548.826 37.4309C547.591 36.7624 546.974 37.4308 546.357 38.0993C546.974 37.4308 547.591 37.4309 548.826 37.4309ZM544.505 38.7677C543.887 38.7677 543.887 38.7677 543.27 38.7677C543.887 39.4361 543.887 39.4361 544.505 38.7677ZM275.339 230.601H275.957C275.339 229.932 275.339 229.932 275.339 230.601ZM380.906 227.927C380.906 228.595 380.906 228.595 380.906 227.927V227.927ZM614.265 231.269C614.265 231.937 614.265 233.274 613.648 233.943C614.265 233.274 614.265 232.606 614.265 231.269ZM695.756 233.274C695.138 233.943 694.521 233.943 694.521 234.611C694.521 233.943 695.138 233.274 695.756 233.274ZM813.67 227.259C814.904 227.927 815.522 227.927 816.757 227.927C815.522 227.927 813.67 227.927 813.052 228.595C813.052 227.927 813.67 227.927 813.67 227.259ZM1164.33 207.206C1164.94 207.206 1164.94 207.206 1164.33 207.206V207.206ZM1183.46 179.133C1183.46 178.465 1183.46 178.465 1184.08 177.796C1183.46 178.465 1183.46 179.133 1183.46 179.133ZM1197.05 171.781C1197.05 171.781 1197.66 171.781 1197.66 171.112C1197.66 171.781 1197.66 171.781 1197.05 171.781ZM1210.01 140.366C1210.01 139.697 1210.01 139.697 1210.01 140.366V140.366ZM1269.28 59.4883C1268.66 58.8199 1268.66 58.8199 1268.04 58.1515C1268.66 58.1515 1269.28 57.4831 1269.89 58.1515C1269.89 58.8199 1269.28 59.4883 1269.28 59.4883ZM1218.04 33.4204C1217.42 33.4204 1217.42 33.4204 1216.8 33.4204C1217.42 33.4204 1218.04 33.4204 1218.04 33.4204ZM1171.73 22.7259C1171.73 24.0627 1172.35 24.7311 1172.35 26.0679C1172.97 24.7311 1172.35 23.3943 1171.73 22.7259ZM1164.33 14.705C1163.71 14.705 1163.71 14.705 1163.71 14.705H1164.33ZM1052.58 21.3891C1052.58 21.3891 1053.2 21.3891 1053.2 20.7207L1052.58 21.3891ZM1025.42 29.41C1024.8 29.41 1024.8 29.41 1025.42 29.41C1025.42 28.7416 1025.42 28.7416 1025.42 28.7416C1025.42 28.7416 1024.8 29.41 1025.42 29.41ZM974.799 18.047C974.181 18.047 974.181 18.047 974.181 18.047C974.181 17.3786 974.181 16.7102 974.181 16.0418C974.181 16.7102 974.181 18.047 974.799 18.047ZM893.925 22.0575C894.543 22.7259 894.543 22.7259 895.16 22.7259C895.16 22.7259 894.543 22.7259 893.925 22.0575ZM765.516 32.0836C766.134 32.752 766.134 32.752 765.516 32.0836V32.0836ZM695.756 21.3891V22.0575C695.756 22.0575 695.756 22.0575 695.756 21.3891C695.756 22.0575 695.756 22.0575 695.756 21.3891ZM659.332 32.0836C659.949 32.0836 659.949 32.0836 659.332 32.0836V32.0836ZM550.678 34.0888C550.678 33.4204 551.295 33.4204 551.913 33.4204C551.295 33.4204 551.295 33.4204 550.678 34.0888C550.678 34.7572 550.061 34.7572 550.061 34.7572L550.678 34.0888ZM502.525 28.0731C502.525 28.7416 501.907 29.41 502.525 29.41C502.525 28.7416 502.525 28.0731 502.525 28.0731ZM380.906 28.0731C380.906 28.0731 380.906 28.7416 381.524 28.7416C380.906 28.7416 380.906 28.7416 380.906 28.0731ZM79.0214 32.0836C79.6387 33.4204 82.7255 34.0888 81.4908 35.4256C81.4908 34.0888 81.4908 32.752 79.0214 32.0836ZM30.868 58.1515C30.868 56.8147 31.4853 55.4778 32.72 54.8094C32.1027 55.4778 30.868 56.1463 30.868 58.1515ZM32.72 222.58C33.3374 222.58 33.3374 223.248 33.3374 223.248C32.72 223.248 32.1027 223.248 31.4853 223.248C32.1027 222.58 32.72 222.58 32.72 222.58ZM98.7766 235.279C98.1593 235.279 98.1593 235.279 98.7766 235.279V235.279ZM214.221 241.964C214.221 241.964 214.839 241.964 214.839 242.632C214.839 242.632 214.839 242.632 214.221 241.964C214.221 242.632 214.221 242.632 214.221 241.964ZM504.377 231.937C504.377 232.606 504.994 232.606 504.994 232.606C504.994 231.937 504.377 231.937 504.377 231.937ZM551.913 237.285C552.53 237.285 552.53 237.285 551.913 237.285C552.53 237.953 551.913 237.953 551.913 238.621C551.913 238.621 551.913 238.621 551.295 239.29C551.913 237.953 552.53 237.953 551.913 237.285ZM556.234 232.606C556.234 231.937 556.234 231.937 556.234 232.606V232.606ZM835.894 229.264C836.512 229.264 836.512 229.264 835.894 229.264C836.512 229.932 836.512 229.932 835.894 229.264C836.512 229.932 835.894 229.932 835.894 229.264ZM1006.28 227.927C1005.67 227.927 1005.05 227.927 1004.43 227.927C1005.05 227.259 1005.67 227.927 1006.28 227.927ZM1026.66 234.611C1026.66 235.279 1026.66 235.279 1026.66 234.611C1026.04 235.279 1026.66 235.279 1026.66 234.611ZM1231.62 112.292H1232.23C1232.23 112.292 1232.23 112.292 1231.62 112.292ZM1264.34 109.619H1264.95C1264.95 109.619 1264.95 109.619 1264.34 109.619ZM1287.8 58.8199C1287.8 58.8199 1288.41 58.1515 1289.03 58.1515C1289.03 58.1515 1288.41 58.1515 1287.8 58.8199ZM1068.02 12.6998C1068.02 12.0314 1068.02 12.0314 1068.02 12.6998V12.6998ZM1047.65 16.7102C1047.03 16.7102 1047.03 16.7102 1047.65 16.7102C1047.03 16.0418 1047.03 16.7102 1047.65 16.7102ZM788.358 6.68411C787.741 8.02092 786.506 9.35774 785.272 10.0261C787.741 10.0261 788.358 8.68933 788.358 6.68411ZM385.845 26.0679V26.7363C385.228 26.0679 385.228 26.0679 385.845 26.0679C385.228 25.3995 385.228 25.3995 385.845 26.0679ZM360.534 22.7259C361.151 22.7259 361.151 22.7259 361.768 22.7259C361.151 23.3943 361.151 22.7259 360.534 22.7259ZM135.2 21.3891C133.966 20.7207 134.583 20.0523 135.2 18.7154C135.2 18.7154 135.2 18.7154 135.2 18.047C135.2 18.047 135.2 18.047 135.2 18.7154C134.583 20.7207 135.2 20.7207 135.2 21.3891ZM29.6333 58.8199C30.2506 58.1515 29.6333 57.4831 29.6333 56.8147C29.6333 57.4831 29.6333 58.1515 29.6333 58.8199ZM28.3986 165.097C28.3986 165.765 28.3986 166.433 28.3986 167.102C28.3986 166.433 27.7812 166.433 27.7812 166.433C27.7812 165.097 27.7812 165.097 28.3986 165.097ZM24.6944 217.232C24.6944 215.227 23.4597 213.89 22.8424 211.885C22.8424 211.885 22.8424 211.885 22.8424 211.217C22.8424 213.89 22.8424 215.896 24.6944 217.232ZM45.0671 233.943C45.6844 233.943 46.9191 234.611 46.3018 235.279C46.3018 235.279 46.3018 235.279 46.3018 235.948C45.6844 234.611 45.6844 234.611 45.0671 233.943ZM90.7511 242.632C90.7511 243.3 90.7511 243.3 90.7511 243.969C91.3684 243.3 90.7511 243.3 90.7511 242.632ZM100.011 238.621C99.394 238.621 99.394 239.29 100.011 238.621V238.621ZM607.474 240.627C608.092 239.958 608.092 239.958 608.709 239.29C608.092 239.958 608.092 240.627 607.474 240.627ZM840.833 244.637C840.833 244.637 842.068 244.637 842.068 245.306C842.068 244.637 841.451 244.637 840.833 244.637ZM906.273 237.285C906.89 237.285 906.89 237.285 906.273 237.285V237.285ZM964.921 237.285C963.686 237.285 963.069 237.285 961.834 237.285C963.069 237.953 964.304 237.953 964.921 237.285ZM1020.48 239.958C1020.48 239.958 1021.1 240.627 1020.48 240.627C1020.48 240.627 1020.48 240.627 1020.48 239.958ZM1223.59 151.06C1224.21 151.06 1224.21 151.06 1223.59 151.06C1224.21 150.392 1224.21 151.06 1224.21 151.06C1224.21 151.729 1224.21 151.06 1223.59 151.06ZM1223.59 151.06C1222.97 151.06 1222.97 151.06 1222.36 150.392C1222.36 151.06 1222.97 151.06 1223.59 151.06ZM1258.16 112.961C1258.78 112.961 1258.78 112.961 1258.16 112.961V112.961ZM1316.81 106.277C1316.81 106.277 1316.19 105.608 1316.19 106.277C1316.19 105.608 1316.19 106.277 1316.81 106.277ZM1263.72 50.799C1263.1 50.799 1263.1 50.799 1263.72 50.799V50.799ZM1191.49 18.047C1191.49 16.7102 1191.49 16.0418 1190.25 15.3734C1190.87 16.0418 1191.49 16.7102 1191.49 18.047ZM1118.64 13.3682C1118.02 14.0366 1117.41 14.705 1117.41 15.3734C1117.41 14.0366 1116.79 13.3682 1116.17 12.6998C1116.79 13.3682 1117.41 14.0366 1118.64 13.3682ZM856.267 4.67889C855.65 4.67889 855.65 4.67889 856.267 4.67889V4.67889ZM848.859 4.67889C848.241 4.67889 848.241 4.67889 848.859 4.67889V4.67889ZM785.272 9.35774C785.272 8.68933 785.889 10.0261 785.272 9.35774C784.654 9.35774 784.654 9.35774 785.272 9.35774ZM718.598 7.35252C718.598 6.68411 718.598 6.68411 718.598 6.0157C718.598 6.68411 718.598 7.35252 718.598 7.35252ZM693.286 11.363C693.286 12.0314 693.904 12.0314 693.904 12.6998C693.286 12.0314 693.286 11.363 693.286 11.363ZM511.168 19.3838C510.55 20.0523 511.168 20.0523 511.168 19.3838C510.55 19.3838 510.55 20.0523 511.168 19.3838ZM123.471 24.7311C122.853 24.7311 122.853 24.7311 123.471 24.7311V24.7311ZM82.7255 22.7259C82.1081 21.3891 80.2561 20.0523 80.8734 19.3838C81.4908 20.7207 81.4908 22.0575 82.7255 22.7259ZM279.043 243.969C279.661 243.3 279.661 243.3 279.661 243.3C279.043 243.969 279.043 243.969 279.043 243.969ZM430.912 245.306C430.912 244.637 431.529 243.969 432.147 243.3C431.529 243.3 430.912 243.969 430.912 245.306ZM454.371 213.89C454.989 213.222 454.989 213.89 455.606 213.89C454.989 213.89 454.371 213.89 454.371 213.89ZM487.708 225.253C488.326 227.259 488.326 228.595 487.708 229.932C489.56 228.595 489.56 227.259 487.708 225.253ZM761.812 242.632C762.43 241.964 762.43 241.964 761.812 242.632C762.43 241.964 762.43 242.632 762.43 242.632C762.43 242.632 762.43 242.632 761.812 242.632ZM996.406 245.974C997.023 245.974 997.023 245.974 997.023 245.306C997.023 245.306 997.023 245.306 996.406 245.974ZM1161.24 230.601C1162.47 230.601 1163.09 229.932 1164.33 228.595C1163.09 229.264 1161.86 229.264 1161.24 230.601Z" fill="white"/>
</svg>
