<svg version="1.1" id="Layer_1" xmlns="http://www.w3.org/2000/svg" xmlns:xlink="http://www.w3.org/1999/xlink" x="0px" y="0px"
	 width="100%" viewBox="0 0 512 512" enable-background="new 0 0 512 512" xml:space="preserve">
<path fill="#0291F7" opacity="1.000000" stroke="none" 
	d="
M244.000000,1.000000 
	C251.687576,1.000000 259.375153,1.000000 267.191254,1.266352 
	C270.113892,3.088044 273.243744,4.246754 275.638611,6.273815 
	C282.556488,12.129322 289.373322,18.136713 295.825684,24.494589 
	C298.614410,27.242441 300.867615,27.891556 304.704712,26.863764 
	C314.559845,24.223972 324.134247,20.358784 334.750397,20.890850 
	C346.796204,21.494564 356.742798,26.371490 362.736969,36.343933 
	C367.206390,43.779671 369.108368,52.783855 371.965790,61.153706 
	C373.637787,66.051163 373.771149,71.728043 380.675201,72.949554 
	C386.407104,73.963684 392.062103,75.495674 397.680023,77.054741 
	C414.702881,81.778870 426.602966,95.675987 425.831207,112.949577 
	C425.508606,120.169937 424.420929,127.752525 421.727356,134.375854 
	C417.872223,143.855209 420.983337,149.694229 428.002502,155.778732 
	C434.153534,161.110687 440.657288,166.471786 443.838898,174.510330 
	C448.999054,187.547684 448.814453,200.163788 439.871521,211.440826 
	C434.644989,218.031555 428.444641,223.864487 422.525208,229.883789 
	C420.338928,232.107010 419.577972,234.066513 420.546814,237.301315 
	C422.728638,244.585953 424.369049,252.036438 426.123810,259.444519 
	C430.151093,276.446289 419.567200,295.628632 403.011871,300.990295 
	C395.933441,303.282715 388.686371,305.060303 381.496643,307.000336 
	C378.557190,307.793488 376.382660,308.858978 375.733582,312.440460 
	C374.959351,316.712341 372.854095,320.755463 372.195129,325.031708 
	C371.684601,328.344910 371.574585,332.284088 372.893311,335.224365 
	C382.139465,355.839691 391.770691,376.282867 401.343048,396.751099 
	C409.605225,414.417664 418.118256,431.969574 426.145813,449.741364 
	C428.166962,454.215790 429.668121,459.313141 429.801147,464.168243 
	C430.046204,473.113037 419.925659,480.873688 411.569397,478.043396 
	C403.979919,475.472778 396.787659,471.637543 389.593567,468.015656 
	C381.649963,464.016418 373.903564,459.625488 365.691498,455.200500 
	C363.324829,465.359283 361.430328,474.709717 358.930450,483.895447 
	C356.170135,494.038300 356.403564,505.559448 346.591095,512.712769 
	C346.727386,512.808533 346.863708,512.904236 347.000000,513.000000 
	C341.977905,513.000000 336.955811,513.000000 331.803833,512.763794 
	C327.043549,509.426544 324.197266,505.014313 321.952515,499.995270 
	C317.843903,490.808990 313.458527,481.746765 309.216492,472.619843 
	C295.397034,442.886658 281.585297,413.149841 267.786774,383.406891 
	C266.552246,380.745850 265.237061,379.108276 261.756378,380.526428 
	C259.741455,381.347321 257.029816,381.417511 254.904648,380.833130 
	C247.814148,378.883392 247.846405,379.687836 245.011276,386.365936 
	C244.696152,387.108215 244.407333,387.862854 244.064850,388.592285 
	C233.435638,411.232788 222.780884,433.861298 212.181229,456.515625 
	C209.362778,462.539398 207.146973,468.887085 203.893158,474.656677 
	C196.786514,487.258148 194.403854,502.567047 182.422668,512.381348 
	C182.615097,512.587585 182.807541,512.793762 183.000000,513.000000 
	C177.977905,513.000000 172.955811,513.000000 167.804214,512.763000 
	C162.465195,509.170013 159.573898,504.159546 158.203537,498.343170 
	C154.893402,484.293488 151.814011,470.189423 148.444901,455.234253 
	C140.235138,459.606812 132.458420,463.942932 124.505348,467.927032 
	C117.303871,471.534576 110.043762,475.098572 102.557175,478.039337 
	C96.930954,480.249329 91.931938,477.498199 88.144821,473.485443 
	C83.678139,468.752594 82.230339,462.641846 84.907242,456.680206 
	C95.225960,433.699585 105.869865,410.864319 116.481499,388.016144 
	C124.635384,370.459869 132.969330,352.987183 141.102219,335.421295 
	C142.373627,332.675232 143.996780,329.524078 143.700104,326.748016 
	C143.208801,322.150818 141.500885,317.626770 139.854172,313.241364 
	C139.291595,311.743225 137.570511,310.126617 136.037918,309.641998 
	C129.401825,307.543579 122.689651,305.630524 115.913216,304.042236 
	C100.222420,300.364563 87.272476,285.239227 88.263275,269.277313 
	C88.900749,259.007324 92.183800,248.913788 94.014641,238.693451 
	C94.314034,237.022171 93.789505,234.605255 92.695969,233.382065 
	C86.737869,226.717255 80.359566,220.429520 74.357498,213.802246 
	C64.855927,203.310928 64.187653,182.036209 72.715080,171.815704 
	C78.734161,164.601593 85.258057,157.803894 91.664696,150.920914 
	C93.482330,148.968140 94.399261,147.453583 93.358910,144.447174 
	C91.246254,138.342041 89.983643,131.945908 88.297493,125.689423 
	C83.882149,109.306168 89.673615,91.842972 104.104668,83.841530 
	C112.588593,79.137543 122.477592,76.677261 132.002823,74.268349 
	C136.537292,73.121582 138.093918,71.064026 139.068985,67.046341 
	C140.824585,59.812492 142.852325,52.635094 145.035599,45.516678 
	C149.325928,31.528240 164.619843,21.738361 177.804749,21.819817 
	C187.854904,21.881905 197.117813,24.826847 206.532013,27.338999 
	C210.533630,28.406815 213.545395,27.982788 216.375504,25.113087 
	C220.002548,21.435257 223.707306,17.834040 227.333099,14.154989 
	C232.066483,9.352076 236.649414,4.364606 243.617889,2.718899 
	C243.866699,2.660137 243.878006,1.595722 244.000000,1.000000 
M151.904617,102.626755 
	C142.764008,105.376335 133.658524,108.251877 124.465889,110.814835 
	C120.674873,111.871788 119.312759,113.357025 120.673630,117.479904 
	C122.753922,123.782310 124.431885,130.245636 125.837814,136.736542 
	C128.596893,149.474640 127.446503,161.458923 118.000725,171.510696 
	C113.013092,176.818283 108.085960,182.183685 103.042648,187.437683 
	C99.045586,191.601700 98.961395,192.373444 103.168327,196.646606 
	C108.078537,201.634155 113.106178,206.506653 117.987946,211.521484 
	C124.405975,218.114426 128.510941,226.234467 127.731926,235.246780 
	C126.886063,245.032288 124.139305,254.682587 121.847427,264.302765 
	C120.534630,269.813232 120.766090,271.046295 126.074608,272.538116 
	C131.852493,274.161835 137.718033,275.470917 143.515015,277.030029 
	C157.086166,280.679962 167.225296,288.075439 171.099411,302.351807 
	C172.963715,309.221863 174.983780,316.050781 177.017685,322.873199 
	C177.938812,325.962982 179.007645,328.545288 183.396759,327.110474 
	C189.234589,325.202148 195.242508,323.770538 201.237091,322.394409 
	C213.819717,319.505981 226.132172,319.666870 236.584045,328.372986 
	C242.704407,333.471069 248.085617,339.473297 253.656509,345.207550 
	C256.670929,348.310333 259.283569,348.369507 262.304718,345.242462 
	C267.514557,339.850006 272.820740,334.546509 278.202606,329.325348 
	C287.314880,320.485168 298.318146,318.298370 310.393372,320.826996 
	C317.854004,322.389343 325.171417,324.657990 332.654724,326.071472 
	C334.210724,326.365356 337.270020,324.689819 337.824982,323.232269 
	C339.950104,317.650482 341.700836,311.864075 342.929077,306.014954 
	C346.248352,290.207855 355.205048,279.790680 370.948334,275.528595 
	C376.736969,273.961487 382.547363,272.472717 388.360992,271.000275 
	C393.185760,269.778351 394.289703,267.973816 393.046387,263.025238 
	C391.861237,258.308319 390.848724,253.535004 389.395630,248.900818 
	C385.251831,235.685501 385.564667,222.879715 394.279938,211.658783 
	C399.249451,205.260468 405.468140,199.788971 411.414642,194.209534 
	C414.831573,191.003540 414.486328,188.808319 411.282043,185.672836 
	C405.132324,179.655075 398.889740,173.616455 393.589508,166.875763 
	C386.996704,158.491196 384.281067,148.709183 386.955200,137.966904 
	C388.796722,130.569260 390.607391,123.160378 392.660706,115.820541 
	C393.670380,112.211388 392.586945,110.017677 389.098785,109.078094 
	C382.527191,107.307961 375.888824,105.781120 369.336029,103.946762 
	C358.324005,100.864105 349.142334,95.025047 344.751099,84.106918 
	C341.504028,76.033455 339.048279,67.541138 337.251099,59.022118 
	C336.138336,53.747284 333.340210,53.383858 329.467926,54.301689 
	C324.114960,55.570469 318.814301,57.108215 313.569794,58.777565 
	C294.562836,64.827538 278.476379,57.559765 267.395325,42.999863 
	C265.396393,40.373352 262.839233,38.128292 260.335083,35.941494 
	C257.694519,33.635532 255.087219,33.068733 252.230972,36.161098 
	C247.599060,41.175949 242.791718,46.055939 237.761978,50.669666 
	C230.712952,57.135654 222.584976,61.951530 212.682312,60.858982 
	C203.337051,59.827938 194.038803,57.975140 184.874649,55.824387 
	C177.646439,54.127979 176.583359,54.336990 174.976700,61.234295 
	C174.425613,63.600067 173.575012,65.895515 173.009567,68.258583 
	C169.781799,81.748230 166.129379,94.962898 151.904617,102.626755 
z"/>
<path fill="#ffffff" opacity="1.000000" stroke="none" 
	d="
M347.468658,513.000000 
	C346.863708,512.904236 346.727386,512.808533 346.591095,512.712769 
	C356.403564,505.559448 356.170135,494.038300 358.930450,483.895447 
	C361.430328,474.709717 363.324829,465.359283 365.691498,455.200500 
	C373.903564,459.625488 381.649963,464.016418 389.593567,468.015656 
	C396.787659,471.637543 403.979919,475.472778 411.569397,478.043396 
	C419.925659,480.873688 430.046204,473.113037 429.801147,464.168243 
	C429.668121,459.313141 428.166962,454.215790 426.145813,449.741364 
	C418.118256,431.969574 409.605225,414.417664 401.343048,396.751099 
	C391.770691,376.282867 382.139465,355.839691 372.893311,335.224365 
	C371.574585,332.284088 371.684601,328.344910 372.195129,325.031708 
	C372.854095,320.755463 374.959351,316.712341 375.733582,312.440460 
	C376.382660,308.858978 378.557190,307.793488 381.496643,307.000336 
	C388.686371,305.060303 395.933441,303.282715 403.011871,300.990295 
	C419.567200,295.628632 430.151093,276.446289 426.123810,259.444519 
	C424.369049,252.036438 422.728638,244.585953 420.546814,237.301315 
	C419.577972,234.066513 420.338928,232.107010 422.525208,229.883789 
	C428.444641,223.864487 434.644989,218.031555 439.871521,211.440826 
	C448.814453,200.163788 448.999054,187.547684 443.838898,174.510330 
	C440.657288,166.471786 434.153534,161.110687 428.002502,155.778732 
	C420.983337,149.694229 417.872223,143.855209 421.727356,134.375854 
	C424.420929,127.752525 425.508606,120.169937 425.831207,112.949577 
	C426.602966,95.675987 414.702881,81.778870 397.680023,77.054741 
	C392.062103,75.495674 386.407104,73.963684 380.675201,72.949554 
	C373.771149,71.728043 373.637787,66.051163 371.965790,61.153706 
	C369.108368,52.783855 367.206390,43.779671 362.736969,36.343933 
	C356.742798,26.371490 346.796204,21.494564 334.750397,20.890850 
	C324.134247,20.358784 314.559845,24.223972 304.704712,26.863764 
	C300.867615,27.891556 298.614410,27.242441 295.825684,24.494589 
	C289.373322,18.136713 282.556488,12.129322 275.638611,6.273815 
	C273.243744,4.246754 270.113892,3.088044 267.659882,1.266352 
	C349.627960,1.000000 431.255890,1.000000 512.941895,1.000000 
	C512.941895,171.547028 512.941895,342.094055 512.941895,513.000000 
	C457.979614,513.000000 402.958466,513.000000 347.468658,513.000000 
z"/>
<path fill="#ffffff" opacity="1.000000" stroke="none" 
	d="
M243.531342,1.000000 
	C243.878006,1.595722 243.866699,2.660137 243.617889,2.718899 
	C236.649414,4.364606 232.066483,9.352076 227.333099,14.154989 
	C223.707306,17.834040 220.002548,21.435257 216.375504,25.113087 
	C213.545395,27.982788 210.533630,28.406815 206.532013,27.338999 
	C197.117813,24.826847 187.854904,21.881905 177.804749,21.819817 
	C164.619843,21.738361 149.325928,31.528240 145.035599,45.516678 
	C142.852325,52.635094 140.824585,59.812492 139.068985,67.046341 
	C138.093918,71.064026 136.537292,73.121582 132.002823,74.268349 
	C122.477592,76.677261 112.588593,79.137543 104.104668,83.841530 
	C89.673615,91.842972 83.882149,109.306168 88.297493,125.689423 
	C89.983643,131.945908 91.246254,138.342041 93.358910,144.447174 
	C94.399261,147.453583 93.482330,148.968140 91.664696,150.920914 
	C85.258057,157.803894 78.734161,164.601593 72.715080,171.815704 
	C64.187653,182.036209 64.855927,203.310928 74.357498,213.802246 
	C80.359566,220.429520 86.737869,226.717255 92.695969,233.382065 
	C93.789505,234.605255 94.314034,237.022171 94.014641,238.693451 
	C92.183800,248.913788 88.900749,259.007324 88.263275,269.277313 
	C87.272476,285.239227 100.222420,300.364563 115.913216,304.042236 
	C122.689651,305.630524 129.401825,307.543579 136.037918,309.641998 
	C137.570511,310.126617 139.291595,311.743225 139.854172,313.241364 
	C141.500885,317.626770 143.208801,322.150818 143.700104,326.748016 
	C143.996780,329.524078 142.373627,332.675232 141.102219,335.421295 
	C132.969330,352.987183 124.635384,370.459869 116.481499,388.016144 
	C105.869865,410.864319 95.225960,433.699585 84.907242,456.680206 
	C82.230339,462.641846 83.678139,468.752594 88.144821,473.485443 
	C91.931938,477.498199 96.930954,480.249329 102.557175,478.039337 
	C110.043762,475.098572 117.303871,471.534576 124.505348,467.927032 
	C132.458420,463.942932 140.235138,459.606812 148.444901,455.234253 
	C151.814011,470.189423 154.893402,484.293488 158.203537,498.343170 
	C159.573898,504.159546 162.465195,509.170013 167.337357,512.763000 
	C111.692963,513.000000 56.385918,513.000000 1.039439,513.000000 
	C1.039439,342.440735 1.039439,171.881439 1.039439,1.000000 
	C81.687279,1.000000 162.374985,1.000000 243.531342,1.000000 
z"/>
<path fill="#ffffff" opacity="1.000000" stroke="none" 
	d="
M183.468658,513.000000 
	C182.807541,512.793762 182.615097,512.587585 182.422668,512.381348 
	C194.403854,502.567047 196.786514,487.258148 203.893158,474.656677 
	C207.146973,468.887085 209.362778,462.539398 212.181229,456.515625 
	C222.780884,433.861298 233.435638,411.232788 244.064850,388.592285 
	C244.407333,387.862854 244.696152,387.108215 245.011276,386.365936 
	C247.846405,379.687836 247.814148,378.883392 254.904648,380.833130 
	C257.029816,381.417511 259.741455,381.347321 261.756378,380.526428 
	C265.237061,379.108276 266.552246,380.745850 267.786774,383.406891 
	C281.585297,413.149841 295.397034,442.886658 309.216492,472.619843 
	C313.458527,481.746765 317.843903,490.808990 321.952515,499.995270 
	C324.197266,505.014313 327.043549,509.426544 331.336975,512.763794 
	C281.979095,513.000000 232.958206,513.000000 183.468658,513.000000 
z"/>
<path fill="#ffffff" opacity="1.000000" stroke="none" 
	d="
M152.162445,102.344772 
	C166.129379,94.962898 169.781799,81.748230 173.009567,68.258583 
	C173.575012,65.895515 174.425613,63.600067 174.976700,61.234295 
	C176.583359,54.336990 177.646439,54.127979 184.874649,55.824387 
	C194.038803,57.975140 203.337051,59.827938 212.682312,60.858982 
	C222.584976,61.951530 230.712952,57.135654 237.761978,50.669666 
	C242.791718,46.055939 247.599060,41.175949 252.230972,36.161098 
	C255.087219,33.068733 257.694519,33.635532 260.335083,35.941494 
	C262.839233,38.128292 265.396393,40.373352 267.395325,42.999863 
	C278.476379,57.559765 294.562836,64.827538 313.569794,58.777565 
	C318.814301,57.108215 324.114960,55.570469 329.467926,54.301689 
	C333.340210,53.383858 336.138336,53.747284 337.251099,59.022118 
	C339.048279,67.541138 341.504028,76.033455 344.751099,84.106918 
	C349.142334,95.025047 358.324005,100.864105 369.336029,103.946762 
	C375.888824,105.781120 382.527191,107.307961 389.098785,109.078094 
	C392.586945,110.017677 393.670380,112.211388 392.660706,115.820541 
	C390.607391,123.160378 388.796722,130.569260 386.955200,137.966904 
	C384.281067,148.709183 386.996704,158.491196 393.589508,166.875763 
	C398.889740,173.616455 405.132324,179.655075 411.282043,185.672836 
	C414.486328,188.808319 414.831573,191.003540 411.414642,194.209534 
	C405.468140,199.788971 399.249451,205.260468 394.279938,211.658783 
	C385.564667,222.879715 385.251831,235.685501 389.395630,248.900818 
	C390.848724,253.535004 391.861237,258.308319 393.046387,263.025238 
	C394.289703,267.973816 393.185760,269.778351 388.360992,271.000275 
	C382.547363,272.472717 376.736969,273.961487 370.948334,275.528595 
	C355.205048,279.790680 346.248352,290.207855 342.929077,306.014954 
	C341.700836,311.864075 339.950104,317.650482 337.824982,323.232269 
	C337.270020,324.689819 334.210724,326.365356 332.654724,326.071472 
	C325.171417,324.657990 317.854004,322.389343 310.393372,320.826996 
	C298.318146,318.298370 287.314880,320.485168 278.202606,329.325348 
	C272.820740,334.546509 267.514557,339.850006 262.304718,345.242462 
	C259.283569,348.369507 256.670929,348.310333 253.656509,345.207550 
	C248.085617,339.473297 242.704407,333.471069 236.584045,328.372986 
	C226.132172,319.666870 213.819717,319.505981 201.237091,322.394409 
	C195.242508,323.770538 189.234589,325.202148 183.396759,327.110474 
	C179.007645,328.545288 177.938812,325.962982 177.017685,322.873199 
	C174.983780,316.050781 172.963715,309.221863 171.099411,302.351807 
	C167.225296,288.075439 157.086166,280.679962 143.515015,277.030029 
	C137.718033,275.470917 131.852493,274.161835 126.074608,272.538116 
	C120.766090,271.046295 120.534630,269.813232 121.847427,264.302765 
	C124.139305,254.682587 126.886063,245.032288 127.731926,235.246780 
	C128.510941,226.234467 124.405975,218.114426 117.987946,211.521484 
	C113.106178,206.506653 108.078537,201.634155 103.168327,196.646606 
	C98.961395,192.373444 99.045586,191.601700 103.042648,187.437683 
	C108.085960,182.183685 113.013092,176.818283 118.000725,171.510696 
	C127.446503,161.458923 128.596893,149.474640 125.837814,136.736542 
	C124.431885,130.245636 122.753922,123.782310 120.673630,117.479904 
	C119.312759,113.357025 120.674873,111.871788 124.465889,110.814835 
	C133.658524,108.251877 142.764008,105.376335 152.162445,102.344772 
M343.496429,123.996819 
	C334.481781,112.743347 324.143127,102.982788 311.495361,95.878540 
	C288.783569,83.121353 264.604431,78.693314 238.828369,82.973717 
	C211.553696,87.502991 188.941254,100.539780 171.867355,121.930161 
	C151.009766,148.060776 143.612717,178.110718 149.961868,211.216644 
	C156.827820,247.017197 176.911346,272.940704 209.396194,288.942932 
	C227.715622,297.967194 247.194733,301.653503 267.867065,299.183044 
	C280.641632,297.656433 292.817291,294.707977 304.350708,289.202698 
	C324.706757,279.486084 340.553986,264.703491 351.886627,245.270752 
	C359.759857,231.770142 364.719452,216.987442 365.726746,201.478989 
	C366.447174,190.387527 365.673706,178.956085 363.754364,167.993683 
	C360.954865,152.004395 354.184418,137.378128 343.496429,123.996819 
z"/>
<path fill="#0291F7" opacity="1.000000" stroke="none" 
	d="
M343.753723,124.255981 
	C354.184418,137.378128 360.954865,152.004395 363.754364,167.993683 
	C365.673706,178.956085 366.447174,190.387527 365.726746,201.478989 
	C364.719452,216.987442 359.759857,231.770142 351.886627,245.270752 
	C340.553986,264.703491 324.706757,279.486084 304.350708,289.202698 
	C292.817291,294.707977 280.641632,297.656433 267.867065,299.183044 
	C247.194733,301.653503 227.715622,297.967194 209.396194,288.942932 
	C176.911346,272.940704 156.827820,247.017197 149.961868,211.216644 
	C143.612717,178.110718 151.009766,148.060776 171.867355,121.930161 
	C188.941254,100.539780 211.553696,87.502991 238.828369,82.973717 
	C264.604431,78.693314 288.783569,83.121353 311.495361,95.878540 
	C324.143127,102.982788 334.481781,112.743347 343.753723,124.255981 
M317.994385,167.296875 
	C321.165833,156.477753 310.153320,145.564529 299.760223,149.111801 
	C295.917114,150.423523 292.214203,152.836807 289.116364,155.520065 
	C276.552673,166.402390 264.276886,177.616333 251.833771,188.638916 
	C247.787582,192.223190 243.612091,195.670181 239.351868,198.995667 
	C238.632111,199.557526 236.622986,199.684494 236.149826,199.161591 
	C229.755981,192.095642 223.516922,184.889252 217.263107,177.697128 
	C209.996216,169.339859 202.787155,169.160172 194.770477,175.099716 
	C188.653137,179.632050 188.238739,190.013412 192.641586,196.028976 
	C194.964188,199.202301 197.862000,201.949722 200.431717,204.948044 
	C208.119461,213.918045 215.753677,222.933990 223.447647,231.898636 
	C228.630264,237.937195 237.614548,240.782181 244.309586,235.179657 
	C256.135132,225.283768 267.741364,215.125549 279.429932,205.066147 
	C286.522461,198.962189 293.932800,193.177841 300.580597,186.621490 
	C306.593994,180.690826 314.733704,176.658279 317.994385,167.296875 
z"/>
<path fill="#ffffff" opacity="1.000000" stroke="none" 
	d="
M317.972107,167.695206 
	C314.733704,176.658279 306.593994,180.690826 300.580597,186.621490 
	C293.932800,193.177841 286.522461,198.962189 279.429932,205.066147 
	C267.741364,215.125549 256.135132,225.283768 244.309586,235.179657 
	C237.614548,240.782181 228.630264,237.937195 223.447647,231.898636 
	C215.753677,222.933990 208.119461,213.918045 200.431717,204.948044 
	C197.862000,201.949722 194.964188,199.202301 192.641586,196.028976 
	C188.238739,190.013412 188.653137,179.632050 194.770477,175.099716 
	C202.787155,169.160172 209.996216,169.339859 217.263107,177.697128 
	C223.516922,184.889252 229.755981,192.095642 236.149826,199.161591 
	C236.622986,199.684494 238.632111,199.557526 239.351868,198.995667 
	C243.612091,195.670181 247.787582,192.223190 251.833771,188.638916 
	C264.276886,177.616333 276.552673,166.402390 289.116364,155.520065 
	C292.214203,152.836807 295.917114,150.423523 299.760223,149.111801 
	C310.153320,145.564529 321.165833,156.477753 317.972107,167.695206 
z"/>
</svg>