<svg xmlns="http://www.w3.org/2000/svg" viewBox="0 0 434.98 550.43">
  <defs>
    <style>
      .cls-1 {
        fill: #0284c7;
      }

      .cls-2 {
        fill: #075985;
      }

      .cls-3 {
        fill: #f4f0ff;
      }
    </style>
  </defs>
  <g id="Layer_2" data-name="Layer 2">
    <g id="Ñëîé_1" data-name="Ñëîé 1">
      <g>
        <g>
          <polygon class="cls-1" points="319.07 374.36 238.54 412.21 286 545.64 312.72 494.52 369.44 515.96 319.07 374.36"/>
          <path class="cls-2" d="M286,550.43h-.34a4.79,4.79,0,0,1-4.18-3.17L234,413.81a4.8,4.8,0,0,1,2.48-5.94L317,370a4.79,4.79,0,0,1,6.56,2.73L374,514.35a4.8,4.8,0,0,1-6.22,6.09L315,500.51l-24.76,47.35A4.78,4.78,0,0,1,286,550.43ZM244.51,414.7l42.32,119,21.64-41.39a4.8,4.8,0,0,1,5.94-2.27l47,17.79L316.33,380.94Z"/>
        </g>
        <g>
          <polygon class="cls-1" points="97.67 370.7 46.05 515.84 103.15 493.32 129.49 545.52 181.71 398.7 97.67 370.7"/>
          <path class="cls-2" d="M129.49,550.31a4.8,4.8,0,0,1-4.28-2.63l-24.37-48.29-53,20.91a4.8,4.8,0,0,1-6.28-6.07L93.15,369.09a4.78,4.78,0,0,1,6-2.94l84,28a4.79,4.79,0,0,1,3,6.15L134,547.12a4.8,4.8,0,0,1-4.22,3.18Zm-26.34-61.78a4.78,4.78,0,0,1,4.28,2.64l21.3,42.2,46.82-131.66-74.94-25L54.1,507.51l47.29-18.65A4.9,4.9,0,0,1,103.15,488.53Z"/>
        </g>
        <path class="cls-1" d="M67.24,333.56,31.52,311.27c-9.12-5.7-9.5-16.82-5.32-29.78s7.6-27.78.76-36.33S-1.72,221,6.07,206.22s25.5-30.06,24.55-38.61-12-47.07-1.95-53.43S61,102.3,67.81,92.8s6.08-40.27,13.87-45,32.75-10,46.05-8.07,24.24-16.63,28-24.61S174.19.47,187.87,7.88s17.8,14.7,36,11.28S262.53-3.52,271.46,8.64s21.66,31.05,38.94,32.19,47.34-2.89,48.86,20.09,5.87,29.93,14.23,37.34,40.45,13.35,34.75,36.71-4.56,37.94,1.71,46.11,31,24.95,9.5,48.88-17.5,35.61-12.56,48.53,9.14,31.26-14.22,39.43-30,19.57-35.15,44.27-31.72,19.94-50.15,19.94-31,38.19-46,38.76-34.21-17.08-47.88-14.81S184.45,427.18,167,420.9s-19.14-31.65-30-33.17-52.1-4.27-55.9-11.11S70.85,338.69,67.24,333.56Z"/>
        <path class="cls-2" d="M260.93,425.26c-7.86,0-15.74-3.83-23.41-7.54-6.87-3.33-14-6.78-20-6.78s-13.16,3.44-20,6.78c-9.28,4.5-18.88,9.19-28.37,7-9.88-2.25-16.64-10.79-23.18-19.06-4.81-6.08-9.36-11.83-14.49-14.3-5.29-2.56-13.07-2.54-20.6-2.53-10.44,0-21.2,0-28.95-6.15s-10.16-16.76-12.46-27c-1.72-7.66-3.35-14.89-7-19.44s-10.26-7.68-17.31-11c-9.47-4.51-19.26-9.17-23.62-18.21-4.28-8.86-1.87-19.33.47-29.45,1.7-7.37,3.46-15,2.14-20.79-1.25-5.47-5.8-11.14-10.63-17.14C6.85,231.39,0,222.86,0,212.63s6.85-18.77,13.49-27c4.82-6,9.37-11.68,10.62-17.14,1.32-5.8-.44-13.43-2.14-20.8-2.33-10.12-4.74-20.59-.46-29.45,4.36-9,14.15-13.7,23.62-18.22,7-3.36,13.71-6.53,17.31-11s5.26-11.78,7-19.44c2.3-10.2,4.68-20.74,12.46-27s18.55-6.24,29-6.15c7.54,0,15.31,0,20.6-2.52,5.14-2.48,9.68-8.22,14.49-14.31,6.54-8.26,13.3-16.81,23.18-19.06,9.49-2.15,19.08,2.5,28.36,7,6.87,3.33,14,6.77,20,6.77s13.16-3.44,20-6.77c9.29-4.49,18.91-9.14,28.38-7,9.88,2.24,16.64,10.79,23.18,19.06,4.81,6.08,9.35,11.82,14.48,14.3,5.29,2.55,13.05,2.53,20.61,2.53,10.45,0,21.2,0,28.94,6.15s10.16,16.76,12.46,27c1.72,7.66,3.35,14.88,7,19.43s10.25,7.68,17.3,11c9.47,4.52,19.27,9.18,23.62,18.21,4.28,8.87,1.87,19.33-.47,29.46-1.7,7.37-3.45,15-2.13,20.79,1.24,5.47,5.8,11.14,10.62,17.14,6.63,8.25,13.48,16.78,13.48,27s-6.85,18.76-13.48,27c-4.82,6-9.38,11.67-10.62,17.14-1.32,5.8.43,13.43,2.13,20.8,2.34,10.12,4.75,20.59.47,29.45-4.36,9-14.15,13.7-23.63,18.22-7.05,3.35-13.7,6.53-17.3,11s-5.26,11.78-7,19.44c-2.3,10.2-4.67,20.74-12.46,27s-18.6,6.24-28.94,6.14c-7.66,0-15.32,0-20.61,2.53-5.13,2.48-9.68,8.22-14.48,14.3-6.54,8.27-13.3,16.82-23.18,19.07A22.56,22.56,0,0,1,260.93,425.26Zm-43.44-23.9c8.26,0,16.37,3.93,24.21,7.73,8.16,4,15.85,7.69,22.06,6.27,6.58-1.49,12-8.37,17.78-15.65,5.28-6.67,10.73-13.57,17.84-17,7.27-3.51,16.14-3.48,24.79-3.49,9.26.09,17.83,0,22.95-4s7.06-12.6,9.09-21.58c1.89-8.38,3.84-17,8.85-23.31s12.95-10,20.67-13.71c8.34-4,16.22-7.73,19.12-13.72,2.81-5.83.87-14.24-1.18-23.14-1.94-8.42-3.95-17.14-2.14-25.08,1.73-7.62,7.21-14.43,12.5-21,5.84-7.27,11.37-14.14,11.37-21s-5.53-13.73-11.37-21c-5.29-6.59-10.77-13.4-12.5-21-1.81-7.94.2-16.65,2.14-25.08,2.06-8.9,4-17.3,1.18-23.13-2.89-6-10.77-9.75-19.11-13.72C378,105,370,101.2,365.07,95s-7-14.94-8.85-23.32c-2-9-3.93-17.45-9.09-21.57S333.34,46,324.18,46c-8.53,0-17.51,0-24.79-3.49-7.11-3.43-12.56-10.32-17.83-17-5.77-7.28-11.21-14.16-17.79-15.65-6.22-1.45-13.91,2.31-22.07,6.27-7.84,3.8-15.95,7.73-24.21,7.73S201.13,20,193.28,16.17c-8.15-4-15.85-7.72-22.06-6.28-6.58,1.5-12,8.38-17.78,15.66-5.27,6.67-10.72,13.56-17.84,17S119.47,46,110.81,46c-9.14-.05-17.83,0-22.94,4s-7.07,12.6-9.09,21.58C76.89,80,74.94,88.68,69.93,95s-13,10-20.68,13.71c-8.34,4-16.22,7.72-19.11,13.72-2.81,5.83-.88,14.23,1.17,23.13,1.94,8.43,3.95,17.14,2.15,25.08-1.74,7.63-7.21,14.44-12.5,21-5.85,7.28-11.37,14.15-11.37,21s5.52,13.72,11.37,21c5.29,6.58,10.76,13.39,12.5,21,1.8,7.94-.21,16.65-2.15,25.07-2,8.9-4,17.31-1.17,23.14,2.89,6,10.77,9.74,19.11,13.72,7.71,3.68,15.7,7.48,20.67,13.71s7,14.93,8.85,23.31c2,9,3.93,17.46,9.08,21.58s13.77,4.06,23,4.05c8.56,0,17.52,0,24.79,3.48,7.12,3.43,12.57,10.33,17.84,17,5.76,7.29,11.2,14.16,17.78,15.66,6.22,1.43,13.91-2.32,22.07-6.27C201.13,405.29,209.24,401.36,217.49,401.36Z"/>
        <g>
          <circle class="cls-3" cx="217.49" cy="212.63" r="156" transform="translate(-86.65 216.07) rotate(-45)"/>
          <path class="cls-2" d="M217.49,373.42c-88.65,0-160.79-72.13-160.79-160.79S128.84,51.84,217.49,51.84,378.29,124,378.29,212.63,306.15,373.42,217.49,373.42Zm0-312c-83.37,0-151.2,67.83-151.2,151.21s67.83,151.2,151.2,151.2S368.7,296,368.7,212.63,300.87,61.42,217.49,61.42Z"/>
        </g>
        <path class="cls-2" d="M217.49,354c-78,0-141.38-63.42-141.38-141.38S139.53,71.25,217.49,71.25s141.39,63.42,141.39,141.38S295.45,354,217.49,354Zm0-276C143.24,78,82.82,138.37,82.82,212.63S143.24,347.3,217.49,347.3s134.67-60.41,134.67-134.67S291.75,78,217.49,78Z"/>
        <g>
          <polygon class="cls-1" points="217.49 104.34 249.8 169.81 322.05 180.3 269.77 231.26 282.12 303.22 217.49 269.25 152.87 303.22 165.21 231.26 112.93 180.3 185.18 169.81 217.49 104.34"/>
          <path class="cls-2" d="M152.87,308a4.78,4.78,0,0,1-4.72-5.6l11.91-69.47-50.47-49.21a4.78,4.78,0,0,1,2.65-8.17L182,165.42l31.2-63.21a4.79,4.79,0,0,1,4.29-2.67h0a4.79,4.79,0,0,1,4.3,2.67L253,165.42l69.75,10.14a4.79,4.79,0,0,1,2.66,8.17l-50.48,49.21,11.92,69.47a4.79,4.79,0,0,1-7,5l-62.39-32.8-62.39,32.8A4.78,4.78,0,0,1,152.87,308ZM123.24,183.65l45.32,44.18a4.82,4.82,0,0,1,1.38,4.25l-10.7,62.38,56-29.45a4.78,4.78,0,0,1,4.47,0l56,29.45-10.7-62.38a4.79,4.79,0,0,1,1.38-4.25l45.32-44.18-62.64-9.1a4.82,4.82,0,0,1-3.61-2.62l-28-56.76-28,56.76a4.82,4.82,0,0,1-3.61,2.62Z"/>
        </g>
      </g>
    </g>
  </g>
</svg>
