<svg xmlns="http://www.w3.org/2000/svg" viewBox="0 0 184.29 185.26"><defs><style>.cls-1{fill:#0284c7;}</style></defs><g id="Layer_2" data-name="Layer 2"><g id="Layer_1-2" data-name="Layer 1"><path class="cls-1" d="M159.22,75.66l16.63-25.15V174.42A10.84,10.84,0,0,1,165,185.26H10.84A10.84,10.84,0,0,1,0,174.42V20.26A10.84,10.84,0,0,1,10.84,9.42H144.06L128.07,26H16.63v142.6H159.22ZM175.4,1.55,81.88,98.72,48.49,73.19C41.46,68.84,33.36,77,37.71,84l37.14,60a11,11,0,0,0,18.3.5L183.29,8.22C186.9,3.05,179.9-2.87,175.4,1.55Z"/></g></g></svg>