<svg xmlns="http://www.w3.org/2000/svg" viewBox="0 0 603.23 428.01">
  <defs>
    <style>
      .cls-1 {
        fill: #0284c7;
      }

      .cls-2 {
        fill: #075985;
      }

      .cls-3 {
        fill: #f4f0ff;
      }
    </style>
  </defs>
  <g id="Layer_2" data-name="Layer 2">
    <g id="Ñëîé_1" data-name="Ñëîé 1">
      <g>
        <g>
          <circle class="cls-1" cx="250.95" cy="214" r="177.77" transform="translate(-77.82 240.13) rotate(-45)"/>
          <path class="cls-2" d="M250.94,397.05c-100.93,0-183-82.12-183-183S150,31,250.94,31,434,113.07,434,214,351.88,397.05,250.94,397.05Zm0-355.54c-95.11,0-172.5,77.38-172.5,172.5S155.83,386.5,250.94,386.5,423.45,309.12,423.45,214,346.06,41.51,250.94,41.51Z"/>
        </g>
        <g>
          <circle class="cls-3" cx="250.95" cy="214.01" r="143.96"/>
          <path class="cls-2" d="M250.94,363.24c-82.28,0-149.22-66.95-149.22-149.23S168.66,64.77,250.94,64.77s149.23,67,149.23,149.24S333.23,363.24,250.94,363.24Zm0-287.92c-76.47,0-138.68,62.21-138.68,138.69s62.21,138.68,138.68,138.68S389.63,290.48,389.63,214,327.42,75.32,250.94,75.32Z"/>
        </g>
        <g>
          <circle class="cls-1" cx="250.95" cy="214.01" r="107.92"/>
          <path class="cls-2" d="M250.94,327.19A113.19,113.19,0,1,1,364.14,214,113.31,113.31,0,0,1,250.94,327.19Zm0-215.83A102.65,102.65,0,1,0,353.59,214,102.77,102.77,0,0,0,250.94,111.36Z"/>
        </g>
        <g>
          <circle class="cls-3" cx="250.95" cy="214.01" r="73.08"/>
          <path class="cls-2" d="M250.94,292.35A78.35,78.35,0,1,1,329.3,214,78.43,78.43,0,0,1,250.94,292.35Zm0-146.15A67.81,67.81,0,1,0,318.75,214,67.89,67.89,0,0,0,250.94,146.2Z"/>
        </g>
        <g>
          <circle class="cls-1" cx="250.95" cy="214.01" r="31.23"/>
          <path class="cls-2" d="M250.94,250.51A36.51,36.51,0,1,1,287.45,214,36.55,36.55,0,0,1,250.94,250.51Zm0-62.46a26,26,0,1,0,26,26A26,26,0,0,0,250.94,188.05Z"/>
        </g>
        <g>
          <polygon class="cls-1" points="490.55 261.28 520.13 236.78 597.95 254.06 573.87 277.67 490.55 261.28"/>
          <path class="cls-2" d="M573.87,282.93a5.86,5.86,0,0,1-1-.09l-83.32-16.38a5.28,5.28,0,0,1-2.35-9.24l29.59-24.5a5.34,5.34,0,0,1,4.51-1.09l77.82,17.28a5.27,5.27,0,0,1,2.54,8.91l-24.08,23.61A5.31,5.31,0,0,1,573.87,282.93Zm-71.4-24.67L572.16,272l15.16-14.85-65.81-14.61Z"/>
        </g>
        <g>
          <polygon class="cls-1" points="490.48 261.29 508.73 295.65 587.39 308.57 573.83 277.7 490.48 261.29"/>
          <path class="cls-2" d="M587.39,313.84a4.88,4.88,0,0,1-.85-.07l-78.66-12.92a5.24,5.24,0,0,1-3.8-2.73l-18.25-34.36a5.28,5.28,0,0,1,5.67-7.65l83.34,16.42a5.26,5.26,0,0,1,3.81,3.05l13.57,30.87a5.27,5.27,0,0,1-4.83,7.39Zm-75.23-23,66.49,10.92-8.54-19.45-69.78-13.73Z"/>
        </g>
        <path class="cls-2" d="M90.1,428H5.27A5.27,5.27,0,0,1,0,422.74V337.35a5.27,5.27,0,0,1,10.54,0v80.11H90.1a5.28,5.28,0,1,1,0,10.55Z"/>
        <path class="cls-2" d="M496.62,427.93H411.79a5.27,5.27,0,0,1,0-10.54h79.55V337.27a5.28,5.28,0,0,1,10.55,0v85.39A5.27,5.27,0,0,1,496.62,427.93Z"/>
        <path class="cls-2" d="M5.27,92.84A5.27,5.27,0,0,1,0,87.57V5.27A5.27,5.27,0,0,1,5.27,0H90.1a5.27,5.27,0,1,1,0,10.54H10.54v77A5.26,5.26,0,0,1,5.27,92.84Z"/>
        <path class="cls-2" d="M496.62,92.91a5.27,5.27,0,0,1-5.28-5.27v-77H411.79a5.27,5.27,0,0,1,0-10.54h84.83a5.27,5.27,0,0,1,5.27,5.27V87.64A5.27,5.27,0,0,1,496.62,92.91Z"/>
        <path class="cls-2" d="M581.12,273.74l-291-57.4L534,198.06a5.27,5.27,0,0,0-.79-10.52L250.55,208.73c-.1,0-.18.07-.28.08a5.37,5.37,0,0,0-1.17.33,4.94,4.94,0,0,0-.78.33,5.57,5.57,0,0,0-.85.67,5.79,5.79,0,0,0-.66.65,6.13,6.13,0,0,0-.51.9,5.17,5.17,0,0,0-.39.94c0,.12-.12.21-.14.33a6.09,6.09,0,0,0,0,.74,5.2,5.2,0,0,0-.08.69c0,.12.07.22.09.34a5.69,5.69,0,0,0,.24.9,5,5,0,0,0,.43,1,5.2,5.2,0,0,0,.48.65,4.49,4.49,0,0,0,1.47,1.24,5.91,5.91,0,0,0,1.16.48c.13,0,.23.12.37.15l329.15,64.94a5.21,5.21,0,0,0,1,.1,5.27,5.27,0,0,0,1-10.45Z"/>
        <g>
          <polygon class="cls-1" points="456.73 198.59 475.31 171.97 542.58 168.53 528.27 193.18 456.73 198.59"/>
          <path class="cls-2" d="M456.73,203.86a5.28,5.28,0,0,1-4.33-8.29L471,169a5.28,5.28,0,0,1,4.06-2.25l67.27-3.44a5.36,5.36,0,0,1,4.77,2.52,5.26,5.26,0,0,1,.06,5.39l-14.31,24.65a5.27,5.27,0,0,1-4.16,2.61l-71.54,5.41Zm21.42-26.75L467.41,192.5l57.7-4.37,8-13.83Z"/>
        </g>
        <g>
          <polygon class="cls-1" points="456.68 198.61 479.28 222.48 546.25 215.31 528.25 193.22 456.68 198.61"/>
          <path class="cls-2" d="M479.28,227.75a5.28,5.28,0,0,1-3.83-1.64l-22.6-23.87a5.28,5.28,0,0,1,3.43-8.89L527.85,188a5.15,5.15,0,0,1,4.48,1.92l18,22.09a5.28,5.28,0,0,1-3.53,8.58l-67,7.17ZM468.13,203,481.31,217,536,211.1,525.9,198.68Z"/>
        </g>
      </g>
    </g>
  </g>
</svg>
