<svg version="1.1" id="Layer_1" xmlns="http://www.w3.org/2000/svg" xmlns:xlink="http://www.w3.org/1999/xlink" x="0px" y="0px"
	 width="100%" viewBox="0 0 512 512" enable-background="new 0 0 512 512" xml:space="preserve">
<path fill="#FFD15C" opacity="1.000000" stroke="none" 
	d="
M228.000000,0.999995 
	C246.687561,1.000000 265.375122,1.000000 284.194550,1.328949 
	C285.323181,2.104287 286.279999,2.768409 287.323517,2.959778 
	C292.117401,3.838912 297.005310,4.295373 301.732727,5.431086 
	C321.461609,10.170713 340.289734,17.185829 357.937408,27.386999 
	C381.656219,41.097542 401.987854,58.695541 418.605011,80.366631 
	C433.666809,100.009354 445.282288,121.725853 451.682190,145.680725 
	C455.561554,160.201111 458.489288,175.198669 459.681854,190.154312 
	C461.000244,206.688416 460.257446,223.371902 457.164185,239.927902 
	C454.028168,256.712738 449.558258,273.015686 442.095276,288.295197 
	C436.297424,300.165527 429.295105,311.447571 422.484955,322.995514 
	C421.011932,324.139465 419.744537,325.172913 418.772430,326.434021 
	C391.333679,362.030426 356.296722,386.563293 313.065826,399.239624 
	C311.270508,399.766052 309.671600,400.962372 307.568115,401.914886 
	C305.410919,402.322693 303.678314,402.745544 301.920837,402.987976 
	C291.927490,404.366577 281.957397,406.489197 271.923920,406.860779 
	C258.179749,407.369781 244.355927,407.001190 230.624435,406.111115 
	C222.105499,405.558899 213.694336,403.343933 205.080505,401.528870 
	C203.422287,400.546265 201.965302,399.747559 200.407578,399.297516 
	C157.935806,387.027161 123.334534,363.161102 95.980888,328.569122 
	C94.567711,326.782013 92.883896,325.208893 91.066368,323.314392 
	C82.092102,310.804352 74.956604,297.683167 68.884285,283.869934 
	C59.565884,262.672546 54.507336,240.437210 53.259716,217.540543 
	C52.509968,203.780914 53.917725,189.846252 55.089592,176.052582 
	C56.947041,154.189163 63.939426,133.630341 73.596703,114.136948 
	C85.658371,89.790237 101.842926,68.492706 122.629959,50.657150 
	C134.177567,40.749149 146.369766,31.917704 159.721924,24.815752 
	C180.556458,13.733943 202.535553,5.821227 226.127991,2.920038 
	C226.820221,2.834913 227.378998,1.664424 228.000000,0.999995 
M125.835403,272.612183 
	C135.774185,290.736908 148.436874,306.544922 164.787003,319.378418 
	C199.126053,346.331757 238.060287,356.486023 280.871979,349.588623 
	C319.464874,343.370911 351.068878,324.054810 374.380066,292.647949 
	C398.750702,259.813690 408.432861,222.752396 402.051910,182.022369 
	C395.226715,138.456802 372.947418,104.460312 336.322205,80.444908 
	C306.162842,60.669224 272.474640,53.253605 236.706390,58.256611 
	C197.617737,63.724052 165.118851,82.017830 140.804642,113.136765 
	C117.413795,143.073914 106.808876,177.291626 109.806267,215.644287 
	C111.364433,235.581680 116.924675,254.115356 125.835403,272.612183 
z"/>
<path fill="#000000" opacity="1.000000" stroke="none" 
	d="
M422.828186,322.991119 
	C429.295105,311.447571 436.297424,300.165527 442.095276,288.295197 
	C449.558258,273.015686 454.028168,256.712738 457.164185,239.927902 
	C460.257446,223.371902 461.000244,206.688416 459.681854,190.154312 
	C458.489288,175.198669 455.561554,160.201111 451.682190,145.680725 
	C445.282288,121.725853 433.666809,100.009354 418.605011,80.366631 
	C401.987854,58.695541 381.656219,41.097542 357.937408,27.386999 
	C340.289734,17.185829 321.461609,10.170713 301.732727,5.431086 
	C297.005310,4.295373 292.117401,3.838912 287.323517,2.959778 
	C286.279999,2.768409 285.323181,2.104287 284.663208,1.328949 
	C360.962128,1.000000 436.924286,1.000000 512.943237,1.000000 
	C512.943237,171.543747 512.943237,342.087524 512.943237,513.000000 
	C467.313110,513.000000 421.625214,513.000000 375.351990,512.631348 
	C375.237213,511.027832 375.600220,509.738373 376.194336,508.566071 
	C386.894043,487.453583 397.707672,466.398041 408.254913,445.209869 
	C409.925751,441.853363 411.856445,440.741058 415.490265,440.933167 
	C431.209137,441.764160 446.941315,442.343536 462.667419,443.041443 
	C463.479889,443.077545 464.275330,443.470978 465.088776,443.516174 
	C474.107544,444.017517 483.128296,444.482880 492.764221,444.990448 
	C491.942383,443.388397 491.474182,442.379059 490.923401,441.416962 
	C485.266937,431.537018 479.620056,421.651520 473.925964,411.793304 
	C464.597412,395.642792 455.204285,379.529510 445.897888,363.366272 
	C438.163574,349.933472 430.514832,336.451385 422.828186,322.991119 
z"/>
<path fill="#000000" opacity="1.000000" stroke="none" 
	d="
M227.531342,0.999995 
	C227.378998,1.664424 226.820221,2.834913 226.127991,2.920038 
	C202.535553,5.821227 180.556458,13.733943 159.721924,24.815752 
	C146.369766,31.917704 134.177567,40.749149 122.629959,50.657150 
	C101.842926,68.492706 85.658371,89.790237 73.596703,114.136948 
	C63.939426,133.630341 56.947041,154.189163 55.089592,176.052582 
	C53.917725,189.846252 52.509968,203.780914 53.259716,217.540543 
	C54.507336,240.437210 59.565884,262.672546 68.884285,283.869934 
	C74.956604,297.683167 82.092102,310.804352 90.745148,323.536530 
	C67.553467,364.097046 44.423290,404.213684 21.520660,443.935669 
	C30.861732,443.935669 39.630085,444.255890 48.366875,443.866974 
	C65.038857,443.124908 81.700211,442.084167 98.348869,440.922363 
	C102.278389,440.648132 104.214897,442.075378 105.909096,445.495087 
	C113.322891,460.459717 121.117157,475.235596 128.555389,490.188446 
	C132.278214,497.672272 135.533340,505.388733 139.000000,513.000000 
	C93.022957,513.000000 47.045910,513.000000 1.034432,513.000000 
	C1.034432,342.441467 1.034432,171.882904 1.034432,1.000000 
	C76.353920,1.000000 151.708298,1.000000 227.531342,0.999995 
z"/>
<path fill="#000000" opacity="1.000000" stroke="none" 
	d="
M205.234802,401.875305 
	C213.694336,403.343933 222.105499,405.558899 230.624435,406.111115 
	C244.355927,407.001190 258.179749,407.369781 271.923920,406.860779 
	C281.957397,406.489197 291.927490,404.366577 301.920837,402.987976 
	C303.678314,402.745544 305.410919,402.322693 307.854309,402.116211 
	C314.628448,412.655640 320.731140,423.045868 326.771790,433.472046 
	C337.193817,451.460449 347.633026,469.439331 357.952301,487.486664 
	C362.770660,495.913452 367.325653,504.490845 372.000000,513.000000 
	C295.645782,513.000000 219.291550,513.000000 142.490295,512.638977 
	C144.749878,507.373352 147.378799,502.423920 150.176880,497.572083 
	C160.816101,479.123840 171.542603,460.725891 182.172546,442.272339 
	C189.912018,428.836639 197.551010,415.343048 205.234802,401.875305 
z"/>
<path fill="#40596B" opacity="1.000000" stroke="none" 
	d="
M372.375000,513.000000 
	C367.325653,504.490845 362.770660,495.913452 357.952301,487.486664 
	C347.633026,469.439331 337.193817,451.460449 326.771790,433.472046 
	C320.731140,423.045868 314.628448,412.655640 308.267426,402.047913 
	C309.671600,400.962372 311.270508,399.766052 313.065826,399.239624 
	C356.296722,386.563293 391.333679,362.030426 418.772430,326.434021 
	C419.744537,325.172913 421.011932,324.139465 422.484955,322.995514 
	C430.514832,336.451385 438.163574,349.933472 445.897888,363.366272 
	C455.204285,379.529510 464.597412,395.642792 473.925964,411.793304 
	C479.620056,421.651520 485.266937,431.537018 490.923401,441.416962 
	C491.474182,442.379059 491.942383,443.388397 492.764221,444.990448 
	C483.128296,444.482880 474.107544,444.017517 465.088776,443.516174 
	C464.275330,443.470978 463.479889,443.077545 462.667419,443.041443 
	C446.941315,442.343536 431.209137,441.764160 415.490265,440.933167 
	C411.856445,440.741058 409.925751,441.853363 408.254913,445.209869 
	C397.707672,466.398041 386.894043,487.453583 376.194336,508.566071 
	C375.600220,509.738373 375.237213,511.027832 374.883301,512.631348 
	C374.250000,513.000000 373.500000,513.000000 372.375000,513.000000 
z"/>
<path fill="#40596B" opacity="1.000000" stroke="none" 
	d="
M205.080505,401.528870 
	C197.551010,415.343048 189.912018,428.836639 182.172546,442.272339 
	C171.542603,460.725891 160.816101,479.123840 150.176880,497.572083 
	C147.378799,502.423920 144.749878,507.373352 142.021637,512.638977 
	C141.250000,513.000000 140.500000,513.000000 139.375000,513.000000 
	C135.533340,505.388733 132.278214,497.672272 128.555389,490.188446 
	C121.117157,475.235596 113.322891,460.459717 105.909096,445.495087 
	C104.214897,442.075378 102.278389,440.648132 98.348869,440.922363 
	C81.700211,442.084167 65.038857,443.124908 48.366875,443.866974 
	C39.630085,444.255890 30.861732,443.935669 21.520660,443.935669 
	C44.423290,404.213684 67.553467,364.097046 91.004860,323.758301 
	C92.883896,325.208893 94.567711,326.782013 95.980888,328.569122 
	C123.334534,363.161102 157.935806,387.027161 200.407578,399.297516 
	C201.965302,399.747559 203.422287,400.546265 205.080505,401.528870 
z"/>
<path fill="#F8B64C" opacity="1.000000" stroke="none" 
	d="
M125.664276,272.283203 
	C116.924675,254.115356 111.364433,235.581680 109.806267,215.644287 
	C106.808876,177.291626 117.413795,143.073914 140.804642,113.136765 
	C165.118851,82.017830 197.617737,63.724052 236.706390,58.256611 
	C272.474640,53.253605 306.162842,60.669224 336.322205,80.444908 
	C372.947418,104.460312 395.226715,138.456802 402.051910,182.022369 
	C408.432861,222.752396 398.750702,259.813690 374.380066,292.647949 
	C351.068878,324.054810 319.464874,343.370911 280.871979,349.588623 
	C238.060287,356.486023 199.126053,346.331757 164.787003,319.378418 
	C148.436874,306.544922 135.774185,290.736908 125.664276,272.283203 
M339.305176,173.122147 
	C325.638031,171.134933 311.996033,168.941452 298.290588,167.267914 
	C293.219757,166.648712 290.192810,164.462234 288.020844,159.943130 
	C280.450562,144.191711 272.610535,128.570099 264.925720,112.873360 
	C263.114410,109.173599 261.322540,105.658165 256.363281,105.727554 
	C251.397125,105.797020 249.762436,109.448814 247.972046,113.117668 
	C240.307556,128.823914 232.523712,144.472198 224.918076,160.206741 
	C222.930893,164.317825 220.135254,166.560303 215.462875,167.199326 
	C197.988174,169.589325 180.565475,172.357635 163.098206,174.805222 
	C158.919891,175.390701 155.172821,176.104645 153.673157,180.734207 
	C152.205597,185.264679 155.094772,187.886078 157.878708,190.598282 
	C170.526382,202.920074 183.140656,215.276260 195.813980,227.571609 
	C198.736694,230.407104 200.380142,233.409653 199.599091,237.756195 
	C196.391525,255.606125 193.419785,273.498322 190.320404,291.367859 
	C189.666504,295.137970 189.487762,298.729797 192.961731,301.347534 
	C196.454803,303.979645 199.780624,302.800201 203.210648,300.984619 
	C218.952667,292.652130 234.800964,284.518127 250.472229,276.055695 
	C254.926743,273.650269 258.725739,273.727905 263.124725,276.099304 
	C278.802307,284.550690 294.629639,292.723724 310.360168,301.077698 
	C313.649170,302.824371 316.825867,303.843231 320.171173,301.432251 
	C323.462830,299.059937 323.781799,295.821960 323.119232,292.080200 
	C320.131073,275.205292 317.437042,258.276459 314.271454,241.435760 
	C313.131775,235.372696 313.878448,230.795868 318.725616,226.274231 
	C331.511475,214.346985 343.900940,201.982315 356.111877,189.463776 
	C358.099182,187.426437 359.376434,183.650818 359.191467,180.794586 
	C358.937866,176.877380 355.306671,175.430801 351.523804,174.970505 
	C347.726685,174.508469 343.955414,173.834381 339.305176,173.122147 
z"/>
<path fill="#FFFFFE" opacity="1.000000" stroke="none" 
	d="
M339.738983,173.187683 
	C343.955414,173.834381 347.726685,174.508469 351.523804,174.970505 
	C355.306671,175.430801 358.937866,176.877380 359.191467,180.794586 
	C359.376434,183.650818 358.099182,187.426437 356.111877,189.463776 
	C343.900940,201.982315 331.511475,214.346985 318.725616,226.274231 
	C313.878448,230.795868 313.131775,235.372696 314.271454,241.435760 
	C317.437042,258.276459 320.131073,275.205292 323.119232,292.080200 
	C323.781799,295.821960 323.462830,299.059937 320.171173,301.432251 
	C316.825867,303.843231 313.649170,302.824371 310.360168,301.077698 
	C294.629639,292.723724 278.802307,284.550690 263.124725,276.099304 
	C258.725739,273.727905 254.926743,273.650269 250.472229,276.055695 
	C234.800964,284.518127 218.952667,292.652130 203.210648,300.984619 
	C199.780624,302.800201 196.454803,303.979645 192.961731,301.347534 
	C189.487762,298.729797 189.666504,295.137970 190.320404,291.367859 
	C193.419785,273.498322 196.391525,255.606125 199.599091,237.756195 
	C200.380142,233.409653 198.736694,230.407104 195.813980,227.571609 
	C183.140656,215.276260 170.526382,202.920074 157.878708,190.598282 
	C155.094772,187.886078 152.205597,185.264679 153.673157,180.734207 
	C155.172821,176.104645 158.919891,175.390701 163.098206,174.805222 
	C180.565475,172.357635 197.988174,169.589325 215.462875,167.199326 
	C220.135254,166.560303 222.930893,164.317825 224.918076,160.206741 
	C232.523712,144.472198 240.307556,128.823914 247.972046,113.117668 
	C249.762436,109.448814 251.397125,105.797020 256.363281,105.727554 
	C261.322540,105.658165 263.114410,109.173599 264.925720,112.873360 
	C272.610535,128.570099 280.450562,144.191711 288.020844,159.943130 
	C290.192810,164.462234 293.219757,166.648712 298.290588,167.267914 
	C311.996033,168.941452 325.638031,171.134933 339.738983,173.187683 
z"/>
</svg>