<svg version="1.1" id="Layer_1" xmlns="http://www.w3.org/2000/svg" xmlns:xlink="http://www.w3.org/1999/xlink" x="0px" y="0px"
	 width="100%" viewBox="0 0 337 478" enable-background="new 0 0 337 478" xml:space="preserve">
<path fill="#FFFFFF" opacity="1.000000" stroke="none" 
	d="
M336.000000,479.000000 
	C225.311325,479.000000 114.622650,479.000000 3.643126,478.691498 
	C8.311553,476.199554 13.270824,474.016083 18.433151,471.776947 
	C18.875097,471.540405 19.013626,471.301361 19.427727,470.969238 
	C24.412268,468.896545 29.020872,466.858704 34.019794,464.871704 
	C44.993736,460.417542 55.598637,455.961700 66.154602,451.392761 
	C75.481949,447.355591 84.754730,443.192291 94.420837,439.030396 
	C105.991394,434.266144 117.230721,429.643890 128.381195,424.816376 
	C136.344086,421.368896 144.187668,417.645813 152.461472,414.028137 
	C157.069458,412.268616 161.357651,410.651062 165.511703,408.741699 
	C168.367294,407.429169 170.721832,407.360443 173.777267,408.781769 
	C182.380173,412.783783 191.253555,416.204407 200.338104,420.029144 
	C201.526154,420.680603 202.363678,421.233582 203.271469,421.622498 
	C223.750595,430.396454 244.218079,439.198029 264.729584,447.895782 
	C278.386536,453.686920 292.108337,459.325165 306.053589,465.296326 
	C311.083099,467.631653 315.860138,469.702484 320.992584,471.931488 
	C326.231995,474.393097 331.115997,476.696533 336.000000,479.000000 
z"/>
<path fill="#D7AF55" opacity="1.000000" stroke="none" 
	d="
M34.000000,1.000000 
	C124.354225,1.000000 214.708450,1.000000 305.495972,1.465425 
	C305.833954,6.623930 305.738617,11.317012 305.203278,16.008015 
	C214.467529,16.001072 124.171738,15.996210 33.822090,15.528065 
	C33.845486,10.376521 33.922741,5.688261 34.000000,1.000000 
z"/>
<path fill="#FBE089" opacity="1.000000" stroke="none" 
	d="
M1.000000,420.000000 
	C1.000000,353.979095 1.000000,287.958221 1.467493,221.468658 
	C7.272070,221.000824 12.609155,221.001648 18.026379,221.465225 
	C18.200123,235.622208 18.293732,249.316452 18.300095,263.471191 
	C18.271288,286.291382 18.329731,308.651062 18.300476,331.471161 
	C18.270853,351.961212 18.328926,371.990845 18.297823,392.479553 
	C18.119469,401.958435 18.030293,410.978180 17.477200,419.998474 
	C11.675523,419.999359 6.337761,419.999664 1.000000,420.000000 
z"/>
<path fill="#FBE18A" opacity="1.000000" stroke="none" 
	d="
M338.000000,233.000000 
	C338.000000,294.020905 338.000000,355.041779 337.532745,416.531342 
	C331.765442,416.998413 326.465363,416.996796 321.095917,416.531342 
	C320.961487,405.714874 320.896423,395.362244 320.907318,384.545715 
	C320.933014,361.390778 320.882812,338.699768 320.907837,315.544922 
	C320.933929,291.723663 320.884857,268.366241 320.910706,244.552963 
	C321.047668,240.400024 321.109711,236.702896 321.628601,233.003754 
	C327.390289,233.001144 332.695160,233.000580 338.000000,233.000000 
z"/>
<path fill="#F5D981" opacity="1.000000" stroke="none" 
	d="
M17.946239,221.002472 
	C12.609155,221.001648 7.272070,221.000824 1.467493,221.000000 
	C1.000000,204.312439 1.000000,187.624878 1.467479,170.468658 
	C7.269732,170.001389 12.604506,170.002762 18.014294,170.467468 
	C18.188004,178.962662 18.286701,186.994507 18.298616,195.485260 
	C18.123302,204.296921 18.034771,212.649704 17.946239,221.002472 
z"/>
<path fill="#555658" opacity="1.000000" stroke="none" 
	d="
M33.533134,1.000000 
	C33.922741,5.688261 33.845486,10.376521 33.776230,15.995451 
	C33.817486,23.281713 33.850746,29.637304 33.832817,36.459808 
	C33.596523,42.952179 33.411419,48.977638 32.823624,55.003849 
	C27.743368,55.008778 23.065805,55.012955 18.290607,54.557564 
	C18.110912,44.399925 18.028851,34.701859 18.011103,24.538387 
	C18.050276,16.381989 18.025137,8.690994 18.000000,1.000000 
	C23.022093,1.000000 28.044184,1.000000 33.533134,1.000000 
z"/>
<path fill="#F0D178" opacity="1.000000" stroke="none" 
	d="
M17.939281,170.004150 
	C12.604506,170.002762 7.269732,170.001389 1.467479,170.000000 
	C1.000000,156.979111 1.000000,143.958206 1.467507,130.468658 
	C7.274357,130.000671 12.613699,130.001343 18.026628,130.465790 
	C18.046572,143.954437 17.992926,156.979294 17.939281,170.004150 
z"/>
<path fill="#F7DB83" opacity="1.000000" stroke="none" 
	d="
M338.000000,232.531342 
	C332.695160,233.000580 327.390289,233.001144 321.557343,232.539429 
	C321.073669,219.053162 321.118103,206.029190 321.619934,193.003418 
	C327.384888,193.001083 332.692444,193.000534 338.000000,193.000000 
	C338.000000,206.020889 338.000000,219.041794 338.000000,232.531342 
z"/>
<path fill="#EBC96F" opacity="1.000000" stroke="none" 
	d="
M17.953041,130.002014 
	C12.613699,130.001343 7.274357,130.000671 1.467507,130.000000 
	C1.000000,117.645775 1.000000,105.291542 1.467487,92.468536 
	C7.271044,92.001328 12.607115,92.002899 18.008762,92.469040 
	C18.179628,102.632790 18.284916,112.331985 18.305346,122.465698 
	C18.131338,125.267494 18.042191,127.634750 17.953041,130.002014 
z"/>
<path fill="#EAC76D" opacity="1.000000" stroke="none" 
	d="
M338.000000,85.000000 
	C338.000000,97.020897 338.000000,109.041786 337.532745,121.531494 
	C331.765320,122.003395 326.465149,122.006485 321.093445,121.544968 
	C320.960175,113.390633 320.898407,105.700928 320.907135,97.551880 
	C321.042023,93.065636 321.106415,89.038727 321.627716,85.007843 
	C327.389740,85.002571 332.694885,85.001289 338.000000,85.000000 
z"/>
<path fill="#E5BF65" opacity="1.000000" stroke="none" 
	d="
M17.943184,92.004478 
	C12.607115,92.002899 7.271044,92.001328 1.467487,91.999878 
	C1.000000,80.312439 1.000000,68.624878 1.467518,56.468605 
	C7.276078,56.000256 12.617119,56.000618 18.021513,56.466167 
	C18.037640,68.622391 17.990412,80.313438 17.943184,92.004478 
z"/>
<path fill="#EFD077" opacity="1.000000" stroke="none" 
	d="
M321.164978,122.009583 
	C326.465149,122.006485 331.765320,122.003395 337.532745,122.000153 
	C338.000000,133.687561 338.000000,145.375122 337.532776,157.531342 
	C331.768524,158.002487 326.471558,158.004974 321.104980,157.542755 
	C321.078613,145.388550 321.121796,133.699066 321.164978,122.009583 
z"/>
<path fill="#F3D67D" opacity="1.000000" stroke="none" 
	d="
M321.174561,158.007477 
	C326.471558,158.004974 331.768524,158.002487 337.532776,158.000000 
	C338.000000,169.354233 338.000000,180.708450 338.000000,192.531342 
	C332.692444,193.000534 327.384888,193.001083 321.547760,192.539291 
	C320.957214,184.721786 320.896271,177.366608 320.908539,169.555054 
	C321.046021,165.401596 321.110291,161.704544 321.174561,158.007477 
z"/>
<path fill="#E4BE64" opacity="1.000000" stroke="none" 
	d="
M338.000000,84.531342 
	C332.694885,85.001289 327.389740,85.002571 321.559753,84.542465 
	C321.077209,73.056793 321.119507,62.032513 321.619263,51.005672 
	C327.384491,51.002075 332.692261,51.001038 338.000000,51.000000 
	C338.000000,62.020893 338.000000,73.041786 338.000000,84.531342 
z"/>
<path fill="#555658" opacity="1.000000" stroke="none" 
	d="
M305.643280,16.010094 
	C305.738617,11.317012 305.833954,6.623930 305.964661,1.465425 
	C310.689240,1.000000 315.378510,1.000000 320.533325,1.468578 
	C321.054077,8.961850 321.109253,15.986543 321.107086,23.474205 
	C320.977905,28.960148 320.906067,33.983124 320.381042,39.004196 
	C315.301117,39.002144 310.674347,39.002003 305.980164,38.629028 
	C305.815857,37.507263 305.719025,36.758335 305.717529,35.550156 
	C305.756378,28.730635 305.699829,22.370363 305.643280,16.010094 
z"/>
<path fill="#F7DB83" opacity="1.000000" stroke="none" 
	d="
M321.165314,416.995178 
	C326.465363,416.996796 331.765442,416.998413 337.532745,417.000000 
	C338.000000,427.687561 338.000000,438.375122 337.532745,449.531342 
	C331.767792,449.997833 326.470062,449.995697 321.105103,449.529541 
	C321.080322,438.375427 321.122803,427.685303 321.165314,416.995178 
z"/>
<path fill="#F7DB83" opacity="1.000000" stroke="none" 
	d="
M1.000000,420.468658 
	C6.337761,419.999664 11.675523,419.999359 17.570349,420.459381 
	C18.062368,431.278656 17.997324,441.637573 17.468918,451.997498 
	C11.670372,451.999023 6.335186,451.999512 1.000000,452.000000 
	C1.000000,441.645782 1.000000,431.291534 1.000000,420.468658 
z"/>
<path fill="#DFB75C" opacity="1.000000" stroke="none" 
	d="
M17.958160,56.000984 
	C12.617119,56.000618 7.276078,56.000256 1.467518,55.999947 
	C1.000000,45.979103 1.000000,35.958210 1.467564,25.468731 
	C7.272349,25.001360 12.609570,25.002577 17.946791,25.003792 
	C18.028851,34.701859 18.110912,44.399925 18.179922,54.802254 
	C18.097300,55.671345 18.027729,55.836166 17.958160,56.000984 
z"/>
<path fill="#DFB75C" opacity="1.000000" stroke="none" 
	d="
M320.834229,39.006100 
	C320.906067,33.983124 320.977905,28.960148 321.561707,23.470612 
	C327.382446,23.002703 332.691223,23.001350 338.000000,23.000000 
	C338.000000,32.020897 338.000000,41.041790 338.000000,50.531342 
	C332.692261,51.001038 327.384491,51.002075 321.552399,50.548477 
	C320.963440,46.397923 320.898834,42.702011 320.834229,39.006100 
z"/>
<path fill="#F3D57B" opacity="1.000000" stroke="none" 
	d="
M321.172363,449.993561 
	C326.470062,449.995697 331.767792,449.997833 337.532745,450.000000 
	C338.000000,459.000000 338.021240,468.000153 337.956879,476.999695 
	C337.952118,477.668701 337.333344,478.333344 336.500000,479.000000 
	C331.115997,476.696533 326.231995,474.393097 321.109253,471.488495 
	C320.971161,463.922729 321.071747,456.958160 321.172363,449.993561 
z"/>
<path fill="#DAB054" opacity="1.000000" stroke="none" 
	d="
M18.011103,24.538387 
	C12.609570,25.002577 7.272349,25.001360 1.467564,25.000072 
	C1.000000,17.087091 1.000000,9.174182 1.000000,1.000000 
	C6.350224,1.000000 11.704659,1.000000 17.529545,1.000000 
	C18.025137,8.690994 18.050276,16.381989 18.011103,24.538387 
z"/>
<path fill="#F3D57B" opacity="1.000000" stroke="none" 
	d="
M1.000000,452.468658 
	C6.335186,451.999512 11.670372,451.999023 17.560688,452.458344 
	C18.193302,458.902527 18.270788,464.886902 18.283131,471.107239 
	C18.217989,471.343170 18.230091,471.832611 18.230093,471.832611 
	C13.270824,474.016083 8.311553,476.199554 3.176141,478.691498 
	C0.612766,479.605255 1.001925,477.919159 1.001426,476.569061 
	C0.998516,468.691803 1.000000,460.814575 1.000000,452.468658 
z"/>
<path fill="#DAB054" opacity="1.000000" stroke="none" 
	d="
M338.000000,22.531216 
	C332.691223,23.001350 327.382446,23.002703 321.619049,23.007645 
	C321.109253,15.986543 321.054077,8.961850 320.999451,1.468578 
	C326.602264,1.000000 332.204529,1.000000 338.000000,1.000000 
	C338.000000,8.019948 338.000000,15.041192 338.000000,22.531216 
z"/>
<path fill="#FAE089" opacity="1.000000" stroke="none" 
	d="
M200.020309,419.854248 
	C191.253555,416.204407 182.380173,412.783783 173.777267,408.781769 
	C170.721832,407.360443 168.367294,407.429169 165.511703,408.741699 
	C161.357651,410.651062 157.069458,412.268616 152.070862,413.856140 
	C149.351410,413.467743 147.399765,413.031921 145.447678,413.029907 
	C108.242401,412.991089 71.037071,413.003357 33.719627,412.546936 
	C33.459549,405.409668 33.311600,398.730530 33.317863,391.602875 
	C33.501846,384.687042 33.591888,378.219269 33.548885,371.752411 
	C33.458534,358.167358 33.298302,344.582764 33.325371,330.558044 
	C33.513775,320.847504 33.608177,311.576538 33.557388,302.306427 
	C33.490341,290.067596 33.309452,277.829376 33.340904,265.182861 
	C33.618080,254.514511 33.731850,244.254181 34.326584,233.995865 
	C125.072433,234.003876 215.337311,234.009888 305.691132,234.464691 
	C305.870941,238.276825 305.961823,241.640137 305.971924,245.466019 
	C305.946564,269.286957 306.001953,292.645355 305.974976,316.466003 
	C305.947906,339.620056 306.003265,362.311890 305.974060,385.465576 
	C305.797302,396.616241 305.705109,407.305023 305.168549,417.994049 
	C271.645416,417.996185 238.566605,417.968689 205.488235,418.079102 
	C203.663635,418.085175 201.842865,419.236176 200.020309,419.854248 
M173.500000,248.151062 
	C209.977371,248.151031 246.454803,248.170441 282.931976,248.083130 
	C284.460480,248.079453 285.986633,247.081268 287.513885,246.546402 
	C285.985077,246.029434 284.457672,245.508224 282.925262,245.002090 
	C282.775085,244.952499 282.594330,244.995453 282.427765,244.995453 
	C207.141113,244.995453 131.854477,244.995316 56.567825,244.996780 
	C55.402229,244.996796 54.199635,244.848694 53.085739,245.094040 
	C52.475468,245.228470 52.014957,246.042862 51.486916,246.550659 
	C52.016357,247.070862 52.482704,247.928207 53.088299,248.041534 
	C54.377728,248.282852 55.739468,248.149292 57.071575,248.149353 
	C95.547714,248.151489 134.023865,248.151154 173.500000,248.151062 
M147.613541,274.870331 
	C139.721527,268.174896 129.436707,269.773804 125.118530,278.978485 
	C120.138969,289.593018 120.181114,300.662506 125.546219,311.148468 
	C130.306152,320.451630 143.090302,320.489990 149.175720,311.991913 
	C154.215408,304.954193 154.894073,281.626465 147.613541,274.870331 
M179.478653,316.296692 
	C181.643860,313.653137 184.678787,311.334686 185.811279,308.305084 
	C189.214523,299.200897 189.197311,289.765717 186.018402,280.533691 
	C184.163574,275.147064 180.542526,271.473877 174.473679,270.986572 
	C167.776016,270.448730 162.770264,273.074829 159.947357,279.219757 
	C155.646805,288.581268 155.650665,298.302277 158.998840,307.810455 
	C162.361404,317.359375 169.215332,320.150330 179.478653,316.296692 
M100.985161,284.734253 
	C100.985161,295.346558 100.985161,305.958893 100.985161,316.695221 
	C103.205009,316.695221 104.921722,316.695221 106.681808,316.695221 
	C106.681808,301.665741 106.681808,286.936829 106.681808,272.232483 
	C97.344566,271.619751 91.158043,276.188416 93.761871,281.624054 
	C96.062660,280.534302 98.361389,279.445526 100.985153,278.202789 
	C100.985153,280.490448 100.985153,282.152771 100.985161,284.734253 
M221.963760,311.139679 
	C223.897385,316.008270 227.280731,318.595886 232.709915,318.004730 
	C238.016907,317.426880 240.553436,313.697632 241.513290,309.176331 
	C242.251862,305.697357 242.291519,301.828613 241.588211,298.345947 
	C240.707214,293.983429 238.230850,290.386902 233.046402,289.991730 
	C227.614624,289.577759 223.582947,291.674408 222.172989,297.254608 
	C221.128311,301.389160 221.837234,305.966827 221.963760,311.139679 
M192.322174,290.622620 
	C194.822800,296.968567 197.722549,299.231140 203.065735,299.005585 
	C207.660538,298.811646 211.436630,295.796570 212.471146,290.316376 
	C213.159790,286.668457 213.131973,282.673706 212.425003,279.028107 
	C211.565033,274.593719 208.975143,271.158722 203.719910,270.979462 
	C198.365341,270.796875 194.675034,272.784637 193.179703,278.065521 
	C192.127289,281.782257 192.415039,285.878418 192.322174,290.622620 
M202.967911,315.530914 
	C202.957291,316.336609 202.946671,317.142273 202.936050,317.947968 
	C204.261078,317.518646 206.098709,317.488678 206.807404,316.579102 
	C208.420654,314.508606 209.475693,312.004089 210.764771,309.679932 
	C217.821259,296.957428 224.879898,284.236145 231.937820,271.514435 
	C231.532425,271.102051 231.127029,270.689697 230.721634,270.277313 
	C229.191864,271.511566 227.125443,272.438965 226.216660,274.028290 
	C218.469559,287.576782 210.932693,301.245483 202.967911,315.530914 
M181.057007,346.996582 
	C181.057007,348.089447 181.057007,349.182312 181.057007,351.676575 
	C178.593018,347.793640 177.054596,344.925049 175.083771,342.393005 
	C173.247528,340.033844 173.185074,335.357086 168.313370,336.305115 
	C168.313370,343.675842 168.313370,350.747375 168.313370,357.818909 
	C172.950287,353.735718 169.522186,348.065826 171.449631,343.398193 
	C176.207504,347.738434 177.009506,355.206024 183.562607,358.685638 
	C183.562607,350.463196 183.562607,343.295654 183.562607,336.128143 
	C182.917389,336.045319 182.272186,335.962494 181.626968,335.879700 
	C181.436996,339.294098 181.247025,342.708496 181.057007,346.996582 
M251.625015,352.837708 
	C253.646317,348.153656 254.126602,343.348053 250.700226,339.279297 
	C246.570175,334.375000 240.828979,336.130432 235.281525,336.238068 
	C235.281525,343.585876 235.281525,350.594025 235.281525,357.960175 
	C241.173157,357.699402 247.242249,359.639008 251.625015,352.837708 
M142.140259,348.456940 
	C144.193726,345.268555 146.970444,341.947723 143.654617,338.244385 
	C140.115570,334.291687 135.495483,336.345398 131.291061,336.146271 
	C130.095871,350.932251 130.684113,356.710205 133.754791,357.959686 
	C133.925247,354.947479 134.088318,352.065704 134.250275,349.203735 
	C138.472534,348.640594 140.422318,350.314087 141.156906,354.127594 
	C141.532288,356.076294 141.736160,359.241821 145.679108,357.371613 
	C144.640396,354.578949 143.613831,351.818939 142.140259,348.456940 
M157.180313,351.030396 
	C158.403961,352.535187 159.592484,354.070435 160.863220,355.534332 
	C161.751862,356.558044 162.752869,357.484192 163.703690,358.453918 
	C164.085419,358.120636 164.467133,357.787354 164.848862,357.454071 
	C162.738419,351.061768 160.698517,344.644318 158.441696,338.304138 
	C158.102341,337.350708 156.720337,336.126617 155.872849,336.165527 
	C154.910660,336.209686 153.499084,337.356384 153.160599,338.329163 
	C150.957840,344.659729 148.993652,351.073303 146.951370,357.459717 
	C147.444763,357.783234 147.938156,358.106720 148.431549,358.430237 
	C149.319244,357.149567 150.603638,355.982849 151.011322,354.564240 
	C151.836655,351.692200 153.405090,350.473724 157.180313,351.030396 
M83.516708,338.818481 
	C84.736382,338.698822 85.956047,338.579163 88.327003,338.346527 
	C82.124565,334.318756 75.238213,336.041901 72.275429,341.232422 
	C69.150902,346.706299 70.925491,354.490051 75.873657,357.014954 
	C83.297562,360.803131 88.172363,357.856903 87.996994,349.671387 
	C87.980064,348.881226 87.808388,348.094330 87.663254,346.948334 
	C85.312592,347.068542 83.230293,347.175049 81.147995,347.281555 
	C85.078140,348.708252 86.220566,351.543091 84.499031,354.233734 
	C83.769150,355.374512 78.768379,355.557159 77.828568,354.421295 
	C75.846664,352.026001 74.221222,348.429535 74.350937,345.407501 
	C74.541435,340.969025 77.860939,338.481689 83.516708,338.818481 
M121.105698,351.031555 
	C122.072685,352.559509 122.923721,354.179993 124.044823,355.584961 
	C124.880753,356.632568 126.065842,357.401581 127.095428,358.294647 
	C127.408676,357.934143 127.721916,357.573639 128.035156,357.213104 
	C126.017456,351.095978 124.086525,344.947601 121.905243,338.889374 
	C121.493217,337.745056 120.120796,336.260437 119.127151,336.210358 
	C118.189262,336.163086 116.652351,337.619202 116.266335,338.724060 
	C114.102379,344.917908 112.207077,351.205597 110.144913,357.697754 
	C115.831017,358.652344 113.462868,352.917847 116.508575,351.014526 
	C117.303566,351.014526 118.782082,351.014526 121.105698,351.031555 
M91.990669,350.006866 
	C92.475166,354.603638 94.221359,357.880707 99.559357,358.057404 
	C103.809547,358.198151 107.196884,356.539886 107.709946,352.434052 
	C108.377541,347.091431 107.873161,341.602417 107.873161,336.176392 
	C107.417770,336.041809 106.962379,335.907196 106.506989,335.772583 
	C105.998947,336.764221 105.110367,337.734283 105.052803,338.751434 
	C104.865143,342.066956 104.892853,345.402618 105.003845,348.725006 
	C105.123100,352.294739 103.954674,355.505127 100.261963,355.706848 
	C96.359024,355.920105 95.286339,352.362305 95.064331,349.083069 
	C94.828941,345.606354 95.121346,342.095123 94.923668,338.613739 
	C94.868767,337.646973 93.892082,336.732544 93.338287,335.794128 
	C92.886520,335.950897 92.434746,336.107666 91.982971,336.264435 
	C91.982971,340.545868 91.982971,344.827301 91.990669,350.006866 
M203.964096,345.525452 
	C203.964096,349.615570 203.964096,353.705658 203.964096,357.428192 
	C208.653244,357.428192 212.584824,357.428192 216.516388,357.428192 
	C216.559998,356.900726 216.603622,356.373291 216.647232,355.845825 
	C213.569382,355.533051 210.491516,355.220245 207.288971,354.894775 
	C207.288971,352.582855 207.288971,350.507324 207.288971,348.200470 
	C210.177277,348.055176 212.817108,347.922363 215.456955,347.789551 
	C215.466248,347.313965 215.475555,346.838379 215.484848,346.362793 
	C212.706055,346.117737 209.927261,345.872681 207.405624,345.650269 
	C207.405624,343.121368 207.405624,341.044952 207.405624,339.556671 
	C210.243347,337.454590 214.044861,340.597809 216.363129,336.321899 
	C211.971573,336.321899 208.137360,336.321899 203.964066,336.321899 
	C203.964066,339.256317 203.964066,341.898041 203.964096,345.525452 
M220.003906,356.223358 
	C223.708542,360.039886 227.866470,357.265503 231.795822,357.814880 
	C231.882339,357.177673 231.968857,356.540466 232.055389,355.903229 
	C229.125732,355.538879 226.196075,355.174500 223.384277,354.824799 
	C223.384277,352.380676 223.384277,350.312683 223.384277,348.294403 
	C226.122330,348.029572 228.508087,347.798798 230.893829,347.568024 
	C230.857483,347.154816 230.821136,346.741608 230.784775,346.328400 
	C228.260803,346.094757 225.736816,345.861145 223.389038,345.643829 
	C223.389038,343.153381 223.389038,341.068909 223.389038,339.369293 
	C226.188202,337.549316 230.010284,340.611725 232.145142,336.392639 
	C227.822601,336.392639 223.984634,336.392639 219.982513,336.392639 
	C219.982513,342.960999 219.982513,349.116547 220.003906,356.223358 
M192.070786,357.039001 
	C195.387222,359.283875 194.990311,356.646210 195.005341,354.750885 
	C195.046951,349.499115 195.019760,344.246826 195.019760,339.356262 
	C197.856430,338.705048 199.926544,338.229828 201.996658,337.754608 
	C201.879333,337.351501 201.761993,336.948395 201.644669,336.545288 
	C196.264969,336.545288 190.885254,336.545288 185.505554,336.545288 
	C185.453583,336.996552 185.401611,337.447815 185.349640,337.899078 
	C187.416931,338.342499 189.484207,338.785889 191.980331,339.321289 
	C191.980331,344.852203 191.980331,350.485168 192.070786,357.039001 
z"/>
<path fill="#F7DB83" opacity="1.000000" stroke="none" 
	d="
M200.338104,420.029144 
	C201.842865,419.236176 203.663635,418.085175 205.488235,418.079102 
	C238.566605,417.968689 271.645416,417.996185 305.265839,418.453979 
	C305.805389,434.286377 305.803253,449.659119 305.801117,465.031830 
	C292.108337,459.325165 278.386536,453.686920 264.729584,447.895782 
	C244.218079,439.198029 223.750595,430.396454 203.271469,421.622498 
	C202.363678,421.233582 201.526154,420.680603 200.338104,420.029144 
z"/>
<path fill="#F8DD84" opacity="1.000000" stroke="none" 
	d="
M33.831757,413.005066 
	C71.037071,413.003357 108.242401,412.991089 145.447678,413.029907 
	C147.399765,413.031921 149.351410,413.467743 151.693878,413.873657 
	C144.187668,417.645813 136.344086,421.368896 128.381195,424.816376 
	C117.230721,429.643890 105.991394,434.266144 94.131073,438.718140 
	C91.840729,438.306732 90.209610,438.022675 88.578026,438.020020 
	C70.333328,437.990417 52.088570,438.004211 33.734055,437.547577 
	C33.693439,429.060913 33.762600,421.032990 33.831757,413.005066 
z"/>
<path fill="#2C292A" opacity="1.000000" stroke="none" 
	d="
M306.053589,465.296326 
	C305.803253,449.659119 305.805389,434.286377 305.710236,418.453735 
	C305.705109,407.305023 305.797302,396.616241 306.435486,385.464539 
	C311.598083,385.004303 316.214752,385.006958 320.831390,385.009583 
	C320.896423,395.362244 320.961487,405.714874 321.095917,416.531342 
	C321.122803,427.685303 321.080322,438.375427 321.105103,449.529541 
	C321.071747,456.958160 320.971161,463.922729 320.753845,471.330322 
	C315.860138,469.702484 311.083099,467.631653 306.053589,465.296326 
z"/>
<path fill="#2C292A" opacity="1.000000" stroke="none" 
	d="
M33.719627,412.546936 
	C33.762600,421.032990 33.693439,429.060913 33.619843,438.004395 
	C33.620090,447.553589 33.624783,456.187225 33.629475,464.820862 
	C29.020872,466.858704 24.412268,468.896545 19.262184,470.880615 
	C18.720707,470.826813 18.348272,470.871277 18.348272,470.871277 
	C18.270788,464.886902 18.193302,458.902527 18.024048,452.457336 
	C17.997324,441.637573 18.062368,431.278656 18.034264,420.458862 
	C18.030293,410.978180 18.119469,401.958435 18.737003,392.475800 
	C23.898123,392.025757 28.530886,392.038574 33.163651,392.051361 
	C33.311600,398.730530 33.459549,405.409668 33.719627,412.546936 
z"/>
<path fill="#F5D87F" opacity="1.000000" stroke="none" 
	d="
M34.019791,464.871704 
	C33.624783,456.187225 33.620090,447.553589 33.729614,438.463135 
	C52.088570,438.004211 70.333328,437.990417 88.578026,438.020020 
	C90.209610,438.022675 91.840729,438.306732 93.761833,438.772369 
	C84.754730,443.192291 75.481949,447.355591 66.154602,451.392761 
	C55.598637,455.961700 44.993736,460.417542 34.019791,464.871704 
z"/>
<path fill="#6C634E" opacity="1.000000" stroke="none" 
	d="
M18.283131,471.107239 
	C18.348272,470.871277 18.720707,470.826813 18.886250,470.915466 
	C19.013626,471.301361 18.875097,471.540405 18.433147,471.776947 
	C18.230091,471.832611 18.217989,471.343170 18.283131,471.107239 
z"/>
<path fill="#DDB358" opacity="1.000000" stroke="none" 
	d="
M305.203308,16.008015 
	C305.699829,22.370363 305.756378,28.730635 305.279663,35.548401 
	C214.458954,36.001564 124.171478,35.997231 33.884007,35.992897 
	C33.850746,29.637304 33.817486,23.281713 33.830093,16.458735 
	C124.171738,15.996210 214.467529,16.001072 305.203308,16.008015 
z"/>
<path fill="#403F41" opacity="1.000000" stroke="none" 
	d="
M33.845623,233.993851 
	C33.731850,244.254181 33.618080,254.514511 33.236931,264.873474 
	C31.718828,264.314850 30.502111,263.183441 29.210890,263.090820 
	C25.619600,262.833221 21.997358,263.007172 18.387341,263.010681 
	C18.293732,249.316452 18.200123,235.622208 18.026379,221.465225 
	C18.034771,212.649704 18.123302,204.296921 18.736797,195.479340 
	C24.002066,195.014465 28.742371,195.014389 33.510880,195.461578 
	C33.635551,198.602539 33.732025,201.296249 33.733475,204.451721 
	C33.707508,214.606964 33.776566,224.300400 33.845623,233.993851 
z"/>
<path fill="#393739" opacity="1.000000" stroke="none" 
	d="
M18.300095,263.471191 
	C21.997358,263.007172 25.619600,262.833221 29.210890,263.090820 
	C30.502111,263.183441 31.718828,264.314850 33.073524,265.281525 
	C33.309452,277.829376 33.490341,290.067596 33.557388,302.306427 
	C33.608177,311.576538 33.513775,320.847504 32.917511,330.560242 
	C27.696745,331.005188 23.042459,331.007965 18.388172,331.010742 
	C18.329731,308.651062 18.271288,286.291382 18.300095,263.471191 
z"/>
<path fill="#322F31" opacity="1.000000" stroke="none" 
	d="
M18.300476,331.471161 
	C23.042459,331.007965 27.696745,331.005188 32.758896,331.000183 
	C33.298302,344.582764 33.458534,358.167358 33.548885,371.752411 
	C33.591888,378.219269 33.501846,384.687042 33.317863,391.602875 
	C28.530886,392.038574 23.898123,392.025757 18.826180,392.016724 
	C18.328926,371.990845 18.270853,351.961212 18.300476,331.471161 
z"/>
<path fill="#424143" opacity="1.000000" stroke="none" 
	d="
M306.052673,245.003464 
	C305.961823,241.640137 305.870941,238.276825 305.786072,234.004089 
	C305.737640,227.366898 305.683167,221.639084 305.725891,215.458755 
	C305.901245,200.005630 305.979431,185.005035 306.519531,170.002991 
	C311.599396,170.004852 316.217346,170.008133 320.835327,170.011429 
	C320.896271,177.366608 320.957214,184.721786 321.090363,192.541077 
	C321.118103,206.029190 321.073669,219.053162 321.100494,232.541473 
	C321.109711,236.702896 321.047668,240.400024 320.455750,244.550171 
	C315.301453,245.003281 310.677063,245.003372 306.052673,245.003464 
z"/>
<path fill="#3B393B" opacity="1.000000" stroke="none" 
	d="
M305.971924,245.466019 
	C310.677063,245.003372 315.301453,245.003281 320.380798,245.005981 
	C320.884857,268.366241 320.933929,291.723663 320.453003,315.542145 
	C315.301117,316.003357 310.679230,316.003540 306.057373,316.003754 
	C306.001953,292.645355 305.946564,269.286957 305.971924,245.466019 
z"/>
<path fill="#333132" opacity="1.000000" stroke="none" 
	d="
M305.974976,316.466003 
	C310.679230,316.003540 315.301117,316.003357 320.377808,316.005981 
	C320.882812,338.699768 320.933014,361.390778 320.907318,384.545685 
	C316.214752,385.006958 311.598083,385.004303 306.520020,385.002686 
	C306.003265,362.311890 305.947906,339.620056 305.974976,316.466003 
z"/>
<path fill="#484749" opacity="1.000000" stroke="none" 
	d="
M33.482677,195.014313 
	C28.742371,195.014389 24.002066,195.014465 18.823578,195.020447 
	C18.286701,186.994507 18.188004,178.962662 18.014294,170.467468 
	C17.992926,156.979294 18.046572,143.954437 18.026630,130.465790 
	C18.042191,127.634750 18.131338,125.267494 18.741613,122.457596 
	C24.002325,122.014091 28.741913,122.013237 33.530865,122.476761 
	C33.666759,129.625473 33.753292,136.309799 33.759697,143.456787 
	C33.735146,149.277725 33.790722,154.636017 33.761436,160.454834 
	C33.736053,165.608322 33.795540,170.301300 33.767956,175.456772 
	C33.614819,182.284286 33.548748,188.649307 33.482677,195.014313 
z"/>
<path fill="#E1B95E" opacity="1.000000" stroke="none" 
	d="
M33.832817,36.459808 
	C124.171478,35.997231 214.458954,36.001564 305.184296,36.007652 
	C305.719025,36.758335 305.815857,37.507263 305.917877,39.094112 
	C305.823090,46.624081 305.723083,53.316132 305.183197,60.006939 
	C214.448151,60.000542 124.153023,59.995384 33.790375,59.573196 
	C33.557343,57.771809 33.391827,56.387451 33.226311,55.003094 
	C33.411419,48.977638 33.596523,42.952179 33.832817,36.459808 
z"/>
<path fill="#4F4F51" opacity="1.000000" stroke="none" 
	d="
M32.823624,55.003849 
	C33.391827,56.387451 33.557343,57.771809 33.731304,60.039711 
	C33.781101,68.279526 33.822453,75.635796 33.799549,83.457932 
	C33.780823,93.279175 33.826347,102.634560 33.802956,112.442047 
	C33.649857,115.933556 33.565678,118.972969 33.481499,122.012375 
	C28.741913,122.013237 24.002325,122.014091 18.826471,122.023064 
	C18.284916,112.331985 18.179628,102.632790 18.008762,92.469040 
	C17.990412,80.313438 18.037640,68.622391 18.021513,56.466167 
	C18.027729,55.836166 18.097300,55.671345 18.277557,55.261826 
	C23.065805,55.012955 27.743368,55.008778 32.823624,55.003849 
z"/>
<path fill="#4A4A4C" opacity="1.000000" stroke="none" 
	d="
M320.908539,169.555054 
	C316.217346,170.008133 311.599396,170.004852 306.433350,169.542191 
	C305.791748,164.061035 305.698242,159.039230 305.700195,153.556244 
	C305.734528,146.398132 305.673309,139.701218 305.708618,132.545258 
	C305.744446,124.059616 305.683746,116.033012 305.720459,107.562073 
	C305.897064,104.079926 305.976196,101.042107 306.517456,98.002930 
	C311.598633,98.004784 316.217621,98.007996 320.836639,98.011215 
	C320.898407,105.700928 320.960175,113.390633 321.093475,121.544968 
	C321.121796,133.699066 321.078613,145.388550 321.104980,157.542755 
	C321.110291,161.704544 321.046021,165.401596 320.908539,169.555054 
z"/>
<path fill="#515254" opacity="1.000000" stroke="none" 
	d="
M320.907135,97.551880 
	C316.217621,98.007996 311.598633,98.004784 306.439880,97.541702 
	C305.802765,92.390465 305.705383,87.699097 305.704590,82.548622 
	C305.741791,74.729065 305.682465,67.368622 305.623108,60.008179 
	C305.723083,53.316132 305.823090,46.624081 305.985352,39.466949 
	C310.674347,39.002003 315.301117,39.002144 320.381042,39.004196 
	C320.898834,42.702011 320.963440,46.397923 321.094910,50.551033 
	C321.119507,62.032513 321.077209,73.056793 321.102844,84.546448 
	C321.106415,89.038727 321.042023,93.065636 320.907135,97.551880 
z"/>
<path fill="#F8DC85" opacity="1.000000" stroke="none" 
	d="
M305.628662,215.911285 
	C305.683167,221.639084 305.737640,227.366898 305.697144,233.555298 
	C215.337311,234.009888 125.072433,234.003876 34.326584,233.995865 
	C33.776566,224.300400 33.707508,214.606964 34.216042,204.454956 
	C42.133068,204.000031 49.472500,204.003662 56.882912,204.398956 
	C58.166420,212.143005 61.630890,217.583252 69.315483,219.534637 
	C75.505936,221.106628 81.703880,222.660934 87.845718,224.408569 
	C92.183922,225.642975 92.042015,223.388382 91.779762,220.571213 
	C88.521973,219.814774 85.765221,219.174683 84.287125,218.831482 
	C86.987045,213.758408 89.581795,208.882935 92.580322,204.005005 
	C94.599968,204.003510 96.215843,204.004471 97.894791,204.434204 
	C97.958069,210.056152 98.341171,215.279953 103.568283,218.033463 
	C114.255325,223.663147 126.457970,218.315872 126.601974,204.003601 
	C129.639359,204.002579 132.243042,204.003418 134.787033,204.367432 
	C133.087250,209.626083 131.447144,214.521576 129.718079,219.682617 
	C132.130569,219.682617 133.868698,219.682617 135.485855,219.682617 
	C136.861984,215.651932 138.127960,211.943909 139.364243,208.322845 
	C151.897049,207.235046 151.893723,207.236252 155.944839,218.350067 
	C156.152573,218.919983 156.499207,219.439270 156.819916,220.056747 
	C158.607941,219.951904 160.190186,219.859131 161.871490,219.760544 
	C160.228119,214.272415 158.690735,209.138245 157.598099,204.002686 
	C161.303436,204.002655 164.564041,204.004028 167.887527,204.468933 
	C167.950424,209.849503 167.950424,214.766556 167.950424,219.717163 
	C175.541275,219.717163 182.439056,219.717163 189.286133,219.717163 
	C190.327438,216.289764 188.971786,215.184860 185.927094,215.253098 
	C181.814789,215.345276 177.698853,215.276016 173.175369,215.276016 
	C173.175369,211.211105 173.175369,207.608261 173.632935,204.003540 
	C181.004822,204.002945 187.919174,204.004227 194.898132,204.468750 
	C194.962753,209.845642 194.962753,214.759293 194.962753,220.013290 
	C196.971634,219.880188 198.347717,219.789017 200.166489,219.668503 
	C200.166489,214.213882 200.166489,209.109711 200.622284,204.003632 
	C205.993591,204.002945 210.909103,204.004150 215.887543,204.468872 
	C215.950455,209.845947 215.950455,214.759537 215.950455,220.008987 
	C217.955215,219.889603 219.338562,219.807236 221.179001,219.697632 
	C221.179001,216.572235 221.179001,213.786728 221.636429,211.000824 
	C230.337173,211.000687 238.580490,211.000946 246.889648,211.452362 
	C246.955475,214.485626 246.955475,217.067719 246.955475,219.972839 
	C248.947464,219.877533 250.318588,219.811935 251.561386,219.752472 
	C251.998642,213.887161 252.406601,208.414719 253.213135,203.104248 
	C255.567123,203.510803 257.521667,203.959045 259.478119,203.967667 
	C274.629211,204.034393 289.780731,204.016174 304.950806,204.476364 
	C305.189209,208.589401 305.408936,212.250336 305.628662,215.911285 
z"/>
<path fill="#4E4E4D" opacity="1.000000" stroke="none" 
	d="
M173.000000,248.151123 
	C134.023865,248.151154 95.547714,248.151489 57.071575,248.149353 
	C55.739468,248.149292 54.377728,248.282852 53.088299,248.041534 
	C52.482704,247.928207 52.016357,247.070862 51.486916,246.550659 
	C52.014957,246.042862 52.475468,245.228470 53.085739,245.094040 
	C54.199635,244.848694 55.402229,244.996796 56.567825,244.996780 
	C131.854477,244.995316 207.141113,244.995453 282.427765,244.995453 
	C282.594330,244.995453 282.775085,244.952499 282.925262,245.002090 
	C284.457672,245.508224 285.985077,246.029434 287.513885,246.546402 
	C285.986633,247.081268 284.460480,248.079453 282.931976,248.083130 
	C246.454803,248.170441 209.977371,248.151031 173.000000,248.151123 
z"/>
<path fill="#51504C" opacity="1.000000" stroke="none" 
	d="
M147.853638,275.153259 
	C154.894073,281.626465 154.215408,304.954193 149.175720,311.991913 
	C143.090302,320.489990 130.306152,320.451630 125.546219,311.148468 
	C120.181114,300.662506 120.138969,289.593018 125.118530,278.978485 
	C129.436707,269.773804 139.721527,268.174896 147.853638,275.153259 
M146.474808,298.842590 
	C145.803833,292.839600 145.606155,286.722595 144.202942,280.895935 
	C143.717422,278.879944 140.236664,276.301880 138.124695,276.302490 
	C135.759552,276.303192 132.253494,278.388123 131.227982,280.520355 
	C126.775139,289.778687 126.760674,299.500702 131.219818,308.773651 
	C132.189896,310.790985 135.537308,312.683197 137.835846,312.739105 
	C139.874527,312.788757 142.727692,310.642609 143.866180,308.679779 
	C145.369385,306.088074 145.550339,302.729523 146.474808,298.842590 
z"/>
<path fill="#51504C" opacity="1.000000" stroke="none" 
	d="
M179.160095,316.521790 
	C169.215332,320.150330 162.361404,317.359375 158.998840,307.810455 
	C155.650665,298.302277 155.646805,288.581268 159.947357,279.219757 
	C162.770264,273.074829 167.776016,270.448730 174.473679,270.986572 
	C180.542526,271.473877 184.163574,275.147064 186.018402,280.533691 
	C189.197311,289.765717 189.214523,299.200897 185.811279,308.305084 
	C184.678787,311.334686 181.643860,313.653137 179.160095,316.521790 
M178.502014,279.126587 
	C173.317871,273.981262 167.659119,275.073700 165.210388,282.106995 
	C162.374680,290.251648 162.213913,298.609375 165.128677,306.844788 
	C166.354309,310.307770 168.376923,313.043060 172.559372,313.052124 
	C176.768784,313.061218 178.854248,310.300262 179.908844,306.807037 
	C182.650024,297.727142 182.961853,288.660370 178.502014,279.126587 
z"/>
<path fill="#4E4E4D" opacity="1.000000" stroke="none" 
	d="
M100.985153,284.274658 
	C100.985153,282.152771 100.985153,280.490448 100.985153,278.202789 
	C98.361389,279.445526 96.062660,280.534302 93.761871,281.624054 
	C91.158043,276.188416 97.344566,271.619751 106.681808,272.232483 
	C106.681808,286.936829 106.681808,301.665741 106.681808,316.695221 
	C104.921722,316.695221 103.205009,316.695221 100.985161,316.695221 
	C100.985161,305.958893 100.985161,295.346558 100.985153,284.274658 
z"/>
<path fill="#504F4C" opacity="1.000000" stroke="none" 
	d="
M221.864365,310.743378 
	C221.837234,305.966827 221.128311,301.389160 222.172989,297.254608 
	C223.582947,291.674408 227.614624,289.577759 233.046402,289.991730 
	C238.230850,290.386902 240.707214,293.983429 241.588211,298.345947 
	C242.291519,301.828613 242.251862,305.697357 241.513290,309.176331 
	C240.553436,313.697632 238.016907,317.426880 232.709915,318.004730 
	C227.280731,318.595886 223.897385,316.008270 221.864365,310.743378 
M236.986664,303.557556 
	C236.786102,297.229919 234.842163,293.882172 231.455902,294.032928 
	C228.152649,294.179962 226.055298,297.938446 226.013474,303.786316 
	C226.012283,303.951385 226.012878,304.116486 226.013382,304.281555 
	C226.032074,310.296722 228.101395,314.288361 231.448624,313.887909 
	C237.103516,313.211487 236.584091,308.446411 236.986664,303.557556 
z"/>
<path fill="#504F4C" opacity="1.000000" stroke="none" 
	d="
M192.213287,290.213898 
	C192.415039,285.878418 192.127289,281.782257 193.179703,278.065521 
	C194.675034,272.784637 198.365341,270.796875 203.719910,270.979462 
	C208.975143,271.158722 211.565033,274.593719 212.425003,279.028107 
	C213.131973,282.673706 213.159790,286.668457 212.471146,290.316376 
	C211.436630,295.796570 207.660538,298.811646 203.065735,299.005585 
	C197.722549,299.231140 194.822800,296.968567 192.213287,290.213898 
M204.775833,275.548218 
	C202.060074,274.390167 199.252487,274.850067 198.764923,277.738129 
	C198.000626,282.265503 197.977600,286.995850 198.342377,291.584412 
	C198.440491,292.818359 201.206284,294.879852 202.514694,294.714905 
	C204.153458,294.508301 206.308289,292.679932 206.914413,291.056488 
	C208.823669,285.942719 208.833633,280.736115 204.775833,275.548218 
z"/>
<path fill="#57554D" opacity="1.000000" stroke="none" 
	d="
M203.150391,315.204529 
	C210.932693,301.245483 218.469559,287.576782 226.216660,274.028290 
	C227.125443,272.438965 229.191864,271.511566 230.721634,270.277313 
	C231.127029,270.689697 231.532425,271.102051 231.937820,271.514435 
	C224.879898,284.236145 217.821259,296.957428 210.764771,309.679932 
	C209.475693,312.004089 208.420654,314.508606 206.807404,316.579102 
	C206.098709,317.488678 204.261078,317.518646 202.936050,317.947968 
	C202.946671,317.142273 202.957291,316.336609 203.150391,315.204529 
z"/>
<path fill="#57554D" opacity="1.000000" stroke="none" 
	d="
M181.057022,346.559753 
	C181.247025,342.708496 181.436996,339.294098 181.626968,335.879700 
	C182.272186,335.962494 182.917389,336.045319 183.562607,336.128143 
	C183.562607,343.295654 183.562607,350.463196 183.562607,358.685638 
	C177.009506,355.206024 176.207504,347.738434 171.449631,343.398193 
	C169.522186,348.065826 172.950287,353.735718 168.313370,357.818909 
	C168.313370,350.747375 168.313370,343.675842 168.313370,336.305115 
	C173.185074,335.357086 173.247528,340.033844 175.083771,342.393005 
	C177.054596,344.925049 178.593018,347.793640 181.057007,351.676575 
	C181.057007,349.182312 181.057007,348.089447 181.057022,346.559753 
z"/>
<path fill="#53514C" opacity="1.000000" stroke="none" 
	d="
M251.400726,353.162598 
	C247.242249,359.639008 241.173157,357.699402 235.281525,357.960175 
	C235.281525,350.594025 235.281525,343.585876 235.281525,336.238068 
	C240.828979,336.130432 246.570175,334.375000 250.700226,339.279297 
	C254.126602,343.348053 253.646317,348.153656 251.400726,353.162598 
M249.441360,344.306091 
	C248.602737,339.953369 245.258530,338.569275 241.525803,338.196136 
	C240.448975,338.088470 238.247314,339.631226 238.189346,340.523132 
	C237.862396,345.554047 238.031464,350.617218 238.031464,355.571533 
	C247.015900,356.466034 250.428619,351.386047 249.441360,344.306091 
z"/>
<path fill="#51504C" opacity="1.000000" stroke="none" 
	d="
M142.363770,348.757935 
	C143.613831,351.818939 144.640396,354.578949 145.679108,357.371613 
	C141.736160,359.241821 141.532288,356.076294 141.156906,354.127594 
	C140.422318,350.314087 138.472534,348.640594 134.250275,349.203735 
	C134.088318,352.065704 133.925247,354.947479 133.754791,357.959686 
	C130.684113,356.710205 130.095871,350.932251 131.291061,336.146271 
	C135.495483,336.345398 140.115570,334.291687 143.654617,338.244385 
	C146.970444,341.947723 144.193726,345.268555 142.363770,348.757935 
M140.691086,339.742523 
	C138.712830,339.371948 136.734558,339.001373 134.756302,338.630829 
	C134.441772,341.320648 134.127243,344.010437 133.806824,346.750732 
	C140.530182,346.888336 142.272217,345.190338 140.691086,339.742523 
z"/>
<path fill="#57554D" opacity="1.000000" stroke="none" 
	d="
M156.757111,351.026428 
	C153.405090,350.473724 151.836655,351.692200 151.011322,354.564240 
	C150.603638,355.982849 149.319244,357.149567 148.431549,358.430237 
	C147.938156,358.106720 147.444763,357.783234 146.951370,357.459717 
	C148.993652,351.073303 150.957840,344.659729 153.160599,338.329163 
	C153.499084,337.356384 154.910660,336.209686 155.872849,336.165527 
	C156.720337,336.126617 158.102341,337.350708 158.441696,338.304138 
	C160.698517,344.644318 162.738419,351.061768 164.848862,357.454071 
	C164.467133,357.787354 164.085419,358.120636 163.703690,358.453918 
	C162.752869,357.484192 161.751862,356.558044 160.863220,355.534332 
	C159.592484,354.070435 158.403961,352.535187 156.757111,351.026428 
M155.414795,348.996063 
	C156.366241,348.907898 157.317688,348.819763 158.602509,348.700714 
	C157.703690,346.008179 156.899780,343.600006 156.095856,341.191803 
	C155.616959,341.238037 155.138062,341.284302 154.659164,341.330536 
	C154.659164,343.880646 154.659164,346.430756 155.414795,348.996063 
z"/>
<path fill="#53514C" opacity="1.000000" stroke="none" 
	d="
M83.078026,338.781982 
	C77.860939,338.481689 74.541435,340.969025 74.350937,345.407501 
	C74.221222,348.429535 75.846664,352.026001 77.828568,354.421295 
	C78.768379,355.557159 83.769150,355.374512 84.499031,354.233734 
	C86.220566,351.543091 85.078140,348.708252 81.147995,347.281555 
	C83.230293,347.175049 85.312592,347.068542 87.663254,346.948334 
	C87.808388,348.094330 87.980064,348.881226 87.996994,349.671387 
	C88.172363,357.856903 83.297562,360.803131 75.873657,357.014954 
	C70.925491,354.490051 69.150902,346.706299 72.275429,341.232422 
	C75.238213,336.041901 82.124565,334.318756 88.327003,338.346527 
	C85.956047,338.579163 84.736382,338.698822 83.078026,338.781982 
z"/>
<path fill="#53514C" opacity="1.000000" stroke="none" 
	d="
M120.683151,351.023041 
	C118.782082,351.014526 117.303566,351.014526 116.508575,351.014526 
	C113.462868,352.917847 115.831017,358.652344 110.144913,357.697754 
	C112.207077,351.205597 114.102379,344.917908 116.266335,338.724060 
	C116.652351,337.619202 118.189262,336.163086 119.127151,336.210358 
	C120.120796,336.260437 121.493217,337.745056 121.905243,338.889374 
	C124.086525,344.947601 126.017456,351.095978 128.035156,357.213104 
	C127.721916,357.573639 127.408676,357.934143 127.095428,358.294647 
	C126.065842,357.401581 124.880753,356.632568 124.044823,355.584961 
	C122.923721,354.179993 122.072685,352.559509 120.683151,351.023041 
M121.703766,348.558167 
	C120.964394,346.149475 120.225014,343.740814 119.040108,339.880707 
	C117.848183,343.774414 117.112846,346.176544 116.272438,348.921906 
	C118.079918,348.921906 119.552200,348.921906 121.703766,348.558167 
z"/>
<path fill="#504F4C" opacity="1.000000" stroke="none" 
	d="
M91.986816,349.557800 
	C91.982971,344.827301 91.982971,340.545868 91.982971,336.264435 
	C92.434746,336.107666 92.886520,335.950897 93.338287,335.794128 
	C93.892082,336.732544 94.868767,337.646973 94.923668,338.613739 
	C95.121346,342.095123 94.828941,345.606354 95.064331,349.083069 
	C95.286339,352.362305 96.359024,355.920105 100.261963,355.706848 
	C103.954674,355.505127 105.123100,352.294739 105.003845,348.725006 
	C104.892853,345.402618 104.865143,342.066956 105.052803,338.751434 
	C105.110367,337.734283 105.998947,336.764221 106.506989,335.772583 
	C106.962379,335.907196 107.417770,336.041809 107.873161,336.176392 
	C107.873161,341.602417 108.377541,347.091431 107.709946,352.434052 
	C107.196884,356.539886 103.809547,358.198151 99.559357,358.057404 
	C94.221359,357.880707 92.475166,354.603638 91.986816,349.557800 
z"/>
<path fill="#57554D" opacity="1.000000" stroke="none" 
	d="
M203.964081,345.032593 
	C203.964066,341.898041 203.964066,339.256317 203.964066,336.321899 
	C208.137360,336.321899 211.971573,336.321899 216.363129,336.321899 
	C214.044861,340.597809 210.243347,337.454590 207.405624,339.556671 
	C207.405624,341.044952 207.405624,343.121368 207.405624,345.650269 
	C209.927261,345.872681 212.706055,346.117737 215.484848,346.362793 
	C215.475555,346.838379 215.466248,347.313965 215.456955,347.789551 
	C212.817108,347.922363 210.177277,348.055176 207.288971,348.200470 
	C207.288971,350.507324 207.288971,352.582855 207.288971,354.894775 
	C210.491516,355.220245 213.569382,355.533051 216.647232,355.845825 
	C216.603622,356.373291 216.559998,356.900726 216.516388,357.428192 
	C212.584824,357.428192 208.653244,357.428192 203.964096,357.428192 
	C203.964096,353.705658 203.964096,349.615570 203.964081,345.032593 
z"/>
<path fill="#57554D" opacity="1.000000" stroke="none" 
	d="
M219.993210,355.747742 
	C219.982513,349.116547 219.982513,342.960999 219.982513,336.392639 
	C223.984634,336.392639 227.822601,336.392639 232.145142,336.392639 
	C230.010284,340.611725 226.188202,337.549316 223.389038,339.369293 
	C223.389038,341.068909 223.389038,343.153381 223.389038,345.643829 
	C225.736816,345.861145 228.260803,346.094757 230.784775,346.328400 
	C230.821136,346.741608 230.857483,347.154816 230.893829,347.568024 
	C228.508087,347.798798 226.122330,348.029572 223.384277,348.294403 
	C223.384277,350.312683 223.384277,352.380676 223.384277,354.824799 
	C226.196075,355.174500 229.125732,355.538879 232.055389,355.903229 
	C231.968857,356.540466 231.882339,357.177673 231.795822,357.814880 
	C227.866470,357.265503 223.708542,360.039886 219.993210,355.747742 
z"/>
<path fill="#57554D" opacity="1.000000" stroke="none" 
	d="
M192.025558,356.578552 
	C191.980331,350.485168 191.980331,344.852203 191.980331,339.321289 
	C189.484207,338.785889 187.416931,338.342499 185.349640,337.899078 
	C185.401611,337.447815 185.453583,336.996552 185.505554,336.545288 
	C190.885254,336.545288 196.264969,336.545288 201.644669,336.545288 
	C201.761993,336.948395 201.879333,337.351501 201.996658,337.754608 
	C199.926544,338.229828 197.856430,338.705048 195.019760,339.356262 
	C195.019760,344.246826 195.046951,349.499115 195.005341,354.750885 
	C194.990311,356.646210 195.387222,359.283875 192.025558,356.578552 
z"/>
<path fill="#F4D780" opacity="1.000000" stroke="none" 
	d="
M215.824631,204.005371 
	C210.909103,204.004150 205.993591,204.002945 200.552551,203.539093 
	C200.027054,195.829269 200.027054,188.582062 200.027054,180.985489 
	C198.029434,181.120911 196.652069,181.214264 194.833511,181.337540 
	C194.833511,189.131042 194.833511,196.568283 194.833511,204.005508 
	C187.919174,204.004227 181.004822,204.002945 173.564972,203.538818 
	C173.039444,195.824997 173.039444,188.573975 173.039444,180.972961 
	C171.030182,181.108856 169.650391,181.202164 167.824631,181.325638 
	C167.824631,189.121262 167.824631,196.563324 167.824631,204.005402 
	C164.564041,204.004028 161.303436,204.002655 157.428406,203.670013 
	C154.887299,197.715591 153.033691,192.065857 150.999802,186.481781 
	C150.125565,184.081604 150.457108,180.912766 146.127335,180.850281 
	C141.527985,180.783905 141.866165,184.153458 140.930298,186.718872 
	C138.837067,192.456818 136.866974,198.239700 134.846725,204.004272 
	C132.243042,204.003418 129.639359,204.002579 126.532623,203.539032 
	C126.029564,195.804901 126.029564,188.533463 126.029564,180.899979 
	C123.964691,181.098450 122.581688,181.231384 120.997421,181.383667 
	C120.997421,184.589172 121.086861,187.408127 120.979057,190.219513 
	C120.744308,196.341415 120.558418,202.471497 120.066978,208.575241 
	C119.682976,213.344711 116.304443,215.763382 111.996735,215.837891 
	C107.597084,215.914001 104.267815,213.323135 103.963409,208.633484 
	C103.415947,200.199448 103.298561,191.737656 102.983421,183.288132 
	C102.959770,182.654144 102.792030,182.025528 102.678833,181.316528 
	C101.109566,181.316528 99.729538,181.316528 97.831718,181.316528 
	C97.831718,189.081726 97.831718,196.543579 97.831718,204.005432 
	C96.215843,204.004471 94.599968,204.003510 92.518089,203.554840 
	C92.041100,201.110352 92.107857,199.109589 92.005371,197.117508 
	C91.609428,189.420868 85.733566,182.375626 78.677849,181.063065 
	C69.902229,179.430588 61.669205,183.413239 58.849358,191.413574 
	C57.458183,195.360504 57.447353,199.793961 56.811935,204.007278 
	C49.472500,204.003662 42.133068,204.000031 34.311066,203.993179 
	C33.732025,201.296249 33.635551,198.602539 33.510880,195.461578 
	C33.548748,188.649307 33.614819,182.284286 34.248741,175.458694 
	C122.239998,174.998749 209.663391,174.999359 297.086792,175.000046 
	C298.418945,175.000061 299.763947,175.119919 301.080719,174.977905 
	C304.213470,174.640015 305.096252,176.088882 305.039886,179.048248 
	C304.881378,187.371246 304.951904,195.698624 304.932098,204.024261 
	C289.780731,204.016174 274.629211,204.034393 259.478119,203.967667 
	C257.521667,203.959045 255.567123,203.510803 253.307983,202.761993 
	C256.913147,195.357620 260.822052,188.457489 264.779449,181.471756 
	C260.585846,180.151108 258.297394,181.339096 256.715912,185.169647 
	C254.813202,189.778137 252.225967,194.104004 249.742416,198.926361 
	C247.194504,193.763596 244.800003,189.385117 242.851715,184.816376 
	C241.251694,181.064331 238.910583,180.133987 235.094452,181.553268 
	C237.443161,186.190628 239.675537,190.598282 241.445206,195.004013 
	C234.381042,195.002884 227.779572,195.003662 221.110794,194.549133 
	C221.043472,191.476654 221.043472,188.859451 221.043472,185.731033 
	C223.994171,185.731033 226.450790,185.769531 228.905777,185.722458 
	C233.112640,185.641815 233.112213,185.619354 232.334381,181.222046 
	C223.078796,181.222046 213.813324,181.222046 204.364868,181.222046 
	C204.364868,182.558640 204.190125,184.580902 204.390793,184.618866 
	C208.029861,185.307312 211.714096,185.756851 215.824631,186.316681 
	C215.824631,192.120255 215.824631,198.062805 215.824631,204.005371 
z"/>
<path fill="#F2D47B" opacity="1.000000" stroke="none" 
	d="
M304.950806,204.476349 
	C304.951904,195.698624 304.881378,187.371246 305.039886,179.048248 
	C305.096252,176.088882 304.213470,174.640015 301.080719,174.977905 
	C299.763947,175.119919 298.418945,175.000061 297.086792,175.000046 
	C209.663391,174.999359 122.239998,174.998749 34.335808,174.996185 
	C33.795540,170.301300 33.736053,165.608322 34.243126,160.456680 
	C44.482445,159.999741 54.155212,160.001465 63.891579,160.459991 
	C63.955177,164.036392 63.955177,167.156021 63.955177,171.009140 
	C69.792999,171.009140 75.064148,170.972641 80.334625,171.016663 
	C91.672165,171.111343 100.873634,167.737427 105.453598,156.001511 
	C109.215691,156.002243 112.522392,156.003922 115.892441,156.467468 
	C115.955772,161.190430 115.955772,165.451523 115.955772,169.763580 
	C128.299210,169.763580 139.898773,169.763580 151.700943,169.763580 
	C151.700943,167.473938 151.700943,165.428299 151.700943,162.895508 
	C142.648071,162.895508 133.886078,162.895508 124.933693,162.895508 
	C124.933693,159.937668 124.933693,157.469040 125.407631,155.000168 
	C146.871460,155.001892 167.861359,155.003860 188.894623,155.365936 
	C186.132141,162.309647 179.800354,165.460342 172.277756,163.719849 
	C168.522766,162.851059 164.879684,161.498505 160.726288,160.223663 
	C160.067429,162.648666 159.442337,164.949417 158.421951,168.705093 
	C165.884460,169.520721 172.684357,170.971710 179.457214,170.855011 
	C193.042877,170.620941 200.852768,159.233658 197.578613,145.993591 
	C205.623352,145.656555 213.255417,145.334702 220.954041,145.476410 
	C221.020584,153.813126 221.020584,161.686279 221.020584,169.643402 
	C224.342911,169.643402 227.028549,169.643402 230.169937,169.643402 
	C230.169937,164.194382 230.169937,159.099442 230.627930,154.003021 
	C255.925522,154.006851 280.765106,154.012146 305.604706,154.017441 
	C305.698242,159.039230 305.791748,164.061035 305.971436,169.543640 
	C305.979431,185.005035 305.901245,200.005630 305.725861,215.458755 
	C305.408936,212.250336 305.189209,208.589401 304.950806,204.476349 
z"/>
<path fill="#EECD74" opacity="1.000000" stroke="none" 
	d="
M33.530865,122.476761 
	C33.565678,118.972969 33.649857,115.933556 34.282974,112.445419 
	C44.496471,112.000763 54.161026,112.004837 63.885822,112.473602 
	C63.906761,122.960266 63.867462,132.982239 63.370285,143.002686 
	C53.221542,142.998810 43.530682,142.996475 33.839821,142.994125 
	C33.753292,136.309799 33.666759,129.625473 33.530865,122.476761 
z"/>
<path fill="#F0D178" opacity="1.000000" stroke="none" 
	d="
M33.759697,143.456787 
	C43.530682,142.996475 53.221542,142.998810 63.433105,143.466400 
	C63.911861,149.288834 63.869919,154.646011 63.827980,160.003204 
	C54.155212,160.001465 44.482445,159.999741 34.327988,159.996155 
	C33.790722,154.636017 33.735146,149.277725 33.759697,143.456787 
z"/>
<path fill="#E5BF65" opacity="1.000000" stroke="none" 
	d="
M305.183228,60.006939 
	C305.682465,67.368622 305.741791,74.729065 305.265961,82.547592 
	C214.441788,83.001137 124.152794,82.996605 33.863800,82.992065 
	C33.822453,75.635796 33.781101,68.279526 33.798820,60.456741 
	C124.153023,59.995384 214.448151,60.000542 305.183228,60.006939 
z"/>
<path fill="#E8C56B" opacity="1.000000" stroke="none" 
	d="
M33.799549,83.457932 
	C124.152794,82.996605 214.441788,83.001137 305.169373,83.006706 
	C305.705383,87.699097 305.802765,92.390465 305.977753,97.543060 
	C305.976196,101.042107 305.897064,104.079926 305.279755,107.561722 
	C286.533234,108.006996 268.324890,108.008293 250.002045,107.600197 
	C249.084473,106.796761 248.283142,106.063225 247.478088,106.059128 
	C233.345901,105.987083 219.212875,105.960098 205.081528,106.088547 
	C203.991974,106.098450 202.913620,107.338348 201.386322,108.004456 
	C199.162735,108.039101 197.382904,108.075836 195.315613,107.915665 
	C185.222748,103.403038 175.650757,103.750984 165.923431,108.979874 
	C160.738831,108.539932 155.962601,108.275063 151.082993,107.589600 
	C149.858170,106.778801 148.739914,106.060860 147.614807,106.049980 
	C138.212326,105.959091 128.808273,105.962448 119.405602,106.042793 
	C118.209869,106.053001 117.019333,106.670784 115.370331,107.004906 
	C107.920670,107.347748 100.927048,107.692764 93.545425,107.993401 
	C83.563835,104.697021 73.924576,105.698936 64.224045,107.004906 
	C64.058022,109.089890 63.941803,110.549400 63.825584,112.008911 
	C54.161026,112.004837 44.496471,112.000763 34.351891,111.993317 
	C33.826347,102.634560 33.780823,93.279175 33.799549,83.457932 
z"/>
<path fill="#ECCB72" opacity="1.000000" stroke="none" 
	d="
M250.116577,108.009583 
	C268.324890,108.008293 286.533234,108.006996 305.182312,108.006058 
	C305.683746,116.033012 305.744446,124.059616 305.268127,132.545349 
	C279.877228,133.004791 255.023361,133.005096 230.101517,132.540787 
	C230.033524,125.864449 230.033524,119.652740 230.033524,112.924301 
	C236.935089,112.924301 243.290527,112.924301 249.695679,112.924301 
	C249.865463,110.941719 249.991028,109.475655 250.116577,108.009583 
z"/>
<path fill="#EFD077" opacity="1.000000" stroke="none" 
	d="
M230.169525,133.005417 
	C255.023361,133.005096 279.877228,133.004791 305.171570,133.004395 
	C305.673309,139.701218 305.734528,146.398132 305.700195,153.556244 
	C280.765106,154.012146 255.925522,154.006851 230.559937,153.538452 
	C230.079117,146.385361 230.124313,139.695389 230.169525,133.005417 
z"/>
<path fill="#53514C" opacity="1.000000" stroke="none" 
	d="
M56.882908,204.398956 
	C57.447353,199.793961 57.458183,195.360504 58.849358,191.413574 
	C61.669205,183.413239 69.902229,179.430588 78.677849,181.063065 
	C85.733566,182.375626 91.609428,189.420868 92.005371,197.117508 
	C92.107857,199.109589 92.041100,201.110352 92.114319,203.557297 
	C89.581795,208.882935 86.987045,213.758408 84.287125,218.831482 
	C85.765221,219.174683 88.521973,219.814774 91.779762,220.571213 
	C92.042015,223.388382 92.183922,225.642975 87.845718,224.408569 
	C81.703880,222.660934 75.505936,221.106628 69.315483,219.534637 
	C61.630890,217.583252 58.166420,212.143005 56.882908,204.398956 
M71.519852,185.870712 
	C62.131462,189.409454 59.110523,204.848221 66.745064,212.131943 
	C68.892448,214.180664 72.557106,215.702515 75.487022,215.640244 
	C81.126846,215.520386 85.341736,210.337311 86.021072,204.296188 
	C87.042953,195.208969 84.480164,188.290833 78.919670,186.251343 
	C76.905220,185.512482 74.501068,185.836105 71.519852,185.870712 
z"/>
<path fill="#504F4C" opacity="1.000000" stroke="none" 
	d="
M134.787033,204.367432 
	C136.866974,198.239700 138.837067,192.456818 140.930298,186.718872 
	C141.866165,184.153458 141.527985,180.783905 146.127335,180.850281 
	C150.457108,180.912766 150.125565,184.081604 150.999802,186.481781 
	C153.033691,192.065857 154.887299,197.715591 156.983643,203.671402 
	C158.690735,209.138245 160.228119,214.272415 161.871490,219.760544 
	C160.190186,219.859131 158.607941,219.951904 156.819916,220.056747 
	C156.499207,219.439270 156.152573,218.919983 155.944839,218.350067 
	C151.893723,207.236252 151.897049,207.235046 139.364243,208.322845 
	C138.127960,211.943909 136.861984,215.651932 135.485855,219.682617 
	C133.868698,219.682617 132.130569,219.682617 129.718079,219.682617 
	C131.447144,214.521576 133.087250,209.626083 134.787033,204.367432 
M143.775208,203.982346 
	C146.128662,203.982346 148.482132,203.982346 151.263016,203.982346 
	C149.330414,198.086014 147.692673,193.089279 145.759003,187.189713 
	C144.165146,192.381561 142.783890,196.406677 141.771027,200.522446 
	C141.525848,201.518692 142.496735,202.814209 143.775208,203.982346 
z"/>
<path fill="#4F4E4C" opacity="1.000000" stroke="none" 
	d="
M97.894791,204.434204 
	C97.831718,196.543579 97.831718,189.081726 97.831718,181.316528 
	C99.729538,181.316528 101.109566,181.316528 102.678833,181.316528 
	C102.792030,182.025528 102.959770,182.654144 102.983421,183.288132 
	C103.298561,191.737656 103.415947,200.199448 103.963409,208.633484 
	C104.267815,213.323135 107.597084,215.914001 111.996735,215.837891 
	C116.304443,215.763382 119.682976,213.344711 120.066978,208.575241 
	C120.558418,202.471497 120.744308,196.341415 120.979057,190.219513 
	C121.086861,187.408127 120.997421,184.589172 120.997421,181.383667 
	C122.581688,181.231384 123.964691,181.098450 126.029564,180.899979 
	C126.029564,188.533463 126.029564,195.804901 126.098923,203.540894 
	C126.457970,218.315872 114.255325,223.663147 103.568283,218.033463 
	C98.341171,215.279953 97.958069,210.056152 97.894791,204.434204 
z"/>
<path fill="#F7DB83" opacity="1.000000" stroke="none" 
	d="
M221.178116,195.004440 
	C227.779572,195.003662 234.381042,195.002884 241.665146,195.277435 
	C245.320847,200.273117 248.201736,205.020187 246.823807,211.001205 
	C238.580490,211.000946 230.337173,211.000687 221.570007,210.537994 
	C221.090134,205.051849 221.134125,200.028137 221.178116,195.004440 
z"/>
<path fill="#51504C" opacity="1.000000" stroke="none" 
	d="
M246.889648,211.452362 
	C248.201736,205.020187 245.320847,200.273117 242.127853,195.279327 
	C239.675537,190.598282 237.443161,186.190628 235.094452,181.553268 
	C238.910583,180.133987 241.251694,181.064331 242.851715,184.816376 
	C244.800003,189.385117 247.194504,193.763596 249.742416,198.926361 
	C252.225967,194.104004 254.813202,189.778137 256.715912,185.169647 
	C258.297394,181.339096 260.585846,180.151108 264.779449,181.471756 
	C260.822052,188.457489 256.913147,195.357620 252.909409,202.600021 
	C252.406601,208.414719 251.998642,213.887161 251.561386,219.752472 
	C250.318588,219.811935 248.947464,219.877533 246.955475,219.972839 
	C246.955475,217.067719 246.955475,214.485626 246.889648,211.452362 
z"/>
<path fill="#53514C" opacity="1.000000" stroke="none" 
	d="
M221.110794,194.549133 
	C221.134125,200.028137 221.090134,205.051849 221.112579,210.538391 
	C221.179001,213.786728 221.179001,216.572235 221.179001,219.697632 
	C219.338562,219.807236 217.955215,219.889603 215.950455,220.008987 
	C215.950455,214.759537 215.950455,209.845947 215.887543,204.468872 
	C215.824631,198.062805 215.824631,192.120255 215.824631,186.316681 
	C211.714096,185.756851 208.029861,185.307312 204.390793,184.618866 
	C204.190125,184.580902 204.364868,182.558640 204.364868,181.222046 
	C213.813324,181.222046 223.078796,181.222046 232.334381,181.222046 
	C233.112213,185.619354 233.112640,185.641815 228.905777,185.722458 
	C226.450790,185.769531 223.994171,185.731033 221.043472,185.731033 
	C221.043472,188.859451 221.043472,191.476654 221.110794,194.549133 
z"/>
<path fill="#53514C" opacity="1.000000" stroke="none" 
	d="
M167.887527,204.468933 
	C167.824631,196.563324 167.824631,189.121262 167.824631,181.325638 
	C169.650391,181.202164 171.030182,181.108856 173.039444,180.972961 
	C173.039444,188.573975 173.039444,195.824997 173.107407,203.540710 
	C173.175369,207.608261 173.175369,211.211105 173.175369,215.276016 
	C177.698853,215.276016 181.814789,215.345276 185.927094,215.253098 
	C188.971786,215.184860 190.327438,216.289764 189.286133,219.717163 
	C182.439056,219.717163 175.541275,219.717163 167.950424,219.717163 
	C167.950424,214.766556 167.950424,209.849503 167.887527,204.468933 
z"/>
<path fill="#4E4E4D" opacity="1.000000" stroke="none" 
	d="
M194.898132,204.468750 
	C194.833511,196.568283 194.833511,189.131042 194.833511,181.337540 
	C196.652069,181.214264 198.029434,181.120911 200.027054,180.985489 
	C200.027054,188.582062 200.027054,195.829269 200.096771,203.541016 
	C200.166489,209.109711 200.166489,214.213882 200.166489,219.668503 
	C198.347717,219.789017 196.971634,219.880188 194.962753,220.013290 
	C194.962753,214.759293 194.962753,209.845642 194.898132,204.468750 
z"/>
<path fill="#FAE089" opacity="1.000000" stroke="none" 
	d="
M146.387238,299.271606 
	C145.550339,302.729523 145.369385,306.088074 143.866180,308.679779 
	C142.727692,310.642609 139.874527,312.788757 137.835846,312.739105 
	C135.537308,312.683197 132.189896,310.790985 131.219818,308.773651 
	C126.760674,299.500702 126.775139,289.778687 131.227982,280.520355 
	C132.253494,278.388123 135.759552,276.303192 138.124695,276.302490 
	C140.236664,276.301880 143.717422,278.879944 144.202942,280.895935 
	C145.606155,286.722595 145.803833,292.839600 146.387238,299.271606 
z"/>
<path fill="#FAE089" opacity="1.000000" stroke="none" 
	d="
M178.708344,279.460205 
	C182.961853,288.660370 182.650024,297.727142 179.908844,306.807037 
	C178.854248,310.300262 176.768784,313.061218 172.559372,313.052124 
	C168.376923,313.043060 166.354309,310.307770 165.128677,306.844788 
	C162.213913,298.609375 162.374680,290.251648 165.210388,282.106995 
	C167.659119,275.073700 173.317871,273.981262 178.708344,279.460205 
z"/>
<path fill="#F8DE88" opacity="1.000000" stroke="none" 
	d="
M236.986694,303.994263 
	C236.584091,308.446411 237.103516,313.211487 231.448624,313.887909 
	C228.101395,314.288361 226.032074,310.296722 226.013382,304.281555 
	C226.012878,304.116486 226.012283,303.951385 226.013474,303.786316 
	C226.055298,297.938446 228.152649,294.179962 231.455902,294.032928 
	C234.842163,293.882172 236.786102,297.229919 236.986694,303.994263 
z"/>
<path fill="#F8DE88" opacity="1.000000" stroke="none" 
	d="
M205.096771,275.782471 
	C208.833633,280.736115 208.823669,285.942719 206.914413,291.056488 
	C206.308289,292.679932 204.153458,294.508301 202.514694,294.714905 
	C201.206284,294.879852 198.440491,292.818359 198.342377,291.584412 
	C197.977600,286.995850 198.000626,282.265503 198.764923,277.738129 
	C199.252487,274.850067 202.060074,274.390167 205.096771,275.782471 
z"/>
<path fill="#F8DE88" opacity="1.000000" stroke="none" 
	d="
M249.607391,344.666321 
	C250.428619,351.386047 247.015900,356.466034 238.031464,355.571533 
	C238.031464,350.617218 237.862396,345.554047 238.189346,340.523132 
	C238.247314,339.631226 240.448975,338.088470 241.525803,338.196136 
	C245.258530,338.569275 248.602737,339.953369 249.607391,344.666321 
z"/>
<path fill="#F8DE88" opacity="1.000000" stroke="none" 
	d="
M140.902039,340.063782 
	C142.272217,345.190338 140.530182,346.888336 133.806824,346.750732 
	C134.127243,344.010437 134.441772,341.320648 134.756302,338.630829 
	C136.734558,339.001373 138.712830,339.371948 140.902039,340.063782 
z"/>
<path fill="#F5D981" opacity="1.000000" stroke="none" 
	d="
M155.036987,348.988464 
	C154.659164,346.430756 154.659164,343.880646 154.659164,341.330536 
	C155.138062,341.284302 155.616959,341.238037 156.095856,341.191803 
	C156.899780,343.600006 157.703690,346.008179 158.602509,348.700714 
	C157.317688,348.819763 156.366241,348.907898 155.036987,348.988464 
z"/>
<path fill="#F5D981" opacity="1.000000" stroke="none" 
	d="
M121.364120,348.740051 
	C119.552200,348.921906 118.079918,348.921906 116.272438,348.921906 
	C117.112846,346.176544 117.848183,343.774414 119.040108,339.880707 
	C120.225014,343.740814 120.964394,346.149475 121.364120,348.740051 
z"/>
<path fill="#51504C" opacity="1.000000" stroke="none" 
	d="
M63.885822,112.473602 
	C63.941803,110.549400 64.058022,109.089890 64.224045,107.004906 
	C73.924576,105.698936 83.563835,104.697021 93.736450,108.271805 
	C104.728592,115.433495 105.706284,124.309921 96.690277,133.107574 
	C95.165268,133.988953 93.955338,134.778671 92.681816,135.609909 
	C102.239784,139.754593 105.050789,144.445175 104.998222,156.002441 
	C100.873634,167.737427 91.672165,171.111343 80.334625,171.016663 
	C75.064148,170.972641 69.792999,171.009140 63.955177,171.009140 
	C63.955177,167.156021 63.955177,164.036392 63.891579,160.459991 
	C63.869919,154.646011 63.911861,149.288834 63.890984,143.467926 
	C63.867462,132.982239 63.906761,122.960266 63.885822,112.473602 
M95.342049,149.316116 
	C93.012772,141.197052 84.489571,137.788925 73.050598,140.520203 
	C73.050598,148.169571 73.050598,155.860504 73.050598,163.924957 
	C77.131157,163.924957 80.961319,164.337555 84.668777,163.838531 
	C92.240517,162.819366 96.055267,157.767700 95.342049,149.316116 
M85.183151,132.018951 
	C90.974945,129.993774 94.224480,126.304214 93.939651,122.076744 
	C93.642220,117.662247 90.304619,113.837746 85.330711,113.233711 
	C81.318329,112.746437 77.199585,113.134987 73.172218,113.134987 
	C73.172218,120.056122 73.172218,126.392235 73.172218,133.362595 
	C77.220810,132.916061 80.788567,132.522552 85.183151,132.018951 
z"/>
<path fill="#ECCB72" opacity="1.000000" stroke="none" 
	d="
M195.603073,108.112572 
	C197.382904,108.075836 199.162735,108.039101 201.448456,108.441696 
	C202.048599,110.145134 202.142868,111.409241 202.275009,113.181213 
	C208.646378,113.181213 214.699844,113.181213 220.887482,113.181213 
	C220.887482,124.151482 220.887482,134.582169 220.887482,145.012848 
	C213.255417,145.334702 205.623352,145.656555 197.414520,145.680786 
	C193.424957,142.169647 190.289200,138.569168 186.511810,135.864929 
	C183.486465,133.699081 179.617065,132.749268 176.237930,131.032120 
	C170.957687,128.348892 168.366089,124.180153 169.220215,120.191200 
	C170.280685,115.238472 174.680710,111.838585 180.784042,112.139427 
	C184.964523,112.345482 189.095444,113.556694 193.410477,114.348267 
	C194.093887,112.404648 194.848480,110.258614 195.603073,108.112572 
z"/>
<path fill="#504F4D" opacity="1.000000" stroke="none" 
	d="
M115.826385,107.007088 
	C117.019333,106.670784 118.209869,106.053001 119.405602,106.042793 
	C128.808273,105.962448 138.212326,105.959091 147.614807,106.049980 
	C148.739914,106.060860 149.858170,106.778801 151.022827,108.028152 
	C150.973312,110.149872 150.880600,111.412453 150.756653,113.100250 
	C142.061752,113.100250 133.682373,113.100250 125.078186,113.100250 
	C125.078186,119.890671 125.078186,126.222519 125.078186,133.148163 
	C133.488998,133.148163 141.567154,133.148163 149.678696,133.576630 
	C149.712097,135.917435 149.712097,137.829758 149.712097,140.194626 
	C140.977356,140.194626 133.065262,140.194626 125.044319,140.194626 
	C124.914047,141.441788 124.752289,142.246948 124.759102,143.050690 
	C124.792862,147.034134 124.871124,151.017212 124.933701,155.000412 
	C124.933693,157.469040 124.933693,159.937668 124.933693,162.895508 
	C133.886078,162.895508 142.648071,162.895508 151.700943,162.895508 
	C151.700943,165.428299 151.700943,167.473938 151.700943,169.763580 
	C139.898773,169.763580 128.299210,169.763580 115.955772,169.763580 
	C115.955772,165.451523 115.955772,161.190430 115.960030,156.002747 
	C115.919388,148.386353 115.874489,141.696503 115.896973,134.541748 
	C115.918365,125.053581 115.872375,116.030334 115.826385,107.007088 
z"/>
<path fill="#EFD077" opacity="1.000000" stroke="none" 
	d="
M125.407639,155.000168 
	C124.871124,151.017212 124.792862,147.034134 124.759102,143.050690 
	C124.752289,142.246948 124.914047,141.441788 125.044319,140.194626 
	C133.065262,140.194626 140.977356,140.194626 149.712097,140.194626 
	C149.712097,137.829758 149.712097,135.917435 150.163544,133.531677 
	C154.784805,132.683762 158.954636,132.309280 163.416992,132.092606 
	C169.329727,135.545609 174.829895,139.071320 180.601044,142.076691 
	C187.537750,145.689026 189.262909,148.023132 188.851257,155.005844 
	C167.861359,155.003860 146.871460,155.001892 125.407639,155.000168 
z"/>
<path fill="#504F4C" opacity="1.000000" stroke="none" 
	d="
M188.894623,155.365936 
	C189.262909,148.023132 187.537750,145.689026 180.601044,142.076691 
	C174.829895,139.071320 169.329727,135.545609 163.286469,131.750763 
	C158.489502,124.392380 159.207092,115.618904 166.331818,109.154953 
	C175.650757,103.750984 185.222748,103.403038 195.315613,107.915665 
	C194.848480,110.258614 194.093887,112.404648 193.410477,114.348267 
	C189.095444,113.556694 184.964523,112.345482 180.784042,112.139427 
	C174.680710,111.838585 170.280685,115.238472 169.220215,120.191200 
	C168.366089,124.180153 170.957687,128.348892 176.237930,131.032120 
	C179.617065,132.749268 183.486465,133.699081 186.511810,135.864929 
	C190.289200,138.569168 193.424957,142.169647 197.001846,145.695984 
	C200.852768,159.233658 193.042877,170.620941 179.457214,170.855011 
	C172.684357,170.971710 165.884460,169.520721 158.421951,168.705093 
	C159.442337,164.949417 160.067429,162.648666 160.726288,160.223663 
	C164.879684,161.498505 168.522766,162.851059 172.277756,163.719849 
	C179.800354,165.460342 186.132141,162.309647 188.894623,155.365936 
z"/>
<path fill="#4F4E4C" opacity="1.000000" stroke="none" 
	d="
M220.954041,145.476410 
	C220.887482,134.582169 220.887482,124.151482 220.887482,113.181213 
	C214.699844,113.181213 208.646378,113.181213 202.275009,113.181213 
	C202.142868,111.409241 202.048599,110.145134 201.892197,108.443787 
	C202.913620,107.338348 203.991974,106.098450 205.081528,106.088547 
	C219.212875,105.960098 233.345901,105.987083 247.478088,106.059128 
	C248.283142,106.063225 249.084473,106.796761 250.002060,107.600197 
	C249.991028,109.475655 249.865463,110.941719 249.695679,112.924301 
	C243.290527,112.924301 236.935089,112.924301 230.033524,112.924301 
	C230.033524,119.652740 230.033524,125.864449 230.101532,132.540787 
	C230.124313,139.695389 230.079117,146.385361 230.101929,153.539917 
	C230.169937,159.099442 230.169937,164.194382 230.169937,169.643402 
	C227.028549,169.643402 224.342911,169.643402 221.020584,169.643402 
	C221.020584,161.686279 221.020584,153.813126 220.954041,145.476410 
z"/>
<path fill="#EFD077" opacity="1.000000" stroke="none" 
	d="
M115.829582,135.006668 
	C115.874489,141.696503 115.919388,148.386353 115.896698,155.540894 
	C112.522392,156.003922 109.215691,156.002243 105.453598,156.001511 
	C105.050789,144.445175 102.239784,139.754593 92.681816,135.609909 
	C93.955338,134.778671 95.165268,133.988953 96.944443,133.393082 
	C103.618988,134.060181 109.724281,134.533417 115.829582,135.006668 
z"/>
<path fill="#ECCB72" opacity="1.000000" stroke="none" 
	d="
M165.923431,108.979874 
	C159.207092,115.618904 158.489502,124.392380 162.993927,131.592987 
	C158.954636,132.309280 154.784805,132.683762 150.130142,133.103195 
	C141.567154,133.148163 133.488998,133.148163 125.078186,133.148163 
	C125.078186,126.222519 125.078186,119.890671 125.078186,113.100250 
	C133.682373,113.100250 142.061752,113.100250 150.756653,113.100250 
	C150.880600,111.412453 150.973312,110.149872 151.126221,108.448746 
	C155.962601,108.275063 160.738831,108.539932 165.923431,108.979874 
z"/>
<path fill="#ECCB72" opacity="1.000000" stroke="none" 
	d="
M115.896973,134.541748 
	C109.724281,134.533417 103.618988,134.060181 97.259521,133.301437 
	C105.706284,124.309921 104.728592,115.433495 94.124458,108.316193 
	C100.927048,107.692764 107.920670,107.347748 115.370338,107.004906 
	C115.872375,116.030334 115.918365,125.053581 115.896973,134.541748 
z"/>
<path fill="#F5D981" opacity="1.000000" stroke="none" 
	d="
M71.897293,185.772827 
	C74.501068,185.836105 76.905220,185.512482 78.919670,186.251343 
	C84.480164,188.290833 87.042953,195.208969 86.021072,204.296188 
	C85.341736,210.337311 81.126846,215.520386 75.487022,215.640244 
	C72.557106,215.702515 68.892448,214.180664 66.745064,212.131943 
	C59.110523,204.848221 62.131462,189.409454 71.897293,185.772827 
z"/>
<path fill="#F4D780" opacity="1.000000" stroke="none" 
	d="
M143.341827,203.977234 
	C142.496735,202.814209 141.525848,201.518692 141.771027,200.522446 
	C142.783890,196.406677 144.165146,192.381561 145.759003,187.189713 
	C147.692673,193.089279 149.330414,198.086014 151.263016,203.982346 
	C148.482132,203.982346 146.128662,203.982346 143.341827,203.977234 
z"/>
<path fill="#F0D178" opacity="1.000000" stroke="none" 
	d="
M95.519257,149.667816 
	C96.055267,157.767700 92.240517,162.819366 84.668777,163.838531 
	C80.961319,164.337555 77.131157,163.924957 73.050598,163.924957 
	C73.050598,155.860504 73.050598,148.169571 73.050598,140.520203 
	C84.489571,137.788925 93.012772,141.197052 95.519257,149.667816 
z"/>
<path fill="#ECCB72" opacity="1.000000" stroke="none" 
	d="
M84.769745,132.074005 
	C80.788567,132.522552 77.220810,132.916061 73.172218,133.362595 
	C73.172218,126.392235 73.172218,120.056122 73.172218,113.134987 
	C77.199585,113.134987 81.318329,112.746437 85.330711,113.233711 
	C90.304619,113.837746 93.642220,117.662247 93.939651,122.076744 
	C94.224480,126.304214 90.974945,129.993774 84.769745,132.074005 
z"/>
</svg>