<svg version="1.1" id="Layer_1" xmlns="http://www.w3.org/2000/svg" xmlns:xlink="http://www.w3.org/1999/xlink" x="0px" y="0px"
	 width="100%" viewBox="0 0 512 512" enable-background="new 0 0 512 512" xml:space="preserve">
<path fill="#000000" opacity="1.000000" stroke="none" 
	d="
M231.000000,513.000000 
	C154.366852,513.000000 77.733711,513.000000 1.050285,513.000000 
	C1.050285,342.441498 1.050285,171.882965 1.050285,1.000000 
	C84.355064,1.000000 167.710556,1.000000 251.871002,1.247808 
	C249.840134,8.993304 247.004288,16.490993 243.994110,24.328405 
	C241.841095,30.766153 239.862411,36.864178 237.540558,43.179688 
	C235.666473,43.928291 234.140213,44.904015 232.603928,44.920086 
	C220.450821,45.047245 208.286255,44.736683 196.148788,45.190647 
	C193.474792,45.290657 189.651962,47.319614 188.618225,49.521416 
	C187.567719,51.758892 188.340012,56.167351 190.044998,58.090733 
	C192.973938,61.394882 197.247879,63.506748 201.097443,66.430260 
	C208.101898,71.626320 215.006989,76.455826 221.788559,81.452950 
	C222.865997,82.246880 223.387711,83.794968 223.987427,85.336235 
	C222.594803,89.450500 221.381119,93.222908 220.085785,97.372101 
	C218.964264,101.152084 217.924393,104.555275 216.576141,108.164597 
	C214.824417,113.205658 213.527618,118.090874 211.891205,122.859550 
	C210.590210,126.650810 211.480377,129.678421 214.665756,131.762634 
	C217.857834,133.851227 221.185715,133.453033 224.297104,131.163712 
	C233.884995,124.109024 243.498047,117.088509 253.413040,109.896301 
	C255.779205,109.507050 257.833649,109.276222 260.041016,109.356522 
	C270.110657,116.894623 279.847809,124.394028 290.081451,131.140305 
	C292.388245,132.660995 296.863251,132.566757 299.554810,131.401657 
	C302.844421,129.977676 303.618713,126.267975 302.239166,122.480255 
	C300.621277,118.038177 299.288849,113.492157 297.758179,108.629112 
	C295.733063,102.507355 293.782440,96.747696 291.754639,90.623245 
	C288.684387,84.931244 290.897339,81.864777 295.700928,78.942741 
	C300.793518,75.844902 305.287872,71.763626 310.395050,68.050690 
	C314.306702,65.401703 317.659576,62.439747 321.480743,60.323353 
	C325.978943,57.831997 326.963531,53.917397 325.681671,49.892773 
	C324.524841,46.260853 320.959991,44.890732 316.892670,44.939606 
	C304.948120,45.083134 292.999634,45.068790 281.055756,44.900528 
	C279.391785,44.877087 277.744904,43.640884 276.046570,42.571976 
	C273.945953,36.114536 271.888885,30.051207 269.886658,23.603603 
	C267.294373,15.812888 264.647186,8.406444 262.000000,0.999999 
	C345.630035,1.000000 429.260101,1.000000 512.945068,1.000000 
	C512.945068,171.555344 512.945068,342.110718 512.945068,513.000000 
	C436.978302,513.000000 360.956146,513.000000 284.484558,512.609497 
	C286.326782,511.495361 288.570618,510.486298 290.917633,510.092896 
	C310.435272,506.821198 328.711365,499.963196 345.522614,489.757355 
	C356.477539,483.106720 367.231201,475.773102 376.809540,467.312714 
	C385.145844,459.949341 391.707611,450.576843 399.343658,441.915588 
	C406.427795,430.133850 414.049591,418.918335 419.753906,406.800201 
	C424.320648,397.098663 426.557617,386.300446 430.006653,375.634888 
	C434.161011,357.032471 436.587708,338.681824 433.885620,319.556335 
	C432.554962,303.189056 429.287750,287.698425 423.027893,272.529114 
	C421.987427,269.563660 421.260468,266.816803 419.920868,264.411072 
	C414.423889,254.539566 408.740295,244.771973 403.053070,234.620209 
	C394.751617,221.633774 384.135986,211.130524 372.956604,200.674408 
	C371.707245,199.625717 370.611450,198.910233 369.594788,198.095932 
	C359.224945,189.790436 348.556030,181.962555 335.909790,176.656891 
	C331.393005,174.367233 327.153412,172.173157 322.743134,170.404785 
	C299.040039,160.900650 274.351074,157.103897 248.895538,158.020309 
	C246.117065,158.120331 243.360687,158.847717 240.582550,158.940781 
	C226.671951,159.406860 213.301498,162.706909 200.263596,167.163956 
	C192.612885,169.779358 185.376099,173.605560 177.592163,176.943771 
	C161.796799,184.301315 147.769104,193.610458 135.582520,206.114960 
	C126.611008,216.360809 117.933968,226.459976 109.125786,236.847626 
	C103.382339,247.996964 97.770020,258.857819 91.859985,269.886902 
	C86.547554,284.332001 81.803925,298.674683 80.606621,314.250824 
	C80.221313,327.857727 79.979187,341.165558 80.137383,354.468658 
	C80.179169,357.983093 81.455505,361.482849 82.109726,365.410889 
	C84.740173,385.720947 91.639076,404.132324 101.665604,421.818329 
	C102.097939,422.910278 102.358192,423.708069 102.771515,424.416534 
	C116.299911,447.604889 133.833282,467.029236 156.173630,482.128357 
	C177.008087,496.209717 199.456360,506.125366 224.347855,510.325653 
	C226.650101,510.714111 228.786560,512.085144 231.000000,513.000000 
M450.998993,95.178429 
	C449.610504,90.781990 448.222015,86.385544 446.688782,81.262009 
	C444.458282,74.490349 442.243195,67.713547 439.991028,60.949108 
	C438.794464,57.355061 436.243896,56.028439 432.484924,55.896667 
	C428.553802,55.758854 426.596893,58.072548 425.539886,61.046871 
	C423.090881,67.938072 421.063354,74.979042 418.230591,82.366119 
	C416.448120,88.564690 414.665619,94.763252 411.960693,100.983383 
	C398.335480,100.985596 384.709595,101.064682 371.085571,100.938721 
	C367.451080,100.905121 365.205994,102.237373 363.958435,105.640976 
	C362.574585,109.416359 364.035706,112.496368 366.640839,114.781418 
	C369.443207,117.239464 372.825989,119.035744 376.301208,121.702705 
	C384.271179,127.422073 392.241150,133.141434 400.022217,138.725250 
	C399.662720,140.509186 399.412384,141.751480 398.806396,143.660004 
	C396.522491,150.748871 394.238586,157.837738 391.353210,165.370163 
	C390.229706,169.141846 389.326691,172.997955 387.923584,176.662598 
	C386.375000,180.707275 386.553375,184.123886 390.301605,186.733124 
	C393.782379,189.156204 397.206146,188.331909 400.365997,186.053925 
	C408.620483,180.103180 416.817841,174.073181 425.656494,167.776367 
	C429.795593,163.156647 434.154999,161.992615 438.939575,166.893387 
	C439.119537,167.077698 439.569855,166.998016 440.203033,167.653030 
	C449.062012,174.166855 457.773773,180.895462 466.839111,187.108185 
	C471.718903,190.452469 478.427551,186.707291 477.823029,180.977325 
	C477.322235,176.230530 475.405029,171.633179 474.013184,166.189850 
	C471.620697,158.790222 469.228180,151.390594 466.663910,143.254730 
	C465.302429,140.259323 465.829529,138.303513 468.893433,136.307419 
	C475.174438,132.215469 481.055634,127.509850 487.704742,122.752159 
	C490.698761,120.523537 493.547546,118.055679 496.723724,116.127060 
	C500.664093,113.734375 502.592560,110.614067 501.752777,105.291855 
	C499.780975,101.658623 496.675201,100.845078 492.702148,100.923065 
	C481.376831,101.145370 470.035187,100.739929 458.719238,101.134003 
	C454.396576,101.284546 451.961609,100.132607 450.998993,95.178429 
M94.938011,80.226608 
	C92.935188,74.081711 91.124611,67.864380 88.848083,61.822613 
	C87.717384,58.821823 86.132240,55.894402 81.923111,55.914227 
	C78.033081,55.932545 75.218391,57.117180 74.010429,61.002827 
	C71.944458,67.648483 69.920723,74.307281 67.251732,81.360855 
	C65.461197,87.560822 63.670662,93.760796 61.137383,100.341621 
	C59.536732,100.557564 57.936890,100.953468 56.335297,100.960701 
	C44.552631,101.013969 32.769085,101.052666 20.987015,100.953598 
	C17.135475,100.921211 13.481800,101.227119 12.255280,105.551880 
	C11.027472,109.881195 12.940228,113.221870 16.532095,115.738785 
	C20.136990,118.264816 23.684624,120.872566 27.808842,123.900253 
	C31.438587,126.378822 35.103542,128.807617 38.691364,131.345459 
	C48.713432,138.434586 48.698429,138.451675 45.132599,150.002533 
	C45.041142,150.298782 45.149429,150.656723 44.806309,151.651260 
	C42.070759,159.712860 39.218372,167.737488 36.650631,175.852188 
	C35.429527,179.711166 34.862961,183.986038 38.703411,186.709869 
	C42.344852,189.292572 46.169033,188.227493 49.662212,185.679459 
	C59.343357,178.617767 69.115593,171.679626 78.730507,164.529510 
	C80.855278,162.949432 82.086372,162.976624 84.264259,164.621506 
	C93.830681,171.846771 103.652634,178.732605 113.308578,185.841141 
	C116.722397,188.354340 120.430206,189.114746 123.885635,186.834793 
	C127.519836,184.436874 127.503334,180.770203 126.097130,176.725677 
	C123.138885,168.217194 120.565674,159.574814 117.668221,150.270020 
	C116.834969,147.985626 116.186546,145.611053 115.126144,143.437469 
	C113.439552,139.980347 114.638107,138.030853 117.657738,135.997437 
	C122.634674,132.645981 127.260284,128.772766 132.734863,124.992134 
	C137.540466,121.645256 142.390701,118.360130 147.136398,114.930359 
	C150.439850,112.542923 150.904343,109.042557 149.914551,105.445839 
	C148.951355,101.945831 146.307190,100.884552 142.711777,100.930267 
	C130.451431,101.086166 118.187630,101.028008 105.925865,100.945137 
	C104.226761,100.933655 102.531693,100.324196 100.928139,99.228622 
	C98.897102,93.149124 96.866066,87.069618 94.938011,80.226608 
z"/>
<path fill="#0A446A" opacity="1.000000" stroke="none" 
	d="
M399.053497,442.092163 
	C391.707611,450.576843 385.145844,459.949341 376.809540,467.312714 
	C367.231201,475.773102 356.477539,483.106720 345.522614,489.757355 
	C328.711365,499.963196 310.435272,506.821198 290.917633,510.092896 
	C288.570618,510.486298 286.326782,511.495361 284.017578,512.609497 
	C266.645782,513.000000 249.291550,513.000000 231.468658,513.000000 
	C228.786560,512.085144 226.650101,510.714111 224.347855,510.325653 
	C199.456360,506.125366 177.008087,496.209717 156.173630,482.128357 
	C133.833282,467.029236 116.299911,447.604889 102.771515,424.416534 
	C102.358192,423.708069 102.097939,422.910278 102.010094,421.575623 
	C107.556198,420.650848 112.858536,420.304626 118.424576,420.167358 
	C129.904739,439.317352 144.561310,455.168671 162.571457,467.711792 
	C198.516495,492.745728 238.172424,502.683624 281.738220,496.083679 
	C316.642181,490.795929 346.242767,475.030914 371.594269,450.846710 
	C375.541748,447.080933 379.130646,442.939209 383.277283,439.125000 
	C385.744354,439.518768 387.842896,439.636536 389.889160,440.027679 
	C392.963135,440.615295 396.000549,441.394470 399.053497,442.092163 
z"/>
<path fill="#40A6D8" opacity="1.000000" stroke="none" 
	d="
M244.168442,23.988682 
	C247.004288,16.490993 249.840134,8.993304 252.337982,1.247808 
	C255.030594,1.000000 258.061188,1.000000 261.545898,0.999999 
	C264.647186,8.406444 267.294373,15.812888 269.428711,23.605751 
	C260.666748,23.991009 252.417587,23.989845 244.168442,23.988682 
z"/>
<path fill="#276A94" opacity="1.000000" stroke="none" 
	d="
M117.834442,150.987396 
	C120.565674,159.574814 123.138885,168.217194 126.097130,176.725677 
	C127.503334,180.770203 127.519836,184.436874 123.885635,186.834793 
	C120.430206,189.114746 116.722397,188.354340 113.308578,185.841141 
	C103.652634,178.732605 93.830681,171.846771 84.264259,164.621506 
	C82.086372,162.976624 80.855278,162.949432 78.730507,164.529510 
	C69.115593,171.679626 59.343357,178.617767 49.662212,185.679459 
	C46.169033,188.227493 42.344852,189.292572 38.703411,186.709869 
	C34.862961,183.986038 35.429527,179.711166 36.650631,175.852188 
	C39.218372,167.737488 42.070759,159.712860 45.438560,151.321869 
	C50.987877,151.328415 55.904949,151.664368 60.762589,152.348358 
	C60.109200,154.506561 59.515240,156.316711 58.775379,158.571518 
	C59.745796,158.323761 60.212852,158.323990 60.529110,158.105698 
	C64.698082,155.228531 69.001045,152.516449 72.963898,149.376190 
	C79.549225,144.157806 81.519119,143.059891 90.145096,149.590714 
	C94.425247,152.831268 98.810577,155.932892 103.912689,159.654968 
	C103.446312,156.942276 103.203499,155.529922 103.202690,153.810959 
	C105.129547,153.004868 106.784859,152.317444 108.505714,152.047058 
	C111.594528,151.561691 114.722702,151.326904 117.834442,150.987396 
z"/>
<path fill="#276A94" opacity="1.000000" stroke="none" 
	d="
M177.953125,176.887115 
	C185.376099,173.605560 192.612885,169.779358 200.263596,167.163956 
	C213.301498,162.706909 226.671951,159.406860 240.582550,158.940781 
	C243.360687,158.847717 246.117065,158.120331 248.895538,158.020309 
	C274.351074,157.103897 299.040039,160.900650 322.743134,170.404785 
	C327.153412,172.173157 331.393005,174.367233 335.516785,176.816544 
	C326.854034,177.512482 318.380798,177.650589 309.920593,178.059006 
	C306.989319,178.200516 304.090454,179.012817 300.862091,179.331757 
	C289.708191,177.418564 278.851013,175.796890 268.034363,173.939255 
	C254.938614,171.690170 242.080338,173.709518 229.245514,175.900650 
	C222.463867,177.058411 215.765381,178.703354 208.679138,179.902008 
	C200.072998,179.449844 191.810867,179.342712 183.565887,178.909164 
	C181.664780,178.809189 179.822479,177.590820 177.953125,176.887115 
z"/>
<path fill="#2A6E98" opacity="1.000000" stroke="none" 
	d="
M439.894165,167.041367 
	C439.569855,166.998016 439.119537,167.077698 438.939575,166.893387 
	C434.154999,161.992615 429.795593,163.156647 425.099426,167.621765 
	C420.380188,166.977707 416.229065,166.336914 412.053436,166.033371 
	C405.362366,165.546951 398.655090,165.283997 391.954651,164.926605 
	C394.238586,157.837738 396.522491,150.748871 399.378082,143.423248 
	C404.649658,143.836456 409.349579,144.486404 414.030945,145.522110 
	C412.735107,150.132812 411.457764,154.357742 409.814972,159.791351 
	C415.919495,155.509323 420.896332,152.084747 425.801910,148.561035 
	C432.456665,143.780869 433.887573,143.873276 440.440277,148.866562 
	C444.956696,152.308167 449.698181,155.454453 455.347015,159.444717 
	C453.942444,154.334076 452.950592,150.725235 452.142517,146.773743 
	C457.162750,145.617706 461.999237,144.804337 466.835693,143.990967 
	C469.228180,151.390594 471.620697,158.790222 473.587921,166.585510 
	C462.073151,167.001221 450.983673,167.021286 439.894165,167.041367 
z"/>
<path fill="#3A92C0" opacity="1.000000" stroke="none" 
	d="
M276.090118,42.966087 
	C277.744904,43.640884 279.391785,44.877087 281.055756,44.900528 
	C292.999634,45.068790 304.948120,45.083134 316.892670,44.939606 
	C320.959991,44.890732 324.524841,46.260853 325.681671,49.892773 
	C326.963531,53.917397 325.978943,57.831997 321.480743,60.323353 
	C317.659576,62.439747 314.306702,65.401703 310.149780,67.742905 
	C305.102814,66.997665 300.635254,66.615265 296.210266,65.949776 
	C294.102875,65.632843 292.076569,64.777199 290.326843,64.011948 
	C291.283691,63.080837 291.927277,62.303368 293.012177,60.992722 
	C285.890808,60.992722 279.610260,61.104179 273.336243,60.950146 
	C269.680511,60.860394 266.012787,60.253372 264.599701,56.092865 
	C263.248199,52.113605 262.113434,48.060734 261.276093,43.883919 
	C266.475891,43.473774 271.283020,43.219933 276.090118,42.966087 
z"/>
<path fill="#3A92C0" opacity="1.000000" stroke="none" 
	d="
M200.957230,66.119110 
	C197.247879,63.506748 192.973938,61.394882 190.044998,58.090733 
	C188.340012,56.167351 187.567719,51.758892 188.618225,49.521416 
	C189.651962,47.319614 193.474792,45.290657 196.148788,45.190647 
	C208.286255,44.736683 220.450821,45.047245 232.603928,44.920086 
	C234.140213,44.904015 235.666473,43.928291 238.011612,43.187057 
	C243.588470,43.332115 248.351074,43.687298 253.070297,44.437309 
	C252.354218,47.159725 251.595963,49.466526 251.024857,51.818775 
	C249.287781,58.973682 246.808319,60.971802 239.389542,60.990334 
	C233.157684,61.005901 226.925751,60.993530 220.356232,60.993530 
	C221.550262,62.276260 222.297775,63.079292 222.692749,64.106781 
	C219.248306,64.554878 216.153824,64.748276 213.065094,65.009628 
	C209.026764,65.351341 204.992966,65.746780 200.957230,66.119110 
z"/>
<path fill="#327BA7" opacity="1.000000" stroke="none" 
	d="
M100.834755,99.991562 
	C102.531693,100.324196 104.226761,100.933655 105.925865,100.945137 
	C118.187630,101.028008 130.451431,101.086166 142.711777,100.930267 
	C146.307190,100.884552 148.951355,101.945831 149.914551,105.445839 
	C150.904343,109.042557 150.439850,112.542923 147.136398,114.930359 
	C142.390701,118.360130 137.540466,121.645256 132.199310,124.709473 
	C129.492752,123.951164 127.343071,123.276779 125.146301,123.040833 
	C120.428436,122.534134 115.686302,122.253471 111.132401,121.592072 
	C113.355515,119.841400 115.400330,118.378914 118.736786,115.992630 
	C110.373360,115.992630 103.526070,115.952843 96.679558,116.008865 
	C93.084068,116.038292 90.145683,114.964287 88.827339,111.378052 
	C87.715416,108.353340 86.897209,105.220665 86.296555,101.910828 
	C91.374336,101.121109 96.104546,100.556335 100.834755,99.991562 
z"/>
<path fill="#0D476E" opacity="1.000000" stroke="none" 
	d="
M399.343658,441.915588 
	C396.000549,441.394470 392.963135,440.615295 389.889160,440.027679 
	C387.842896,439.636536 385.744354,439.518768 383.354004,438.883606 
	C383.096619,438.329987 383.154419,438.171356 383.542053,437.956299 
	C384.567719,436.899292 385.263519,435.898712 386.114136,434.598969 
	C388.380798,431.759796 390.979065,429.483765 392.524292,426.636261 
	C401.504089,410.088318 410.463196,393.503143 415.197937,374.945709 
	C420.371613,375.304535 425.100098,375.646759 429.828613,375.988953 
	C426.557617,386.300446 424.320648,397.098663 419.753906,406.800201 
	C414.049591,418.918335 406.427795,430.133850 399.343658,441.915588 
z"/>
<path fill="#327BA7" opacity="1.000000" stroke="none" 
	d="
M27.257353,123.444504 
	C23.684624,120.872566 20.136990,118.264816 16.532095,115.738785 
	C12.940228,113.221870 11.027472,109.881195 12.255280,105.551880 
	C13.481800,101.227119 17.135475,100.921211 20.987015,100.953598 
	C32.769085,101.052666 44.552631,101.013969 56.335297,100.960701 
	C57.936890,100.953468 59.536732,100.557564 61.976006,100.159164 
	C67.487816,100.314285 72.160995,100.651878 76.887833,101.377632 
	C76.476913,103.492859 76.067017,105.236839 75.538498,106.944107 
	C72.974449,115.226677 71.926765,115.993111 63.364384,115.993843 
	C57.276314,115.994370 51.188248,115.993935 44.096874,115.993935 
	C46.627136,118.075020 48.334999,119.479691 49.690315,121.108032 
	C47.551361,121.554413 45.769524,121.827454 43.977684,121.990532 
	C38.406281,122.497604 32.831081,122.962967 27.257353,123.444504 
z"/>
<path fill="#337EAA" opacity="1.000000" stroke="none" 
	d="
M259.888092,109.045395 
	C257.833649,109.276222 255.779205,109.507050 253.020828,109.735901 
	C245.245834,109.489182 238.171646,109.310974 231.104828,108.976387 
	C226.359314,108.751709 221.624252,108.305542 216.884521,107.958466 
	C217.924393,104.555275 218.964264,101.152084 220.535583,97.373016 
	C225.988785,97.329277 230.910522,97.661423 235.882263,98.346695 
	C235.444824,100.345711 234.957382,101.991592 234.188828,104.586754 
	C240.479004,100.014412 245.998367,96.075760 251.434708,92.025681 
	C255.248489,89.184402 258.854980,89.269318 262.655731,92.096794 
	C268.053345,96.112221 273.571625,99.965446 279.809204,104.441124 
	C278.426605,99.334084 277.296753,95.160645 276.622803,90.989761 
	C281.996368,90.990898 286.914093,90.989471 291.831787,90.988045 
	C293.782440,96.747696 295.733063,102.507355 297.300323,108.630859 
	C284.573975,109.011604 272.231049,109.028503 259.888092,109.045395 
z"/>
<path fill="#327BA7" opacity="1.000000" stroke="none" 
	d="
M375.955536,121.120766 
	C372.825989,119.035744 369.443207,117.239464 366.640839,114.781418 
	C364.035706,112.496368 362.574585,109.416359 363.958435,105.640976 
	C365.205994,102.237373 367.451080,100.905121 371.085571,100.938721 
	C384.709595,101.064682 398.335480,100.985596 412.895538,100.980156 
	C418.816742,100.980217 423.803070,100.983513 428.717010,101.347839 
	C428.083191,103.408600 427.523590,105.108917 426.960144,106.807961 
	C424.176636,115.201347 423.082886,115.992821 414.266327,115.993866 
	C408.382172,115.994568 402.498016,115.994011 395.420776,115.994011 
	C397.411255,117.583344 398.275238,118.273201 398.661987,118.971497 
	C393.394257,118.987717 388.586945,118.758797 383.819763,119.096260 
	C381.163910,119.284256 378.574738,120.414932 375.955536,121.120766 
z"/>
<path fill="#0D476E" opacity="1.000000" stroke="none" 
	d="
M118.160866,419.958405 
	C112.858536,420.304626 107.556198,420.650848 101.909378,421.239807 
	C91.639076,404.132324 84.740173,385.720947 82.563538,365.413269 
	C87.659927,364.994568 92.247261,364.995056 97.030319,365.341064 
	C101.130661,384.962830 107.842186,403.156342 118.160866,419.958405 
z"/>
<path fill="#0F4C72" opacity="1.000000" stroke="none" 
	d="
M430.006653,375.634888 
	C425.100098,375.646759 420.371613,375.304535 415.287109,374.542999 
	C416.286346,362.377075 417.860352,350.649994 418.908112,338.876038 
	C419.464661,332.622314 419.108887,326.287384 419.620178,319.991455 
	C424.661835,319.992249 429.248322,319.990723 433.834808,319.989197 
	C436.587708,338.681824 434.161011,357.032471 430.006653,375.634888 
z"/>
<path fill="#24658E" opacity="1.000000" stroke="none" 
	d="
M177.592163,176.943756 
	C179.822479,177.590820 181.664780,178.809189 183.565887,178.909164 
	C191.810867,179.342712 200.072998,179.449844 208.461456,180.195999 
	C198.532074,185.099548 188.267929,189.080048 178.474075,193.997238 
	C171.041489,197.728912 164.207687,202.653183 156.732819,206.970428 
	C149.531113,206.585480 142.704041,206.276871 135.876968,205.968277 
	C147.769104,193.610458 161.796799,184.301315 177.592163,176.943756 
z"/>
<path fill="#0F4C72" opacity="1.000000" stroke="none" 
	d="
M96.834595,364.995544 
	C92.247261,364.995056 87.659927,364.994568 82.618774,364.991699 
	C81.455505,361.482849 80.179169,357.983093 80.137383,354.468658 
	C79.979187,341.165558 80.221313,327.857727 81.078125,314.262665 
	C86.506767,313.977905 91.170967,313.982147 95.892532,314.413391 
	C95.635590,320.246460 94.927094,325.664368 95.088837,331.056152 
	C95.428444,342.376556 96.225395,353.683228 96.834595,364.995544 
z"/>
<path fill="#327BA7" opacity="1.000000" stroke="none" 
	d="
M501.865723,105.995636 
	C502.592560,110.614067 500.664093,113.734375 496.723724,116.127060 
	C493.547546,118.055679 490.698761,120.523537 487.011200,122.743988 
	C478.836731,122.145462 471.355835,121.555107 464.034210,120.661163 
	C465.818787,119.134262 467.444031,117.910942 469.990967,115.993904 
	C462.509216,115.993904 456.137665,115.997498 449.766144,115.992989 
	C442.079346,115.987541 440.615417,114.780052 439.274292,106.880692 
	C441.965179,106.483238 444.260773,106.039467 446.557770,106.032150 
	C464.993591,105.973457 483.429718,105.997147 501.865723,105.995636 
z"/>
<path fill="#155178" opacity="1.000000" stroke="none" 
	d="
M433.885620,319.556335 
	C429.248322,319.990723 424.661835,319.992249 419.530945,319.590607 
	C417.800842,312.737152 417.013611,306.181122 415.335663,299.861542 
	C412.849976,290.499634 409.732574,281.305450 407.307739,272.068298 
	C412.840851,272.365967 417.950256,272.635254 423.059692,272.904572 
	C429.287750,287.698425 432.554962,303.189056 433.885620,319.556335 
z"/>
<path fill="#24658E" opacity="1.000000" stroke="none" 
	d="
M301.176788,179.518723 
	C304.090454,179.012817 306.989319,178.200516 309.920593,178.059006 
	C318.380798,177.650589 326.854034,177.512482 335.715210,177.108582 
	C348.556030,181.962555 359.224945,189.790436 369.594788,198.095932 
	C370.611450,198.910233 371.707245,199.625717 372.520813,200.695816 
	C364.811951,201.353043 357.348541,201.701523 349.535126,202.013306 
	C334.378418,191.933746 318.521057,184.136932 301.176788,179.518723 
z"/>
<path fill="#1F5F87" opacity="1.000000" stroke="none" 
	d="
M349.885162,202.050018 
	C357.348541,201.701523 364.811951,201.353043 372.711121,200.983139 
	C384.135986,211.130524 394.751617,221.633774 402.637909,234.710907 
	C396.819214,235.784103 391.343323,236.420731 385.591217,236.866211 
	C382.872620,233.611374 380.754944,230.201950 377.928345,227.547440 
	C368.720032,218.899841 359.252777,210.527985 349.885162,202.050018 
z"/>
<path fill="#16537A" opacity="1.000000" stroke="none" 
	d="
M95.835167,313.986389 
	C91.170967,313.982147 86.506767,313.977905 81.371063,313.961823 
	C81.803925,298.674683 86.547554,284.332001 92.393402,269.950806 
	C98.187927,269.910797 103.151314,269.975128 108.050720,270.409790 
	C102.410202,284.753052 97.975258,299.046997 95.835167,313.986389 
z"/>
<path fill="#1C5981" opacity="1.000000" stroke="none" 
	d="
M385.867462,237.057343 
	C391.343323,236.420731 396.819214,235.784103 402.710236,235.056808 
	C408.740295,244.771973 414.423889,254.539566 419.920868,264.411072 
	C421.260468,266.816803 421.987427,269.563660 423.027893,272.529114 
	C417.950256,272.635254 412.840851,272.365967 407.034790,271.859039 
	C399.514587,260.100067 392.691040,248.578705 385.867462,237.057343 
z"/>
<path fill="#1F5F87" opacity="1.000000" stroke="none" 
	d="
M135.582520,206.114960 
	C142.704041,206.276871 149.531113,206.585480 156.578217,207.271866 
	C146.903473,217.780121 137.008682,227.910599 126.678421,238.029297 
	C120.580940,237.531403 114.918922,237.045273 109.256912,236.559143 
	C117.933968,226.459976 126.611008,216.360809 135.582520,206.114960 
z"/>
<path fill="#3582AF" opacity="1.000000" stroke="none" 
	d="
M76.834175,100.989464 
	C72.160995,100.651878 67.487816,100.314285 62.347382,99.968735 
	C63.670662,93.760796 65.461197,87.560822 68.041870,81.168869 
	C77.499687,80.981293 86.167366,80.985710 94.835037,80.990120 
	C96.866066,87.069618 98.897102,93.149124 100.881447,99.610092 
	C96.104546,100.556335 91.374336,101.121109 85.972176,101.702858 
	C84.125679,97.731598 82.951134,93.743362 81.505722,88.835388 
	C79.693352,93.550674 78.263763,97.270073 76.834175,100.989464 
z"/>
<path fill="#2E739E" opacity="1.000000" stroke="none" 
	d="
M27.533096,123.672379 
	C32.831081,122.962967 38.406281,122.497604 43.977684,121.990532 
	C45.769524,121.827454 47.551361,121.554413 50.004456,121.255516 
	C54.009716,123.518112 57.378162,125.815628 60.679417,128.205963 
	C64.939896,131.290817 66.068832,135.316467 64.358421,140.309525 
	C63.039894,144.158585 61.990871,148.099976 60.822018,152.000305 
	C55.904949,151.664368 50.987877,151.328415 45.617687,150.989182 
	C45.149429,150.656723 45.041142,150.298782 45.132599,150.002533 
	C48.698429,138.451675 48.713432,138.434586 38.691364,131.345459 
	C35.103542,128.807617 31.438587,126.378822 27.533096,123.672379 
z"/>
<path fill="#2E739E" opacity="1.000000" stroke="none" 
	d="
M110.954102,121.880257 
	C115.686302,122.253471 120.428436,122.534134 125.146301,123.040833 
	C127.343071,123.276779 129.492752,123.951164 131.848877,124.773140 
	C127.260284,128.772766 122.634674,132.645981 117.657738,135.997437 
	C114.638107,138.030853 113.439552,139.980347 115.126144,143.437469 
	C116.186546,145.611053 116.834969,147.985626 117.751328,150.628708 
	C114.722702,151.326904 111.594528,151.561691 108.505714,152.047058 
	C106.784859,152.317444 105.129547,153.004868 102.897705,153.591843 
	C100.780220,148.864029 99.299759,144.016830 97.610123,139.243698 
	C96.308357,135.566315 96.802940,132.261093 99.783478,129.843719 
	C103.328194,126.968750 107.215332,124.515968 110.954102,121.880257 
z"/>
<path fill="#3178A4" opacity="1.000000" stroke="none" 
	d="
M260.041016,109.356529 
	C272.231049,109.028503 284.573975,109.011604 297.374756,108.992966 
	C299.288849,113.492157 300.621277,118.038177 302.239166,122.480255 
	C303.618713,126.267975 302.844421,129.977676 299.554810,131.401657 
	C296.863251,132.566757 292.388245,132.660995 290.081451,131.140305 
	C279.847809,124.394028 270.110657,116.894623 260.041016,109.356529 
z"/>
<path fill="#3178A4" opacity="1.000000" stroke="none" 
	d="
M216.576141,108.164597 
	C221.624252,108.305542 226.359314,108.751709 231.104828,108.976387 
	C238.171646,109.310974 245.245834,109.489182 252.709106,109.894318 
	C243.498047,117.088509 233.884995,124.109024 224.297104,131.163712 
	C221.185715,133.453033 217.857834,133.851227 214.665756,131.762634 
	C211.480377,129.678421 210.590210,126.650810 211.891205,122.859550 
	C213.527618,118.090874 214.824417,113.205658 216.576141,108.164597 
z"/>
<path fill="#3D9BCA" opacity="1.000000" stroke="none" 
	d="
M253.113693,44.042480 
	C248.351074,43.687298 243.588470,43.332115 238.354797,42.969566 
	C239.862411,36.864178 241.841095,30.766153 243.994110,24.328403 
	C252.417587,23.989845 260.666748,23.991009 269.373840,23.990025 
	C271.888885,30.051207 273.945953,36.114536 276.046570,42.571980 
	C271.283020,43.219933 266.475891,43.473774 260.960266,43.685818 
	C259.286835,40.723583 258.321899,37.803150 257.076141,34.032906 
	C255.457794,38.121048 254.285751,41.081768 253.113693,44.042480 
z"/>
<path fill="#1C5981" opacity="1.000000" stroke="none" 
	d="
M109.125778,236.847626 
	C114.918922,237.045273 120.580940,237.531403 126.525055,238.339478 
	C120.576332,249.120758 114.345512,259.580109 108.114693,270.039459 
	C103.151314,269.975128 98.187927,269.910797 92.691124,269.782562 
	C97.770020,258.857819 103.382339,247.996964 109.125778,236.847626 
z"/>
<path fill="#2E739E" opacity="1.000000" stroke="none" 
	d="
M376.128357,121.411736 
	C378.574738,120.414932 381.163910,119.284256 383.819763,119.096260 
	C388.586945,118.758797 393.394257,118.987717 398.964661,119.118576 
	C404.224274,122.520630 408.642365,125.873604 413.204620,129.017349 
	C416.476654,131.272018 417.618713,134.351654 416.820221,137.991425 
	C416.279297,140.457016 414.999054,142.760406 414.049469,145.136353 
	C409.349579,144.486404 404.649658,143.836456 399.555908,143.090149 
	C399.412384,141.751480 399.662720,140.509186 400.022217,138.725250 
	C392.241150,133.141434 384.271179,127.422073 376.128357,121.411736 
z"/>
<path fill="#3787B5" opacity="1.000000" stroke="none" 
	d="
M291.754639,90.623245 
	C286.914093,90.989471 281.996368,90.990898 276.449371,90.648849 
	C275.228394,88.799782 274.564453,87.318054 274.057556,85.784424 
	C271.911591,79.291176 272.703613,76.456398 278.013519,72.539925 
	C281.937653,69.645607 286.008209,66.949821 290.013519,64.165573 
	C292.076569,64.777199 294.102875,65.632843 296.210266,65.949776 
	C300.635254,66.615265 305.102814,66.997665 309.798218,67.804070 
	C305.287872,71.763626 300.793518,75.844902 295.700928,78.942741 
	C290.897339,81.864777 288.684387,84.931244 291.754639,90.623245 
z"/>
<path fill="#276A94" opacity="1.000000" stroke="none" 
	d="
M391.653931,165.148376 
	C398.655090,165.283997 405.362366,165.546951 412.053436,166.033371 
	C416.229065,166.336914 420.380188,166.977707 424.790161,167.770966 
	C416.817841,174.073181 408.620483,180.103180 400.365997,186.053925 
	C397.206146,188.331909 393.782379,189.156204 390.301605,186.733124 
	C386.553375,184.123886 386.375000,180.707275 387.923584,176.662598 
	C389.326691,172.997955 390.229706,169.141846 391.653931,165.148376 
z"/>
<path fill="#388AB8" opacity="1.000000" stroke="none" 
	d="
M418.864929,81.959290 
	C421.063354,74.979042 423.090881,67.938072 425.539886,61.046871 
	C426.596893,58.072548 428.553802,55.758854 432.484924,55.896667 
	C436.243896,56.028439 438.794464,57.355061 439.991028,60.949108 
	C442.243195,67.713547 444.458282,74.490349 446.345947,81.642784 
	C436.957031,82.002136 427.910980,81.980713 418.864929,81.959290 
z"/>
<path fill="#3582AF" opacity="1.000000" stroke="none" 
	d="
M418.547760,82.162704 
	C427.910980,81.980713 436.957031,82.002136 446.418335,82.006332 
	C448.222015,86.385544 449.610504,90.781990 450.656128,95.782028 
	C445.502533,96.603821 440.691742,96.822006 435.577271,96.840660 
	C434.461243,94.296997 433.648926,91.952866 432.588867,88.893784 
	C431.130859,93.534332 429.960144,97.260567 428.789429,100.986801 
	C423.803070,100.983513 418.816742,100.980217 413.356750,100.969376 
	C414.665619,94.763252 416.448120,88.564690 418.547760,82.162704 
z"/>
<path fill="#2E739E" opacity="1.000000" stroke="none" 
	d="
M463.874908,120.964752 
	C471.355835,121.555107 478.836731,122.145462 486.709534,122.896347 
	C481.055634,127.509850 475.174438,132.215469 468.893433,136.307419 
	C465.829529,138.303513 465.302429,140.259323 466.749817,143.622833 
	C461.999237,144.804337 457.162750,145.617706 451.828613,146.543030 
	C450.862640,144.753555 450.484924,142.824295 449.909790,140.955765 
	C447.867615,134.321045 448.502167,131.710770 453.757538,127.766701 
	C457.003418,125.330711 460.494110,123.220955 463.874908,120.964752 
z"/>
<path fill="#276A94" opacity="1.000000" stroke="none" 
	d="
M440.048584,167.347198 
	C450.983673,167.021286 462.073151,167.001221 473.639008,166.975388 
	C475.405029,171.633179 477.322235,176.230530 477.823029,180.977325 
	C478.427551,186.707291 471.718903,190.452469 466.839111,187.108185 
	C457.773773,180.895462 449.062012,174.166855 440.048584,167.347198 
z"/>
<path fill="#3787B5" opacity="1.000000" stroke="none" 
	d="
M201.097443,66.430252 
	C204.992966,65.746780 209.026764,65.351341 213.065094,65.009628 
	C216.153824,64.748276 219.248306,64.554878 223.046219,64.157578 
	C227.621658,66.679825 231.499573,69.363708 235.358597,72.074478 
	C241.253128,76.215103 242.159317,79.060692 239.381027,85.994217 
	C234.007950,85.661919 229.087158,85.328156 224.166367,84.994385 
	C223.387711,83.794968 222.865997,82.246880 221.788559,81.452950 
	C215.006989,76.455826 208.101898,71.626320 201.097443,66.430252 
z"/>
<path fill="#388AB8" opacity="1.000000" stroke="none" 
	d="
M94.886520,80.608368 
	C86.167366,80.985710 77.499687,80.981293 68.355629,80.968719 
	C69.920723,74.307281 71.944458,67.648483 74.010429,61.002827 
	C75.218391,57.117180 78.033081,55.932545 81.923111,55.914227 
	C86.132240,55.894402 87.717384,58.821823 88.848083,61.822613 
	C91.124611,67.864380 92.935188,74.081711 94.886520,80.608368 
z"/>
<path fill="#337EAA" opacity="1.000000" stroke="none" 
	d="
M435.880981,97.040192 
	C440.691742,96.822006 445.502533,96.603821 450.670685,96.176666 
	C451.961609,100.132607 454.396576,101.284546 458.719238,101.134003 
	C470.035187,100.739929 481.376831,101.145370 492.702148,100.923065 
	C496.675201,100.845078 499.780975,101.658623 501.809265,105.643745 
	C483.429718,105.997147 464.993591,105.973457 446.557770,106.032150 
	C444.260773,106.039467 441.965179,106.483238 438.963989,106.663864 
	C437.466400,103.415359 436.673706,100.227776 435.880981,97.040192 
z"/>
<path fill="#3582AF" opacity="1.000000" stroke="none" 
	d="
M223.987427,85.336243 
	C229.087158,85.328156 234.007950,85.661919 239.318604,86.362976 
	C238.416397,90.484695 237.124329,94.239128 235.832260,97.993561 
	C230.910522,97.661423 225.988785,97.329277 220.617249,96.996231 
	C221.381119,93.222908 222.594803,89.450500 223.987427,85.336243 
z"/>
<path fill="#000000" opacity="1.000000" stroke="none" 
	d="
M108.050705,270.409790 
	C114.345512,259.580109 120.576332,249.120758 126.960526,238.351242 
	C137.008682,227.910599 146.903473,217.780121 156.952850,207.348206 
	C164.207687,202.653183 171.041489,197.728912 178.474075,193.997238 
	C188.267929,189.080048 198.532074,185.099548 208.811691,180.422333 
	C215.765381,178.703354 222.463867,177.058411 229.245514,175.900650 
	C242.080338,173.709518 254.938614,171.690170 268.034363,173.939255 
	C278.851013,175.796890 289.708191,177.418564 300.862091,179.331757 
	C318.521057,184.136932 334.378418,191.933746 349.535126,202.013306 
	C359.252777,210.527985 368.720032,218.899841 377.928345,227.547440 
	C380.754944,230.201950 382.872620,233.611374 385.591217,236.866226 
	C392.691040,248.578705 399.514587,260.100067 406.611145,271.830627 
	C409.732574,281.305450 412.849976,290.499634 415.335663,299.861542 
	C417.013611,306.181122 417.800842,312.737152 419.075745,319.588257 
	C419.108887,326.287384 419.464661,332.622314 418.908112,338.876038 
	C417.860352,350.649994 416.286346,362.377075 414.841980,374.526367 
	C410.463196,393.503143 401.504089,410.088318 392.524292,426.636261 
	C390.979065,429.483765 388.380798,431.759796 385.844727,434.744873 
	C384.684418,436.130890 383.948303,437.071838 383.212219,438.012756 
	C383.154419,438.171356 383.096619,438.329987 382.962067,438.729980 
	C379.130646,442.939209 375.541748,447.080933 371.594269,450.846710 
	C346.242767,475.030914 316.642181,490.795929 281.738220,496.083679 
	C238.172424,502.683624 198.516495,492.745728 162.571457,467.711792 
	C144.561310,455.168671 129.904739,439.317352 118.424576,420.167358 
	C107.842186,403.156342 101.130661,384.962830 97.030312,365.341064 
	C96.225395,353.683228 95.428444,342.376556 95.088837,331.056152 
	C94.927094,325.664368 95.635590,320.246460 95.892532,314.413391 
	C97.975258,299.046997 102.410202,284.753052 108.050705,270.409790 
M361.789886,231.363876 
	C352.747894,224.304214 343.705933,217.244568 334.177002,209.727432 
	C330.094940,207.293716 326.220520,204.378571 321.893646,202.512634 
	C306.182434,195.737335 290.134888,190.358856 272.829041,188.791794 
	C256.228699,187.288620 239.940628,187.903824 223.723282,191.612915 
	C201.943100,196.594299 182.260590,205.903992 164.266769,220.262253 
	C163.418823,221.049942 162.609177,221.884171 161.717148,222.618317 
	C148.917786,233.152222 138.212387,245.450439 129.809662,260.601318 
	C121.592911,274.019836 115.535423,288.279297 112.355148,304.425110 
	C109.745209,319.522156 107.370430,334.630493 110.047882,350.851807 
	C110.357231,353.470001 110.573364,356.103149 110.990898,358.703979 
	C113.953186,377.156403 119.599915,394.649109 129.808304,411.219269 
	C136.922882,424.138855 146.817642,434.773132 157.367966,444.888977 
	C169.599075,456.616516 183.784821,465.357025 199.295700,471.893890 
	C219.832169,480.548767 241.220749,484.042480 263.613525,483.182434 
	C283.351776,482.424347 301.843323,477.693909 319.666718,469.669708 
	C339.000885,460.965393 355.463623,448.238129 369.054718,432.152679 
	C375.822845,424.142456 380.962372,414.756195 387.207520,405.387939 
	C388.986572,401.899200 390.925781,398.481873 392.517487,394.909668 
	C400.302948,377.437012 404.134583,359.058502 404.943329,339.061157 
	C404.623871,331.777710 404.732758,324.442078 403.854004,317.226746 
	C403.104889,311.076050 401.219818,305.063690 399.920105,298.200500 
	C396.524231,283.324036 390.291718,269.674286 381.742249,256.285278 
	C375.199951,248.174240 368.657654,240.063202 361.789886,231.363876 
z"/>
<path fill="#000000" opacity="1.000000" stroke="none" 
	d="
M111.132401,121.592072 
	C107.215332,124.515968 103.328194,126.968750 99.783478,129.843719 
	C96.802940,132.261093 96.308357,135.566315 97.610123,139.243698 
	C99.299759,144.016830 100.780220,148.864029 102.655701,153.898453 
	C103.203499,155.529922 103.446312,156.942276 103.912689,159.654968 
	C98.810577,155.932892 94.425247,152.831268 90.145096,149.590714 
	C81.519119,143.059891 79.549225,144.157806 72.963898,149.376190 
	C69.001045,152.516449 64.698082,155.228531 60.529110,158.105698 
	C60.212852,158.323990 59.745796,158.323761 58.775379,158.571518 
	C59.515240,156.316711 60.109200,154.506561 60.762589,152.348358 
	C61.990871,148.099976 63.039894,144.158585 64.358421,140.309525 
	C66.068832,135.316467 64.939896,131.290817 60.679417,128.205963 
	C57.378162,125.815628 54.009716,123.518112 50.356998,121.031860 
	C48.334999,119.479691 46.627136,118.075020 44.096874,115.993935 
	C51.188248,115.993935 57.276314,115.994370 63.364384,115.993843 
	C71.926765,115.993111 72.974449,115.226677 75.538498,106.944107 
	C76.067017,105.236839 76.476913,103.492859 76.887833,101.377632 
	C78.263763,97.270073 79.693352,93.550674 81.505722,88.835388 
	C82.951134,93.743362 84.125679,97.731598 85.624603,101.927803 
	C86.897209,105.220665 87.715416,108.353340 88.827339,111.378052 
	C90.145683,114.964287 93.084068,116.038292 96.679558,116.008865 
	C103.526070,115.952843 110.373360,115.992630 118.736786,115.992630 
	C115.400330,118.378914 113.355515,119.841400 111.132401,121.592072 
z"/>
<path fill="#000000" opacity="1.000000" stroke="none" 
	d="
M435.577271,96.840668 
	C436.673706,100.227776 437.466400,103.415359 438.569366,106.819778 
	C440.615417,114.780052 442.079346,115.987541 449.766144,115.992989 
	C456.137665,115.997498 462.509216,115.993904 469.990967,115.993904 
	C467.444031,117.910942 465.818787,119.134262 464.034210,120.661163 
	C460.494110,123.220955 457.003418,125.330711 453.757538,127.766701 
	C448.502167,131.710770 447.867615,134.321045 449.909790,140.955765 
	C450.484924,142.824295 450.862640,144.753555 451.644836,146.885681 
	C452.950592,150.725235 453.942444,154.334076 455.347015,159.444717 
	C449.698181,155.454453 444.956696,152.308167 440.440277,148.866562 
	C433.887573,143.873276 432.456665,143.780869 425.801910,148.561035 
	C420.896332,152.084747 415.919495,155.509323 409.814972,159.791351 
	C411.457764,154.357742 412.735107,150.132812 414.030945,145.522110 
	C414.999054,142.760406 416.279297,140.457016 416.820221,137.991425 
	C417.618713,134.351654 416.476654,131.272018 413.204620,129.017349 
	C408.642365,125.873604 404.224274,122.520630 399.441864,119.110123 
	C398.275238,118.273201 397.411255,117.583344 395.420776,115.994011 
	C402.498016,115.994011 408.382172,115.994568 414.266327,115.993866 
	C423.082886,115.992821 424.176636,115.201347 426.960144,106.807961 
	C427.523590,105.108917 428.083191,103.408600 428.717010,101.347839 
	C429.960144,97.260567 431.130859,93.534332 432.588867,88.893784 
	C433.648926,91.952866 434.461243,94.296997 435.577271,96.840668 
z"/>
<path fill="#000000" opacity="1.000000" stroke="none" 
	d="
M235.882263,98.346695 
	C237.124329,94.239128 238.416397,90.484695 239.770905,86.361511 
	C242.159317,79.060692 241.253128,76.215103 235.358597,72.074478 
	C231.499573,69.363708 227.621658,66.679825 223.398743,63.933113 
	C222.297775,63.079292 221.550262,62.276260 220.356232,60.993530 
	C226.925751,60.993530 233.157684,61.005901 239.389542,60.990334 
	C246.808319,60.971802 249.287781,58.973682 251.024857,51.818775 
	C251.595963,49.466526 252.354218,47.159725 253.070297,44.437309 
	C254.285751,41.081768 255.457794,38.121048 257.076141,34.032906 
	C258.321899,37.803150 259.286835,40.723583 260.567566,43.842117 
	C262.113434,48.060734 263.248199,52.113605 264.599701,56.092865 
	C266.012787,60.253372 269.680511,60.860394 273.336243,60.950146 
	C279.610260,61.104179 285.890808,60.992722 293.012177,60.992722 
	C291.927277,62.303368 291.283691,63.080837 290.326843,64.011940 
	C286.008209,66.949821 281.937653,69.645607 278.013519,72.539925 
	C272.703613,76.456398 271.911591,79.291176 274.057556,85.784424 
	C274.564453,87.318054 275.228394,88.799782 275.993469,90.646294 
	C277.296753,95.160645 278.426605,99.334084 279.809204,104.441124 
	C273.571625,99.965446 268.053345,96.112221 262.655731,92.096794 
	C258.854980,89.269318 255.248489,89.184402 251.434708,92.025681 
	C245.998367,96.075760 240.479004,100.014412 234.188828,104.586754 
	C234.957382,101.991592 235.444824,100.345711 235.882263,98.346695 
z"/>
<path fill="#0A446A" opacity="1.000000" stroke="none" 
	d="
M383.542053,437.956299 
	C383.948303,437.071838 384.684418,436.130890 385.689911,435.044067 
	C385.263519,435.898712 384.567719,436.899292 383.542053,437.956299 
z"/>
<path fill="#0B456B" opacity="1.000000" stroke="none" 
	d="
M386.838593,405.992401 
	C380.962372,414.756195 375.822845,424.142456 369.054718,432.152679 
	C355.463623,448.238129 339.000885,460.965393 319.666718,469.669708 
	C301.843323,477.693909 283.351776,482.424347 263.613525,483.182434 
	C241.220749,484.042480 219.832169,480.548767 199.295700,471.893890 
	C183.784821,465.357025 169.599075,456.616516 157.367966,444.888977 
	C146.817642,434.773132 136.922882,424.138855 130.004456,410.538544 
	C132.291901,409.239105 134.350952,408.452637 136.482437,408.043091 
	C139.304611,407.500885 142.183411,407.253540 145.308472,407.089966 
	C147.465042,410.008453 149.229462,412.811340 151.256805,415.408966 
	C164.299454,432.120422 180.052460,445.650543 199.214172,454.834564 
	C224.888092,467.139801 251.827393,471.222656 279.982300,466.054047 
	C305.677063,461.337067 328.505249,450.670990 347.105194,432.156250 
	C355.281647,424.017273 362.316559,414.731476 370.345337,405.973236 
	C376.160095,405.984192 381.499329,405.988312 386.838593,405.992401 
z"/>
<path fill="#22628B" opacity="1.000000" stroke="none" 
	d="
M164.849091,219.947617 
	C182.260590,205.903992 201.943100,196.594299 223.723282,191.612915 
	C239.940628,187.903824 256.228699,187.288620 272.829041,188.791794 
	C290.134888,190.358856 306.182434,195.737335 321.893646,202.512634 
	C326.220520,204.378571 330.094940,207.293716 334.043274,210.266296 
	C328.178589,211.203690 322.430908,211.449448 316.724915,212.075470 
	C314.419525,212.328400 312.205292,213.412308 309.583923,214.046738 
	C296.189789,208.756088 282.869202,205.162628 268.755127,203.772766 
	C256.065125,202.523132 243.743469,203.463455 231.394974,205.826324 
	C215.890732,208.793091 201.407623,214.491760 187.314697,222.425262 
	C179.483871,221.538712 172.166473,220.743164 164.849091,219.947617 
z"/>
<path fill="#0D476E" opacity="1.000000" stroke="none" 
	d="
M387.023071,405.690186 
	C381.499329,405.988312 376.160095,405.984192 370.422546,405.619232 
	C371.664795,402.221130 373.406067,399.233490 374.929169,396.138458 
	C383.641357,378.434937 389.168121,359.914581 389.584778,339.995239 
	C394.977417,339.994965 399.911407,339.991669 404.845428,339.988403 
	C404.134583,359.058502 400.302948,377.437012 392.517487,394.909668 
	C390.925781,398.481873 388.986572,401.899200 387.023071,405.690186 
z"/>
<path fill="#0D476E" opacity="1.000000" stroke="none" 
	d="
M145.037888,406.879456 
	C142.183411,407.253540 139.304611,407.500885 136.482437,408.043091 
	C134.350952,408.452637 132.291901,409.239105 129.934357,410.201355 
	C119.599915,394.649109 113.953186,377.156403 110.990898,358.703979 
	C110.573364,356.103149 110.357231,353.470001 110.517784,350.426605 
	C115.604401,349.997009 120.221107,349.992615 124.936813,350.390442 
	C125.535423,353.879639 125.925697,356.988953 126.552841,360.049774 
	C129.972061,376.737244 136.290771,392.290039 145.037888,406.879456 
z"/>
<path fill="#1C5981" opacity="1.000000" stroke="none" 
	d="
M164.557922,220.104935 
	C172.166473,220.743164 179.483871,221.538712 187.156693,222.545441 
	C187.512131,222.756622 187.157654,222.577957 186.996689,222.816895 
	C186.569534,223.328857 186.303329,223.601883 185.728485,224.034393 
	C170.864014,233.934113 158.324677,245.772537 147.644989,260.032715 
	C141.501266,260.014526 135.832779,260.004181 130.164307,259.993805 
	C138.212387,245.450439 148.917786,233.152222 161.717148,222.618317 
	C162.609177,221.884171 163.418823,221.049942 164.557922,220.104935 
z"/>
<path fill="#18557B" opacity="1.000000" stroke="none" 
	d="
M129.986984,260.297546 
	C135.832779,260.004181 141.501266,260.014526 147.487503,260.342285 
	C147.079361,261.755280 146.312195,262.825989 145.633850,263.950256 
	C137.525116,277.389465 130.666443,291.348694 127.424118,306.877075 
	C123.989143,306.522797 120.915062,306.446991 117.919563,305.922394 
	C116.197159,305.620758 114.602043,304.592224 112.949631,303.890900 
	C115.535423,288.279297 121.592911,274.019836 129.986984,260.297546 
z"/>
<path fill="#104D74" opacity="1.000000" stroke="none" 
	d="
M112.652390,304.158020 
	C114.602043,304.592224 116.197159,305.620758 117.919563,305.922394 
	C120.915062,306.446991 123.989143,306.522797 127.333862,307.258759 
	C126.757515,314.917603 125.571571,322.083832 125.085846,329.297241 
	C124.623138,336.168610 124.891098,343.089233 124.837822,349.988220 
	C120.221107,349.992615 115.604401,349.997009 110.575119,349.994446 
	C107.370430,334.630493 109.745209,319.522156 112.652390,304.158020 
z"/>
<path fill="#18557B" opacity="1.000000" stroke="none" 
	d="
M382.055573,256.891052 
	C390.291718,269.674286 396.524231,283.324036 399.423523,298.597870 
	C394.011353,298.989960 389.095764,298.984711 384.115662,298.593628 
	C380.126312,283.992889 373.154480,271.245514 365.618164,258.992004 
	C371.401031,258.293365 376.728302,257.592194 382.055573,256.891052 
z"/>
<path fill="#104D74" opacity="1.000000" stroke="none" 
	d="
M384.180176,298.979462 
	C389.095764,298.984711 394.011353,298.989960 399.382111,298.992676 
	C401.219818,305.063690 403.104889,311.076050 403.854004,317.226746 
	C404.732758,324.442078 404.623871,331.777710 404.894379,339.524780 
	C399.911407,339.991669 394.977417,339.994965 389.575378,339.594788 
	C389.071899,335.645874 389.420380,332.046143 388.927979,328.565338 
	C387.529205,318.677368 385.787109,308.837982 384.180176,298.979462 
z"/>
<path fill="#1F5F87" opacity="1.000000" stroke="none" 
	d="
M309.949585,214.118073 
	C312.205292,213.412308 314.419525,212.328400 316.724915,212.075470 
	C322.430908,211.449448 328.178589,211.203690 334.286743,210.495026 
	C343.705933,217.244568 352.747894,224.304214 361.558899,231.816833 
	C359.226166,232.513397 357.128723,232.806549 355.021698,232.990265 
	C350.647217,233.371704 346.267700,233.695084 341.596313,233.885376 
	C330.851440,227.191666 320.400513,220.654861 309.949585,214.118073 
z"/>
<path fill="#1C5981" opacity="1.000000" stroke="none" 
	d="
M341.890228,234.042313 
	C346.267700,233.695084 350.647217,233.371704 355.021698,232.990265 
	C357.128723,232.806549 359.226166,232.513397 361.721649,232.110992 
	C368.657654,240.063202 375.199951,248.174240 381.898926,256.588165 
	C376.728302,257.592194 371.401031,258.293365 365.450012,258.693176 
	C357.180908,250.275284 349.535583,242.158798 341.890228,234.042313 
z"/>
<path fill="#000000" opacity="1.000000" stroke="none" 
	d="
M341.596313,233.885376 
	C349.535583,242.158798 357.180908,250.275284 364.994385,258.690613 
	C373.154480,271.245514 380.126312,283.992889 384.115662,298.593628 
	C385.787109,308.837982 387.529205,318.677368 388.927979,328.565338 
	C389.420380,332.046143 389.071899,335.645874 389.116760,339.591766 
	C389.168121,359.914581 383.641357,378.434937 374.929169,396.138458 
	C373.406067,399.233490 371.664795,402.221130 369.947021,405.612366 
	C362.316559,414.731476 355.281647,424.017273 347.105194,432.156250 
	C328.505249,450.670990 305.677063,461.337067 279.982300,466.054047 
	C251.827393,471.222656 224.888092,467.139801 199.214172,454.834564 
	C180.052460,445.650543 164.299454,432.120422 151.256805,415.408966 
	C149.229462,412.811340 147.465042,410.008453 145.308472,407.089966 
	C136.290771,392.290039 129.972061,376.737244 126.552841,360.049774 
	C125.925697,356.988953 125.535423,353.879639 124.936813,350.390442 
	C124.891098,343.089233 124.623138,336.168610 125.085846,329.297241 
	C125.571571,322.083832 126.757515,314.917603 127.727707,307.349060 
	C130.666443,291.348694 137.525116,277.389465 145.633850,263.950256 
	C146.312195,262.825989 147.079361,261.755280 147.962769,260.350128 
	C158.324677,245.772537 170.864014,233.934113 186.035309,223.959351 
	C186.819733,223.342529 186.988708,222.960251 187.157654,222.577972 
	C187.157654,222.577957 187.512131,222.756622 187.670135,222.636444 
	C201.407623,214.491760 215.890732,208.793091 231.394974,205.826324 
	C243.743469,203.463455 256.065125,202.523132 268.755127,203.772766 
	C282.869202,205.162628 296.189789,208.756088 309.583923,214.046738 
	C320.400513,220.654861 330.851440,227.191666 341.596313,233.885376 
M293.940247,262.123352 
	C294.273804,254.176422 291.322845,247.420074 286.627991,241.188004 
	C275.527618,226.453156 253.109177,227.407700 245.444458,243.379150 
	C240.693359,253.279266 237.078918,263.724854 232.393570,274.381775 
	C230.580002,278.806854 229.053329,283.384338 226.821060,287.587006 
	C225.836395,289.440857 223.618942,291.202972 221.602371,291.805084 
	C218.997314,292.582855 216.612747,292.128784 214.733475,288.840881 
	C210.294983,281.075500 199.908936,277.211761 191.951279,279.510132 
	C181.028687,282.664856 175.055267,290.000916 175.017715,300.514557 
	C174.988586,308.671539 175.113205,316.829071 175.050430,325.919128 
	C175.089783,341.276459 175.129120,356.633789 175.054550,372.923401 
	C175.038147,383.753052 174.971512,394.582916 175.020554,405.412292 
	C175.063110,414.811127 181.058701,423.909058 189.215424,426.079712 
	C199.263779,428.753845 207.923660,426.955200 214.086060,417.688538 
	C215.854385,415.029449 217.981354,413.885101 221.390610,413.902649 
	C251.547165,414.057800 281.704895,414.011658 311.862213,413.981659 
	C323.505157,413.970093 334.508881,406.078766 337.465576,394.815918 
	C339.850525,385.731018 341.256195,376.389038 343.698914,366.637482 
	C346.744141,351.087616 349.789368,335.537750 352.930420,319.166901 
	C350.646698,300.194061 340.328705,291.006165 321.291046,290.998444 
	C311.645569,290.994537 301.999695,291.043060 292.355011,290.955536 
	C290.627838,290.939911 288.905609,290.375092 287.742645,289.592499 
	C288.232819,287.861694 288.810120,286.150116 289.197937,284.396667 
	C290.774506,277.268158 292.292877,270.126831 293.940247,262.123352 
z"/>
<path fill="#22628B" opacity="1.000000" stroke="none" 
	d="
M186.996704,222.816895 
	C186.988708,222.960251 186.819733,223.342529 186.343948,223.799866 
	C186.303329,223.601883 186.569534,223.328857 186.996704,222.816895 
z"/>
<path fill="#0D476E" opacity="1.000000" stroke="none" 
	d="
M343.096313,367.161102 
	C341.256195,376.389038 339.850525,385.731018 337.465576,394.815918 
	C334.508881,406.078766 323.505157,413.970093 311.862213,413.981659 
	C281.704895,414.011658 251.547165,414.057800 221.390610,413.902649 
	C217.981354,413.885101 215.854385,415.029449 214.086060,417.688538 
	C207.923660,426.955200 199.263779,428.753845 189.215424,426.079712 
	C181.058701,423.909058 175.063110,414.811127 175.020554,405.412292 
	C174.971512,394.582916 175.038147,383.753052 175.557648,372.459045 
	C181.036453,371.985504 186.306732,372.989563 189.889343,368.457336 
	C189.964035,379.908539 189.972488,390.893524 190.001938,401.878418 
	C190.018723,408.136383 192.503311,411.970062 196.498535,411.970764 
	C200.494980,411.971466 202.975281,408.138031 202.998199,401.880890 
	C203.014053,397.553406 202.987030,393.225800 202.999496,388.898285 
	C203.050293,371.258362 203.108963,353.618439 203.574463,335.968323 
	C208.600998,335.964874 213.217804,335.971588 217.896576,336.445129 
	C217.973419,356.036774 218.009201,375.161652 217.979721,394.286469 
	C217.975510,397.023712 218.066742,399.063934 221.812546,399.050507 
	C251.248383,398.945129 280.685089,399.065308 310.120728,398.931274 
	C316.912109,398.900330 321.504944,394.831787 323.110168,388.152405 
	C324.880463,380.785950 326.487885,373.380341 328.621094,365.993469 
	C333.749420,366.383820 338.422852,366.772461 343.096313,367.161102 
z"/>
<path fill="#155178" opacity="1.000000" stroke="none" 
	d="
M217.834610,335.978333 
	C213.217804,335.971588 208.600998,335.964874 203.527130,335.503296 
	C203.046112,324.386505 203.052078,313.724396 202.985229,303.062714 
	C202.953064,297.929749 199.883865,293.932983 196.278946,294.130951 
	C192.770004,294.323700 190.072876,298.092560 190.009048,303.003113 
	C189.922440,309.664429 189.887817,316.326447 189.466919,323.084229 
	C184.458435,323.782349 179.813950,324.384369 175.169464,324.986389 
	C175.113205,316.829071 174.988586,308.671539 175.017715,300.514557 
	C175.055267,290.000916 181.028687,282.664856 191.951279,279.510132 
	C199.908936,277.211761 210.294983,281.075500 214.733475,288.840881 
	C216.612747,292.128784 218.997314,292.582855 221.602371,291.805084 
	C223.618942,291.202972 225.836395,289.440857 226.821060,287.587006 
	C229.053329,283.384338 230.580002,278.806854 232.986053,274.345734 
	C238.755859,274.219116 243.933182,274.128510 249.050034,274.406891 
	C246.012772,281.918976 242.812454,288.979523 240.133133,296.232544 
	C238.150665,301.599182 234.425766,304.646118 229.167725,305.923767 
	C225.701233,306.766052 222.096558,307.039673 217.834610,307.675140 
	C217.834610,317.128540 217.834610,326.553436 217.834610,335.978333 
z"/>
<path fill="#155178" opacity="1.000000" stroke="none" 
	d="
M287.181122,290.063843 
	C288.905609,290.375092 290.627838,290.939911 292.355011,290.955536 
	C301.999695,291.043060 311.645569,290.994537 321.291046,290.998444 
	C340.328705,291.006165 350.646698,300.194061 352.476685,319.621857 
	C347.070679,320.380951 342.118378,320.685120 337.115082,320.574646 
	C336.754730,310.954742 332.667389,307.007721 323.402344,307.002258 
	C308.238281,306.993317 293.074097,307.037079 277.910248,306.978729 
	C271.924347,306.955688 267.038177,302.234741 268.318420,297.594055 
	C269.139282,294.618530 270.663971,291.837158 272.341553,288.974976 
	C277.600372,289.342041 282.390747,289.702972 287.181122,290.063843 
z"/>
<path fill="#1C5981" opacity="1.000000" stroke="none" 
	d="
M249.110519,274.037933 
	C243.933182,274.128510 238.755859,274.219116 233.266388,274.117615 
	C237.078918,263.724854 240.693359,253.279266 245.444458,243.379150 
	C253.109177,227.407700 275.527618,226.453156 286.627991,241.188004 
	C291.322845,247.420074 294.273804,254.176422 293.431549,262.558868 
	C288.004333,262.993439 283.085846,262.992462 278.113159,262.582275 
	C276.409851,257.987305 275.576202,253.170883 272.933289,249.753876 
	C268.177948,243.605881 261.344574,245.176346 258.293365,252.420166 
	C255.254211,259.635284 252.173172,266.832733 249.110519,274.037933 
z"/>
<path fill="#0F4C72" opacity="1.000000" stroke="none" 
	d="
M337.166077,320.989288 
	C342.118378,320.685120 347.070679,320.380951 352.428802,320.032349 
	C349.789368,335.537750 346.744141,351.087616 343.397614,366.899292 
	C338.422852,366.772461 333.749420,366.383820 328.581451,365.588837 
	C331.113312,350.451447 334.139709,335.720367 337.166077,320.989288 
z"/>
<path fill="#0F4C72" opacity="1.000000" stroke="none" 
	d="
M175.109955,325.452759 
	C179.813950,324.384369 184.458435,323.782349 189.526703,323.550537 
	C189.910965,338.610809 189.871429,353.300934 189.831909,367.991028 
	C186.306732,372.989563 181.036453,371.985504 175.614594,371.992889 
	C175.129120,356.633789 175.089783,341.276459 175.109955,325.452759 
z"/>
<path fill="#18557B" opacity="1.000000" stroke="none" 
	d="
M278.167328,262.991516 
	C283.085846,262.992462 288.004333,262.993439 293.377808,262.992310 
	C292.292877,270.126831 290.774506,277.268158 289.197937,284.396667 
	C288.810120,286.150116 288.232819,287.861694 287.461884,289.828186 
	C282.390747,289.702972 277.600372,289.342041 272.395447,288.587402 
	C274.043060,279.792969 276.105194,271.392242 278.167328,262.991516 
z"/>
<path fill="#000000" opacity="1.000000" stroke="none" 
	d="
M278.113159,262.582275 
	C276.105194,271.392242 274.043060,279.792969 271.927002,288.581238 
	C270.663971,291.837158 269.139282,294.618530 268.318420,297.594055 
	C267.038177,302.234741 271.924347,306.955688 277.910248,306.978729 
	C293.074097,307.037079 308.238281,306.993317 323.402344,307.002258 
	C332.667389,307.007721 336.754730,310.954742 337.115112,320.574646 
	C334.139709,335.720367 331.113312,350.451447 328.126587,365.587158 
	C326.487885,373.380341 324.880463,380.785950 323.110168,388.152405 
	C321.504944,394.831787 316.912109,398.900330 310.120728,398.931274 
	C280.685089,399.065308 251.248383,398.945129 221.812546,399.050507 
	C218.066742,399.063934 217.975510,397.023712 217.979721,394.286469 
	C218.009201,375.161652 217.973419,356.036774 217.896576,336.445129 
	C217.834610,326.553436 217.834610,317.128540 217.834610,307.675140 
	C222.096558,307.039673 225.701233,306.766052 229.167725,305.923767 
	C234.425766,304.646118 238.150665,301.599182 240.133133,296.232544 
	C242.812454,288.979523 246.012772,281.918976 249.050034,274.406891 
	C252.173172,266.832733 255.254211,259.635284 258.293365,252.420166 
	C261.344574,245.176346 268.177948,243.605881 272.933289,249.753876 
	C275.576202,253.170883 276.409851,257.987305 278.113159,262.582275 
z"/>
<path fill="#000000" opacity="1.000000" stroke="none" 
	d="
M189.889359,368.457336 
	C189.871429,353.300934 189.910965,338.610809 189.890701,323.454437 
	C189.887817,316.326447 189.922440,309.664429 190.009048,303.003113 
	C190.072876,298.092560 192.770004,294.323700 196.278946,294.130951 
	C199.883865,293.932983 202.953064,297.929749 202.985229,303.062714 
	C203.052078,313.724396 203.046112,324.386505 203.117401,335.513489 
	C203.108963,353.618439 203.050293,371.258362 202.999496,388.898285 
	C202.987030,393.225800 203.014053,397.553406 202.998199,401.880890 
	C202.975281,408.138031 200.494980,411.971466 196.498535,411.970764 
	C192.503311,411.970062 190.018723,408.136383 190.001938,401.878418 
	C189.972488,390.893524 189.964035,379.908539 189.889359,368.457336 
z"/>
</svg>