<svg xmlns="http://www.w3.org/2000/svg" viewBox="0 0 540.79 506.43">
  <defs>
    <style>
      .cls-1 {
        fill: #f4f0ff;
      }

      .cls-2 {
        fill: #0284c7;
      }

      .cls-3 {
        fill: #075985;
      }
    </style>
  </defs>
  <g id="Layer_2" data-name="Layer 2">
    <g id="Ñëîé_1" data-name="Ñëîé 1">
      <g>
        <path class="cls-1" d="M155.22,281s-6.15-26.51-8-112.29c0,0-.85-70.67,7.31-90.54,0,0,74.44-.81,117-25.5S342,4.54,342,4.54s41.21,40.51,94.1,58.25,94,16.14,94,16.14,14.54,133-1.87,209.07-27.62,103.07-74.78,144.73S337.4,500.11,337.4,500.11l-45.86-25.73Z"/>
        <path class="cls-2" d="M76.64,486.58,95.83,489l22,12.15H283.1s13.68-6.32,12.91-18.32-11-19.65-11-19.65,21.94-2.46,20.44-21.06-11.78-22.17-11.78-22.17,24.72-3.82,20.64-25.48-16.88-22.8-16.88-22.8S319,358.34,316.57,342.2s-15.38-28.2-27.78-29.9H215.21s18.11-31.45,29-49.91,8.95-52.93-4-68.42-26.64-13.68-26.64-13.68,0,42.47-21.63,65.12-29.29,26.29-50.49,55.72-35.95,48-35.95,48l-27.48,2Z"/>
        <g>
          <rect class="cls-1" x="6.66" y="343.21" width="71.21" height="151.4" transform="translate(7.45 -0.69) rotate(1.02)"/>
          <path class="cls-3" d="M76.53,500.55h-.1l-71.2-1.26A5.33,5.33,0,0,1,0,493.87L2.69,342.5a5.31,5.31,0,0,1,1.62-3.74,6.06,6.06,0,0,1,3.79-1.49l71.21,1.26A5.32,5.32,0,0,1,84.53,344L81.85,495.32A5.32,5.32,0,0,1,76.53,500.55ZM10.74,488.74l60.56,1.07,2.5-140.72L13.24,348Z"/>
        </g>
        <path class="cls-3" d="M340.24,506.43a5.34,5.34,0,0,1-1.66-.27c-.79-.26-19.74-6.53-45.62-20.79a5.32,5.32,0,1,1,5.13-9.33c25,13.75,43.62,19.95,43.8,20a5.32,5.32,0,0,1-1.65,10.38Z"/>
        <path class="cls-3" d="M339.34,464.89a3.66,3.66,0,0,1-1.16-.19c-.59-.19-14.69-4.86-34.73-15.59a3.73,3.73,0,1,1,3.53-6.57c19.4,10.4,33.39,15,33.52,15.08a3.73,3.73,0,0,1-1.16,7.27Z"/>
        <path class="cls-3" d="M468.6,160.56a5.64,5.64,0,0,0-8-.49L341.28,265.31l-70.15-57.4c-5-4.34-12.28,2.93-7.95,8l67.25,81.62a14.66,14.66,0,0,0,22.53,0L468.58,168.05A5.66,5.66,0,0,0,468.6,160.56Z"/>
        <path class="cls-3" d="M42.1,499.94H42a5.32,5.32,0,0,1-5.23-5.41l2.69-151.38a5.25,5.25,0,0,1,5.42-5.23,5.33,5.33,0,0,1,5.23,5.42l-2.7,151.37A5.32,5.32,0,0,1,42.1,499.94Z"/>
        <path class="cls-3" d="M535.28,76.57a5.42,5.42,0,0,0-5.43-4.72c-114.23,3.25-184-69.47-184.67-70.2,0,0-.1-.06-.14-.1s-.06-.1-.1-.14A4.35,4.35,0,0,0,344.2,1a5.07,5.07,0,0,0-.91-.56,5.31,5.31,0,0,0-1-.24,5.11,5.11,0,0,0-.94-.15,5.44,5.44,0,0,0-1.12.18,5.11,5.11,0,0,0-.86.2,5.47,5.47,0,0,0-1,.61,5.43,5.43,0,0,0-.68.42s-.05.09-.09.13-.11.06-.16.11c-.68.73-70.17,73.28-184.65,70.2a5.28,5.28,0,0,0-5.43,4.71c-.13,1.1-12.49,110.42.65,205a63.47,63.47,0,0,0-4.27,6.09c-7.82,13.28-25.64,38.3-35.57,52a18.51,18.51,0,0,1-15,7.61H79a5.32,5.32,0,1,0,0,10.64h14.2a29.19,29.19,0,0,0,23.58-12c10-13.88,28.07-39.21,36.11-52.86,5.12-8.68,14.92-17.61,24.4-26.24,10.84-9.88,21.08-19.21,25.46-28.86,6.35-14,13.31-39,16-51.46,9.91,3.54,31.91,15,28,46.21-2.74,21.74-13.21,37.52-21.61,50.21-6.58,9.93-12.37,18.68-12.72,27.71a5.21,5.21,0,0,0-1.19,3.21,5.32,5.32,0,0,0,5.33,5.32h71.7a24.31,24.31,0,0,1,0,48.62h-71.7a5.32,5.32,0,1,0,0,10.64h71.7c.73,0,1.41-.17,2.12-.21.17,0,.32.1.5.1,10.44,0,19.26,8.66,19.26,18.91A18.82,18.82,0,0,1,291.28,416H209.69a5.32,5.32,0,0,0,0,10.64h74.15a16.25,16.25,0,1,1,0,32.5H200.41a5.33,5.33,0,0,0,0,10.65h76.92a13,13,0,1,1,0,26H117.85a9.41,9.41,0,0,1-5-1.4l-10.83-6.67a27.18,27.18,0,0,0-13-4l-12.14-.52a5.4,5.4,0,0,0-5.54,5.09,5.31,5.31,0,0,0,5.09,5.54l12.14.53a16.51,16.51,0,0,1,7.92,2.43l10.83,6.66a20,20,0,0,0,10.54,3H277.33A23.52,23.52,0,0,0,295,467.28a26.77,26.77,0,0,0,8-43.13,29.34,29.34,0,0,0,4.31-51.52,34.92,34.92,0,0,0-19.18-64.13H223.41c1.21-5.52,5.4-12,10.53-19.71,9-13.61,20.24-30.55,23.31-54.75,2.12-16.79-1.76-30.92-11.52-42-11.42-13-28-17.54-31.22-17.54a5.33,5.33,0,0,0-5.31,4.84c-.5,5.52-8.59,37.51-16.16,54.21-1.83,4-5.48,8.45-9.89,13-4.53-60.88.72-122.35,2.16-137.22h2.84c84.54,0,139.62-47.09,152.08-58.88,12.53,11.89,68.46,59.88,154.94,58.87,2.53,25.6,16.66,189.62-29.37,253.73C416,432.42,339,457.36,338.22,457.61a3.73,3.73,0,0,0,1.12,7.28,4,4,0,0,0,1.12-.17c.8-.25,80.1-25.87,131.39-97.32s31.25-254.54,30.37-262.29a3.68,3.68,0,0,0-3.8-3.31C401.81,104.48,343.54,43.31,343,42.69c0,0-.08,0-.11-.06s0-.08-.06-.11c-.34-.33-.82-.3-1.23-.47a3.72,3.72,0,0,0-1.32-.49,3.67,3.67,0,0,0-1.31.49c-.41.17-.88.14-1.23.47,0,0,0,.08-.05.11s-.09,0-.12.06c-.58.62-59.07,61.9-155.47,59.11a3.61,3.61,0,0,0-3.8,3.32c-.09.77-8.2,75.95-2,148.18-2,1.88-4.07,3.77-6.12,5.64-4.33,3.94-8.66,7.95-12.73,12-9.63-79.7-2.1-167.2,0-188.39,102.4.89,167.72-54.39,183.9-69.78,16.09,15.41,81.08,70.79,183.91,69.78,3.22,33,19.31,225.52-34.93,301.06C431.09,466.08,339.56,495.74,338.64,496a5.32,5.32,0,1,0,3.2,10.15c3.87-1.22,95.76-30.92,157.08-116.33C560.4,304.22,536.33,85.83,535.28,76.57Z"/>
      </g>
    </g>
  </g>
</svg>
