<svg xmlns="http://www.w3.org/2000/svg" viewBox="0 0 465.18 590.85">
  <defs>
    <style>
      .cls-1 {
        fill: #f4f0ff;
      }

      .cls-2 {
        fill: #937bec;
      }

      .cls-3 {
        fill: #6854b0;
      }
    </style>
  </defs>
  <g id="Layer_2" data-name="Layer 2">
    <g id="Ñëîé_1" data-name="Ñëîé 1">
      <g>
        <circle class="cls-1" cx="231.92" cy="321.26" r="162.87"/>
        <path class="cls-2" d="M371,109.35s-22.79,23.33-25.24,38.85-2.61,20.07-9.7,26.46a92,92,0,0,0-9.85,9.89s-40.77-21.65-50-21.59L263.62,174.5s-2.44,47.78-14.68,60.44-36.56,8.64-36.56,8.64L216,158.71s-28.75,1.61-50.64,12.43c0,0-8.11-30.19,4.21-41.89s55-36.82,55-36.82l65.91-43.51,17.19-14.19Z"/>
        <path class="cls-2" d="M353.49,541.1S343.8,510,331.31,500.42s-16.42-11.83-18.67-21.11a90.58,90.58,0,0,0-4-13.37s38.43-25.57,42.77-33.73l-4.17-16.55S306.34,390.8,301,374s9.78-36.27,9.78-36.27l72.92,43.56s12.26-26.06,13.14-50.47c0,0,30.43,7.23,34.86,23.62S438,420.37,438,420.37l7,78.67,4.3,21.87Z"/>
        <path class="cls-2" d="M111.05,541.1s9.69-31.14,22.18-40.68,16.42-11.83,18.67-21.11a90.58,90.58,0,0,1,4-13.37s-38.43-25.57-42.77-33.73l4.17-16.55S158.19,390.8,163.51,374s-9.78-36.27-9.78-36.27L80.8,381.29s-12.25-26.06-13.14-50.47c0,0-30.42,7.23-34.85,23.62s-6.23,65.93-6.23,65.93L19.63,499l-4.3,21.87Z"/>
        <g>
          <rect class="cls-1" x="334.44" y="7.68" width="45.33" height="101.6" transform="translate(670.71 -122.04) rotate(140.77)"/>
          <path class="cls-3" d="M371.67,117l-.48,0A4.82,4.82,0,0,1,368,115.2L303.7,36.49a4.82,4.82,0,0,1,.68-6.75L339.5,1.08a4.79,4.79,0,0,1,6.75.68L410.5,80.47a4.79,4.79,0,0,1-.68,6.74l-35.11,28.67A4.85,4.85,0,0,1,371.67,117ZM314.16,34.14l58.2,71.28L400,82.82,341.85,11.54Z"/>
        </g>
        <g>
          <rect class="cls-1" x="383.5" y="503.23" width="45.33" height="101.6" transform="translate(-59.22 1059.34) rotate(-101.11)"/>
          <path class="cls-3" d="M360.68,590.85A4.79,4.79,0,0,1,356,587l-8.74-44.48a4.8,4.8,0,0,1,3.79-5.63l99.7-19.58a4.81,4.81,0,0,1,5.63,3.79l8.73,44.48a4.8,4.8,0,0,1-3.79,5.62l-99.69,19.58A5,5,0,0,1,360.68,590.85Zm-3.1-45.5,6.88,35.08,90.29-17.74-6.88-35.06Z"/>
        </g>
        <g>
          <rect class="cls-1" x="36.35" y="503.23" width="45.33" height="101.6" transform="translate(-496.01 505.18) rotate(-78.89)"/>
          <path class="cls-3" d="M104.5,590.85a4.88,4.88,0,0,1-.93-.09L3.87,571.18a4.78,4.78,0,0,1-3.78-5.62l8.73-44.48a4.81,4.81,0,0,1,5.63-3.79l99.7,19.58a4.79,4.79,0,0,1,3.78,5.63L109.2,587a4.81,4.81,0,0,1-4.7,3.87ZM10.42,562.7l90.29,17.73,6.89-35.07L17.31,527.63Z"/>
        </g>
        <path class="cls-3" d="M388.65,103.1a4.8,4.8,0,0,1-3.72-1.76L320.68,22.63a4.79,4.79,0,0,1,7.43-6.06l64.25,78.7a4.79,4.79,0,0,1-3.71,7.83Z"/>
        <path class="cls-3" d="M356.17,567.88a4.8,4.8,0,0,1-.92-9.5L455,538.8a4.8,4.8,0,1,1,1.85,9.41l-99.71,19.58A4.86,4.86,0,0,1,356.17,567.88Z"/>
        <path class="cls-3" d="M109,567.88a5,5,0,0,1-.93-.09L8.38,548.21a4.8,4.8,0,0,1,1.85-9.41l99.7,19.58a4.8,4.8,0,0,1-.92,9.5Z"/>
        <path class="cls-3" d="M449.46,494.23,438.25,357.66a30.42,30.42,0,0,0-17.85-22.15l-19.53-8.46c.08-2,.3-4,.3-6a167.71,167.71,0,0,0-13.77-66.53,3.63,3.63,0,0,0-.1-.45c0-.1-.13-.16-.18-.26a169.69,169.69,0,0,0-54.46-68.24l6.22-6.18a31.39,31.39,0,0,0,9.27-20.64l.15-2.63c.36-6.74,1.12-20.76,25.1-42a4.79,4.79,0,1,0-6.36-7.17c-27,23.92-27.88,40.64-28.33,48.92l-.13,2.38a21.9,21.9,0,0,1-6.45,14.36l-7.42,7.37a168,168,0,0,0-40.09-19.2l17.48-15.23a30.86,30.86,0,0,0,10.55-22.07l.3-8a4.79,4.79,0,0,0-4.61-5,4.68,4.68,0,0,0-5,4.61l-.3,8a21.28,21.28,0,0,1-7.26,15.2l-35.25,30.69a4.79,4.79,0,0,0-1.58,2.84L251.57,217a28.91,28.91,0,0,1-32.23,24.1l-2.06-.26L224,120a4.78,4.78,0,0,0-4.52-5.05,4.66,4.66,0,0,0-5,4.51l-1.9,34.19a168.91,168.91,0,0,0-43.89,11.08l-1.43-16.67a20.75,20.75,0,0,1,7.2-17.63L289.59,56.22l21.76-17.78A4.79,4.79,0,1,0,305.28,31L284,48.48,168.79,122.72a30.43,30.43,0,0,0-11.13,26.2l1.72,20C102.42,196.05,64,253.92,64,321c0,2,.22,4,.29,6.05L44.79,335.5a30.6,30.6,0,0,0-17.94,22.68L15.8,493.7l-5.43,27.56a4.81,4.81,0,0,0,3.78,5.64,4.87,4.87,0,0,0,.93.08,4.8,4.8,0,0,0,4.7-3.86l5.5-28.1L36.34,359.49a20.83,20.83,0,0,1,12.25-15.18l16.18-7a164.88,164.88,0,0,0,10.47,44.11l-29.64,18a4.79,4.79,0,0,0,5,8.19L154,344.76l1.19,1.69a28.92,28.92,0,0,1-6,39.79L112.7,414.09a4.79,4.79,0,0,0-1.76,2.74l-10.46,45.54a21.22,21.22,0,0,1-10,13.57L83.56,480a4.8,4.8,0,0,0,4.83,8.29l6.94-4.06a30.86,30.86,0,0,0,14.5-19.7l5.23-22.77a167,167,0,0,0,35.68,26.83l-2.89,9.67a21.92,21.92,0,0,1-9.62,12.46L136,492.07c-6.89,4.18-21.2,12.86-29.58,47.91a4.79,4.79,0,1,0,9.32,2.23c7.45-31.16,19.46-38.44,25.44-42.07l2-1.24A31.39,31.39,0,0,0,157,481l2.42-8.06a168.63,168.63,0,0,0,146.27-.05l2.43,8.11A31.35,31.35,0,0,0,322,498.9l2.24,1.37c5.78,3.5,17.79,10.78,25.24,41.94a4.79,4.79,0,0,0,4.66,3.68,4.73,4.73,0,0,0,1.11-.13,4.79,4.79,0,0,0,3.55-5.78c-8.38-35.06-22.7-43.73-29.8-48l-2-1.24a21.85,21.85,0,0,1-9.63-12.46l-2.91-9.72a167.21,167.21,0,0,0,35.67-26.92l5.26,22.91a30.9,30.9,0,0,0,14.5,19.71l6.94,4a4.8,4.8,0,0,0,4.83-8.29l-6.94-4a21.34,21.34,0,0,1-10-13.58l-10.45-45.54a4.79,4.79,0,0,0-1.76-2.74l-36.41-27.85A28.92,28.92,0,0,1,310,346.45l1.19-1.69L414.6,407.62a4.79,4.79,0,0,0,5-8.19l-29.69-18.05a171.13,171.13,0,0,0,10.48-44.09l16.23,7A20.69,20.69,0,0,1,428.76,359L440,495.55l5.43,27.57a4.79,4.79,0,0,0,4.7,3.86,5,5,0,0,0,.93-.08,4.81,4.81,0,0,0,3.78-5.64ZM227.79,479.77c-42.37-1.23-81.24-18.48-110.19-49.08l2.3-10,35-26.8A38.48,38.48,0,0,0,163,340.91l-3.78-5.34a4.79,4.79,0,0,0-6.4-1.32L83.63,376.31a157.16,157.16,0,0,1-10-55.3A159.52,159.52,0,0,1,93.7,243.3l134.09,80.42ZM98.52,235A157.28,157.28,0,0,1,166,176.44a4.69,4.69,0,0,0,1-.43,158.58,158.58,0,0,1,45-12.57l-4.52,81.34a4.78,4.78,0,0,0,4.18,5l6.49.82a38.92,38.92,0,0,0,4.92.31,38.46,38.46,0,0,0,38-32.37L268.16,175l8-7a159.48,159.48,0,0,1,100.24,85.46L232.94,315.63Zm283,141.29-69.17-42.05a4.78,4.78,0,0,0-6.41,1.33l-3.77,5.34a38.47,38.47,0,0,0,8.06,52.94l35,26.8,2.3,10a156.72,156.72,0,0,1-110.2,49.1V324.16l142.81-61.82A158.18,158.18,0,0,1,391.59,321,161.23,161.23,0,0,1,381.54,376.3Z"/>
      </g>
    </g>
  </g>
</svg>
