<svg xmlns="http://www.w3.org/2000/svg" viewBox="0 0 642.05 633.83">
  <defs>
    <style>
      .cls-1 {
        fill: #f4f0ff;
      }

      .cls-2 {
        fill: #0284c7;
      }

      .cls-3 {
        fill: #075985;
      }
    </style>
  </defs>
  <g id="Layer_2" data-name="Layer 2">
    <g id="Ñëîé_1" data-name="Ñëîé 1">
      <g>
        <path class="cls-1" d="M128.62,322.84s-.09,66,36.3,110.25,51.53,43.3,64.94,57.61,24.4,26.89,26.49,42.45l116-.95s1.48-26.57,30.26-46.45,48.26-27.78,66.79-61.93a259.79,259.79,0,0,0,28.34-81.07L497.57,323Z"/>
        <path class="cls-1" d="M281,597.3h66.25S348,628.72,318,629.19C281,629.78,281,597.3,281,597.3Z"/>
        <path class="cls-2" d="M128.62,322.84l-.45-25.31,8.29-8.3,45.9-.67,15.48-39.25-31.42-30,.59-12.27,32.83-33.18,12.28.55,31.3,30.27,38.64-18.06-.42-38.14,10.62-12.27h38.56l14.41,9.65.76,43s27.93,7.31,40.42,16.62l27.52-29.17,11.79-2.69L462.62,213l-1.79,7.17L430.2,250l16.89,39.77,40.8,0,9.68,4.89v27.54Z"/>
        <path class="cls-1" d="M409.4,321.38l-190.09,1.46s-3.72-50.45,32-74.37c29.79-19.94,47.8-25.58,77.08-21.26s56.69,25.5,66.27,42.26S410.31,312.08,409.4,321.38Z"/>
        <path class="cls-3" d="M389.89,327.45H239.41A4.46,4.46,0,0,1,235,323v-1.52a79.7,79.7,0,0,1,159.4,0V323A4.46,4.46,0,0,1,389.89,327.45Zm-146-8.92H385.37a70.78,70.78,0,0,0-141.44,0Z"/>
        <path class="cls-3" d="M411.21,327.45H218a4.46,4.46,0,0,1-4.46-4.46v-1.52A98.44,98.44,0,0,1,219,289.05a75.82,75.82,0,0,1,3.91-10,101.35,101.35,0,0,1,46.39-47.89,91.89,91.89,0,0,1,10.87-4.69,101.4,101.4,0,0,1,66.69-.72,82.73,82.73,0,0,1,12.63,5.15,101.2,101.2,0,0,1,46.7,47.67,105.35,105.35,0,0,1,4.21,10.56,100.56,100.56,0,0,1,5.31,32.36V323A4.46,4.46,0,0,1,411.21,327.45Zm-188.7-8.92H406.7A91.16,91.16,0,0,0,401.9,292a93.47,93.47,0,0,0-3.84-9.64,92.35,92.35,0,0,0-42.61-43.46A75.15,75.15,0,0,0,344,234.2a92.08,92.08,0,0,0-60.89.66,82.31,82.31,0,0,0-9.89,4.26A92.36,92.36,0,0,0,231,282.76a68.66,68.66,0,0,0-3.52,9A89.58,89.58,0,0,0,222.51,318.53Z"/>
        <g>
          <rect class="cls-2" x="251.4" y="533.96" width="126.4" height="30.75" rx="6.01"/>
          <path class="cls-3" d="M371.79,569.16H257.41a10.48,10.48,0,0,1-10.47-10.47V540a10.48,10.48,0,0,1,10.47-10.47H371.79A10.47,10.47,0,0,1,382.26,540v18.72A10.47,10.47,0,0,1,371.79,569.16ZM257.41,538.42a1.55,1.55,0,0,0-1.55,1.55v18.72a1.56,1.56,0,0,0,1.55,1.55H371.79a1.55,1.55,0,0,0,1.55-1.55V540a1.54,1.54,0,0,0-1.55-1.55Z"/>
        </g>
        <g>
          <rect class="cls-2" x="251.4" y="564.7" width="126.4" height="31.08" rx="6.04"/>
          <path class="cls-3" d="M371.76,600.24H257.45a10.52,10.52,0,0,1-10.51-10.5v-19a10.52,10.52,0,0,1,10.51-10.51H371.76a10.51,10.51,0,0,1,10.5,10.51v19A10.51,10.51,0,0,1,371.76,600.24ZM257.45,569.16a1.59,1.59,0,0,0-1.59,1.59v19a1.59,1.59,0,0,0,1.59,1.58H371.76a1.58,1.58,0,0,0,1.58-1.58v-19a1.59,1.59,0,0,0-1.58-1.59Z"/>
        </g>
        <path class="cls-3" d="M314.61,633.83a38.1,38.1,0,0,1-38.06-38.05,4.46,4.46,0,0,1,8.92,0,29.13,29.13,0,1,0,58.26,0,4.46,4.46,0,0,1,8.92,0A38.09,38.09,0,0,1,314.61,633.83Z"/>
        <path class="cls-3" d="M503.28,322.15V299.21a14,14,0,0,0-13.95-13.95H450.48A139.89,139.89,0,0,0,437,251.8l27.86-27.22a13.75,13.75,0,0,0,.23-19.42l-31.6-32.35a13.77,13.77,0,0,0-19.43-.22l-27.91,27.26a136.67,136.67,0,0,0-36.26-15.09V150a18.17,18.17,0,0,0-18.1-18.2H295.28A18.18,18.18,0,0,0,277.17,150v35.28a134.9,134.9,0,0,0-34,14.59L216,172.67a15.52,15.52,0,0,0-21.93,0l-29.47,29.47a15.54,15.54,0,0,0,0,21.93l27.69,27.69a137.71,137.71,0,0,0-13.56,33.5h-41a14,14,0,0,0-14,13.95v23.14a.7.7,0,0,0,0,.14c0,.11,0,.23,0,.34a.41.41,0,0,0,0,.16c0,.08,0,.14,0,.22.56,66,35.63,127.93,91.89,162h0c34.87,24.34,35.44,48.47,35.44,48.71a4.46,4.46,0,0,0,4.42,4.47h0A4.47,4.47,0,0,0,260,534c0-1.17-.2-28.82-39.25-56.08,0,0-.1,0-.14-.06l-.11-.1C168,446,134.82,388.84,132.82,327.45H218a4.46,4.46,0,1,0,0-8.92H132.63V299.21a5,5,0,0,1,5-5h43.46c.08,0,.15,0,.23,0a4.65,4.65,0,0,0,.74.08,4.48,4.48,0,0,0,4.34-3.46,128.79,128.79,0,0,1,15.17-37.5,4.4,4.4,0,0,0-1-5.69c-.1-.12-.14-.26-.25-.37l-29.43-29.44a6.58,6.58,0,0,1,0-9.31L200.34,179a6.74,6.74,0,0,1,9.31,0l29.15,29.15a4,4,0,0,0,.34.22,4.4,4.4,0,0,0,3.24,1.58,4.45,4.45,0,0,0,2.41-.71,125.81,125.81,0,0,1,37.9-16.29,4.4,4.4,0,0,0,3.28-5,3.86,3.86,0,0,0,.12-.57V150a9.25,9.25,0,0,1,9.19-9.28h36.48a9.25,9.25,0,0,1,9.18,9.28v36.21a4.92,4.92,0,0,0,.17.85c0,.05-.05.08-.06.13a4.47,4.47,0,0,0,3.36,5.34,127.77,127.77,0,0,1,40,16.64,4.48,4.48,0,0,0,2.38.68,4.39,4.39,0,0,0,3-1.4,4.76,4.76,0,0,0,.79-.5l29.64-29a4.82,4.82,0,0,1,6.81.08l31.6,32.34a4.82,4.82,0,0,1-.09,6.81l-29.75,29.07a3.82,3.82,0,0,0-.49.72,4.4,4.4,0,0,0-.7,5.33,131.81,131.81,0,0,1,15.1,37.45,4.47,4.47,0,0,0,4.34,3.45c.12,0,.25,0,.38-.05h41.86a5,5,0,0,1,5,5v19.32H411.21a4.46,4.46,0,0,0,0,8.92h83c-1.9,63.79-34.72,119.83-88.76,150.7-.07,0-.1.1-.16.14s-.13,0-.19.09c-39,27.38-36.12,55.22-36,56.39a4.43,4.43,0,0,0,4.41,3.9l.51,0a4.47,4.47,0,0,0,3.93-4.91c-.1-1-2.07-24,32.18-48,57.87-33.2,92.55-93.82,93.1-162.47a2.38,2.38,0,0,0,.05-.26,1.08,1.08,0,0,0,0-.19c0-.14,0-.28,0-.42A.85.85,0,0,0,503.28,322.15Z"/>
        <path class="cls-3" d="M161.19,148.58a4.46,4.46,0,0,1-3.31-1.47l-52.39-58a4.46,4.46,0,1,1,6.62-6l52.39,58a4.46,4.46,0,0,1-3.31,7.45Z"/>
        <path class="cls-3" d="M533.26,560.38a4.48,4.48,0,0,1-3.32-1.47l-51.57-57.08a4.46,4.46,0,1,1,6.62-6l51.58,57.08a4.46,4.46,0,0,1-3.31,7.46Z"/>
        <path class="cls-3" d="M487.17,155.38A4.46,4.46,0,0,1,484,147.8l55-56.36a4.46,4.46,0,0,1,6.38,6.24l-55,56.36A4.45,4.45,0,0,1,487.17,155.38Z"/>
        <path class="cls-3" d="M99.83,552a4.45,4.45,0,0,1-3.19-7.57l52.07-53.32a4.47,4.47,0,0,1,6.39,6.24L103,550.61A4.45,4.45,0,0,1,99.83,552Z"/>
        <path class="cls-3" d="M321,79.51a4.46,4.46,0,0,1-4.46-4.46V4.46a4.46,4.46,0,0,1,8.92,0V75.05A4.46,4.46,0,0,1,321,79.51Z"/>
        <path class="cls-3" d="M637.59,325.49H543.93a4.46,4.46,0,1,1,0-8.92h93.66a4.46,4.46,0,0,1,0,8.92Z"/>
        <path class="cls-3" d="M82,325.49H4.46a4.46,4.46,0,0,1,0-8.92H82a4.46,4.46,0,0,1,0,8.92Z"/>
        <path class="cls-3" d="M417.37,104.67a4.55,4.55,0,0,1-1.78-.37,4.46,4.46,0,0,1-2.3-5.87l30.25-69.34a4.46,4.46,0,1,1,8.18,3.58L421.47,102A4.48,4.48,0,0,1,417.37,104.67Z"/>
        <path class="cls-3" d="M233.15,102A4.48,4.48,0,0,1,229,99.2L201,28.05a4.46,4.46,0,1,1,8.3-3.26l28,71.14a4.45,4.45,0,0,1-2.51,5.78A4.5,4.5,0,0,1,233.15,102Z"/>
        <path class="cls-3" d="M537.23,230.68a4.46,4.46,0,0,1-1.8-8.55l73.72-32.33a4.46,4.46,0,0,1,3.58,8.17L539,230.3A4.52,4.52,0,0,1,537.23,230.68Z"/>
        <path class="cls-3" d="M31.12,452.62a4.46,4.46,0,0,1-1.8-8.54L98,413.94a4.46,4.46,0,1,1,3.58,8.17L32.9,452.25A4.51,4.51,0,0,1,31.12,452.62Z"/>
        <path class="cls-3" d="M607.3,460.61a4.49,4.49,0,0,1-1.9-.43L528,423.65a4.46,4.46,0,1,1,3.8-8.06l77.39,36.52a4.46,4.46,0,0,1-1.91,8.5Z"/>
        <path class="cls-3" d="M108.79,225.32a4.49,4.49,0,0,1-1.9-.43l-74-34.95a4.46,4.46,0,0,1,3.81-8.07l74.05,34.95a4.46,4.46,0,0,1-1.91,8.5Z"/>
      </g>
    </g>
  </g>
</svg>
