<svg id="Ñëîé_1" data-name="Ñëîé 1" xmlns="http://www.w3.org/2000/svg" viewBox="0 0 3592.34 2530.83">
  <defs>
    <style>
      .cls-1 {
        fill: #075985;
      }
    </style>
  </defs>
  <g>
    <path class="cls-1" d="M1456.7,2168.87V1830.69c-85.54,9.26-152.12,81.57-152.12,169.31A169.78,169.78,0,0,0,1456.7,2168.87Z" transform="translate(-203.83 -734.59)"/>
    <path class="cls-1" d="M1456.7,1509.71c-260.58,6.17-470.89,220.45-470.89,482.79,0,261.91,210.31,475.75,470.89,482.36V2213c-111.55-10.58-196.21-101.85-196.21-213,0-112,86.42-204.58,196.21-213.4Z" transform="translate(-203.83 -734.59)"/>
    <path class="cls-1" d="M1456.7,1366.85A606,606,0,0,0,1268,1399.48a595.17,595.17,0,0,0-65.69,26c-127.87,60-232.81,162.7-295,289.68a475.27,475.27,0,0,0-31.75,77.6,614.09,614.09,0,0,0-33.07,199.73c0,73.64,12.35,145.51,37.48,213.85,7.49,21.16,16.75,42.32,29.1,67,62.61,125.66,168,228,296.29,287.48,24.69,11,43.65,18.52,61.73,23.81a612.75,612.75,0,0,0,189.59,33.95V2518.51c-285.27-6.17-515-239.85-515-526,0-286.59,229.71-520.27,515-526.44Z" transform="translate(-203.83 -734.59)"/>
    <path class="cls-1" d="M1456.7,3249.1V2662.69a654.34,654.34,0,0,1-203.26-36.16c-19-5.73-39.68-13.66-66.58-25.57-137.56-63.93-250-173.28-317.45-307.75a618.65,618.65,0,0,1-30.87-71.87c-26.89-72.75-40.12-149.91-40.12-228.84a658.69,658.69,0,0,1,35.27-213.4,554.73,554.73,0,0,1,33.95-83.77c67-135.36,179-245.59,316.14-310a680.35,680.35,0,0,1,70.1-27.78,671.34,671.34,0,0,1,202.82-35.27V734.59H1319.14c-47.18,0-85.54,38.36-85.54,86V1087a933.63,933.63,0,0,0-234,94.48L812.84,990.29a84.43,84.43,0,0,0-119.21-1.37L476.69,1200.85a84.42,84.42,0,0,0-1.38,119.2l187.05,191.46a908.77,908.77,0,0,0-105,252.36H318c-63,0-114.19,51-114.19,113.58v244.74c0,62.65,51.22,113.61,114.19,113.61H560.59a894.45,894.45,0,0,0,101.84,237.38L475.78,2659.83a96.11,96.11,0,0,0,0,135.94L673.5,2993.49a96.1,96.1,0,0,0,135.93,0l189.94-189.94a916.34,916.34,0,0,0,234.23,94.81v281.08c0,47.18,38.36,86,85.54,86h138a8.58,8.58,0,0,1-.44-3.52Z" transform="translate(-203.83 -734.59)"/>
    <path class="cls-1" d="M2499.45,1127a22.39,22.39,0,0,0,17.2,8.37h433.86c10.58,74.52,74.95,132.28,152.55,132.28,85.1,0,154.76-69.22,154.76-154.32s-69.66-154.76-154.76-154.76c-77.6,0-142,57.76-152.55,132.71H2527.23L2250.34,743a22.38,22.38,0,0,0-17.2-8.37H1500.79v44.09h721.77Z" transform="translate(-203.83 -734.59)"/>
    <path class="cls-1" d="M2321.32,1410.5a21.19,21.19,0,0,0,16.32,7.5H3488.86c10.58,74.51,74.95,132.27,152.55,132.27,85.54,0,154.76-69.22,154.76-154.32s-69.22-154.32-154.76-154.32c-77.6,0-142,57.76-152.55,132.28H2347.78l-294.53-337.74a22.78,22.78,0,0,0-16.75-7.5H1500.79v44.09h525.57Z" transform="translate(-203.83 -734.59)"/>
    <path class="cls-1" d="M1999.9,1706.35a21.52,21.52,0,0,0,17.64,9.26h409.6c10.59,74.52,75,132.28,152.56,132.28,85.54,0,154.76-69.23,154.76-154.32s-69.22-154.76-154.76-154.76c-77.6,0-142,57.76-152.56,132.71H2028.56l-250.88-339.94a21.54,21.54,0,0,0-17.63-9.26H1500.79v44.09H1749Z" transform="translate(-203.83 -734.59)"/>
    <path class="cls-1" d="M1776.8,2652.55l250.88-351h399.46c10.59,74.52,75,132.72,152.56,132.72,85.54,0,154.76-69.67,154.76-154.76s-69.22-154.32-154.76-154.32c-77.6,0-142,57.76-152.56,132.27H2016.22a21.54,21.54,0,0,0-17.64,9.26l-250.88,351H1500.79v44.09h257.93A21.75,21.75,0,0,0,1776.8,2652.55Z" transform="translate(-203.83 -734.59)"/>
    <path class="cls-1" d="M3641.41,2432.09c-77.6,0-142,57.76-152.55,132.28h-1149c-6.17,0-12.34,3.08-16.75,7.93L2026.8,2920.62h-526v44.09h536.15a22.77,22.77,0,0,0,16.75-7.49l296.74-348.76H3488.86c10.58,74.95,74.95,132.71,152.55,132.71a154.67,154.67,0,0,0,154.76-154.76C3796.17,2501.32,3727,2432.09,3641.41,2432.09Z" transform="translate(-203.83 -734.59)"/>
    <path class="cls-1" d="M3103.06,2720.89c-77.6,0-142,57.76-152.55,132.71h-437a21.73,21.73,0,0,0-17.19,8.38l-278.22,359.34H1500.79v40.57a8.58,8.58,0,0,1-.44,3.52h728.38a22.34,22.34,0,0,0,17.64-8.81l278.22-358.91h425.92c10.58,74.52,74.95,132.28,152.55,132.28,85.1,0,154.76-69.23,154.76-154.32C3257.82,2790.11,3188.16,2720.89,3103.06,2720.89Z" transform="translate(-203.83 -734.59)"/>
    <path class="cls-1" d="M3641.41,1845.24c-77.6,0-142,57.76-152.55,132.72H1500.79v44.09H3488.86c10.58,74.51,74.95,132.27,152.55,132.27,85.54,0,154.76-69.22,154.76-154.32A154.67,154.67,0,0,0,3641.41,1845.24Z" transform="translate(-203.83 -734.59)"/>
  </g>
</svg>
