<?xml version="1.0" encoding="utf-8"?>
<!-- Generator: Adobe Illustrator 28.1.0, SVG Export Plug-In . SVG Version: 6.00 Build 0)  -->
<svg version="1.1" id="Layer_1" xmlns="http://www.w3.org/2000/svg" xmlns:xlink="http://www.w3.org/1999/xlink" x="0px" y="0px"
	 viewBox="0 0 720 720" style="enable-background:new 0 0 720 720;" xml:space="preserve">
<style type="text/css">
	.st0{fill:#0F73BA;}
	.st1{fill:#EC2226;}
	.st2{fill:#1174BA;}
	.st3{fill:#EC2327;}
	.st4{fill:#0E73B9;}
	.st5{fill:#25B575;}
</style>
<path class="st0" d="M371.718689,1289.692505 
	C379.051056,1289.69519 386.38385,1289.747192 393.715698,1289.686768 
	C400.885986,1289.627563 408.055328,1289.453735 415.694824,1289.322021 
	C415.694824,1279.750488 415.694824,1271.441284 415.694824,1263.13208 
	C415.694824,1254.800049 415.694824,1246.467896 415.694824,1238.135864 
	C415.694824,1229.803833 415.465363,1221.463501 415.760132,1213.141968 
	C416.048279,1205.008179 414.430023,1196.71582 417.168243,1187.756958 
	C426.090485,1188.472778 434.704437,1188.744507 443.181702,1189.96521 
	C451.191681,1191.118652 456.282623,1196.354614 457.997955,1204.226929 
	C459.191803,1209.705933 459.983551,1215.345703 460.225433,1220.945068 
	C460.91391,1236.880981 460.961304,1252.847534 461.81601,1268.772095 
	C462.182312,1275.596558 463.922302,1282.347534 465.039673,1289.141113 
	C481.873322,1289.141113 497.39093,1289.141113 512.939514,1289.141113 
	C513.216553,1287.652954 513.610291,1286.682495 513.539124,1285.747559 
	C512.50769,1272.202637 511.162292,1258.676392 510.414246,1245.116699 
	C509.809448,1234.153076 510.341949,1223.120117 509.577942,1212.173218 
	C508.692139,1199.480957 506.108093,1187.090576 497.92392,1176.737549 
	C495.298737,1173.416504 492.171051,1170.492798 489.597076,1167.734375 
	C493.406464,1163.72876 497.067719,1160.323364 500.212036,1156.49353 
	C511.653778,1142.557251 514.331787,1126.067383 513.695496,1108.678955 
	C512.195618,1067.694458 485.958313,1046.36438 450.711731,1045.743042 
	C425.390137,1045.296631 400.05426,1045.638794 374.724884,1045.683472 
	C372.176361,1045.687988 369.62851,1046.068481 366.305267,1046.337158 
	C366.305267,1049.883057 366.305298,1052.815918 366.305298,1055.748657 
	C366.305267,1130.403931 366.30365,1205.059204 366.312378,1279.714478 
	C366.312653,1282.043335 366.052124,1284.467651 366.62262,1286.663086 
	C366.932526,1287.855835 368.739807,1288.659546 371.718689,1289.692505 
z"/>
<path class="st1" d="M711.207336,1115.987549 
	C708.768555,1107.032593 706.924316,1097.862061 703.772156,1089.165649 
	C696.297607,1068.544922 683.422974,1052.63147 661.950256,1045.276123 
	C647.110413,1040.192871 631.778809,1040.447144 616.624207,1043.110596 
	C609.903625,1044.291748 603.224548,1047.015503 597.126953,1050.19165 
	C577.836609,1060.23938 568.017151,1077.670166 561.77832,1097.595337 
	C552.579163,1126.974731 553.059326,1157.226074 554.02948,1187.470215 
	C554.594849,1205.094116 557.068542,1222.519409 562.416016,1239.370605 
	C567.517456,1255.446655 574.878906,1270.422363 589.105957,1280.421265 
	C606.21344,1292.44458 625.360107,1295.149658 646.017456,1292.564453 
	C673.495544,1289.125977 691.69696,1274.6521 702.26178,1249.553711 
	C709.30603,1232.819092 712.510193,1215.181763 713.537842,1197.279297 
	C715.061584,1170.734741 715.497925,1144.134277 711.207336,1115.987549 
z"/>
<path class="st2" d="M903.619141,1083.550171 
	C895.590637,1065.888062 883.547913,1052.454346 864.833984,1045.568604 
	C853.5896,1041.431274 842.0271,1041.316406 830.395325,1041.706909 
	C806.398621,1042.512207 787.710266,1053.058594 774.67395,1073.218872 
	C767.183777,1084.802246 763.095398,1097.786255 760.212402,1111.180542 
	C754.776184,1136.436157 755.070129,1162.028809 756.069824,1187.609253 
	C756.876282,1208.245239 759.892395,1228.548218 767.525513,1247.947754 
	C776.074585,1269.675049 790.468872,1285.194458 813.697266,1291.007935 
	C828.410034,1294.690186 843.255981,1294.493286 858.014648,1290.864136 
	C877.216553,1286.14209 891.878174,1275.198853 900.296448,1257.358521 
	C905.209473,1246.946777 909.019043,1235.781372 911.626038,1224.560425 
	C918.081299,1196.775024 916.876953,1168.40625 915.849792,1140.184326 
	C915.158752,1121.196167 911.649292,1102.614258 903.619141,1083.550171 
z"/>
<path class="st3" d="M1409.144653,1070.036011 
	C1392.284302,1142.956909 1375.42395,1215.877808 1358.356812,1289.693237 
	C1367.809692,1289.693237 1376.100708,1289.718628 1384.391479,1289.685913 
	C1392.564697,1289.653809 1400.737793,1289.562988 1408.791504,1289.498779 
	C1412.9646,1268.733154 1416.858398,1249.357544 1420.66272,1230.427002 
	C1437.643799,1230.427002 1453.465576,1230.427002 1469.113159,1230.427002 
	C1473.18689,1250.554077 1477.112183,1269.94812 1481.022583,1289.268677 
	C1498.823608,1289.268677 1515.699463,1289.268677 1533.351196,1289.268677 
	C1514.25769,1207.746216 1495.299438,1126.801025 1476.391846,1046.072021 
	C1455.160278,1046.072021 1435.261597,1046.072021 1414.802002,1046.072021 
	C1413.04187,1053.70105 1411.341675,1061.06958 1409.144653,1070.036011 
z"/>
<path class="st4" d="M1586.896362,1199.770752 
	C1574.917358,1225.351685 1562.922241,1250.925293 1550.975708,1276.521484 
	C1549.095459,1280.549927 1547.436646,1284.681519 1545.421509,1289.354492 
	C1563.94397,1289.354492 1580.869751,1289.354492 1598.47522,1289.354492 
	C1609.265381,1263.08606 1620.039062,1236.857788 1631.605225,1208.700073 
	C1643.012085,1236.808716 1653.69812,1263.141113 1664.244873,1289.130371 
	C1683.24939,1289.130371 1701.395752,1289.130371 1720.389404,1289.130371 
	C1719.667969,1286.878662 1719.335693,1285.320557 1718.690552,1283.904785 
	C1701.058472,1245.204834 1683.593262,1206.426025 1665.528076,1167.928955 
	C1662.725708,1161.957153 1663.351074,1157.6698 1666.02124,1152.28479 
	C1679.611694,1124.87854 1692.956909,1097.350342 1706.302002,1069.82312 
	C1709.998047,1062.199097 1713.399658,1054.432251 1717.157959,1046.248535 
	C1698.584595,1046.248535 1681.401001,1046.248535 1664.103394,1046.248535 
	C1654.346558,1069.599365 1644.780518,1092.493652 1634.445312,1117.228638 
	C1623.88855,1092.325928 1613.987305,1068.969727 1604.329468,1046.1875 
	C1584.979736,1046.1875 1566.815674,1046.1875 1547.982422,1046.1875 
	C1548.644409,1048.063965 1548.959839,1049.302368 1549.498291,1050.434692 
	C1566.200195,1085.557007 1582.742065,1120.75769 1599.809937,1155.701538 
	C1602.931519,1162.092285 1603.029419,1167.199951 1599.72644,1173.295288 
	C1595.298584,1181.466797 1591.593018,1190.029663 1586.896362,1199.770752 
z"/>
<path class="st0" d="M1023.000000,1045.668213 
	C1003.461243,1045.668213 983.922546,1045.668213 964.550964,1045.668213 
	C962.42627,1064.810913 963.260925,1282.166748 965.283508,1288.952637 
	C980.832214,1288.952637 996.313049,1288.952637 1012.322693,1288.952637 
	C1012.322693,1276.911133 1012.322693,1265.596191 1012.322693,1254.28125 
	C1012.322693,1242.948242 1012.206299,1231.61377 1012.355774,1220.282837 
	C1012.502991,1209.123047 1011.679382,1197.902344 1012.980286,1186.045654 
	C1038.266968,1186.045654 1062.484253,1186.045654 1087.179688,1186.045654 
	C1087.179688,1171.753296 1087.179688,1158.267822 1087.179688,1143.620605 
	C1062.26355,1143.620605 1037.799316,1143.620605 1013.076355,1143.620605 
	C1013.076355,1125.040649 1013.076355,1107.631348 1013.076355,1089.379272 
	C1039.698853,1089.379272 1065.579712,1089.379272 1091.602539,1089.379272 
	C1091.602539,1074.410522 1091.602539,1060.308472 1091.602539,1045.668091 
	C1068.924683,1045.668091 1046.96228,1045.668091 1023.000000,1045.668213 
z"/>
<path class="st1" d="M1262.693848,983.752747 
	C1259.847046,986.776978 1257.000244,989.801208 1254.022949,992.963989 
	C1255.368042,993.682312 1255.888794,994.20282 1256.411743,994.204834 
	C1276.053223,994.279663 1295.696045,994.199463 1315.335449,994.42688 
	C1319.494141,994.475037 1322.12085,992.63269 1324.741089,989.871094 
	C1333.665894,980.464722 1342.649658,971.112427 1351.722168,961.848328 
	C1371.046143,942.115784 1390.446167,922.457642 1409.793823,902.748108 
	C1411.417358,901.094177 1412.773438,899.172363 1414.435181,897.562256 
	C1425.867554,886.484497 1437.348022,875.456482 1449.205566,864.034302 
	C1464.898071,878.063354 1480.874146,892.345825 1497.611694,907.309143 
	C1508.994141,895.028992 1519.748779,883.426208 1530.86377,871.43457 
	C1503.24646,842.159058 1476.153198,813.439209 1447.041504,782.57959 
	C1445.485474,785.282471 1444.507324,787.950012 1442.737305,789.897583 
	C1431.565674,802.189514 1420.260132,814.360779 1408.919312,826.497498 
	C1393.264282,843.250977 1377.492432,859.895203 1361.85498,876.664917 
	C1340.329224,899.749634 1318.860107,922.88739 1297.410522,946.042847 
	C1286.12439,958.226624 1274.93103,970.496399 1262.693848,983.752747 
z"/>
<path class="st5" d="M1101.694702,968.698975 
	C1093.796509,977.40979 1085.898315,986.120605 1076.627319,996.345459 
	C1092.491211,996.345459 1105.999146,996.730286 1119.476685,996.25647 
	C1140.370361,995.521851 1156.520508,985.801392 1169.808594,969.797607 
	C1184.230469,952.428162 1199.486206,935.738403 1214.679932,919.026611 
	C1226.307861,906.236816 1238.222412,893.693481 1250.364258,881.390625 
	C1257.281738,874.381592 1263.332886,866.184021 1273.468018,861.864441 
	C1289.12146,876.04718 1304.79126,890.24469 1320.695679,904.654785 
	C1331.252563,893.031616 1341.270508,882.001953 1351.922852,870.273682 
	C1325.247192,842.210693 1298.761719,814.347839 1272.39978,786.614807 
	C1270.995361,787.55365 1270.383301,787.817627 1269.964722,788.263428 
	C1248.802124,810.80127 1227.632935,833.332947 1206.516235,855.913757 
	C1192.894165,870.480347 1179.345337,885.115479 1165.775269,899.730469 
	C1144.744995,922.380066 1123.724365,945.038696 1101.694702,968.698975 
z"/>
</svg>
