<svg id="Layer_1" data-name="Layer 1" xmlns="http://www.w3.org/2000/svg" viewBox="0 0 251.04 97.28">
  <defs>
    <style>
      .cls-1, .cls-3 {
        fill: #075985;
      }

      .cls-1 {
        stroke: #075985;
      }

      .cls-1, .cls-2 {
        stroke-miterlimit: 10;
        stroke-width: 1.06px;
      }

      .cls-2, .cls-4 {
        fill: #ef4444;
      }

      .cls-2 {
        stroke: #ef4444;
      }

      .cls-5 {
        fill: #24b574;
      }
    </style>
  </defs>
  <g>
    <path class="cls-1" d="M256.48,339.77v16h-6.69V318.21H261.3c6.83,0,10.71,3.56,10.71,10.27,0,5.44-2.91,7.78-4.87,8.56,2.91,1.36,4.29,3.84,4.29,9.39v1.5a43.47,43.47,0,0,0,.51,7.87h-6.51c-.55-1.72-.65-4.7-.65-7.94v-1.37c0-5-1.15-6.72-5.4-6.72Zm0-5.45h3.16c4.06,0,5.65-1.75,5.65-5.55,0-3.24-1.55-5.11-5-5.11h-3.82Z" transform="translate(-249.26 -274.3)"/>
    <path class="cls-1" d="M303.63,336.72c0,13.75-3.74,19.73-12.4,19.73-8.09,0-12-5.9-12-19.81,0-13.56,4.59-19,12.35-19C299.73,317.61,303.63,323.67,303.63,336.72Zm-17.54-.14c0,8.92,1.35,14.22,5.3,14.22,4.15,0,5.34-4.91,5.34-14.21,0-8.73-1.26-13.28-5.35-13.28S286.09,328.2,286.09,336.58Z" transform="translate(-249.26 -274.3)"/>
    <path class="cls-1" d="M335.41,336.72c0,13.75-3.74,19.73-12.4,19.73-8.09,0-12-5.9-12-19.81,0-13.56,4.59-19,12.35-19C331.51,317.61,335.41,323.67,335.41,336.72Zm-17.54-.14c0,8.92,1.35,14.22,5.3,14.22,4.15,0,5.34-4.91,5.34-14.21,0-8.73-1.26-13.28-5.35-13.28S317.87,328.2,317.87,336.58Z" transform="translate(-249.26 -274.3)"/>
    <path class="cls-1" d="M344,318.21h19.33v5.89H350.7v9.67h11.9v5.79H350.7V355.8H344Z" transform="translate(-249.26 -274.3)"/>
    <path class="cls-2" d="M394.12,341.82c0-6.42.11-13.75.22-18h-.15c-1.3,7.14-3.38,19.82-5.84,32h-6.08c-1.82-11.34-4-24.83-5.19-32.1h-.21c.22,4.39.39,12.27.39,18.76V355.8h-6.15V318.21h10.06c2,10.39,3.69,20.88,4.45,26.37h.06c.76-5.1,3.12-16.43,5.08-26.37h9.82V355.8h-6.46v-14Z" transform="translate(-249.26 -274.3)"/>
    <path class="cls-2" d="M416,346.34l-1.87,9.46H407.4l8.7-37.59h8.74l8.8,37.59h-7.06l-1.87-9.46Zm7.5-5.84c-1.4-7.19-2.52-12.45-3.12-16h-.16c-.46,3.46-1.65,9.11-3,16Z" transform="translate(-249.26 -274.3)"/>
    <path class="cls-2" d="M454.92,355.8,449.36,342h-.06l-5.66,13.83h-7.1l9-19.23-8.73-18.36h7.66l5.24,12.49.05-.05L455,318.2h7.11l-8.61,17.69,9.1,19.9h-7.64Z" transform="translate(-249.26 -274.3)"/>
  </g>
  <g>
    <path class="cls-3" d="M426.63,312h-10l-.45-.65,35.27-37,48.86,51.61c-.12.29-.23.58-.35.86H485.78v44.81H450.64v-6.5h26V319.82l7.71-.34-32.11-32.93Z" transform="translate(-249.26 -274.3)"/>
    <path class="cls-2" d="M397,313.32" transform="translate(-249.26 -274.3)"/>
    <path class="cls-4" d="M421,288.56l-20.45,21.05H390.06l31-33.23L434,290.08l-5.13,5.56Z" transform="translate(-249.26 -274.3)"/>
    <path class="cls-5" d="M393,276.69l12.56,13.2-4.81,5.31-7.6-6.94a25.61,25.61,0,0,0-2.24,1.87c-4.8,5.12-9.93,10-14.24,15.5-3.82,4.87-8.52,4.49-14.46,4.17Z" transform="translate(-249.26 -274.3)"/>
    <path class="cls-2" d="M465,350.61" transform="translate(-249.26 -274.3)"/>
    <path class="cls-2" d="M440.35,371" transform="translate(-249.26 -274.3)"/>
  </g>
</svg>
