<?xml version="1.0" encoding="utf-8"?>
<!-- Generator: Adobe Illustrator 28.1.0, SVG Export Plug-In . SVG Version: 6.00 Build 0)  -->
<svg version="1.1" id="Layer_1" xmlns="http://www.w3.org/2000/svg" xmlns:xlink="http://www.w3.org/1999/xlink" x="0px" y="0px"
	 viewBox="0 0 720 720" style="enable-background:new 0 0 720 720;" xml:space="preserve">
<style type="text/css">
	.st0{fill:#FFFFFF;stroke:#FFFFFF;stroke-width:1.0582;stroke-miterlimit:10;}
	.st1{fill:#ED2224;stroke:#ED2224;stroke-width:1.0582;stroke-miterlimit:10;}
	.st2{fill:#FFFFFF;}
	.st3{fill:#ED2224;}
	.st4{fill:#24B574;}
</style>
<g>
	<g>
		<path class="st0" d="M256.48,339.77v16.03h-6.69v-37.59h11.51c6.83,0,10.71,3.56,10.71,10.27c0,5.44-2.91,7.78-4.87,8.56
			c2.91,1.36,4.29,3.84,4.29,9.39v1.5c0,4.27,0.2,5.87,0.51,7.87h-6.51c-0.55-1.72-0.65-4.7-0.65-7.94v-1.37
			c0-5.02-1.15-6.72-5.4-6.72H256.48z M256.48,334.32h3.16c4.06,0,5.65-1.75,5.65-5.55c0-3.24-1.55-5.11-4.99-5.11h-3.82V334.32z"/>
		<path class="st0" d="M303.63,336.72c0,13.75-3.74,19.73-12.4,19.73c-8.09,0-12.04-5.9-12.04-19.81c0-13.56,4.59-19.03,12.35-19.03
			C299.73,317.61,303.63,323.67,303.63,336.72z M286.09,336.58c0,8.92,1.35,14.22,5.3,14.22c4.15,0,5.34-4.91,5.34-14.21
			c0-8.73-1.26-13.28-5.35-13.28C287.36,323.31,286.09,328.2,286.09,336.58z"/>
		<path class="st0" d="M335.41,336.72c0,13.75-3.74,19.73-12.4,19.73c-8.09,0-12.04-5.9-12.04-19.81c0-13.56,4.59-19.03,12.35-19.03
			C331.51,317.61,335.41,323.67,335.41,336.72z M317.87,336.58c0,8.92,1.35,14.22,5.3,14.22c4.15,0,5.34-4.91,5.34-14.21
			c0-8.73-1.26-13.28-5.35-13.28C319.14,323.31,317.87,328.2,317.87,336.58z"/>
		<path class="st0" d="M344.01,318.21h19.33v5.89H350.7v9.67h11.9v5.79h-11.9v16.24h-6.69V318.21z"/>
		<path class="st1" d="M394.12,341.82c0-6.42,0.11-13.75,0.22-18.01h-0.15c-1.3,7.14-3.38,19.82-5.84,31.99h-6.08
			c-1.82-11.34-3.98-24.83-5.19-32.1h-0.21c0.22,4.39,0.39,12.27,0.39,18.76v13.34h-6.15v-37.59h10.06
			c1.97,10.39,3.69,20.88,4.45,26.37h0.06c0.76-5.1,3.12-16.43,5.08-26.37h9.82v37.59h-6.46V341.82z"/>
		<path class="st1" d="M416.01,346.34l-1.87,9.46h-6.74l8.7-37.59h8.74l8.8,37.59h-7.06l-1.87-9.46H416.01z M423.51,340.5
			c-1.4-7.19-2.52-12.45-3.12-16.04h-0.16c-0.46,3.46-1.65,9.11-3.03,16.04H423.51z"/>
		<path class="st1" d="M454.92,355.8l-5.56-13.83h-0.06l-5.66,13.83h-7.1l9.03-19.23l-8.73-18.36h7.66l5.24,12.49l0.05-0.05
			l5.17-12.45h7.11l-8.61,17.69l9.1,19.9H454.92z"/>
	</g>
</g>
<g>
	<g>
		<g>
			<path class="st2" d="M426.63,311.99c-4.11,0-7.06,0-10.01,0c-0.15-0.22-0.3-0.43-0.45-0.65c11.67-12.26,23.34-24.52,35.27-37.04
				c16.49,17.41,32.67,34.51,48.86,51.61c-0.12,0.29-0.23,0.58-0.35,0.86c-4.54,0-9.07,0-14.17,0c0,15.17,0,29.85,0,44.81
				c-12.01,0-23.45,0-35.14,0c0-2.12,0-4.01,0-6.5c8.56,0,17.01,0,25.97,0c0-15.37,0-30.17,0-45.26c2.64-0.12,4.77-0.21,7.71-0.34
				c-11.07-11.35-21.7-22.26-32.11-32.93C443.47,295.25,434.93,303.74,426.63,311.99z"/>
		</g>
		<path class="st1" d="M396.95,313.32"/>
		<g>
			<path class="st3" d="M420.97,288.56c-6.94,7.14-13.67,14.07-20.45,21.05c-3.22,0-6.38,0-10.46,0
				c10.55-11.32,20.55-22.06,30.96-33.23c4.36,4.62,8.5,9,12.94,13.7c-1.76,1.91-3.35,3.63-5.13,5.56
				C426.09,293.17,423.65,290.97,420.97,288.56z"/>
		</g>
		<path class="st4" d="M392.97,276.69c4.42,4.64,8.36,8.78,12.56,13.2c-1.69,1.87-3.13,3.45-4.81,5.31c-2.63-2.4-5.04-4.6-7.6-6.94
			c-0.88,0.73-1.64,1.23-2.24,1.87c-4.8,5.12-9.93,10-14.24,15.5c-3.82,4.87-8.52,4.49-14.46,4.17
			C372.64,298.55,382.59,287.85,392.97,276.69z"/>
		<path class="st1" d="M465.02,350.61"/>
		<path class="st1" d="M440.35,371.02"/>
	</g>
</g>
</svg>
